<?xml version="1.0" standalone="no"?>
<!DOCTYPE svg PUBLIC "-//W3C//DTD SVG 1.1//EN" "http://www.w3.org/Graphics/SVG/1.1/DTD/svg11.dtd" >
<svg xmlns="http://www.w3.org/2000/svg" xmlns:xlink="http://www.w3.org/1999/xlink" version="1.1">
<metadata></metadata>
<defs>
<font id="kjv1611regular" horiz-adv-x="1030" >
<font-face units-per-em="2048" ascent="1696" descent="-352" />
<missing-glyph horiz-adv-x="483" />
<glyph unicode="&#xfb01;" horiz-adv-x="1134" d="M31 977v190h112v232q0 68 57.5 132.5t136.5 103.5t161 58t131 7q8 -2 33.5 -22t56.5 -42.5t90 -43t127 -25.5l-4 -19q-4 -18 -6.5 -25t-9 -25.5t-13.5 -29.5t-19.5 -25t-27.5 -24q-68 -46 -131 -51q-52 -3 -98.5 16.5t-73 44t-55 45.5t-49.5 21q-17 0 -29 -11t-12 -28 v-289h332l122 154q80 -53 111 -90l76 -96q-12 -62 -28.5 -157t-40.5 -275t-15 -224t41.5 -88.5t61.5 -66.5l28 -23l-160 -295q-4 2 -11.5 6.5t-28 18.5t-38 28t-36.5 34t-29 38q-22 42 -44 125q-118 -85 -151 -129l-117 -143q-133 52 -184 79q-23 12 -74.5 28t-92.5 26 l-40 10q3 16 2.5 33t3 35t15.5 49q8 24 32 53v680h-112zM408 320l174 -39l145 94q-5 42 -2 67q14 137 38 535h-355v-657zM930 1395q-25 15 41 110q32 45 49 59.5t31 16.5q39 4 57 -14q21 -21 -53 -103q-65 -80 -99 -80q-6 0 -12.5 3t-9.5 5z" />
<glyph unicode="&#xfb02;" horiz-adv-x="1134" d="M57 1008l97 262h26v112v4q25 82 123 138h2v2q22 17 55.5 43t104.5 69.5t102 44.5q51 2 271 -96q13 9 125 88q5 -2 10.5 -3.5t7.5 -2.5v-1153v-53q-1 -31 -7 -69.5t-5.5 -58.5t12.5 -36q11 -14 28.5 -22t32.5 -5q22 4 43 35q4 -52 -12 -110q-8 -24 -14 -39t-19.5 -41 t-34 -46t-47.5 -34q-87 -39 -145 -12q-39 17 -61 51.5t-27 70.5q-4 32 -4 89q0 35 4 59v2v704l-270 5v-785q42 -20 106 -59q-73 -84 -117 -119q-41 -32 -112 -63q-42 82 -96 129q-67 58 -173 100l3 27q85 28 114 34v738h-119h-4zM455 1270h270v121q-181 73 -221 82 q-19 6 -34 -7.5t-15 -33.5v-162z" />
<glyph horiz-adv-x="0" />
<glyph horiz-adv-x="682" />
<glyph unicode=" "  horiz-adv-x="483" />
<glyph unicode="&#x09;" horiz-adv-x="483" />
<glyph unicode="&#xa0;" horiz-adv-x="483" />
<glyph unicode="!" horiz-adv-x="696" d="M61 1696h574l-254 -969l-80 -2zM96 246l250 252l250 -252l-250 -250z" />
<glyph unicode="&#x22;" horiz-adv-x="1001" d="M172 1024q-49 59 123 378q57 105 95 161t57 71t39 16q35 1 71 -17.5t48 -46.5q38 -65 -145 -345q-68 -109 -116.5 -167.5t-71 -71t-43.5 -10.5q-13 1 -27.5 9t-21.5 15zM655 1018q-49 59 123 378q57 105 95 161t57 71t39 16q35 1 71 -17.5t48 -46.5q38 -65 -145 -345 q-68 -109 -116.5 -167.5t-71 -71t-43.5 -10.5q-13 1 -27.5 9t-22.5 15z" />
<glyph unicode="#" horiz-adv-x="1384" d="M6 555h225l-170 -481l175 -62l190 543h304l-169 -481l174 -62l191 543h288v184h-223l114 324h279v184h-214l124 355l-174 61l-146 -416h-304l125 355l-174 61l-147 -416h-298v-184h233l-113 -324h-290v-184zM491 739l114 324h304l-114 -324h-304z" />
<glyph unicode="$" horiz-adv-x="1052" d="M63 215l170 244q151 -11 256 -53v339l-344 234l2 412q75 15 178 77.5t164 133.5v63h78v-72q149 -56 259 -56q47 0 88 3.5t58 7.5l17 4l-164 -270q-148 1 -237 33q-7 3 -21 7v-313l338 -216l4 -465q-166 -51 -342 -181v-110h-78v102q-24 15 -51 28.5t-70.5 28.5 t-87.5 23.5t-102 8.5t-115 -13zM420 1364l2 -262l67 -43v288zM567 377l72 -27v293l-72 49v-315z" />
<glyph unicode="%" horiz-adv-x="1585" d="M19 862v40q21 0 35 13t14 35v539q202 55 309 223q19 -24 44 -50t65 -61t92.5 -61t105.5 -34v-609q-4 -1 -21 -7.5t-22.5 -8.5t-22.5 -9t-26 -10.5t-27 -11.5t-30.5 -14.5t-32.5 -16.5t-38.5 -20.5t-41.5 -23.5t-47 -28q-9 9 -20.5 19t-47 32.5t-73 37.5t-96 24t-119.5 2z M61 0h127l1303 1608h-117zM280 1012q39 -8 75.5 -20.5t55.5 -21t42.5 -20.5t28.5 -14v435l-156 133l-46 -32v-460zM834 115v39q21 0 35 13.5t14 35.5v538q202 55 309 223q19 -24 44 -50t65 -60.5t92.5 -60.5t105.5 -34v-610q-4 -2 -26 -10t-29 -10.5t-29 -11.5t-35 -15 t-37.5 -17.5t-45 -23t-49 -27.5t-58.5 -34q-9 9 -20.5 19t-47 32.5t-73 37.5t-96 24t-119.5 2zM1095 264q39 -8 75.5 -20.5t55.5 -21t42.5 -20.5t28.5 -14v436l-156 132l-46 -32v-460z" />
<glyph unicode="&#x26;" horiz-adv-x="1095" d="M82 609.5q-5 98.5 11 229.5t59 257q164 69 278 217q12 -12 26 -23t49.5 -36t77 -41t94 -29.5t117 -9.5t130.5 26q22 0 46.5 -24t16.5 -58l-3 -1q-115 -40 -178 -141q-21 -34 -34 -73q-5 -21 -7 -34q145 -17 277 -74q-26 -34 -78 -101.5t-77 -101.5q-59 40 -140 62 q-6 -148 4 -258t42 -124q24 -11 60 7t57 38t28 29l39 -39l-258 -295q-88 -6 -165 32t-116 99q-14 276 26 517q-133 -34 -233 -136q24 -226 107 -399q105 -221 297 -383h-146q-62 44 -131 119q-96 107 -172 289q-22 53 -39.5 107t-38.5 154t-26 198.5zM222 732 q96 101 285 132q7 25 28 94q-14 12 -34 24t-58.5 27t-91.5 11t-107 -31q-20 -120 -22 -257z" />
<glyph unicode="'" horiz-adv-x="608" d="M172 1024q-49 59 123 378q57 105 95 161t57 71t39 16q35 1 71 -17.5t48 -46.5q38 -65 -145 -345q-68 -109 -116.5 -167.5t-71 -71t-43.5 -10.5q-13 1 -27.5 9t-21.5 15z" />
<glyph unicode="(" horiz-adv-x="741" d="M29.5 571.5q-1.5 144.5 35.5 288t109.5 267.5t189 229.5t265.5 173.5l65 -144q-168 -77 -285 -208.5t-170 -284.5t-50.5 -325t60 -329.5t177 -297t285.5 -228.5l-76 -139q-145 78 -260 190.5t-189.5 241.5t-114.5 275t-41.5 290.5z" />
<glyph unicode=")" horiz-adv-x="733" d="M18 -287l76 -139q145 78 260 190.5t189.5 241.5t114.5 275t41.5 290.5t-35.5 288t-109.5 267.5t-189 229.5t-265.5 173.5l-65 -144q167 -76 284.5 -207.5t171 -284.5t51.5 -325t-59.5 -329.5t-177.5 -297.5t-287 -229z" />
<glyph unicode="*" horiz-adv-x="1069" d="M68 1383l81 166l239 -118l-42 242l181 32l43 -245l188 196l133 -128l-225 -234l292 -143l-82 -164l-243 119l45 -258l-181 -32l-45 255l-185 -192l-132 127l224 234z" />
<glyph unicode="+" horiz-adv-x="993" d="M63 803v186h357v324h184v-324h330v-186h-330v-363h-184v363h-357z" />
<glyph unicode="," horiz-adv-x="538" d="M37 250q49 22 96 63q45 35 74 84q84 -10 145 -51q6 -4 17 -12.5t32 -29.5t39 -46t34 -63t22 -78q26 -186 -166 -355q-111 -94 -277 -114q0 5 -2 16.5t-2 16.5q77 37 135 100q24 26 38 43.5t35 49t31.5 65.5t10.5 71q0 114 -68 162q-34 24 -77 26.5t-66 -4.5t-31 -12 q-17 58 -20 68z" />
<glyph unicode="-" horiz-adv-x="1122" d="M227 573q0 28 15.5 49.5t54.5 49.5q131 94 278 84q215 -14 263 -74q23 -28 35.5 -94.5t-1 -133.5t-59.5 -83q-47 -16 -149 59q-50 21 -92 27.5t-72 3t-57.5 -8t-60 -4t-67.5 12.5q-88 30 -88 112z" />
<glyph unicode="." horiz-adv-x="573" d="M35 246l250 252l250 -252l-250 -250z" />
<glyph unicode="/" horiz-adv-x="804" d="M29 74l88 -31l86 -31l561 1590l-88 30l-86 31z" />
<glyph unicode="0" horiz-adv-x="1009" d="M44 664q0 127 64 235.5t171 171t230 62.5q91 0 176.5 -37t148.5 -100t101 -150t38 -182q0 -128 -64 -236.5t-171 -171t-229 -62.5q-123 0 -230 62.5t-171 171t-64 236.5zM194 664q0 -125 88.5 -212.5t211.5 -87.5q122 0 208.5 87.5t86.5 212.5q0 124 -86.5 212.5 t-208.5 88.5t-211 -88.5t-89 -212.5z" />
<glyph unicode="1" horiz-adv-x="587" d="M37 77q0 -30 42 -30h433q41 0 41 31q0 20 -18.5 39t-40.5 35t-40.5 49t-18.5 77v702q0 44 18.5 77t40.5 49t40.5 35t18.5 39q0 30 -41 30l-433 1q-42 0 -42 -30q0 -16 12.5 -31t29.5 -28.5t34.5 -30.5t30 -45.5t12.5 -64.5v-705q0 -36 -12.5 -64.5t-30 -45t-34.5 -30 t-29.5 -28.5t-12.5 -31z" />
<glyph unicode="2" horiz-adv-x="1187" d="M20 917q0 47 33 105.5t86 109t127 85t147 34.5q162 0 278 -104t116 -253q0 -48 -35.5 -132t-86.5 -168.5t-102.5 -162.5t-86.5 -127l-36 -49q34 10 81.5 13.5t92.5 1.5t94 -7t83 -10.5t62 -10t29 -4.5l206 193l56 -121l-344 -341q-45 46 -142.5 60.5t-187.5 6.5t-194 -21 t-133 -13q-62 0 -62 42q0 29 9.5 43.5t30.5 25.5t46.5 24t66 50t81.5 93q84 115 138.5 263t54.5 242q0 70 -42 118t-136 48q-41 0 -80.5 -20.5t-64.5 -45t-53.5 -45t-50.5 -20.5q-27 0 -54 30t-27 67z" />
<glyph unicode="3" horiz-adv-x="759" d="M35 -66l162 175q51 -56 100 -56q37 0 65 26t42 68.5t20.5 85.5t6.5 86q0 64 -25.5 109t-63.5 65.5t-82.5 35.5t-82.5 21.5t-63.5 20.5t-25.5 35q0 30 25.5 58.5t62 54t73.5 53.5t62.5 67.5t25.5 85.5q0 71 -51 143.5t-117 72.5q-36 0 -67 -20t-36 -20q-11 0 -17 11.5 t-6 26.5q0 31 14 49.5t34.5 29t52 44.5t57.5 88q24 2 40 2q67 0 137.5 -31t122.5 -77.5t85.5 -101.5t33.5 -101q0 -112 -212 -265l-32 -23l37 -12q34 -10 70.5 -29t77 -51t72 -70.5t52.5 -93t21 -113.5q0 -108 -80.5 -235.5t-202.5 -216t-230 -88.5q-51 0 -94 27.5t-64 62.5 z" />
<glyph unicode="4" horiz-adv-x="1697" d="M29 110l925 918h103v-695v-40h605l-103 -256h-502v-606l-230 74v532h-763zM377 293h411h39v446z" />
<glyph unicode="5" horiz-adv-x="940" d="M25 739q31 101 71 185q45 92 111 194q15 24 46.5 70.5t45.5 68.5h173h133h11l6 12l96 170l77 -13h1q14 -2 42 -10q20 -5 34 -18l1 -1q30 -23 35 -65q4 -33 -14 -81q-2 -7 -40 -82q-31 -64 -52 -90q-36 -44 -76 -58q-27 -9 -94 -9h-264h-12l-5 -11l-39 -70l-13 -23l24 -10 q131 -50 240 -123q68 -44 122 -97q62 -59 93 -132q32 -73 29 -166q-3 -78 -39 -167q-22 -54 -60 -116t-64 -96t-80 -103q-74 -93 -82 -102q-51 -61 -89 -84q-25 -15 -45 -15q-29 0 -42 13h-1l-1 1q-12 10 -20 33q-6 16 -1 38v1q5 32 38 80q79 113 139 210q46 78 62 121 q28 79 10 149q-11 39 -36 75q-18 25 -53 56q-24 21 -55.5 43.5t-52.5 35.5t-61.5 37.5t-55.5 33.5q-130 76 -193 115z" />
<glyph unicode="6" horiz-adv-x="1087" d="M46 524q0 102 43 209.5t114.5 200.5t167 176.5t197.5 143t208.5 94t197.5 34.5q29 0 46.5 -19.5t17.5 -50.5q0 -26 -37 -53t-95.5 -52t-133.5 -65t-146 -85.5t-139 -119.5t-108 -162q114 28 224 28q104 0 186 -29t129.5 -77.5t72 -105.5t24.5 -118q0 -204 -141 -319.5 t-362 -115.5q-93 0 -178.5 36.5t-149 99.5t-101 154.5t-37.5 195.5zM309 462q0 -95 61 -158t167 -63q81 0 133 55t52 143q0 90 -55.5 147t-162.5 57q-89 0 -142 -48t-53 -133z" />
<glyph unicode="7" horiz-adv-x="1501" d="M23 684l256 549q104 0 240.5 -1t198 -1.5t151 0t125.5 2t93.5 6t82.5 11t66 17.5t70 24t70 33q34 -32 69 -80.5t26 -64.5q-97 -154 -183 -314t-162.5 -328.5t-125.5 -284t-122.5 -298t-102.5 -252.5q-5 -11 -31.5 -19.5t-58.5 -8.5q-19 0 -40.5 6.5t-21.5 17.5 q0 59 127.5 376t232 554t179.5 401q-32 -13 -86 -32.5t-185 -51.5t-221 -32q-55 0 -119 2.5t-105 5t-89 6.5t-54 4l-116 -243z" />
<glyph unicode="8" horiz-adv-x="1050" d="M52 94q0 42 11 70.5t57.5 79t141.5 126.5q34 27 77.5 59t70.5 50l26 18q-152 112 -195 148q-147 127 -148 226q0 64 39.5 140.5t103 143t155.5 111.5t186 45q79 0 148 -24.5t117 -64.5t82.5 -90t51 -102t16.5 -100q0 -42 -23 -78.5t-91.5 -95.5t-215.5 -167 q50 -19 106.5 -58.5t106.5 -92t83 -119.5t33 -132q0 -42 -22 -94.5t-70 -109.5t-114 -103.5t-165 -77t-212 -30.5q-77 0 -141 25t-102.5 62.5t-65 83t-37 83.5t-10.5 68zM323 207q0 -104 72.5 -177.5t142.5 -73.5q59 0 107.5 61t48.5 137q0 96 -51.5 166t-147.5 70 q-58 0 -115 -61.5t-57 -121.5zM340 958q0 -85 65.5 -150.5t152.5 -65.5q66 0 104 51.5t38 125.5q0 89 -51.5 155.5t-134.5 66.5q-70 0 -122 -51t-52 -132z" />
<glyph unicode="9" horiz-adv-x="1060" d="M62 806q0 193 140 302.5t362 109.5q123 0 224.5 -71t159 -190.5t57.5 -260.5q0 -120 -57 -237.5t-144.5 -208t-191 -169t-199.5 -129t-165.5 -79.5t-93.5 -29q-22 0 -43 22t-21 47q0 28 43 59t112.5 71t145.5 92t155 141.5t128 199.5q-24 -17 -88 -31.5t-131 -14.5 q-175 0 -284 96t-109 280zM326 843q0 -80 49.5 -145t137.5 -65q85 0 153 52.5t68 141.5q0 91 -60.5 157t-144.5 66q-86 0 -144.5 -61t-58.5 -146z" />
<glyph unicode=":" horiz-adv-x="573" d="M35 246l250 252l250 -252l-250 -250zM35 1061l250 252l250 -252l-250 -250z" />
<glyph unicode=";" horiz-adv-x="423" d="M31 29q0 -42 30 -67.5t74 -25.5q91 0 174 99t83 208q0 92 -63.5 162.5t-137.5 70.5q-38 0 -64 -22.5t-26 -58.5t37 -82t37 -83q0 -29 -15 -50.5t-36 -35.5t-42 -27.5t-36 -35.5t-15 -52zM103 761q0 52 38.5 88t91.5 36t91 -36t38 -88t-38 -88t-91 -36t-91.5 36t-38.5 88z " />
<glyph unicode="&#x3c;" horiz-adv-x="1656" d="M121 774v160l1323 764l47 -80l45 -80l-1184 -684l1184 -684l-45 -80l-47 -80z" />
<glyph unicode="=" horiz-adv-x="993" d="M63 557v92v94h871v-94v-92h-871zM63 967v92v94h871v-94v-92h-871z" />
<glyph unicode="&#x3e;" horiz-adv-x="1656" d="M121 170l47 -80l45 -80l1323 764v160l-1323 764l-45 -80l-47 -80l1184 -684z" />
<glyph unicode="?" horiz-adv-x="776" d="M46 677q0 32 26 67.5t57 60t59 48t31 34.5q6 27 19 53q19 -5 43.5 -11.5t41 -11.5t36.5 -10t33 -7t27 -3t22.5 2t15.5 8.5t10.5 15.5t3.5 25q0 30 -19 66t-38 57l-19 21l195 168q5 -3 14 -9.5t31 -28.5t39 -47t31 -64.5t14 -82.5t-24.5 -97.5t-60 -102.5t-71 -90 t-59.5 -66l-25 -25q-173 40 -243 40q-31 0 -55.5 -15.5t-37 -34t-25 -34t-21.5 -15.5t-19.5 7.5t-21 29t-10.5 52.5zM123 233l171 273q230 -121 349 -168q-61 -41 -103 -90t-59 -91.5t-24 -78t-8 -60.5t-3 -28q-8 16 -28.5 44t-56.5 68t-85 68t-97 28q-11 0 -20.5 -2 t-13.5 -4l-4 -2z" />
<glyph unicode="@" horiz-adv-x="1708" d="M30 652q0 206 75 391.5t199 315.5t288 206.5t338 76.5q162 0 299 -57.5t233 -159.5t150 -246t54 -312q0 -103 -18.5 -217t-60 -231t-99.5 -210t-144.5 -151.5t-187.5 -58.5q-47 0 -77.5 34t-42 67.5t-31.5 117.5q-3 10 -4 15l-274 -247q-337 88 -337 629q0 86 19 164.5 t51.5 137t65 100t68.5 73.5l250 223h57q40 -33 144.5 -104t132.5 -63q15 5 42 40.5t45 35.5q15 -1 27 -15.5t12 -32.5q0 -37 -29.5 -115t-29.5 -130q0 -158 12 -382t41 -346q99 69 158.5 256.5t59.5 405.5q0 286 -156.5 462t-426.5 176q-139 0 -261.5 -50.5t-211 -135 t-153 -193.5t-96.5 -228.5t-32 -237.5q0 -133 34.5 -256.5t101 -226t158 -178.5t212 -118.5t255.5 -42.5q105 0 187.5 24t172.5 74l80 -118q-107 -62 -212 -93.5t-232 -31.5q-160 0 -302.5 49.5t-251.5 138.5t-189 208.5t-121.5 264.5t-41.5 302zM656 615q0 -133 49 -250 t122 -156l158 135q-26 221 -6 555l-215 156q-47 -57 -77.5 -182t-30.5 -258z" />
<glyph unicode="A" horiz-adv-x="1777" d="M34 1298q20 88 99 177q174 196 395 249q55 14 94 20q30 5 78 4h32q70 -2 130 -24q72 -27 130.5 -76.5t96.5 -110t60.5 -110.5t38.5 -102q6 7 19.5 22.5t19.5 22.5v139v7q117 104 266 157q82 29 199 37l9 -8q9 -7 16.5 -15t16.5 -20.5t13.5 -29t3.5 -35.5q0 -18 -20 -48 q-38 20 -77 20h-6q-42 -2 -69 -26q-11 -9 -19 -24t-11 -25.5t-6 -24.5t-3 -16q-2 -6 0 -35q4 -33 4 -278t-4 -703q0 -42 14 -84q18 -51 27 -51h2q5 -1 13 8.5t12 18.5q8 18 8 51v10h70q6 -42 6 -80q0 -46 -9 -86q-24 -105 -95 -195q-68 -86 -155 -85h-8q-30 1 -59 14 t-48.5 30t-29.5 27.5t-14 16.5q-41 55 -47 151q-2 11 -2 23.5t1 19.5l1 7v2q2 18 2 137q-42 -43 -118.5 -122t-139.5 -144t-119 -123q-56 16 -86 51q-26 29 -40 85t-32 85q-33 56 -94 96q-1 1 -13 8t-17.5 10t-19.5 10t-23 10t-23 7.5t-25.5 5t-25.5 -0.5t-27 -5 q-35 -10 -67 -40.5t-54 -69t-34 -66t-19 -47.5q-2 -5 -7.5 -23t-8 -24.5t-9 -20.5t-11.5 -20t-13.5 -13t-18.5 -10t-20 -3q-32 0 -68 32q-27 11 -39 59q-5 17 -5 36q0 80 87 198q30 42 52 69t63 68t92.5 71.5t112.5 49.5q71 23 119 31q35 40 104 120.5t104 120.5v2h5 q12 15 35 42t36 42q1 14 1 28q0 53 -9 112q-9 62 -18 100.5t-37 93.5t-72 92q-68 59 -161 77q-37 7 -72 7q-52 0 -99 -16q-36 -12 -66.5 -30t-63.5 -51t-52.5 -56.5t-62.5 -75.5q-64 -99 -78 -123l-13 -20l-8 20q-23 64 -23 123q-1 32 6 63zM733 614q39 -17 63 -43.5 t34 -52.5t34.5 -62.5t61.5 -66.5q25 -20 39 -30.5t39 -20t47 -4.5q10 3 29.5 21.5t53.5 56t42 45.5q42 49 55 67v160h-438q-10 -12 -30 -35t-30 -35zM948 870h281v332q-274 -323 -281 -332z" />
<glyph unicode="B" horiz-adv-x="2469" d="M39 1158q0 28 25.5 78.5t76.5 110.5t116.5 113t156.5 88.5t185 35.5q90 0 158.5 -38t107.5 -102.5t58 -140t19 -160.5q0 -63 -6.5 -115t-33 -135t-72.5 -169t-132 -205.5t-206 -254.5q268 86 495 107v1165h156v-1159q51 -1 104 -6v1159q64 45 97 45q7 0 13.5 -1.5 t9.5 -3.5l3 -1l97 -86q223 192 260 223h162q29 -76 95 -125q64 -49 144 -55q10 -1 21 -1q70 0 142 38h89v-100l-461 -324q191 -27 316.5 -167t125.5 -336q0 -109 -46.5 -215.5t-125 -192t-176 -151.5t-205 -102t-206.5 -36q-96 0 -199.5 26.5t-180.5 58t-185 58t-213 26.5 q-123 0 -286.5 -34.5t-337.5 -114.5l-158 133q2 2 12 10q343 289 482 576q80 166 80 315q0 119 -57.5 197t-150.5 78q-44 0 -75.5 -21t-49.5 -50.5t-35.5 -59.5t-46 -51t-68.5 -21q-41 0 -67.5 26t-26.5 67zM1429 343q73 -14 172 -39t164 -39t103 -14q90 0 144 60t54 153 q0 64 -27.5 130.5t-78.5 124.5t-136.5 95t-189.5 37q-24 0 -46.5 -1.5t-49 -6.5t-36.5 -6.5t-42 -8.5l-31 -8v-477zM1429 1029q175 86 304 107l162 126l-209 178q-24 -8 -44 -17.5t-59 -37.5t-66.5 -62.5t-51.5 -96t-28 -136.5h-8v-61z" />
<glyph unicode="C" horiz-adv-x="1566" d="M54 883q0 135 41 256t112.5 211.5t164.5 156t200 100.5l55 -85l187 195q67 38 146 38q57 0 111.5 -22t91.5 -49t86.5 -49t97.5 -22q71 0 125 49l60 -84l-311 -288q-84 35 -188 67v-1030q48 -5 87 -5q188 0 360 76l55 -54q-28 -40 -65 -79t-96 -85t-125.5 -80.5 t-157 -57.5t-186.5 -23q-176 0 -335.5 72.5t-271.5 192t-178 277t-66 322.5zM361 981q0 -176 97 -325l82 53l-2 694q-177 -175 -177 -422zM534 560q134 -140 335 -201v1039q-54 11 -102 18l-4 -712l-222 -140z" />
<glyph unicode="D" horiz-adv-x="2199" d="M55 94q20 101 78 185q35 51 83.5 91.5t90 62.5t88.5 38t72 21t47 8q236 -79 434 -105v322q-32 -22 -76.5 -50t-137 -68.5t-153.5 -40.5q-37 0 -79.5 11.5t-85 35t-77 56t-56 79.5t-21.5 100q0 72 33.5 141.5t96 133t127.5 113.5t152 106q-9 -1 -63.5 -9.5t-73 -11t-61 -8 t-75.5 -7t-68 -1.5q-24 0 -47 4.5t-49.5 17t-46 32.5t-32.5 54t-13 78q0 25 3 47l369 301q5 -20 10 -37t22.5 -52t38.5 -59t58.5 -43.5t82.5 -19.5q27 0 156.5 25.5t230.5 25.5q641 0 894 -360q64 -91 103 -205t39 -231q0 -63 -11.5 -119.5t-29 -101t-51 -90t-63 -78 t-81.5 -75.5t-90 -71.5t-103 -75.5q-9 -7 -14 -10q-202 -147 -422 -246q-126 8 -240 30t-192.5 48t-145.5 50.5t-128.5 41t-112.5 16.5q-181 0 -348 -141q-26 16 -62 41zM572 987q0 -103 57 -166.5t147 -63.5q96 0 172 27l4 576q-48 0 -93 -3q-50 -23 -97.5 -56.5t-91.5 -80 t-71 -107.5t-27 -126zM1124 379h4q48 -2 70 -3v999q-24 3 -74 7v-1003zM1339 372q101 2 171.5 21t129.5 68q81 66 126.5 167.5t45.5 210.5q0 173 -125 311t-348 198v-976z" />
<glyph unicode="E" horiz-adv-x="1755" d="M52 898q24 160 110.5 301t219.5 235l504 266h31l175 -133v-68l194 184l10 10l245 -160l66 40l116 -103l-382 -231l-212 138l-37 -30v-405l217 242h422l-243 -290h-396v-604q48 6 70 11q135 30 250 108t188 188l15 22l14 -22l43 -65l5 -7l-3 -7q-47 -137 -141 -251 t-223 -186q-197 -111 -425 -111q-15 0 -31 1q-243 8 -447 140q-197 129 -294 344q-70 156 -70 323q0 59 9 120zM363 928q-4 -34 -4 -67q0 -113 47 -220q0 -1 1 -2l1 -2l174 124v538l-66 -60q-132 -135 -153 -311zM506 495q39 -43 83 -76q146 -110 340 -130v1187l-110 -61 v-710l-7 -5z" />
<glyph unicode="F" horiz-adv-x="1689" d="M41 66q8 10 17.5 21t35.5 33t54.5 38t73 29t91.5 13q133 0 242 -87l92 57v459q-26 24 -47 37q-50 32 -143 32l-39 50q14 14 32 29t71 38t107 23q13 0 19 -1v180q-108 -39 -223 -39q-102 0 -197 30l25 112q205 7 395 88v31q0 28 -150 118l-24 15v74q211 33 397.5 105.5 t327.5 160.5h82q18 -18 41.5 -36t77.5 -40t109 -22q63 0 120 24q41 -44 41 -106q0 -21 -4 -41l-147 -135q-18 -2 -53 -2q-120 0 -228 54v-253q108 53 221 53q76 0 154 -24l-162 -262q-76 33 -150 33q-31 0 -63 -6v-953h-129v1456q-53 0 -102 -37v-1069q-23 -67 -70 -126 t-103 -100t-118 -75t-119.5 -55t-104 -35.5t-74.5 -20.5l-28 -6q-39 39 -98 64t-123 25q-49 0 -84 -11z" />
<glyph unicode="G" horiz-adv-x="2140" d="M60 727q0 127 61 253t165 231t228 191t264 151v188h153v-124q193 70 341 70q79 0 162.5 -20t139.5 -44t112 -44t86 -20q34 0 54 23q-5 18 -5 36q0 50 34.5 84.5t84.5 34.5t85 -35t35 -84q0 -46 -31 -80l-1 -1q-15 -17 -36 -27q-185 -130 -399 -197q-184 100 -392 104 v-354q214 28 379 169q130 -8 241.5 -75t179.5 -181t68 -250q0 -106 -55.5 -206.5t-147.5 -178.5t-211 -143.5t-247 -108.5t-254 -67t-234 -25h-8q-152 0 -288 39q-140 41 -241.5 112t-175 164.5t-110.5 199.5t-37 215zM484 853q0 -126 78 -266.5t216 -235.5v959 q-133 -75 -213.5 -190t-80.5 -267zM931 271q55 -21 117 -33v1167q-65 -12 -117 -29v-1105zM1201 225q48 1 103.5 10t117.5 26.5t118.5 47t102 67.5t73 92t27.5 117q0 65 -31.5 132t-88 123.5t-147 92.5t-197.5 36q-35 0 -78 -5v-739z" />
<glyph unicode="H" horiz-adv-x="1718" d="M45 676l14 82q106 57 230 74v96q-96 55 -215 82q1 14 2 38t2 37q104 5 211 64v209v2q-1 70 -65 115t-163 47l2 125q295 0 363 -124q48 82 132 132.5t187 50.5q46 0 86 -10h64v-374l223 169q232 -58 369.5 -267t137.5 -495q0 -129 -29 -233.5t-75 -170.5t-101.5 -117.5 t-111.5 -87.5t-102 -68t-75 -70.5t-29 -84.5q0 -44 27 -74.5t67 -35.5l-213 -156q-50 14 -83.5 57.5t-33.5 101.5q0 55 35 109.5t89.5 109.5t112.5 118t112 159t80 208h-400v-203l-246 -311h-104q-150 113 -341 113q-25 0 -52 -3l-23 41q89 42 160 83v416q-81 46 -244 46z M631 330l112 -39v203v151v111v151v675q-112 -31 -112 -241v-1011zM895 645h421q3 69 3 72q0 26 -1 39h-423v-111zM895 907h398q-43 150 -147 250.5t-251 123.5v-374z" />
<glyph unicode="I" horiz-adv-x="1052" d="M-61 1346q31 160 151 253t258 93q49 0 93.5 -14t73 -31.5t73.5 -31.5t95 -14q137 0 269 97q9 -8 27 -24.5t27 -24.5q-47 -34 -70 -48v-1131l37 -32v-26q-53 -71 -160 -211.5t-160 -210.5l-9 4q-10 3 -24.5 8t-35.5 11.5t-46 13.5t-53.5 14t-60.5 13t-64.5 11t-67.5 8 t-68 3q-29 0 -50.5 8t-31.5 18t-15.5 23.5t-6 19.5t-0.5 10q0 24 22 37t53 19.5t62 17t53 40t22 77.5v316q-78 74 -248 74q-15 0 -31 -1l13 82q123 66 266 79v73q-96 55 -215 82l4 75q109 7 211 63v208q-30 3 -84.5 15t-76.5 12q-90 0 -148 -103q-15 4 -42.5 12.5 t-41.5 12.5zM672 346q66 1 112 51v1122q-52 -25 -112 -48v-1125z" />
<glyph unicode="J" horiz-adv-x="1853" d="M39 1198q0 84 59.5 175.5t156 167t232 125t275.5 49.5q68 0 148 -25t142.5 -54.5t146.5 -54.5t159 -25q43 0 107 32t131.5 64.5t118.5 32.5q50 0 76 -32.5t26 -73.5q0 -30 -14.5 -55.5t-35.5 -52.5t-42.5 -66t-36 -114.5t-14.5 -179.5q0 -85 25.5 -284t25.5 -300 q0 -88 -12 -157.5t-45 -128.5t-62.5 -99t-95.5 -90t-111 -79t-139 -87q-80 -49 -123 -76q-261 -163 -410 -163q-55 0 -109.5 13.5t-97 29.5t-127.5 29.5t-195 13.5q-49 0 -85 -3l-15 41q32 21 73.5 45t123.5 66.5t169 70t154 27.5q65 0 152.5 -32t145.5 -32h13 q10 102 10 201q0 124 -16 242q-73 53 -159 53q-52 0 -102 -19q-5 8 -16.5 23.5t-16.5 23.5q41 51 113 101.5t138 70.5q-10 63 -10 107v8q-131 88 -276 88q-70 0 -143 -20l-13 36q91 122 226 169q77 27 154 27q60 0 119 -16q74 163 217 314q-56 2 -119.5 20.5t-114 39 t-131 37.5t-167.5 17q-34 0 -67.5 -2t-81.5 -8t-87 -19.5t-75 -33t-56.5 -52t-20.5 -73.5q0 -37 17 -58.5t41 -28.5t48.5 -11t41.5 -12.5t17 -26.5q0 -40 -49.5 -72t-101.5 -32q-80 0 -144.5 53t-64.5 135zM1029 -71q162 40 238 212t76 500q0 27 -2.5 81.5t-2.5 82.5 q0 75 6.5 151.5t23.5 176t57.5 185.5t98.5 136q-118 -90 -246 -118q-66 -151 -66 -343v-495q0 -15 1 -57.5t1 -65t-3.5 -65.5t-10 -72t-20 -72.5t-32.5 -78.5t-49.5 -77t-69.5 -81z" />
<glyph unicode="K" horiz-adv-x="2281" d="M41 1382q21 52 66.5 108.5t106.5 107.5t141 83.5t159 32.5q73 0 179 -40t168 -40q111 0 222 76l4 2q28 -26 56 -47q-7 -7 -33 -30.5t-37 -35t-31 -38.5t-29.5 -50.5t-17.5 -60.5t-8 -80q0 -37 7 -125.5t7 -141.5q0 -301 -90 -536q-50 -131 -139 -252q104 30 198 30h6 l128 396l6 738l209 219l102 -105l-159 -157l-4 -220q447 313 518 363h59q0 -81 17.5 -143.5t64.5 -118.5q35 -42 84 -72t77.5 -40t51.5 -15v-109q-39 -13 -87 -27.5t-75 -22.5t-58.5 -19t-47.5 -19.5t-31.5 -21t-21 -27.5t-5.5 -34q0 -33 21.5 -67t55.5 -72.5t71 -86 t75 -126t60 -173.5l151 -31h7v-6q-3 -32 -13.5 -68.5t-32.5 -81t-52.5 -83.5t-78.5 -74.5t-106 -54.5l-4 -2l-172 125v4q-1 26 -3.5 52t-14 78t-29.5 99.5t-54 106.5t-83 108q-117 119 -269 164h-2q-5 10 -10 31.5t-10 31.5l4 2q56 35 120.5 76.5t141 91t119.5 76.5 q-33 22 -55 52.5t-31.5 56.5t-20.5 49t-31.5 36.5t-55.5 13.5q-11 0 -24.5 -5.5t-36.5 -20.5t-44 -29.5t-63.5 -44t-77.5 -53.5l-7 -370l-127 -394q39 -13 99.5 -42.5t111.5 -46.5t108 -17q90 0 142 27l55 -66l-178 -207h-4q-136 7 -256 29t-189 44t-143.5 39t-132.5 17 q-205 0 -446 -147q-6 26 -6 60q0 61 24 103.5t61 69t76 52t75.5 70.5t53.5 108l-5 8q-5 9 -7.5 13t-9.5 14.5t-12.5 18t-15 19.5t-18.5 21.5t-21.5 22t-25 23t-28.5 23t-33 23.5q10 15 23.5 28.5t39.5 33.5t64 28q20 4 41 4q20 0 41 -4l10 158q-81 53 -170 72q-53 11 -93 11 q-27 0 -48 -5q0 54 20.5 102t59.5 84.5t103 51.5q33 8 69 7q34 0 72 -6l4 174q12 12 108 97q-77 12 -162 12q-70 0 -219.5 -29t-250.5 -80z" />
<glyph unicode="L" horiz-adv-x="2078" d="M39 1020q98 75 218 99q56 11 109 11q60 0 115 -14q56 181 158 318q-89 -30 -169 -30q-42 0 -106.5 13t-86.5 13q-51 0 -89.5 -31t-60.5 -70l-84 23q30 158 148 253t259 95q49 0 93.5 -14.5t73 -32t73 -32t94.5 -14.5q136 0 271 99l53 -49q-78 -38 -143 -113 q-146 -167 -146 -563v-137q0 -295 -316 -601q212 105 410 158q5 159 11 273t23 258.5t43 245t71 205.5t105.5 169.5t149.5 108t200 47.5v-115q-72 0 -111 -32q-30 -26 -40 -65.5t-10 -99.5q0 -59 3 -172.5t3 -144.5q0 -89 -15.5 -161.5t-43 -123t-61.5 -90.5t-74 -74.5 t-77.5 -65t-75.5 -71t-64 -83.5q193 47 366 47q94 0 207 -33t148 -33q131 0 258 109h103v-56l-422 -444q-37 16 -83.5 31.5t-134 40t-199.5 39.5t-226 15h-27q-67 0 -107.5 -0.5t-118 -7t-132 -19t-116.5 -38.5t-104 -63q-12 -11 -50.5 -50t-63.5 -55.5t-52 -16.5 q-63 0 -108 101q73 61 161 120l1 3q36 27 77.5 69t89 119t62.5 153q-134 132 -327 157l-27 47q155 77 329 91q-12 70 -13 137q-119 104 -275 104q-38 0 -78 -6z" />
<glyph unicode="M" horiz-adv-x="2527" d="M39 170q45 122 160.5 191t259.5 78q-53 89 -114 154.5t-106.5 97t-85 60.5t-60.5 63.5t-21 86.5q0 67 48.5 154t127 174t183.5 172t213 150t220 105t201 40q112 0 212 -70t164 -196q40 39 85 74t105 72t130 59t138 22q35 0 78 -8.5t101 -32.5t113 -62t110 -102.5t96 -147 t66.5 -204t25.5 -265.5q0 -147 -44 -291.5t-131.5 -271t-206 -223.5t-279 -153.5t-339.5 -56.5q-52 0 -100 5q-22 -73 -87 -120.5t-131 -47.5q-54 0 -93.5 41t-39.5 98q0 58 49.5 107.5t118.5 75.5l-132 220l-331 -212q-29 24 -65.5 48.5t-103 60t-155.5 57.5t-182 22 t-198 -24zM488 440h13q156 0 271 -123q13 3 39.5 8t40.5 8v321q-7 -3 -40.5 -19t-43.5 -20.5t-40 -19t-43 -22t-39.5 -22t-42.5 -25.5t-38 -25.5t-40.5 -29.5t-36.5 -31zM505 1080q-1 -135 103 -224q96 -83 224 -83q10 0 20 1v660q-139 -10 -243 -113.5t-104 -240.5z M991 361l52.5 10.5l57.5 11.5l42 33v794q0 59 -38.5 118.5t-113.5 87.5v-1055zM1373 -16q1 -1 3.5 -4t3.5 -5q95 13 188 44t189.5 88.5t174.5 134t136.5 188.5t81.5 244h-446v-188l68 -105zM1409 400l72 -64l104 126v838q-77 -46 -126.5 -109.5t-49.5 -133.5v-657zM1704 944 h454q-13 106 -53 190.5t-94.5 133.5t-113 74t-115.5 25q-33 0 -78 -14v-409z" />
<glyph unicode="N" horiz-adv-x="2240" d="M39 -244l319 357q23 -6 46 -23.5t38.5 -34.5t39.5 -30.5t51 -13.5q26 0 41.5 12.5t22.5 40.5t9 54.5t2 71.5v295q-80 39 -167 39q-49 0 -99 -12l-37 53q57 53 137 84q75 29 156 29h10v186q-125 66 -274 70l-23 67q117 84 258 84q19 0 39 -2v199l512 395q129 47 266 47 q194 0 355.5 -85.5t256.5 -241.5t95 -351q0 -348 -342 -696q112 -11 195 -80l159 90l56 -75l-289 -285q-28 23 -66 42q-38 20 -98 38q-42 13 -91 13q-21 0 -44 -2q-75 -8 -148 -46l-34 37q54 66 87.5 108t92.5 124t97 148.5t75.5 153.5t54.5 166h-210l-126 -125l-202 203 l202 203l131 -129h220q-7 221 -161 366t-383 145q-33 0 -65 -3v-1671h-147v1638q-53 -19 -105 -49l9 -1198l-474 -422l-178 113l-172 -172z" />
<glyph unicode="O" horiz-adv-x="2162" d="M39 127q145 198 234.5 282.5t166.5 84.5q15 0 69 -15.5t151.5 -44t177.5 -49.5v343l-355 -179q-135 52 -221 159.5t-86 219.5q0 32 9.5 68.5t44 95t91 118t161 136t243.5 151.5q14 8 66 35.5t69 36t63 31t69.5 31t67 23.5t77 20.5t77 10.5t87.5 5q148 0 282.5 -50 t231 -129.5t168.5 -177t107.5 -195.5t35.5 -182q0 -89 -30 -173.5t-63.5 -140.5t-105 -126t-106.5 -98.5t-115 -89.5l-27 -21q-226 -174 -295 -219q-132 -85 -236 -91q-11 -1 -21 -1q-89 0 -238 32.5t-286.5 65.5t-198.5 33q-84 0 -165 -24.5t-137 -55.5zM497 1026 q0 -75 58 -124.5t145 -49.5q76 0 138 10v471q-95 -29 -168 -69t-123 -102.5t-50 -135.5zM963 355q46 -9 116 -22v1046q-59 -5 -116 -16v-1008zM1204 316q59 -6 113 -6q127 0 230 74t157 187.5t54 237.5q0 68 -17.5 139t-59 146.5t-103 135t-158.5 101t-216 49.5v-1064z" />
<glyph unicode="P" horiz-adv-x="1751" d="M39 457q12 18 28.5 36t43 41t63.5 40.5t78 24.5v180q-63 44 -136 44q-26 0 -53 -6q11 85 63 126.5t126 43.5v264q-39 -7 -85 -28t-73 -41l-33 61q23 37 59.5 84.5t84.5 100.5t101 89t93 36q67 0 123 -62.5t86 -161.5v-849q19 -6 58 -18.5t59 -18.5v911q249 195 358 343 l152 -1q-26 -52 -26 -98q0 -40 27.5 -77.5t72 -73.5t98 -79.5t107.5 -106.5t98.5 -141.5t72 -198t27.5 -264.5q0 -102 -26.5 -180t-68.5 -126t-104.5 -93.5t-123.5 -78.5t-137 -86t-134 -111l-510 195v-326q11 -14 33.5 -38.5t34.5 -37.5q-1 -14 -4 -40t-4 -40 q-17 -1 -49 -1q-93 0 -173 13q-140 20 -174 68q-21 29 -21 74q0 5 0.5 12.5t0.5 9.5v468q-96 85 -213 118zM860 400q66 -21 197 -62t196 -62q70 28 109.5 77.5t39.5 145.5q0 107 -13 211l-529 -269v-41zM860 592l503 257q-18 69 -38 118l-465 -236v-139zM860 882l402 205 q-138 211 -402 256v-461z" />
<glyph unicode="Q" horiz-adv-x="2279" d="M39 127q10 15 28 39.5t68.5 87t97 110.5t102.5 87t95 39q28 0 83.5 -14.5t156 -44t168.5 -47.5v344l-355 -179q-135 52 -221 159.5t-86 219.5q0 76 56.5 165.5t148.5 172.5t212 161t243.5 135.5t246.5 92.5t218 35q148 0 282.5 -50t231 -129.5t168.5 -177t107.5 -195.5 t35.5 -182q0 -86 -24 -165t-69 -145.5t-92.5 -117t-110.5 -103.5q82 -77 184 -77q74 0 145 45l82 -33q-57 -157 -172.5 -261t-241.5 -104q-48 0 -79.5 14t-51 34.5t-66.5 63t-106 81.5q-139 -105 -224.5 -148.5t-172.5 -43.5q-89 0 -238 32.5t-286.5 65.5t-198.5 33 q-84 0 -165 -24.5t-137 -55.5zM497 965q0 -134 203 -134q40 0 138 29v470q-150 -51 -245.5 -142.5t-95.5 -222.5zM963 354q91 -19 116 -23v1048q-61 -5 -116 -16v-1009zM1204 315q63 -5 113 -5q96 0 180 44t140.5 114.5t88.5 160t32 180.5q0 68 -17.5 139t-59 146.5 t-103 135t-158.5 101t-216 49.5v-1065z" />
<glyph unicode="R" horiz-adv-x="2103" d="M63 1380q74 55 241 174t183 119q69 0 148.5 -54t150.5 -132q56 -61 75 -144q92 134 237.5 225t275.5 91q110 0 222 -44.5t184.5 -115t74.5 -139.5q0 -40 -27.5 -86.5t-68 -85.5t-90 -76.5t-88.5 -61.5t-68 -38q70 -57 120.5 -121t75 -119.5t43.5 -112t28.5 -102 t27.5 -86.5t43 -68t72.5 -43t118.5 -16v-25q-22 -43 -56 -85.5t-84 -86.5t-121 -71t-150 -27q-57 0 -93 27t-52.5 73.5t-24 106t-12.5 126t-12.5 132.5t-29.5 126t-59 106.5t-104.5 74.5t-162.5 29v-511q41 -12 90 -12q105 0 236 85l27 -62l-324 -332q-102 48 -260 91.5 t-299 43.5q-112 0 -193 -17t-200 -68l-23 57q149 122 389 229v277q-62 105 -178 155q-67 29 -138 29q-53 0 -108 -16l-10 22q24 33 60.5 69.5t92.5 79.5t130.5 71t150.5 28v131q0 59 -54.5 104.5t-150.5 45.5q-48 0 -91.5 -11.5t-68.5 -24t-59 -34.5zM867 1304q1 -10 1 -32 v-873q62 -6 97 -16v975q-49 -23 -98 -54zM1081 991q112 -7 132 -7q66 0 117.5 19.5t80 50.5t43 65t14.5 68q0 16 -4.5 39t-20.5 57.5t-42 62.5t-75.5 48t-113.5 20t-131 -15v-408z" />
<glyph unicode="S" horiz-adv-x="2052" d="M18 84q23 49 56.5 97t95.5 107.5t136 103.5t184.5 74.5t235.5 30.5q185 0 442 -80q67 81 67 130q0 56 -50 85.5t-117 29.5q-40 0 -174 -30t-235 -30q-86 0 -161 17t-137 51.5t-98 95t-36 140.5q0 76 37 148.5t110.5 123.5t164.5 55q-43 61 -43 106q0 27 8 43.5t29.5 30.5 t46.5 25t73 36t95 54q56 35 114.5 83.5t92.5 69t77 20.5q28 0 61 -16.5t111 -56.5t176 -78l-174 -256q134 32 211 32q66 0 139.5 -17.5t156.5 -63t148.5 -113.5t109 -181t43.5 -253q0 -72 -13 -137.5t-30.5 -113t-50 -93.5t-56.5 -73.5t-65.5 -60t-61.5 -45t-60.5 -36.5 t-47.5 -28q-168 -101 -224 -101q-22 0 -189 59t-367.5 118t-304.5 59q-149 0 -257.5 -66.5t-161.5 -179.5zM548 1056q0 -69 74 -130t199 -61q68 0 228.5 31t241.5 31q118 0 192.5 -60t74.5 -172q0 -30 -6 -56t-13 -45t-29 -47.5t-37.5 -47.5t-55 -64t-67.5 -78 q127 -44 162 -44q88 0 176 97t88 206q0 41 -21 97.5t-61.5 116t-92 111t-120.5 84t-140 32.5q-58 0 -155.5 -27t-154.5 -27q-242 0 -411 143q-32 -5 -52 -30t-20 -60zM804 1324q0 -42 30 -67.5t76 -25.5q18 0 38.5 2.5t51.5 9.5l46.5 10.5t59.5 15t55 14.5 q-143 135 -244 135q-48 0 -80.5 -25t-32.5 -69z" />
<glyph unicode="T" horiz-adv-x="2177" d="M39 1157q45 83 105.5 156.5t145.5 141.5t184 117t226 78t267 29q144 0 291.5 -20.5t245.5 -41.5t196 -33q41 -5 81 -6q53 0 103 10q86 17 168 71l53 -66q-4 -28 -12.5 -59t-33.5 -81t-60.5 -92t-99.5 -82t-144 -60q-195 79 -395 122v-960q125 -10 273 -37t175 -27 q60 0 119 28t94 63l111 2q-8 -24 -18 -50.5t-37 -77.5t-59.5 -96.5t-87 -97t-118.5 -88.5q-74 9 -239 28t-396.5 42.5t-292.5 23.5q-159 0 -313 -56t-260 -126l-90 88q180 201 397 297q154 150 156 330q-19 28 -46.5 56t-72.5 61.5t-110 54t-138 20.5q-38 0 -83 -8l-37 51 q101 73 229 142t240 108q65 141 229 274q-162 0 -274 -4.5t-203 -18.5t-148 -33t-105.5 -54t-80 -75.5t-65.5 -102.5zM1008 391q71 5 154 5q36 0 73 -1v975l-18 2q-72 -61 -123.5 -148.5t-51.5 -194.5q0 -56 15 -141t25 -147q4 -25 4 -53q0 -46 -10 -104q-16 -94 -68 -193z " />
<glyph unicode="U" horiz-adv-x="2017" d="M40 1246q0 26 4 48t27 66.5t64 89t124 109t198 133.5q13 -3 81 -19t124.5 -29t119 -24.5t89.5 -11.5q54 0 104 22.5t82 50.5l84 -36q4 -31 4 -59q0 -118 -66 -169v-1073q44 -11 107 -11q126 0 270 118v294q-32 32 -87 57.5t-99 31.5v47q35 28 86 52.5t100 31.5v129 q0 77 -41 147t-97 70q-45 0 -69 -15.5t-49 -66.5l-47 14q12 48 41 113.5t68.5 134t91 115.5t99.5 47h263q19 0 47.5 -8.5t60 -24.5t53.5 -46t22 -67q0 -29 -11.5 -55.5t-28.5 -56t-33.5 -69.5t-28 -115t-11.5 -174q0 -176 7.5 -298.5t33.5 -265.5q18 3 51 10.5t47 10.5 q25 -20 53 -41v-164l-274 -275q-101 71 -248 172v222q-10 -25 -21.5 -48.5t-37 -66.5t-54 -78.5t-72 -76.5t-90.5 -69t-111.5 -46.5t-133.5 -18.5q-132 0 -269 53.5t-246.5 142.5t-179 216t-69.5 263q0 20 0.5 33t5 52t12.5 70t26 80t43 90t65.5 91.5t91 93t123 86.5 t157.5 79q-48 1 -121.5 7t-103.5 6q-54 0 -104 -17t-89.5 -46t-66 -55.5t-49.5 -56.5h-117q-5 27 -5 54zM535 895q0 -110 56 -222t144 -186v777q-17 -13 -34.5 -27.5t-50 -51t-55.5 -75t-41.5 -96.5t-18.5 -119zM860 406q52 -24 94 -37v993q-58 -13 -94 -29v-927z" />
<glyph unicode="V" horiz-adv-x="1812" d="M-61 1370l413 334l256 -205v-92l596 340q113 -45 198.5 -101t157 -138.5t117 -189.5t70.5 -252.5t25 -328.5q0 -177 -48 -387l-616 -424l-932 277v291q-82 106 -121 106v64q2 -1 5 -1q27 0 116 81v118l-121 121l121 83v259l-78 70l-98 -82zM608 371q17 -6 67.5 -22 t78.5 -26v1002q-105 -61 -146 -87v-867zM897 273l229 -80l250 180q27 121 27 315v26v31.5v26.5l-506 -318v-181zM897 633l497 311q-7 80 -19 144l-478 -299v-156zM897 968l434 273q-89 215 -301 215q-29 0 -133 -52v-436z" />
<glyph unicode="W" horiz-adv-x="2478" d="M39 1333l207 371q263 -41 387 -256v-5l385 261l258 -205v-97q318 154 596 345q140 -55 240.5 -131.5t176.5 -194t113.5 -287.5t37.5 -397q0 -177 -48 -387l-618 -424l-762 240l-283 -178q-71 21 -158 60t-150.5 64.5t-108.5 25.5q-47 0 -81 -20t-34 -64q0 -34 16 -66 l-57 -6q-56 128 -56 221q0 137 174 188v373q-63 47 -151 59q31 141 151 161q-1 86 -5 148t-10 96t-15 54t-17 25.5t-19 5.5q-41 0 -67 -41q-13 8 -48 28t-54 33zM633 340q43 -26 96 -70l197 115v940l-92 113l-201 -125v-973zM1276 433q35 -14 145 -64v960q-98 -62 -145 -91 v-805zM1563 304q82 -39 231 -111l248 180q26 120 26 313q0 55 -1 84l-504 -316v-150zM1563 633l494 308q-10 98 -19 145l-475 -297v-156zM1563 968l433 272q-89 239 -286 239q-32 0 -63.5 -12.5t-83.5 -45.5v-453z" />
<glyph unicode="X" horiz-adv-x="1417" d="M39 -201l441 655q-8 56 -8 101q0 44 8 118l-316 1v149l340 -1q10 62 14 96l-354 2v149l365 -1v20q0 88 -12.5 148t-37 91.5t-53.5 44t-68 12.5q-22 0 -46.5 -16.5t-43.5 -36.5t-52.5 -36.5t-71.5 -16.5q-50 0 -103 31q55 71 162.5 213.5t161.5 214.5q176 0 290.5 -70 t172.5 -220l173 226q72 23 125 23q76 0 147.5 -37t106.5 -72q-23 -49 -71.5 -147.5t-71.5 -147.5q-43 0 -74 10t-48.5 24t-33 28.5t-38.5 24.5t-56 10q-34 0 -119 -90q20 -113 21 -233l311 -1v-150l-316 2q-6 -65 -10 -97l326 -1v-149l-346 1q-3 -30 -3 -58 q0 -119 80 -200.5t166 -81.5q93 0 165 91l69 -37l-315 -377q-40 -6 -82 -6q-238 0 -367 208q-121 -153 -467 -534z" />
<glyph unicode="Y" horiz-adv-x="1703" d="M39 154l311 132v297q-51 56 -127 113v64q73 19 127 72v120l-127 127l127 86v183l-145 159l457 203l106 -106v-183h80h16h24l417 289h57l262 -176v-881h-2l2 -4l-1520 -649zM205 1507zM768 464l80 34v794h-80v-828zM981 555l340 145v192l-340 -162v-175zM981 878l340 162 v141l-340 -161v-142zM981 1166l340 162v42l-162 119l-178 -127v-196z" />
<glyph unicode="Z" horiz-adv-x="2136" d="M49 -6v182l1544 1192q-257 -45 -588.5 -77.5t-595.5 -32.5q-216 0 -309 45l217 409q70 -34 181.5 -47t283.5 -13q717 0 1235 58l76 -143l-1440 -1182q96 21 234 44.5t385.5 49t462.5 25.5q214 0 389 -25l-232 -442q-125 60 -370 60q-124 0 -691.5 -41.5t-781.5 -61.5z " />
<glyph unicode="[" horiz-adv-x="565" d="M-2 -252v1843v60h59h508v-60v-59h-448v-1725h448v-59v-59h-508h-59v59z" />
<glyph unicode="\" horiz-adv-x="804" d="M29 1602l88 30l86 31l561 -1589l-88 -31l-86 -31z" />
<glyph unicode="]" horiz-adv-x="565" d="M-2 -193v-59v-59h508h59v59v1843v60h-59h-508v-60v-59h448v-1725h-448z" />
<glyph unicode="^" horiz-adv-x="770" d="M20 1257l107 -90l192 224l248 -238l154 246l-309 313z" />
<glyph unicode="_" horiz-adv-x="1443" d="M0 0h1444v-92v-92h-1444v92v92z" />
<glyph unicode="`" horiz-adv-x="624" d="M20 1430l492 -300l102 146l-370 416z" />
<glyph unicode="a" horiz-adv-x="1011" d="M35 356q0 84 33.5 172t92 150t122.5 65q-157 112 -217 275q89 55 193 140t169 155h59q9 -7 25 -18t58 -40t76.5 -51t69.5 -40t48 -18q16 0 43 38t44 38t28 -16.5t11 -36.5q0 -28 -9 -56t-20.5 -50t-20.5 -67.5t-9 -105.5q0 -77 1.5 -152t6.5 -205t21.5 -211.5t40.5 -83.5 q10 0 26 14.5t23 14.5q17 0 17 -38q0 -55 -21.5 -106t-72 -88.5t-120.5 -37.5q-125 0 -169 234l-271 -245q-78 23 -126 56q-152 102 -152 314zM181 975q51 -89 144 -174.5t232 -131.5q1 103 8 230l-250 178zM290 426q0 -82 43 -146.5t103 -95.5l137 117q-16 124 -16 313 q-84 23 -171 67q-96 -122 -96 -255z" />
<glyph unicode="b" horiz-adv-x="1097" d="M39 1100l100 114v148q0 39 -8 70.5t-19 49t-24.5 29t-23 15.5t-15.5 4l2 65q24 33 77 33q47 0 90.5 -24.5t70.5 -51.5l133 62v-534l289 255q101 -31 187 -110.5t106 -149.5v-882q-321 -112 -357 -195h-143q0 32 -131 71.5t-252 39.5l-39 88l57 74v733q-45 58 -100 96z M422 373l264 -142l57 17l-2 700l-150 148q-121 -106 -169 -149v-574z" />
<glyph unicode="c" horiz-adv-x="677" d="M49 178v930q67 32 117.5 64t76 57t40.5 44t21.5 32t8.5 14l338 -145l-110 -232l-201 57l-33 -55v-551l137 -119l144 88l24 -36q-27 -63 -61.5 -116t-66 -85.5t-64.5 -58.5t-56 -38t-42.5 -21.5t-22.5 -12.5z" />
<glyph unicode="d" horiz-adv-x="1001" d="M-12 1368l125 246l809 -436l8 -969q-52 -14 -85 -25t-87.5 -36t-109.5 -67t-111 -101q-29 19 -46 29.5t-66 35t-93 38.5t-111.5 26t-136.5 12v913l249 140zM365 348q61 -46 130 -68q59 -18 98 -19q6 1 12 1q41 4 42 17l-2 720l-280 158v-809z" />
<glyph unicode="e" horiz-adv-x="800" d="M63 188v885q204 62 330 256l56 -8q17 -37 43.5 -73t63.5 -70.5t87.5 -57.5t106.5 -26v-86l-437 -518v-95q0 -57 53 -91q50 -32 110 -32h7q58 1 111 48.5t53 89.5l68 -37q-103 -255 -336 -387zM313 610l234 260l-234 107v-367z" />
<glyph unicode="f" horiz-adv-x="921" d="M39 1167q54 22 127 41v256q0 65 40 111t108.5 69t140 33t153.5 10q71 0 149 -23t124 -50q-9 -38 -71.5 -130.5t-101.5 -92.5l-12 6q-30 44 -119 77q-55 20 -92 20q-25 0 -41 -9t-16 -29v-224q45 -4 87 -14t48 -10q15 0 33.5 24.5t30.5 24.5q14 0 27.5 -22.5t13.5 -57.5 q0 -30 -13 -65q-29 -73 -49 -107t-43 -34q-3 0 -18.5 6.5t-47 16t-69.5 14.5v-705l68 -37l22 70l74 20q1 -17 2 -30t-1 -45.5t-8.5 -58.5t-22 -62t-38.5 -64.5t-62 -56.5t-89 -47l-289 201l82 98v724l-123 -3z" />
<glyph unicode="g" horiz-adv-x="1142" d="M2 -307q0 58 54.5 119t119.5 100.5t121.5 72.5t58.5 40q32 -17 81.5 -43t146.5 -69.5t128 -43.5q42 0 83.5 39t41.5 75q0 9 -3 17q-16 38 -41.5 71t-50.5 53.5t-48 35.5t-37 22l-14 6v2l-233 -170q-40 35 -87 64.5t-86.5 47t-73 29.5t-55.5 19t-24 8v902 q57 29 106.5 61.5t81 60t53.5 50t34.5 37.5t13.5 16h114q47 -58 273 -183l86 119h229v-336l-162 22v-197q0 -174 17.5 -295.5t42.5 -178.5t49.5 -93.5t42 -68.5t17.5 -74q0 -47 -20.5 -84.5t-60.5 -69.5t-84 -60.5t-105 -73.5t-110 -92l-487 123q-16 -14 -40.5 -35 t-74 -56.5t-67.5 -35.5q-31 0 -31 47zM348 328q176 0 242 -95l53 40v663q-26 15 -59.5 28.5t-64 22t-62 15.5t-53.5 11t-39 7l-17 2v-694z" />
<glyph unicode="h" horiz-adv-x="1214" d="M35 1466v205q7 0 21 -1t48.5 -9.5t65 -22t62 -43t47.5 -69.5q55 83 103.5 128t99.5 45q45 0 80.5 -25.5t35.5 -51.5q-59 0 -87.5 -34.5t-43 -148t-14.5 -347.5v-96l413 468l70 -51l-86 -101l252 -227v-760q0 -56 -58 -167q-52 -101 -246 -256t-468 -279l-41 51 q163 80 264.5 152.5t157.5 152t76 159.5t20 192v499q0 105 -42 164.5t-113 59.5q-58 0 -199 -195v-564q91 -66 149 -91q-41 -13 -84 -47.5t-73.5 -74t-47.5 -64.5t-22 -35q-36 35 -89.5 69.5t-95 54.5t-79.5 37t-41 19q35 17 106 109v770l-100 -27q-39 57 -39 105 q0 14 3.5 26t7.5 17l3 5l125 13v233q-33 33 -58 43t-83 10z" />
<glyph unicode="i" horiz-adv-x="604" d="M43 1053l76 -92v-809l172 -166l282 239l-41 56q-23 -13 -57 -13q-33 0 -51 20t-27.5 76t-9.5 162v557l-139 152zM263 1348q0 23 41 83.5t90 112t69 51.5q19 0 36.5 -15.5t17.5 -32.5q0 -34 -93.5 -132t-127.5 -98q-15 0 -24 11t-9 20z" />
<glyph unicode="j" horiz-adv-x="616" d="M-170 -244q129 29 210 118.5t81 236.5v847l-144 115l164 184l203 -155l86 78l76 -54l-107 -98v-790q0 -92 -33 -173.5t-86.5 -141.5t-124 -108t-143.5 -77.5t-147 -44.5zM215 1348q0 23 41.5 83.5t90.5 112t69 51.5q19 0 36.5 -15.5t17.5 -32.5q0 -34 -93.5 -132 t-127.5 -98q-15 0 -24.5 11t-9.5 20z" />
<glyph unicode="k" horiz-adv-x="1216" d="M35 1115q0 17 3 30t7 19l4 5l139 16v288q0 44 -21.5 62t-47.5 18q-6 0 -17 -1t-16 -1q-17 0 -31.5 14t-14.5 46q0 28 17.5 46t46.5 18q37 0 66 -12t45 -26.5t40.5 -26.5t52.5 -12q31 0 55.5 16t39 34.5t41.5 34.5t62 16t35 -33q0 -25 -10.5 -43t-22.5 -30t-22.5 -48.5 t-10.5 -94.5v-331l385 339q2 -15 5 -30t12.5 -43t22.5 -52t37.5 -51.5t55 -46.5t76 -32t100.5 -13h5q-23 -57 -62 -98.5t-78.5 -64.5t-76.5 -43.5t-64 -49t-34 -66.5q53 -26 89.5 -85t56.5 -128.5t39.5 -139t53 -130.5t82.5 -88q0 -19 -1 -37t-10 -57t-25 -71t-49 -69.5 t-79 -62.5h-170q0 160 -22 300q-118 -103 -171 -155.5t-80 -99.5q-47 -86 -98 -86q-21 0 -74 42.5t-110 85.5t-88 43q-16 0 -36 -10t-27 -10q-23 0 -38 23.5t-15 51.5q0 50 101 68v794l-116 -31q-18 29 -27.5 55.5t-9.5 43.5zM475 230q56 -14 92 -14q39 0 92.5 54t135.5 162 q-38 129 -97.5 189.5t-120.5 60.5q-50 0 -102 -15v-437zM475 780q55 20 116.5 49.5t99 44.5t68.5 15q26 0 53 -5q0 53 -14 104t-52.5 99.5t-96.5 69.5l-174 -139v-238z" />
<glyph unicode="l" horiz-adv-x="632" d="M47 1507l21 56q153 -26 251 -105q1 3 4 9t15 21.5t27.5 30t43.5 30.5t62 26v-1243q33 -33 62 -48.5t69 -15.5q0 -229 -211 -260l-254 180l51 52v757v15q-7 5 -19.5 14.5t-18.5 13.5t-18 11t-19.5 8t-22.5 4t-27 -2v47q5 0 19.5 1.5t20 2t17.5 2t17.5 3.5t14.5 4.5 t13.5 6.5t10 9t8.5 12q-7 79 -21.5 143t-30 100t-34 63t-29.5 36.5t-22 15.5z" />
<glyph unicode="m" horiz-adv-x="1771" d="M39 1003q0 19 5.5 38.5t20 41.5t25 38t34 40.5t33.5 35t37.5 36.5t32.5 31q75 0 119.5 -12.5t73.5 -48.5t40 -92.5t13 -152.5q132 122 365 342q96 -38 150 -118t67 -232l317 336h88q3 -10 9.5 -24.5t19 -38t31 -41.5t41 -31.5t53 -11.5t63.5 22l9 -22q-26 -22 -48 -62 t-22 -88v-637q0 -56 22 -69q8 -4 18 -4q19 0 48 16q5 -8 16 -22.5t13 -18.5q-4 -50 -36.5 -111.5t-74.5 -103t-70 -41.5q-58 0 -96 12t-69 44.5t-45.5 95.5t-14.5 161v596l-121 86l-147 -155v-375q0 -59 0.5 -88t3 -63t7.5 -48t15 -31.5t23 -27t35 -21.5q-40 -51 -108 -106 t-126 -88q-83 110 -221 166l86 168v460q0 114 -35.5 166t-75.5 52q-34 0 -53 -19q-73 -72 -137 -135q0 -34 -2 -126v-411l141 -110q-24 -21 -60 -78t-68.5 -98t-59.5 -41q-19 0 -148.5 95.5t-169.5 131.5l6 4q7 4 11.5 7t13 10.5t14 14.5t13 18.5t12 24t7.5 29t3 35.5v607 q0 27 -16 27q-14 0 -35.5 -19t-38 -38.5t-18.5 -19.5q-13 0 -26 28.5t-13 63.5z" />
<glyph unicode="n" horiz-adv-x="1196" d="M39 1055l221 209q51 0 82 -9t58 -38t41 -86.5t21 -151.5l331 305q68 -34 120 -80.5t78.5 -90t39 -77t12.5 -53.5q0 -136 -10 -321.5t-10 -253.5q0 -51 8.5 -83.5t30 -52t38.5 -27.5t53 -20q4 -1 4 -6q0 -29 -94.5 -123t-127.5 -94q-38 0 -99.5 68.5t-81.5 113.5v697 q0 21 -4.5 42t-15 45.5t-34 39.5t-56.5 15q-50 0 -177 -129q1 -47 1 -107q0 -181 -11 -484l151 -115l-250 -202l-245 215l6 3q6 4 9.5 6.5t10.5 8.5t12.5 12t12 14.5t11.5 19t9.5 22.5t6.5 27t2 32v612z" />
<glyph unicode="o" d="M40 139v53q29 0 47.5 18t18.5 49v738q279 79 424 305q26 -33 60 -68.5t89.5 -83t127 -83t144.5 -46.5v-835q-6 -2 -32 -11.5t-35 -13.5t-34.5 -14t-41 -17t-42.5 -19t-50.5 -24.5t-54 -28.5t-64 -35.5t-70.5 -41.5q-13 13 -28.5 26.5t-63.5 44t-99 50.5q-52 22 -132 34 q-47 7 -95 7q-34 0 -69 -4zM397 343q54 -11 103.5 -28t76.5 -29t58 -28t39 -19v597l-214 181l-63 -43v-631z" />
<glyph unicode="p" horiz-adv-x="1001" d="M39 152q43 35 97 64q-4 649 -91 849l145 190q151 -91 187 -274l227 287l283 -203q74 -215 74 -438q0 -212 -60 -398l-360 -231l-126 39q4 -71 7 -107q6 -67 33.5 -124t97.5 -109q-60 -43 -104 -43q-23 0 -41.5 13t-29.5 28.5t-30.5 28.5t-43.5 13q-26 0 -64 -32t-63 -32 q-30 0 -36 28t-6 181q0 30 0.5 110.5t0.5 129.5zM389 848q3 -283 14 -570q112 -5 209 -51l56 15q42 210 42 393q0 259 -167 409l-154 -185v-11z" />
<glyph unicode="q" horiz-adv-x="1021" d="M35 1001q44 17 124 65.5t166 121t111 129.5q102 -102 241 -149q88 -29 175 -29q50 0 100 10l33 -35l-61 -70l16 -1146l45 -82l-20 -52q-46 38 -82 38q-27 0 -47 -15.5t-31.5 -33.5t-33 -33.5t-50.5 -15.5q-36 0 -72 26v534q-142 -117 -297 -266q-52 79 -133 113 q-66 28 -115 28q-11 0 -22 -2v763q0 27 -12 52.5t-24 37.5zM365 369q0 -39 37.5 -80t91.5 -41q85 0 155 82v608q-45 30 -114.5 58t-133.5 36l-36 -37v-626z" />
<glyph unicode="r" horiz-adv-x="819" d="M2 991l170 266q145 -97 203 -236l227 249l178 -170l-145 -250h-64q0 47 -31.5 83.5t-71.5 36.5q-31 0 -67 -36q7 -44 7 -78v-498l102 -86q43 25 64.5 39t57 49t64.5 82l76 -30q-74 -123 -167.5 -224t-254.5 -202l-225 186v662q0 34 -12.5 63t-30.5 45.5t-36.5 28 t-31.5 15.5z" />
<glyph unicode="s" horiz-adv-x="1052" d="M-15 67q0 24 13 37.5t37.5 24.5t32.5 18q10 8 21.5 20t19 21.5t19.5 25.5t17 22l182 241l-253 166l4 412q54 0 141.5 53.5t148.5 107t66 66.5q7 -5 19.5 -13.5t49.5 -30t73.5 -37.5t85.5 -29.5t91 -13.5q56 0 108 23q33 35 33 62q0 13 -10.5 26.5t-23 24t-23 28 t-10.5 38.5q0 34 27 57t61 23q53 0 87 -43t34 -94q0 -40 -19.5 -80t-39 -62.5t-60 -61t-51.5 -50.5q-77 -85 -193 -228l267 -159l4 -465q-54 -7 -146.5 -57t-160 -97t-78.5 -61l-7 5q-7 5 -17 11t-26 15t-33.5 17.5t-40 18.5t-46 18t-51.5 15.5t-55.5 11t-58 5t-60.5 -2.5 q-20 -32 -47.5 -49.5t-74.5 -17.5q-57 0 -57 38zM302 326q56 -1 112.5 -12.5t98 -27.5t75 -31.5t50.5 -26.5l17 -11l29 293l-168 111q-134 -176 -214 -295zM348 1028l2 -262l129 -86l198 264q-53 7 -130 27t-136 38t-63 19z" />
<glyph unicode="t" horiz-adv-x="751" d="M39 1024v100l397 387v-264h275v-194h-275v-711l129 -68l105 105l63 -43l-321 -356q-44 44 -137.5 105.5t-194.5 111.5v36l78 56v735h-119z" />
<glyph unicode="u" horiz-adv-x="1089" d="M25 1011l200 245l262 -220l-96 -112l2 -498q0 -80 8.5 -118.5t21.5 -48t41 -9.5q30 0 77 42t159 160l-1 478l-124 103l200 245l263 -220l-88 -107v-402q0 -125 25.5 -206t89.5 -132l-182 -219q-91 17 -137 90.5t-46 191.5v16l-301 -298q-15 8 -53.5 28.5t-59.5 32.5 t-52.5 35.5t-48 45.5t-29.5 55t-13 71v648z" />
<glyph unicode="v" horiz-adv-x="1120" d="M25 1243q166 208 417 330l66 -78l-172 -145q108 -183 163 -361q21 21 48.5 49.5t45.5 47t40.5 41l37 37t31 30.5t28 25.5t22.5 18t18.5 12t12.5 3.5q23 0 56.5 -19t74.5 -67.5t75.5 -119t58 -188t23.5 -259.5q0 -80 -25.5 -154.5t-64 -130.5t-93 -108t-102 -85.5 t-103.5 -64t-85 -43.5t-57 -24q-81 56 -209.5 108t-245.5 66v51q104 17 135.5 90.5t31.5 269.5q0 227 -53 378.5t-175 289.5zM496 340q157 -60 280 -84q36 245 36 359q0 26 -0.5 46.5t-3.5 63.5t-9 76.5t-18.5 74t-29 67.5t-43.5 45.5t-61 18.5q-74 0 -140 -70z" />
<glyph unicode="w" horiz-adv-x="1732" d="M33 1237l162 246q99 -49 166 -111.5t111 -155.5q315 293 342 293q88 0 149.5 -122t92.5 -352l322 237q53 -18 88.5 -38t74 -65t61 -112t37 -179t14.5 -264q0 -138 -21.5 -220.5t-69 -129t-99.5 -73.5t-138.5 -78.5t-159.5 -118.5l-320 206l-263 -130q-71 11 -191 29 q-192 28 -258 45.5t-66 52.5q0 21 18 37t37.5 23t41.5 12l22 5q29 13 48.5 69t26.5 133.5t9.5 125.5t2.5 89q0 31 -2.5 63t-16.5 92.5t-37.5 118t-71 131.5t-112.5 141zM508 1119q52 -177 52 -467q0 -172 -32 -351l148 -86l128 103q31 160 31 312q0 342 -126 656zM1065 956 q20 -195 20 -438v-196l238 -95q39 69 57 175q15 86 15 177q-1 21 -1 45q-4 116 -40.5 236.5t-102.5 204.5z" />
<glyph unicode="x" horiz-adv-x="880" d="M39 -178l147 474v538q0 34 -12.5 63t-30.5 45.5t-36.5 28t-30.5 15.5l-13 5l170 266q145 -97 203 -236l228 249l178 -170l-146 -250h-63q0 47 -32 83.5t-72 36.5q-31 0 -67 -36q7 -44 7 -78v-498l102 -86q44 25 65 39t57 49t65 82l76 -30q-74 -123 -167.5 -224 t-254.5 -202l-176 145l-123 -393z" />
<glyph unicode="y" horiz-adv-x="1060" d="M20 1022l181 240q181 -33 254 -317q50 63 95.5 125t66 91.5t42 55t38.5 33.5t42 8t60.5 -16t75 -49t73 -77t55.5 -107.5t22 -132.5q0 -384 -715 -913q-44 -42 -44 -81q0 -42 27.5 -74.5t56.5 -32.5h258v-115h-266q-84 0 -139 70.5t-55 157.5q0 33 10 68q6 30 29.5 122.5 t37.5 175t14 160.5q0 52 -7.5 111t-28 144.5t-67.5 179t-116 173.5zM471 219q262 291 262 543q0 43 -16.5 82t-43 67t-49.5 46t-46 30q-17 -21 -52 -62t-53 -62q31 -165 31 -384q0 -160 -33 -260z" />
<glyph unicode="z" horiz-adv-x="956" d="M20 1087q41 56 121 123t144 101q3 -2 10 -6q210 -127 506 -168l18 -43q-113 -118 -191.5 -186.5t-224.5 -166.5h18q68 1 142 -19q84 -22 161.5 -68.5t128 -128t50.5 -183.5q0 -60 -24 -131.5t-68 -145t-111 -140t-146.5 -116t-182.5 -73.5q-69 -16 -140 -16q-35 0 -71 4 l-23 34l219 144q32 -12 68 -15q9 -1 17 -1q28 0 57 8q38 10 69 31.5t51 66t20 105.5q0 101 -37.5 184.5t-96.5 136.5t-134 88q-74 36 -148 48q-52 9 -101 8q-20 0 -39 -1l-25 23l365 286q-173 173 -402 217z" />
<glyph unicode="{" horiz-adv-x="610" d="M45 621v118q87 0 144 78.5t57 202.5q0 41 -11.5 133t-11.5 145q0 100 36.5 185.5t114.5 142.5t185 57v-59v-59q-101 0 -159 -74t-58 -193q0 -38 11.5 -130.5t11.5 -147.5q0 -106 -38 -198.5t-112 -147.5q72 -54 111 -141.5t39 -192.5q0 -55 -11.5 -148t-11.5 -131 q0 -119 58 -192.5t159 -73.5v-59v-60q-107 0 -185 57t-114.5 142.5t-36.5 185.5q0 53 11.5 145.5t11.5 133.5q0 118 -53 192t-148 89z" />
<glyph unicode="|" horiz-adv-x="245" d="M39 -92v1788h154v-1788h-154z" />
<glyph unicode="}" horiz-adv-x="610" d="M45 -205v-59v-60q107 0 185 57t114.5 142.5t36.5 185.5q0 53 -11.5 145.5t-11.5 133.5q0 118 53 192t148 89v118q-87 0 -144 78.5t-57 202.5q0 41 11.5 133t11.5 145q0 100 -36.5 185.5t-114.5 142.5t-185 57v-59v-59q101 0 159 -74t58 -193q0 -38 -11 -130.5t-11 -147.5 q0 -106 37.5 -198.5t111.5 -147.5q-71 -54 -110 -141.5t-39 -192.5q0 -55 11 -148t11 -131q0 -119 -58 -192.5t-159 -73.5z" />
<glyph unicode="~" horiz-adv-x="2121" d="M78 614q33 109 112.5 194t184.5 128q99 41 217 41q92 0 184 -25q131 -36 340 -153q190 -106 295 -135q71 -19 137 -19q81 0 148 27q67 28 118.5 83.5t71.5 123.5l88 -29l88 -27q-33 -109 -112 -193.5t-185 -127.5q-99 -41 -217 -41q-96 0 -184 24q-59 16 -125.5 45 t-103.5 48.5t-109 60.5q-188 105 -297 135q-71 19 -137 19q-80 0 -148 -27q-67 -28 -118.5 -83.5t-71.5 -123.5l-88 27z" />
<glyph unicode="&#xa1;" horiz-adv-x="696" d="M61 0h574l-254 969l-80 2zM96 1450l250 -252l250 252l-250 250z" />
<glyph unicode="&#xa2;" d="M39 160v53q35 0 51 16t16 52v737q151 41 261 127q62 47 116 113v137h60h59v-154q86 -87 189 -143q93 -49 159 -58l-280 -184q-22 19 -68 59v-619q288 -112 293 -112q-91 -30 -205 -88q-41 -21 -88 -48v-161h-59h-60v153q-65 50 -139 79q-142 58 -305 41zM397 365 q33 -7 86 -24v678q-8 7 -22 19q-10 -7 -32 -22.5t-32 -22.5v-628z" />
<glyph unicode="&#xa3;" horiz-adv-x="1165" d="M0 692h120q-37 -384 -42 -516q-25 -45 -25 -94q0 -8 5 -8q2 0 16 6.5t39 16t59 19.5t85 16.5t107 6.5q256 0 474 -123l303 443v57h-78q0 -29 -58 -60.5t-121 -31.5q-32 0 -109 12.5t-113 12.5q-98 0 -226 -39q11 117 16 282h304v154h-300q3 184 3 321q0 65 21 129 t67 110.5t105 46.5q39 0 63 -17.5t24 -53.5q0 -22 -11 -62.5t-11 -60.5q0 -48 35 -76.5t77 -28.5q62 0 114.5 46t52.5 111q0 128 -95.5 192t-238.5 64q-132 0 -228 -43.5t-157.5 -131t-95 -207.5t-44.5 -284q0 -9 -1.5 -27.5t-2.5 -27.5h-133v-154z" />
<glyph unicode="&#xa4;" d="M-145 344l184 183v14l5 -1h8l55 55q0 4 -1 9v4v572q4 1 16 4.5t19 5.5l-286 287l43 43l41 41l322 -322q58 31 106 68q89 65 163 178q114 -144 249 -219l294 295l43 -41l41 -43l-261 -262q36 -11 54 -13v-651l207 -207l-41 -43l-43 -41l-233 231q-77 -30 -150 -67 q-91 -48 -164 -94q-73 73 -182 116q-84 34 -177 43l-228 -229l-41 41zM397 692q84 -19 146 -45q25 -10 60 -26t55 -25.5t20 -7.5q0 102 -4 213.5t-4 216.5q-34 29 -104 90t-105 90q-10 -7 -32 -21.5t-32 -21.5v-463z" />
<glyph unicode="&#xa5;" horiz-adv-x="983" d="M66 645v911l299 160v-854h282l-2 660l277 180l8 -971q-15 -3 -42 -10t-101.5 -40.5t-139.5 -80.5v-209h209l-76 -182h-133v-209h-299v209h-203l76 182h127v206q-170 57 -282 48z" />
<glyph unicode="&#xa6;" horiz-adv-x="245" d="M39 -98v778h154v-778h-154zM39 918v778h154v-778h-154z" />
<glyph unicode="&#xa7;" horiz-adv-x="1052" d="M35 -92l162 270q157 8 407 -82l-2 262l-485 154l-4 465q47 15 108 41l-108 39l4 409q89 19 149 58t207 172q60 -60 132 -89t131.5 -27.5t110.5 12t80 24.5l29 14l-161 -270q-185 0 -408 80l2 -260l485 -154l3 -465q-47 -15 -106 -41l106 -39l-3 -411q-89 -19 -149 -58 t-207 -172q-12 10 -34.5 25t-89.5 46.5t-132 45.5q-74 12 -124.5 1t-76.5 -30zM373 664l217 -79l28 289l-217 79z" />
<glyph unicode="&#xa8;" horiz-adv-x="1105" d="M150 1491l190 190l192 -190l-192 -193zM557 1491l193 190l190 -190l-190 -193z" />
<glyph unicode="&#xa9;" horiz-adv-x="1566" d="M61 840q0 177 69.5 339t187 279t279.5 186.5t339 69.5t339 -69.5t279 -186.5t186.5 -279t69.5 -339t-69.5 -339t-186.5 -279.5t-279 -187t-339 -69.5t-339 69.5t-279.5 187t-187 279.5t-69.5 339zM246 840q0 -140 55 -267t147.5 -219.5t220 -147t267.5 -54.5t267.5 54.5 t220 147t147.5 219.5t55 267q0 186 -93 345t-252 252t-345 93t-345 -93t-252 -252t-93 -345zM450 851q0 160 88.5 276t222.5 159l33 -51l112 117q40 22 88 22q42 0 82 -21t77.5 -42t72.5 -21q43 0 75 29l36 -51l-186 -173q-57 24 -113 41v-618q26 -3 52 -3q112 0 216 46 l33 -33q-22 -31 -53 -60.5t-78 -62t-111.5 -52.5t-135.5 -20q-140 0 -259 73.5t-185.5 192.5t-66.5 252zM635 910q0 -106 58 -195l49 32l-1 416q-106 -104 -106 -253zM738 658q82 -85 201 -121v624q-23 5 -61 10l-3 -427l-133 -84z" />
<glyph unicode="&#xaa;" horiz-adv-x="698" d="M25 1020q0 92 52.5 179t120.5 91q-109 77 -152 193q63 39 136 98t118 108h41q160 -117 194 -117q11 0 30 26.5t31 26.5t19.5 -11.5t7.5 -25.5q0 -23 -20.5 -74.5t-20.5 -120.5q0 -453 49 -457q7 0 18 10.5t16 10.5q12 0 12 -26q0 -61 -39 -112t-111 -51q-87 0 -118 164 l-190 -172q-94 28 -141 89q-53 68 -53 171zM127 1453q35 -62 100.5 -122.5t162.5 -92.5q1 103 6 161l-175 125zM203 1068q0 -58 30 -102.5t72 -66.5l96 82q-11 87 -11 219q-67 18 -120 46q-67 -85 -67 -178z" />
<glyph unicode="&#xab;" horiz-adv-x="1067" d="M55 575l475 459l-249 -450l256 -486zM537 575l475 459l-250 -450l256 -486z" />
<glyph unicode="&#xac;" horiz-adv-x="2048" d="M401 643v119h1106v-440h-118v321h-988z" />
<glyph unicode="&#xad;" horiz-adv-x="794" d="M98 305l555 410l60 -78l-557 -410zM100 807l555 410l58 -80l-555 -410z" />
<glyph unicode="&#xae;" horiz-adv-x="2103" d="M260 840q0 177 69.5 339t187 279t279.5 186.5t339 69.5t339 -69.5t279 -186.5t186.5 -279t69.5 -339t-69.5 -339t-186.5 -279.5t-279 -187t-339 -69.5t-339 69.5t-279.5 187t-187 279.5t-69.5 339zM444 840q0 -237 148 -425q84 67 220 127v166q-37 63 -106.5 93t-147.5 8 l-6 13q15 20 36.5 41.5t55 48t78 43t90.5 16.5v79q0 35 -33 62.5t-90 27.5q-65 0 -131 -42l-22 60q34 26 139 100.5t115 74.5q79 0 180 -111q33 -36 44 -86q56 80 143 134.5t165 54.5q102 0 194.5 -57.5t94.5 -121.5q0 -55 -73 -118t-132 -91q64 -52 100.5 -115t47.5 -110.5 t24 -89t46 -64t99 -22.5v-15q-31 -61 -94.5 -111.5t-152.5 -50.5q-38 0 -61 20.5t-31 54t-13 76.5t-7 88t-14 88.5t-32.5 77t-64 54.5t-107.5 22v-307q24 -7 55 -7q63 0 141 51l16 -37l-194 -199q-61 29 -156.5 55t-179.5 26q-107 0 -208 -40q97 -108 231 -169t284 -61 q140 0 267.5 54.5t220 147t147.5 219.5t55 267q0 186 -93 345t-252 252t-345 93q-140 0 -267.5 -55t-220.5 -147.5t-148 -220t-55 -267.5zM1018 1112q1 -6 1 -19v-524q28 -2 57 -10v586q-24 -11 -58 -33zM1146 924q76 -4 79 -4q76 0 114.5 38t38.5 84q0 10 -2.5 23.5 t-12.5 34.5t-25.5 37.5t-45 28.5t-67.5 12q-43 0 -79 -9v-245z" />
<glyph unicode="&#xaf;" horiz-adv-x="1122" d="M78 1356l31 -94q9 4 30.5 10.5t115 20t218.5 18.5q52 2 122 -1t113 -6l44 -4q86 84 133 127q21 19 57.5 46t63.5 44l26 17l-102 100q-8 -9 -21 -22t-49 -38t-67 -32t-90.5 1t-128 23t-80.5 17q-59 10 -96.5 6t-65.5 -26z" />
<glyph unicode="&#xb0;" horiz-adv-x="811" d="M33 1339q0 141 109 241.5t261 100.5t260.5 -100.5t108.5 -241.5t-108.5 -240.5t-260.5 -99.5q-153 0 -261.5 99.5t-108.5 240.5zM172 1356q0 -74 57 -127t136 -53t134.5 53t55.5 127t-55.5 127t-134.5 53t-136 -53t-57 -127z" />
<glyph unicode="&#xb1;" horiz-adv-x="993" d="M63 0v184h871v-184h-871zM63 803v186h357v324h184v-324h330v-186h-330v-363h-184v363h-357z" />
<glyph unicode="&#xb2;" horiz-adv-x="915" d="M39 1480q0 59 53 109.5t133 78t163 27.5q113 0 182 -51.5t69 -153.5q0 -52 -13.5 -101t-29.5 -83t-51.5 -78t-56.5 -65.5t-69 -67.5t-65 -63l289 -6l195 139l84 -110l-291 -248l-510 43q-49 4 -49 37q0 34 31 65.5t75 62.5t88 68.5t75 98.5t31 137q0 59 -29.5 97.5 t-82.5 38.5q-32 0 -76 -24t-73 -24q-32 0 -52 20.5t-20 52.5z" />
<glyph unicode="&#xb3;" horiz-adv-x="583" d="M25 780v4l129 142q1 -1 5.5 -6t8 -8.5t11 -9t14.5 -9t17.5 -6t21.5 -2.5q29 0 50 18t30 46t12.5 49.5t3.5 39.5q0 49 -27 80t-66 43.5t-78 21t-66 23t-27 39.5q0 27 29 57t63 52.5t63 52.5t29 58q0 38 -38 81t-75 43q-15 0 -38 -13.5t-33 -13.5q-16 0 -24 14t-8 32 q0 26 12 42.5t28 24t37.5 29.5t35.5 55l7 4q75 9 154.5 -21.5t131.5 -85t52 -110.5q0 -96 -162 -194q84 -22 154 -95t70 -168q0 -84 -65.5 -174.5t-159.5 -149t-175 -58.5q-29 0 -53 10t-34.5 19.5t-24.5 26t-15 17.5z" />
<glyph unicode="&#xb4;" horiz-adv-x="624" d="M20 1276l373 416l221 -262l-489 -300z" />
<glyph unicode="&#xb5;" horiz-adv-x="1060" d="M47 1053l180 196h76l182 -211l-104 -112l1 -590l40 -72h35l237 211q13 479 13 481l-142 129l197 187h82l155 -213l-22 -742q2 -54 41 -77v-47l-170 -213q-32 17 -47 26t-36.5 28t-30.5 41.5t-19 59t-13.5 87.5t-3.5 122l-316 -318l1 -399h-272v593v1l2 760z" />
<glyph unicode="&#xb6;" horiz-adv-x="1931" d="M26 820q0 80 13 159t47 167.5t87 166t138.5 149t194.5 122.5t263 81.5t337 30.5q25 0 63 -1.5t100 -6t119.5 -14t111 -23.5t85.5 -37.5t32 -52.5t-27 -54t-60 -25q-19 0 -75 23.5t-141.5 51.5t-168.5 37v-1478q76 6 140.5 22.5t107 39t77 48.5t53.5 51t32 45t17 32l4 13 l61 1l-18 -210q-6 -8 -33.5 -25.5t-85 -41t-130 -44.5t-179 -36t-220.5 -15q-170 0 -321 45.5t-263.5 125t-195 184t-124 225t-41.5 244.5zM824 1575l1 -1445q52 -11 188 -15v1481q-112 -6 -189 -21z" />
<glyph unicode="&#xb7;" horiz-adv-x="573" d="M35 627l250 250l250 -250l-250 -250z" />
<glyph unicode="&#xb8;" horiz-adv-x="497" d="M35 201l115 172q77 -9 143 -54q6 -4 17 -12.5t32 -29.5t39.5 -46t34.5 -63t22 -78q26 -183 -168 -354q-31 -26 -59.5 -43.5t-56.5 -26.5t-42.5 -12t-42 -5.5t-30.5 -2.5l-2 32q70 60 90 78q115 106 115 230q0 110 -70 159q-35 24 -67.5 38.5t-49 17.5t-20.5 0z" />
<glyph unicode="&#xb9;" horiz-adv-x="542" d="M64 852q0 -21 41 -21h350q41 0 41 22q0 14 -12 28.5t-26 26t-26 36t-12 57.5v519q0 33 12 57t26 35.5t26 26t12 28.5q0 23 -41 23l-350 1q-41 0 -41 -23q0 -14 12 -28.5t26.5 -26t26.5 -36t12 -57.5v-520q0 -33 -12 -57.5t-26.5 -36t-26.5 -26t-12 -28.5z" />
<glyph unicode="&#xba;" horiz-adv-x="692" d="M28 865v38q20 0 33 12.5t13 34.5v516q195 55 297 214q19 -24 42.5 -48.5t62.5 -58.5t88.5 -58.5t100.5 -32.5v-584q-3 -1 -22 -8t-24.5 -9.5t-24.5 -9.5t-29 -12t-29.5 -13.5t-35 -17t-37.5 -20t-45 -25t-49 -28.5q-9 9 -20 18.5t-44.5 31t-69.5 35.5t-92.5 22.5 t-114.5 2.5zM278 1008q37 -8 72 -19.5t54 -20.5t40.5 -19.5t27.5 -13.5v418l-150 127l-44 -30v-442z" />
<glyph unicode="&#xbb;" horiz-adv-x="1067" d="M55 98l482 477l-476 459l250 -450zM537 98l481 477l-475 459l250 -450z" />
<glyph unicode="&#xbc;" horiz-adv-x="2160" d="M39 45h127l1300 1606h-114zM64 852q0 -21 41 -21h350q41 0 41 22q0 14 -12 28.5t-26 26t-26 36t-12 57.5v519q0 33 12 57t26 35.5t26 26t12 28.5q0 23 -41 23l-350 1q-41 0 -41 -23q0 -14 12 -28.5t26.5 -26t26.5 -36t12 -57.5v-520q0 -33 -12 -57.5t-26.5 -36t-26.5 -26 t-12 -28.5zM938 219l674 653h94v-514h436l-82 -206h-354v-428l-195 59v369h-542zM1235 358h276v267z" />
<glyph unicode="&#xbd;" horiz-adv-x="1835" d="M39 45h127l1300 1606h-114zM64 852q0 -21 41 -21h350q41 0 41 22q0 14 -12 28.5t-26 26t-26 36t-12 57.5v519q0 33 12 57t26 35.5t26 26t12 28.5q0 23 -41 23l-350 1q-41 0 -41 -23q0 -14 12 -28.5t26.5 -26t26.5 -36t12 -57.5v-520q0 -33 -12 -57.5t-26.5 -36t-26.5 -26 t-12 -28.5zM961 641q-5 21 2 51q10 39 51 80q48 48 125 74q116 40 223 26q56 -6 104 -34q49 -28 74 -80q22 -49 19 -101q-3 -45 -25 -98q-39 -88 -127 -194q-75 -90 -127 -144l-6 -8h10l275 -6h2h2l194 139l84 -110l-291 -248l-510 43q-10 0 -22 4q-14 5 -19 12q-8 12 -8 21 q0 14 2 22q6 18 35 47q21 21 45 39q6 5 23.5 18.5t25 19.5l22.5 18t24 20.5t21 20t21.5 23t18.5 23.5q39 54 53 113q18 73 0 125q-13 42 -45 61q-37 22 -74 17q-20 -3 -47 -14q-7 -3 -21.5 -11.5t-21.5 -11.5q-23 -10 -43 -10q-25 0 -43 12q-19 14 -26 41z" />
<glyph unicode="&#xbe;" horiz-adv-x="2199" d="M25 780v4l129 142q1 -1 5.5 -6t8 -8.5t11 -9t14.5 -9t17.5 -6t21.5 -2.5q29 0 50 18t30 46t12.5 49.5t3.5 39.5q0 49 -27 80t-66 43.5t-78 21t-66 23t-27 39.5q0 27 29 57t63 52.5t63 52.5t29 58q0 38 -38 81t-75 43q-15 0 -38 -13.5t-33 -13.5q-16 0 -24 14t-8 32 q0 26 12 42.5t28 24t37.5 29.5t35.5 55l7 4q75 9 154.5 -21.5t131.5 -85t52 -110.5q0 -96 -162 -194q84 -22 154 -95t70 -168q0 -84 -65.5 -174.5t-159.5 -149t-175 -58.5q-29 0 -53 10t-34.5 19.5t-24.5 26t-15 17.5zM78 45h127l1300 1606h-114zM977 219l674 653h94v-514 h436l-82 -206h-354v-428l-195 59v369h-542zM1274 358h276v267z" />
<glyph unicode="&#xbf;" horiz-adv-x="776" d="M46 221q0 43 24.5 97.5t60 102.5t71 90t60.5 67l24 24q1 0 12.5 -3t25 -6.5t33.5 -7.5t41 -8t43 -7.5t45 -5.5t42 -2q31 0 55.5 15.5t37.5 34t25.5 34t21.5 15.5t19.5 -7.5t21 -29t10.5 -52.5q0 -32 -26 -67.5t-57 -60t-59 -48t-31 -34.5q-6 -27 -19 -53 q-19 5 -43.5 11.5t-41.5 11.5t-36.5 10t-32.5 7t-27 3t-23 -2t-16 -8.5t-10.5 -15.5t-3.5 -25q0 -30 19 -65.5t38 -56.5l19 -21l-194 -168q-5 3 -14 9.5t-31 28t-39 46.5t-31 64.5t-14 82.5zM122 911q61 41 103 90.5t58.5 92t23.5 78t8 60.5t3 28q6 -11 19.5 -31.5 t40.5 -52.5t57 -59t71 -46.5t80 -19.5q11 0 20.5 2t13.5 4l3 2l19 -43l-171 -273q-230 121 -349 168z" />
<glyph unicode="&#xc0;" horiz-adv-x="1777" d="M34.5 1297.5q19.5 87.5 98.5 177.5q174 196 395 249q55 13 94 19.5t109.5 4.5t130.5 -24q72 -27 130.5 -76.5t96.5 -110t60.5 -110.5t38.5 -102q6 7 19.5 22.5t19.5 22.5v139v7q117 104 266 157q82 29 199 37l9 -8q9 -7 16.5 -15t16.5 -20.5t13.5 -29t3.5 -35.5 q0 -18 -20 -48q-41 21 -83 19.5t-69 -25.5q-11 -9 -19 -24t-11 -25.5t-6 -24.5t-3 -16q-2 -6 0 -35q8 -66 0 -981q0 -42 14 -84q18 -51 27 -51h2q5 -1 13 8.5t12 18.5q8 18 8 51v10h70q13 -94 -3 -166q-24 -105 -95 -194.5t-163 -85.5q-30 1 -59 14t-48.5 30t-29.5 27.5 t-14 16.5q-41 55 -47 151q-2 11 -2 23.5t1 19.5l1 7v2q2 18 2 137q-42 -43 -118.5 -122t-139.5 -144t-119 -123q-56 16 -86 51q-26 29 -40 85t-32 85q-33 56 -94 96q-1 1 -13 8t-17.5 10t-19.5 10t-23 10t-23 7.5t-25.5 5t-25.5 -0.5t-27 -5q-35 -10 -67 -40.5t-54 -69 t-34 -66t-19 -47.5q-2 -5 -7.5 -23t-8 -24.5t-9 -20.5t-11.5 -20t-13.5 -13t-18.5 -10q-41 -13 -88 29q-27 11 -39 59q-26 88 82 234q30 42 52 69t63 68t92.5 71.5t112.5 49.5q71 23 119 31q35 40 104 120.5t104 120.5v2h5q12 15 35 42t36 42q3 65 -8 140q-9 62 -18 100.5 t-37 93.5t-72 92q-68 59 -161 77t-171 -9q-36 -12 -66.5 -30t-63.5 -51t-52.5 -56.5t-62.5 -75.5q-64 -99 -78 -123l-13 -20l-8 20q-36 98 -16.5 185.5zM733 614q39 -17 63 -43.5t34 -52.5t34.5 -62.5t61.5 -66.5q25 -20 39 -30.5t39 -20t47 -4.5q10 3 29.5 21.5t53.5 56 t42 45.5q42 49 55 67v160h-438q-10 -12 -30 -35t-30 -35zM948 870h281v332q-274 -323 -281 -332zM1090 2255l491 -299l102 145l-370 416z" />
<glyph unicode="&#xc1;" horiz-adv-x="1777" d="M34.5 1297.5q19.5 87.5 98.5 177.5q174 196 395 249q55 13 94 19.5t109.5 4.5t130.5 -24q72 -27 130.5 -76.5t96.5 -110t60.5 -110.5t38.5 -102q6 7 19.5 22.5t19.5 22.5v139v7q117 104 266 157q82 29 199 37l9 -8q9 -7 16.5 -15t16.5 -20.5t13.5 -29t3.5 -35.5 q0 -18 -20 -48q-41 21 -83 19.5t-69 -25.5q-11 -9 -19 -24t-11 -25.5t-6 -24.5t-3 -16q-2 -6 0 -35q8 -66 0 -981q0 -42 14 -84q18 -51 27 -51h2q5 -1 13 8.5t12 18.5q8 18 8 51v10h70q13 -94 -3 -166q-24 -105 -95 -194.5t-163 -85.5q-30 1 -59 14t-48.5 30t-29.5 27.5 t-14 16.5q-41 55 -47 151q-2 11 -2 23.5t1 19.5l1 7v2q2 18 2 137q-42 -43 -118.5 -122t-139.5 -144t-119 -123q-56 16 -86 51q-26 29 -40 85t-32 85q-33 56 -94 96q-1 1 -13 8t-17.5 10t-19.5 10t-23 10t-23 7.5t-25.5 5t-25.5 -0.5t-27 -5q-35 -10 -67 -40.5t-54 -69 t-34 -66t-19 -47.5q-2 -5 -7.5 -23t-8 -24.5t-9 -20.5t-11.5 -20t-13.5 -13t-18.5 -10q-41 -13 -88 29q-27 11 -39 59q-26 88 82 234q30 42 52 69t63 68t92.5 71.5t112.5 49.5q71 23 119 31q35 40 104 120.5t104 120.5v2h5q12 15 35 42t36 42q3 65 -8 140q-9 62 -18 100.5 t-37 93.5t-72 92q-68 59 -161 77t-171 -9q-36 -12 -66.5 -30t-63.5 -51t-52.5 -56.5t-62.5 -75.5q-64 -99 -78 -123l-13 -20l-8 20q-36 98 -16.5 185.5zM733 614q39 -17 63 -43.5t34 -52.5t34.5 -62.5t61.5 -66.5q25 -20 39 -30.5t39 -20t47 -4.5q10 3 29.5 21.5t53.5 56 t42 45.5q42 49 55 67v160h-438q-10 -12 -30 -35t-30 -35zM948 870h281v332q-274 -323 -281 -332zM1087 2097l373 416l221 -262l-489 -299z" />
<glyph unicode="&#xc2;" horiz-adv-x="1777" d="M34.5 1297.5q19.5 87.5 98.5 177.5q174 196 395 249q55 13 94 19.5t109.5 4.5t130.5 -24q72 -27 130.5 -76.5t96.5 -110t60.5 -110.5t38.5 -102q6 7 19.5 22.5t19.5 22.5v139v7q117 104 266 157q82 29 199 37l9 -8q9 -7 16.5 -15t16.5 -20.5t13.5 -29t3.5 -35.5 q0 -18 -20 -48q-41 21 -83 19.5t-69 -25.5q-11 -9 -19 -24t-11 -25.5t-6 -24.5t-3 -16q-2 -6 0 -35q8 -66 0 -981q0 -42 14 -84q18 -51 27 -51h2q5 -1 13 8.5t12 18.5q8 18 8 51v10h70q13 -94 -3 -166q-24 -105 -95 -194.5t-163 -85.5q-30 1 -59 14t-48.5 30t-29.5 27.5 t-14 16.5q-41 55 -47 151q-2 11 -2 23.5t1 19.5l1 7v2q2 18 2 137q-42 -43 -118.5 -122t-139.5 -144t-119 -123q-56 16 -86 51q-26 29 -40 85t-32 85q-33 56 -94 96q-1 1 -13 8t-17.5 10t-19.5 10t-23 10t-23 7.5t-25.5 5t-25.5 -0.5t-27 -5q-35 -10 -67 -40.5t-54 -69 t-34 -66t-19 -47.5q-2 -5 -7.5 -23t-8 -24.5t-9 -20.5t-11.5 -20t-13.5 -13t-18.5 -10q-41 -13 -88 29q-27 11 -39 59q-26 88 82 234q30 42 52 69t63 68t92.5 71.5t112.5 49.5q71 23 119 31q35 40 104 120.5t104 120.5v2h5q12 15 35 42t36 42q3 65 -8 140q-9 62 -18 100.5 t-37 93.5t-72 92q-68 59 -161 77t-171 -9q-36 -12 -66.5 -30t-63.5 -51t-52.5 -56.5t-62.5 -75.5q-64 -99 -78 -123l-13 -20l-8 20q-36 98 -16.5 185.5zM733 614q39 -17 63 -43.5t34 -52.5t34.5 -62.5t61.5 -66.5q25 -20 39 -30.5t39 -20t47 -4.5q10 3 29.5 21.5t53.5 56 t42 45.5q42 49 55 67v160h-438q-10 -12 -30 -35t-30 -35zM948 870h281v332q-274 -323 -281 -332zM1044 1970l107 -90l192 223l248 -237l154 245l-309 314z" />
<glyph unicode="&#xc3;" horiz-adv-x="1777" d="M34.5 1297.5q19.5 87.5 98.5 177.5q174 196 395 249q55 13 94 19.5t109.5 4.5t130.5 -24q72 -27 130.5 -76.5t96.5 -110t60.5 -110.5t38.5 -102q6 7 19.5 22.5t19.5 22.5v139v7q117 104 266 157q82 29 199 37l9 -8q9 -7 16.5 -15t16.5 -20.5t13.5 -29t3.5 -35.5 q0 -18 -20 -48q-41 21 -83 19.5t-69 -25.5q-11 -9 -19 -24t-11 -25.5t-6 -24.5t-3 -16q-2 -6 0 -35q8 -66 0 -981q0 -42 14 -84q18 -51 27 -51h2q5 -1 13 8.5t12 18.5q8 18 8 51v10h70q13 -94 -3 -166q-24 -105 -95 -194.5t-163 -85.5q-30 1 -59 14t-48.5 30t-29.5 27.5 t-14 16.5q-41 55 -47 151q-2 11 -2 23.5t1 19.5l1 7v2q2 18 2 137q-42 -43 -118.5 -122t-139.5 -144t-119 -123q-56 16 -86 51q-26 29 -40 85t-32 85q-33 56 -94 96q-1 1 -13 8t-17.5 10t-19.5 10t-23 10t-23 7.5t-25.5 5t-25.5 -0.5t-27 -5q-35 -10 -67 -40.5t-54 -69 t-34 -66t-19 -47.5q-2 -5 -7.5 -23t-8 -24.5t-9 -20.5t-11.5 -20t-13.5 -13t-18.5 -10q-41 -13 -88 29q-27 11 -39 59q-26 88 82 234q30 42 52 69t63 68t92.5 71.5t112.5 49.5q71 23 119 31q35 40 104 120.5t104 120.5v2h5q12 15 35 42t36 42q3 65 -8 140q-9 62 -18 100.5 t-37 93.5t-72 92q-68 59 -161 77t-171 -9q-36 -12 -66.5 -30t-63.5 -51t-52.5 -56.5t-62.5 -75.5q-64 -99 -78 -123l-13 -20l-8 20q-36 98 -16.5 185.5zM733 614q39 -17 63 -43.5t34 -52.5t34.5 -62.5t61.5 -66.5q25 -20 39 -30.5t39 -20t47 -4.5q10 3 29.5 21.5t53.5 56 t42 45.5q42 49 55 67v160h-438q-10 -12 -30 -35t-30 -35zM920 1991l30 -95q9 4 31 11t115.5 20.5t218.5 18.5q52 2 121.5 -1t113.5 -7l43 -3q86 84 133 127q21 19 58 46t64 44l26 17l-102 100q-8 -9 -21 -22t-49.5 -38t-67.5 -32t-90.5 1t-128 23t-80.5 17q-59 10 -96 6 t-65 -26zM948 870h281v332q-274 -323 -281 -332z" />
<glyph unicode="&#xc4;" horiz-adv-x="1777" d="M34.5 1297.5q19.5 87.5 98.5 177.5q174 196 395 249q55 13 94 19.5t109.5 4.5t130.5 -24q72 -27 130.5 -76.5t96.5 -110t60.5 -110.5t38.5 -102q6 7 19.5 22.5t19.5 22.5v139v7q117 104 266 157q82 29 199 37l9 -8q9 -7 16.5 -15t16.5 -20.5t13.5 -29t3.5 -35.5 q0 -18 -20 -48q-41 21 -83 19.5t-69 -25.5q-11 -9 -19 -24t-11 -25.5t-6 -24.5t-3 -16q-2 -6 0 -35q8 -66 0 -981q0 -42 14 -84q18 -51 27 -51h2q5 -1 13 8.5t12 18.5q8 18 8 51v10h70q13 -94 -3 -166q-24 -105 -95 -194.5t-163 -85.5q-30 1 -59 14t-48.5 30t-29.5 27.5 t-14 16.5q-41 55 -47 151q-2 11 -2 23.5t1 19.5l1 7v2q2 18 2 137q-42 -43 -118.5 -122t-139.5 -144t-119 -123q-56 16 -86 51q-26 29 -40 85t-32 85q-33 56 -94 96q-1 1 -13 8t-17.5 10t-19.5 10t-23 10t-23 7.5t-25.5 5t-25.5 -0.5t-27 -5q-35 -10 -67 -40.5t-54 -69 t-34 -66t-19 -47.5q-2 -5 -7.5 -23t-8 -24.5t-9 -20.5t-11.5 -20t-13.5 -13t-18.5 -10q-41 -13 -88 29q-27 11 -39 59q-26 88 82 234q30 42 52 69t63 68t92.5 71.5t112.5 49.5q71 23 119 31q35 40 104 120.5t104 120.5v2h5q12 15 35 42t36 42q3 65 -8 140q-9 62 -18 100.5 t-37 93.5t-72 92q-68 59 -161 77t-171 -9q-36 -12 -66.5 -30t-63.5 -51t-52.5 -56.5t-62.5 -75.5q-64 -99 -78 -123l-13 -20l-8 20q-36 98 -16.5 185.5zM733 614q39 -17 63 -43.5t34 -52.5t34.5 -62.5t61.5 -66.5q25 -20 39 -30.5t39 -20t47 -4.5q10 3 29.5 21.5t53.5 56 t42 45.5q42 49 55 67v160h-438q-10 -12 -30 -35t-30 -35zM948 870h281v332q-274 -323 -281 -332zM989 2064l191 191l192 -191l-192 -192zM1397 2064l192 191l191 -191l-191 -192z" />
<glyph unicode="&#xc5;" horiz-adv-x="1777" d="M34.5 1297.5q19.5 87.5 98.5 177.5q174 196 395 249q55 13 94 19.5t109.5 4.5t130.5 -24v7q0 141 109.5 241.5t261.5 100.5t260.5 -100.5t108.5 -241.5q0 -11 -2 -31q43 6 92 10l9 -8q9 -7 16.5 -15t16.5 -20.5t13.5 -29t3.5 -35.5q0 -18 -20 -48q-41 21 -83 19.5 t-69 -25.5q-11 -9 -19 -24t-11 -25.5t-6 -24.5t-3 -16q-2 -6 0 -35q8 -66 0 -981q0 -42 14 -84q18 -51 27 -51h2q5 -1 13 8.5t12 18.5q8 18 8 51v10h70q13 -94 -3 -166q-24 -105 -95 -194.5t-163 -85.5q-30 1 -59 14t-48.5 30t-29.5 27.5t-14 16.5q-41 55 -47 151 q-2 11 -2 23.5t1 19.5l1 7v2q2 18 2 137q-42 -43 -118.5 -122t-139.5 -144t-119 -123q-56 16 -86 51q-26 29 -40 85t-32 85q-33 56 -94 96q-1 1 -13 8t-17.5 10t-19.5 10t-23 10t-23 7.5t-25.5 5t-25.5 -0.5t-27 -5q-35 -10 -67 -40.5t-54 -69t-34 -66t-19 -47.5 q-2 -5 -7.5 -23t-8 -24.5t-9 -20.5t-11.5 -20t-13.5 -13t-18.5 -10q-41 -13 -88 29q-27 11 -39 59q-26 88 82 234q30 42 52 69t63 68t92.5 71.5t112.5 49.5q71 23 119 31q35 40 104 120.5t104 120.5v2h5q12 15 35 42t36 42q3 65 -8 140q-9 62 -18 100.5t-37 93.5t-72 92 q-68 59 -161 77t-171 -9q-36 -12 -66.5 -30t-63.5 -51t-52.5 -56.5t-62.5 -75.5q-64 -99 -78 -123l-13 -20l-8 20q-36 98 -16.5 185.5zM733 614q39 -17 63 -43.5t34 -52.5t34.5 -62.5t61.5 -66.5q25 -20 39 -30.5t39 -20t47 -4.5q10 3 29.5 21.5t53.5 56t42 45.5 q42 49 55 67v160h-438q-10 -12 -30 -35t-30 -35zM948 870h281v332q-274 -323 -281 -332zM1001 1747q0 -74 57 -127t136 -53t134.5 53t55.5 127t-55.5 127t-134.5 53t-136 -53t-57 -127z" />
<glyph unicode="&#xc6;" horiz-adv-x="2760" d="M34.5 1297.5q19.5 87.5 98.5 177.5q174 196 395 249q55 13 94 19.5t109.5 4.5t130.5 -24q72 -27 130.5 -76.5t96.5 -110t60.5 -110.5t38.5 -102q6 7 19.5 22.5t19.5 22.5v139v7q32 28 51 43.5t60.5 42.5t92 45t109.5 28q-2 -121 -2 -196q111 88 238 128l56 -85l186 195 q67 38 147 38q47 0 90.5 -14.5t78 -35.5t67.5 -42t72 -35.5t78 -14.5q71 0 125 49l61 -84l-312 -288q-84 35 -188 67v-224h337v-211h-337v-595q48 -5 87 -5q189 0 361 76l54 -54q-28 -40 -65 -79t-96 -85t-125.5 -80.5t-157 -57.5t-186.5 -23q-244 0 -450 134 q-37 -88 -98 -147.5t-136 -56.5q-30 1 -59 14t-48.5 30t-29.5 27.5t-14 16.5q-41 55 -47 151q-2 11 -2 23.5t1 19.5l1 7v2q2 18 2 137q-42 -43 -118.5 -122t-139.5 -144t-119 -123q-56 16 -86 51q-26 29 -40 85t-32 85q-33 56 -94 96q-1 1 -13 8t-17.5 10t-19.5 10t-23 10 t-23 7.5t-25.5 5t-25.5 -0.5t-27 -5q-35 -10 -67 -40.5t-54 -69t-34 -66t-19 -47.5q-2 -5 -7.5 -23t-8 -24.5t-9 -20.5t-11.5 -20t-13.5 -13t-18.5 -10q-41 -13 -88 29q-27 11 -39 59q-26 88 82 234q30 42 52 69t63 68t92.5 71.5t112.5 49.5q71 23 119 31q35 40 104 120.5 t104 120.5v2h5q12 15 35 42t36 42q3 65 -8 140q-9 62 -18 100.5t-37 93.5t-72 92q-68 59 -161 77t-171 -9q-36 -12 -66.5 -30t-63.5 -51t-52.5 -56.5t-62.5 -75.5q-64 -99 -78 -123l-13 -20l-8 20q-36 98 -16.5 185.5zM733 614q39 -17 63 -43.5t34 -52.5t34.5 -62.5 t61.5 -66.5q25 -20 39 -30.5t39 -20t47 -4.5q10 3 29.5 21.5t53.5 56t42 45.5q42 49 55 67v160h-438q-10 -12 -30 -35t-30 -35zM948 870h281v332q-274 -323 -281 -332zM1565 981q0 -175 98 -325l82 53l-2 694q-178 -176 -178 -422zM1739 560q134 -140 335 -201v563h-106 l-1 -218l-222 -140zM1969 1133h105v265q-52 11 -103 18z" />
<glyph unicode="&#xc7;" horiz-adv-x="1566" d="M54 883q0 135 41 256t112.5 211.5t164.5 156t200 100.5l55 -85l187 195q67 38 146 38q57 0 111.5 -22t91.5 -49t86.5 -49t97.5 -22q71 0 125 49l60 -84l-311 -288q-84 35 -188 67v-1030q48 -5 87 -5q188 0 360 76l55 -54q-31 -44 -73.5 -87t-105 -91t-147.5 -85t-178 -52 q12 -33 16 -62q26 -183 -168 -354q-31 -26 -59.5 -43.5t-56.5 -26.5t-42.5 -12t-42.5 -5.5t-31 -2.5l-2 33q70 59 90 77q115 106 115 230q0 111 -70 160q-6 5 -11 7q-203 34 -367.5 160.5t-256 309.5t-91.5 383zM361 981q0 -176 97 -325l82 53l-2 694q-177 -175 -177 -422z M534 560q134 -140 335 -201v1039q-54 11 -102 18l-4 -712l-222 -140z" />
<glyph unicode="&#xc8;" horiz-adv-x="1755" d="M52 898q24 160 110.5 301t219.5 235l504 266h31l175 -133v-68l194 184l10 10l245 -160l66 40l116 -103l-382 -231l-212 138l-37 -30v-405l217 242h422l-243 -290h-396v-604q48 6 70 11q135 30 250 108t188 188l15 22l14 -22l43 -65l5 -7l-3 -7q-47 -137 -141 -251 t-223 -186q-210 -118 -456 -110q-243 8 -447 140q-197 129 -294 344q-95 212 -61 443zM363 928q-18 -149 43 -287q0 -1 1 -2l1 -2l174 124v538l-66 -60q-132 -135 -153 -311zM506 495q39 -43 83 -76q146 -110 340 -130v1187l-110 -61v-710l-7 -5zM772 2146l492 -299l102 146 l-371 415z" />
<glyph unicode="&#xc9;" horiz-adv-x="1755" d="M52 898q24 160 110.5 301t219.5 235l504 266h31l175 -133v-68l194 184l10 10l245 -160l66 40l116 -103l-382 -231l-212 138l-37 -30v-405l217 242h422l-243 -290h-396v-604q48 6 70 11q135 30 250 108t188 188l15 22l14 -22l43 -65l5 -7l-3 -7q-47 -137 -141 -251 t-223 -186q-210 -118 -456 -110q-243 8 -447 140q-197 129 -294 344q-95 212 -61 443zM363 928q-18 -149 43 -287q0 -1 1 -2l1 -2l174 124v538l-66 -60q-132 -135 -153 -311zM506 495q39 -43 83 -76q146 -110 340 -130v1187l-110 -61v-710l-7 -5zM770 1989l373 415l221 -262 l-490 -299z" />
<glyph unicode="&#xca;" horiz-adv-x="1755" d="M52 898q24 160 110.5 301t219.5 235l504 266h31l175 -133v-68l194 184l10 10l245 -160l66 40l116 -103l-382 -231l-212 138l-37 -30v-405l217 242h422l-243 -290h-396v-604q48 6 70 11q135 30 250 108t188 188l15 22l14 -22l43 -65l5 -7l-3 -7q-47 -137 -141 -251 t-223 -186q-210 -118 -456 -110q-243 8 -447 140q-197 129 -294 344q-95 212 -61 443zM363 928q-18 -149 43 -287q0 -1 1 -2l1 -2l174 124v538l-66 -60q-132 -135 -153 -311zM506 495q39 -43 83 -76q146 -110 340 -130v1187l-110 -61v-710l-7 -5zM727 1862l107 -90l192 223 l248 -238l153 246l-309 313z" />
<glyph unicode="&#xcb;" horiz-adv-x="1755" d="M52 898q24 160 110.5 301t219.5 235l504 266h31l175 -133v-68l194 184l10 10l245 -160l66 40l116 -103l-382 -231l-212 138l-37 -30v-405l217 242h422l-243 -290h-396v-604q48 6 70 11q135 30 250 108t188 188l15 22l14 -22l43 -65l5 -7l-3 -7q-47 -137 -141 -251 t-223 -186q-210 -118 -456 -110q-243 8 -447 140q-197 129 -294 344q-95 212 -61 443zM363 928q-18 -149 43 -287q0 -1 1 -2l1 -2l174 124v538l-66 -60q-132 -135 -153 -311zM506 495q39 -43 83 -76q146 -110 340 -130v1187l-110 -61v-710l-7 -5zM672 1956l190 190l193 -190 l-193 -193zM1079 1956l193 190l190 -190l-190 -193z" />
<glyph unicode="&#xcc;" horiz-adv-x="1052" d="M-61 1346q31 160 151 253t258 93q49 0 93.5 -14t73 -31.5t73.5 -31.5t95 -14q137 0 269 97q9 -8 27 -24.5t27 -24.5q-47 -34 -70 -48v-1131l37 -32v-26q-53 -71 -160 -211.5t-160 -210.5l-9 4q-10 3 -24.5 8t-35.5 11.5t-46 13.5t-53.5 14t-60.5 13t-64.5 11t-67.5 8 t-68 3q-29 0 -50.5 8t-31.5 18t-15.5 23.5t-6 19.5t-0.5 10q0 24 22 37t53 19.5t62 17t53 40t22 77.5v316q-85 80 -279 73l13 82q123 66 266 79v73q-96 55 -215 82l4 75q109 7 211 63v208q-30 3 -84.5 15t-76.5 12q-90 0 -148 -103q-15 4 -42.5 12.5t-41.5 12.5zM381 2202 l491 -299l103 145l-371 416zM672 346q66 1 112 51v1122q-52 -25 -112 -48v-1125z" />
<glyph unicode="&#xcd;" horiz-adv-x="1052" d="M-61 1346q31 160 151 253t258 93q49 0 93.5 -14t73 -31.5t73.5 -31.5t95 -14q137 0 269 97q9 -8 27 -24.5t27 -24.5q-47 -34 -70 -48v-1131l37 -32v-26q-53 -71 -160 -211.5t-160 -210.5l-9 4q-10 3 -24.5 8t-35.5 11.5t-46 13.5t-53.5 14t-60.5 13t-64.5 11t-67.5 8 t-68 3q-29 0 -50.5 8t-31.5 18t-15.5 23.5t-6 19.5t-0.5 10q0 24 22 37t53 19.5t62 17t53 40t22 77.5v316q-85 80 -279 73l13 82q123 66 266 79v73q-96 55 -215 82l4 75q109 7 211 63v208q-30 3 -84.5 15t-76.5 12q-90 0 -148 -103q-15 4 -42.5 12.5t-41.5 12.5zM379 2044 l373 416l221 -262l-490 -300zM672 346q66 1 112 51v1122q-52 -25 -112 -48v-1125z" />
<glyph unicode="&#xce;" horiz-adv-x="1052" d="M-61 1346q31 160 151 253t258 93q49 0 93.5 -14t73 -31.5t73.5 -31.5t95 -14q137 0 269 97q9 -8 27 -24.5t27 -24.5q-47 -34 -70 -48v-1131l37 -32v-26q-53 -71 -160 -211.5t-160 -210.5l-9 4q-10 3 -24.5 8t-35.5 11.5t-46 13.5t-53.5 14t-60.5 13t-64.5 11t-67.5 8 t-68 3q-29 0 -50.5 8t-31.5 18t-15.5 23.5t-6 19.5t-0.5 10q0 24 22 37t53 19.5t62 17t53 40t22 77.5v316q-85 80 -279 73l13 82q123 66 266 79v73q-96 55 -215 82l4 75q109 7 211 63v208q-30 3 -84.5 15t-76.5 12q-90 0 -148 -103q-15 4 -42.5 12.5t-41.5 12.5zM336 1917 l106 -90l193 223l248 -238l153 246l-309 314zM672 346q66 1 112 51v1122q-52 -25 -112 -48v-1125z" />
<glyph unicode="&#xcf;" horiz-adv-x="1052" d="M-61 1346q31 160 151 253t258 93q49 0 93.5 -14t73 -31.5t73.5 -31.5t95 -14q137 0 269 97q9 -8 27 -24.5t27 -24.5q-47 -34 -70 -48v-1131l37 -32v-26q-53 -71 -160 -211.5t-160 -210.5l-9 4q-10 3 -24.5 8t-35.5 11.5t-46 13.5t-53.5 14t-60.5 13t-64.5 11t-67.5 8 t-68 3q-29 0 -50.5 8t-31.5 18t-15.5 23.5t-6 19.5t-0.5 10q0 24 22 37t53 19.5t62 17t53 40t22 77.5v316q-85 80 -279 73l13 82q123 66 266 79v73q-96 55 -215 82l4 75q109 7 211 63v208q-30 3 -84.5 15t-76.5 12q-90 0 -148 -103q-15 4 -42.5 12.5t-41.5 12.5zM281 2011 l190 191l193 -191l-193 -192zM672 346q66 1 112 51v1122q-52 -25 -112 -48v-1125zM688 2011l193 191l190 -191l-190 -192z" />
<glyph unicode="&#xd0;" horiz-adv-x="2263" d="M23 18q23 25 70 75.5t71 76.5q147 157 176 211q12 25 20 52.5t11.5 46t4 51.5t0 43.5t-3.5 48t-3 41.5q0 1 -0.5 3.5t-0.5 4.5h-188v254h199q21 149 80 311q27 19 81.5 57t82.5 57q-102 -11 -167 -12t-138 13.5t-138 50.5q-66 37 -137 108q39 49 116.5 146.5t116.5 146.5 q45 -25 82 -41q91 -41 181 -62t178.5 -24.5t163 -0.5t176 8t176.5 4q85 -1 135.5 -3t130 -8t136 -19t123 -34t124 -54.5t107.5 -78.5q151 -135 216.5 -348.5t2.5 -397.5q-14 -39 -45 -82.5t-69 -84.5t-110 -103.5t-136.5 -115t-180.5 -144.5q-167 -133 -301 -229 q-156 89 -332 133q-74 19 -118 28t-122.5 18t-156 0t-154.5 -36q-200 -72 -344 -238q-19 21 -57.5 63.5t-58.5 63.5zM535 438q172 58 350 69v870q-2 0 -6.5 -0.5t-6.5 -0.5q-51 -4 -80 -7q-26 -61 -40 -128q-10 -45 -14.5 -92t-4.5 -76.5t1.5 -77t1.5 -69.5h100v-254h-148 q-50 -122 -153 -234zM1040 508q28 -2 41 -3l729 610q-35 43 -77 81l-693 -578v-110zM1040 822l562 470q-81 49 -148 74q-74 26 -173.5 30.5t-240.5 -7.5v-567zM1284 472q153 -37 303 -112q21 4 46 12.5t63 26t78 49.5t71 74q107 140 76 350q-9 57 -30 108z" />
<glyph unicode="&#xd1;" horiz-adv-x="2240" d="M39 -244l319 357q23 -6 46 -23.5t38.5 -34.5t39.5 -30.5t51 -13.5q26 0 41.5 12.5t22.5 40.5t9 54.5t2 71.5v295q-124 61 -266 27l-37 53q57 53 137 84t166 29v186q-125 66 -274 70l-23 67q133 95 297 82v199l512 395q129 47 266 47q194 0 355.5 -85.5t256.5 -241.5 t95 -351q0 -348 -342 -696q112 -11 195 -80l159 90l56 -75l-289 -285q-28 23 -66.5 42.5t-98 38t-134.5 10.5t-148 -46l-34 37q54 66 87.5 108t92.5 124t97 148.5t75.5 153.5t54.5 166h-210l-126 -125l-202 203l202 203l131 -129h220q-7 221 -161 366t-383 145q-33 0 -65 -3 v-1671h-147v1638q-53 -19 -105 -49l9 -1198l-474 -422l-178 113l-172 -172zM866 1896l31 -94q9 4 31 10.5t115.5 20t218.5 18.5q52 2 121.5 -0.5t112.5 -6.5l44 -3q86 84 133 127q21 19 58 46t63 44l27 17l-103 100q-8 -9 -21 -22t-49 -38t-67 -32t-90.5 1t-128 23t-80.5 17 q-59 10 -96.5 5.5t-65.5 -26.5z" />
<glyph unicode="&#xd2;" horiz-adv-x="2162" d="M39 127q145 198 234.5 282.5t166.5 84.5q15 0 69 -15.5t151.5 -44t177.5 -49.5v343l-355 -179q-135 52 -221 159.5t-86 219.5q0 32 9.5 68.5t44 95t91 118t161 136t243.5 151.5q14 8 66 35.5t69 36t63 31t69.5 31t67 23.5t77 20.5t77 10.5t87.5 5q148 0 282.5 -50 t231 -129.5t168.5 -177t107.5 -195.5t35.5 -182q0 -89 -30 -173.5t-63.5 -140.5t-105 -126t-106.5 -98.5t-115 -89.5l-27 -21q-226 -174 -295 -219q-132 -85 -236 -91q-11 -1 -21 -1q-89 0 -238 32.5t-286.5 65.5t-198.5 33q-84 0 -165 -24.5t-137 -55.5zM497 1026 q0 -75 58 -124.5t145 -49.5q76 0 138 10v471q-95 -29 -168 -69t-123 -102.5t-50 -135.5zM963 355q85 -17 116 -23v1047q-59 -5 -116 -16v-1008zM1049 2228l491 -299l102 146l-370 415zM1204 316q59 -6 113 -6q127 0 230 74t157 187.5t54 237.5q0 68 -17.5 139t-59 146.5 t-103 135t-158.5 101t-216 49.5v-1064z" />
<glyph unicode="&#xd3;" horiz-adv-x="2162" d="M39 127q145 198 234.5 282.5t166.5 84.5q15 0 69 -15.5t151.5 -44t177.5 -49.5v343l-355 -179q-135 52 -221 159.5t-86 219.5q0 32 9.5 68.5t44 95t91 118t161 136t243.5 151.5q14 8 66 35.5t69 36t63 31t69.5 31t67 23.5t77 20.5t77 10.5t87.5 5q148 0 282.5 -50 t231 -129.5t168.5 -177t107.5 -195.5t35.5 -182q0 -89 -30 -173.5t-63.5 -140.5t-105 -126t-106.5 -98.5t-115 -89.5l-27 -21q-226 -174 -295 -219q-132 -85 -236 -91q-11 -1 -21 -1q-89 0 -238 32.5t-286.5 65.5t-198.5 33q-84 0 -165 -24.5t-137 -55.5zM497 1026 q0 -75 58 -124.5t145 -49.5q76 0 138 10v471q-95 -29 -168 -69t-123 -102.5t-50 -135.5zM963 355q85 -17 116 -23v1047q-59 -5 -116 -16v-1008zM1047 2071l372 415l221 -262l-489 -299zM1204 316q59 -6 113 -6q127 0 230 74t157 187.5t54 237.5q0 68 -17.5 139t-59 146.5 t-103 135t-158.5 101t-216 49.5v-1064z" />
<glyph unicode="&#xd4;" horiz-adv-x="2162" d="M39 127q145 198 234.5 282.5t166.5 84.5q15 0 69 -15.5t151.5 -44t177.5 -49.5v343l-355 -179q-135 52 -221 159.5t-86 219.5q0 32 9.5 68.5t44 95t91 118t161 136t243.5 151.5q14 8 66 35.5t69 36t63 31t69.5 31t67 23.5t77 20.5t77 10.5t87.5 5q148 0 282.5 -50 t231 -129.5t168.5 -177t107.5 -195.5t35.5 -182q0 -89 -30 -173.5t-63.5 -140.5t-105 -126t-106.5 -98.5t-115 -89.5l-27 -21q-226 -174 -295 -219q-132 -85 -236 -91q-11 -1 -21 -1q-89 0 -238 32.5t-286.5 65.5t-198.5 33q-84 0 -165 -24.5t-137 -55.5zM497 1026 q0 -75 58 -124.5t145 -49.5q76 0 138 10v471q-95 -29 -168 -69t-123 -102.5t-50 -135.5zM963 355q85 -17 116 -23v1047q-59 -5 -116 -16v-1008zM1004 1944l106 -91l193 224l247 -238l154 246l-309 313zM1204 316q59 -6 113 -6q127 0 230 74t157 187.5t54 237.5 q0 68 -17.5 139t-59 146.5t-103 135t-158.5 101t-216 49.5v-1064z" />
<glyph unicode="&#xd5;" horiz-adv-x="2162" d="M39 127q145 198 234.5 282.5t166.5 84.5q15 0 69 -15.5t151.5 -44t177.5 -49.5v343l-355 -179q-135 52 -221 159.5t-86 219.5q0 32 9.5 68.5t44 95t91 118t161 136t243.5 151.5q14 8 66 35.5t69 36t63 31t69.5 31t67 23.5t77 20.5t77 10.5t87.5 5q148 0 282.5 -50 t231 -129.5t168.5 -177t107.5 -195.5t35.5 -182q0 -89 -30 -173.5t-63.5 -140.5t-105 -126t-106.5 -98.5t-115 -89.5l-27 -21q-226 -174 -295 -219q-132 -85 -236 -91q-11 -1 -21 -1q-89 0 -238 32.5t-286.5 65.5t-198.5 33q-84 0 -165 -24.5t-137 -55.5zM497 1026 q0 -75 58 -124.5t145 -49.5q76 0 138 10v471q-95 -29 -168 -69t-123 -102.5t-50 -135.5zM879 1964l30 -94q9 4 31 10.5t115.5 20t218.5 18.5q52 2 121.5 -0.5t112.5 -6.5l44 -3q87 84 134 127q21 19 57.5 45.5t62.5 43.5l27 17l-102 101q-8 -9 -21 -22t-49.5 -38.5 t-67.5 -32.5t-90.5 1t-128 23t-80.5 17q-59 10 -96 6t-65 -26zM963 355q85 -17 116 -23v1047q-59 -5 -116 -16v-1008zM1204 316q59 -6 113 -6q127 0 230 74t157 187.5t54 237.5q0 68 -17.5 139t-59 146.5t-103 135t-158.5 101t-216 49.5v-1064z" />
<glyph unicode="&#xd6;" horiz-adv-x="2162" d="M39 127q145 198 234.5 282.5t166.5 84.5q15 0 69 -15.5t151.5 -44t177.5 -49.5v343l-355 -179q-135 52 -221 159.5t-86 219.5q0 32 9.5 68.5t44 95t91 118t161 136t243.5 151.5q14 8 66 35.5t69 36t63 31t69.5 31t67 23.5t77 20.5t77 10.5t87.5 5q148 0 282.5 -50 t231 -129.5t168.5 -177t107.5 -195.5t35.5 -182q0 -89 -30 -173.5t-63.5 -140.5t-105 -126t-106.5 -98.5t-115 -89.5l-27 -21q-226 -174 -295 -219q-132 -85 -236 -91q-11 -1 -21 -1q-89 0 -238 32.5t-286.5 65.5t-198.5 33q-84 0 -165 -24.5t-137 -55.5zM497 1026 q0 -75 58 -124.5t145 -49.5q76 0 138 10v471q-95 -29 -168 -69t-123 -102.5t-50 -135.5zM948 2038l191 190l192 -190l-192 -193zM963 355q85 -17 116 -23v1047q-59 -5 -116 -16v-1008zM1204 316q59 -6 113 -6q127 0 230 74t157 187.5t54 237.5q0 68 -17.5 139t-59 146.5 t-103 135t-158.5 101t-216 49.5v-1064zM1356 2038l192 190l191 -190l-191 -193z" />
<glyph unicode="&#xd7;" horiz-adv-x="2048" d="M393 111l516 518l-516 518l133 131l514 -517l514 517l132 -131l-515 -518l515 -518l-132 -131l-514 517l-514 -517z" />
<glyph unicode="&#xd8;" horiz-adv-x="2162" d="M39 127q145 198 234.5 282.5t166.5 84.5q12 0 46 -9t108.5 -31.5t122.5 -35.5l121 133v177l-355 -179q-135 52 -221 159.5t-86 219.5q0 32 9.5 68.5t44 95t91 118t161 136t243.5 151.5q14 8 66 35.5t69 36t63 31t69.5 31t67 23.5t77 20.5t77 10.5t87.5 5q244 0 447 -132 l214 236l43 -39l45 -41l-206 -228q132 -114 207 -260.5t75 -269.5q0 -89 -30 -173.5t-63.5 -140.5t-105 -126t-106.5 -98.5t-115 -89.5l-27 -21q-226 -174 -295 -219q-132 -85 -236 -91q-11 -1 -21 -1q-51 0 -125.5 11.5t-131 24.5t-150 35t-132.5 31l-287 -317l-45 39 l-43 41l238 263q-25 3 -47 3q-84 0 -165 -24.5t-137 -55.5zM497 1026q0 -75 58 -124.5t145 -49.5q76 0 138 10v471q-95 -29 -168 -69t-123 -102.5t-50 -135.5zM963 355q46 -9 116 -22v308l-116 -129v-157zM963 689l116 129v561q-59 -5 -116 -16v-674zM1204 316q59 -6 113 -6 q127 0 230 74t157 187.5t54 237.5q0 102 -40 210.5t-122 192.5l-392 -433v-463zM1204 956l300 331q-128 82 -300 93v-424z" />
<glyph unicode="&#xd9;" horiz-adv-x="2017" d="M40 1246q0 26 4 48t27 66.5t64 89t124 109t198 133.5q13 -3 81 -19t124.5 -29t119 -24.5t89.5 -11.5q54 0 104 22.5t82 50.5l84 -36q19 -165 -62 -228v-1074q40 -10 107 -10q126 0 270 118v294q-32 32 -87 57.5t-99 31.5v47q35 28 86 52.5t100 31.5v129q0 77 -41 147 t-97 70q-45 0 -69 -15.5t-49 -66.5l-47 14q12 48 41 113.5t68.5 134t91 115.5t99.5 47h263q19 0 47.5 -8.5t60 -24.5t53.5 -46t22 -67q0 -29 -11.5 -55.5t-28.5 -56t-33.5 -69.5t-28 -115t-11.5 -174q0 -176 7.5 -298.5t33.5 -265.5q18 3 51 10.5t47 10.5q25 -20 53 -41 v-164l-274 -275q-101 71 -248 172v222q-10 -25 -21.5 -48.5t-37 -66.5t-54 -78.5t-72 -76.5t-90.5 -69t-111.5 -46.5t-133.5 -18.5q-132 0 -269 53.5t-246.5 142.5t-179 216t-69.5 263q0 20 0.5 33t5 52t12.5 70t26 80t43 90t65.5 91.5t91 93t123 86.5t157.5 79 q-48 1 -121.5 7t-103.5 6q-54 0 -104 -17t-89.5 -46t-66 -55.5t-49.5 -56.5h-117q-5 27 -5 54zM535 895q0 -110 56 -222t144 -186v777q-17 -13 -34.5 -27.5t-50 -51t-55.5 -75t-41.5 -96.5t-18.5 -119zM860 406q52 -24 94 -37v993q-58 -13 -94 -29v-927zM872 2146l492 -299 l102 146l-370 415z" />
<glyph unicode="&#xda;" horiz-adv-x="2017" d="M40 1246q0 26 4 48t27 66.5t64 89t124 109t198 133.5q13 -3 81 -19t124.5 -29t119 -24.5t89.5 -11.5q54 0 104 22.5t82 50.5l84 -36q19 -165 -62 -228v-1074q40 -10 107 -10q126 0 270 118v294q-32 32 -87 57.5t-99 31.5v47q35 28 86 52.5t100 31.5v129q0 77 -41 147 t-97 70q-45 0 -69 -15.5t-49 -66.5l-47 14q12 48 41 113.5t68.5 134t91 115.5t99.5 47h263q19 0 47.5 -8.5t60 -24.5t53.5 -46t22 -67q0 -29 -11.5 -55.5t-28.5 -56t-33.5 -69.5t-28 -115t-11.5 -174q0 -176 7.5 -298.5t33.5 -265.5q18 3 51 10.5t47 10.5q25 -20 53 -41 v-164l-274 -275q-101 71 -248 172v222q-10 -25 -21.5 -48.5t-37 -66.5t-54 -78.5t-72 -76.5t-90.5 -69t-111.5 -46.5t-133.5 -18.5q-132 0 -269 53.5t-246.5 142.5t-179 216t-69.5 263q0 20 0.5 33t5 52t12.5 70t26 80t43 90t65.5 91.5t91 93t123 86.5t157.5 79 q-48 1 -121.5 7t-103.5 6q-54 0 -104 -17t-89.5 -46t-66 -55.5t-49.5 -56.5h-117q-5 27 -5 54zM535 895q0 -110 56 -222t144 -186v777q-17 -13 -34.5 -27.5t-50 -51t-55.5 -75t-41.5 -96.5t-18.5 -119zM860 406q52 -24 94 -37v993q-58 -13 -94 -29v-927zM870 1989l373 415 l221 -262l-489 -299z" />
<glyph unicode="&#xdb;" horiz-adv-x="2017" d="M40 1246q0 26 4 48t27 66.5t64 89t124 109t198 133.5q13 -3 81 -19t124.5 -29t119 -24.5t89.5 -11.5q54 0 104 22.5t82 50.5l84 -36q19 -165 -62 -228v-1074q40 -10 107 -10q126 0 270 118v294q-32 32 -87 57.5t-99 31.5v47q35 28 86 52.5t100 31.5v129q0 77 -41 147 t-97 70q-45 0 -69 -15.5t-49 -66.5l-47 14q12 48 41 113.5t68.5 134t91 115.5t99.5 47h263q19 0 47.5 -8.5t60 -24.5t53.5 -46t22 -67q0 -29 -11.5 -55.5t-28.5 -56t-33.5 -69.5t-28 -115t-11.5 -174q0 -176 7.5 -298.5t33.5 -265.5q18 3 51 10.5t47 10.5q25 -20 53 -41 v-164l-274 -275q-101 71 -248 172v222q-10 -25 -21.5 -48.5t-37 -66.5t-54 -78.5t-72 -76.5t-90.5 -69t-111.5 -46.5t-133.5 -18.5q-132 0 -269 53.5t-246.5 142.5t-179 216t-69.5 263q0 20 0.5 33t5 52t12.5 70t26 80t43 90t65.5 91.5t91 93t123 86.5t157.5 79 q-48 1 -121.5 7t-103.5 6q-54 0 -104 -17t-89.5 -46t-66 -55.5t-49.5 -56.5h-117q-5 27 -5 54zM535 895q0 -110 56 -222t144 -186v777q-17 -13 -34.5 -27.5t-50 -51t-55.5 -75t-41.5 -96.5t-18.5 -119zM827 1862l107 -90l192 223l248 -238l154 246l-309 313zM860 406 q52 -24 94 -37v993q-58 -13 -94 -29v-927z" />
<glyph unicode="&#xdc;" horiz-adv-x="2017" d="M40 1246q0 26 4 48t27 66.5t64 89t124 109t198 133.5q13 -3 81 -19t124.5 -29t119 -24.5t89.5 -11.5q54 0 104 22.5t82 50.5l84 -36q19 -165 -62 -228v-1074q40 -10 107 -10q126 0 270 118v294q-32 32 -87 57.5t-99 31.5v47q35 28 86 52.5t100 31.5v129q0 77 -41 147 t-97 70q-45 0 -69 -15.5t-49 -66.5l-47 14q12 48 41 113.5t68.5 134t91 115.5t99.5 47h263q19 0 47.5 -8.5t60 -24.5t53.5 -46t22 -67q0 -29 -11.5 -55.5t-28.5 -56t-33.5 -69.5t-28 -115t-11.5 -174q0 -176 7.5 -298.5t33.5 -265.5q18 3 51 10.5t47 10.5q25 -20 53 -41 v-164l-274 -275q-101 71 -248 172v222q-10 -25 -21.5 -48.5t-37 -66.5t-54 -78.5t-72 -76.5t-90.5 -69t-111.5 -46.5t-133.5 -18.5q-132 0 -269 53.5t-246.5 142.5t-179 216t-69.5 263q0 20 0.5 33t5 52t12.5 70t26 80t43 90t65.5 91.5t91 93t123 86.5t157.5 79 q-48 1 -121.5 7t-103.5 6q-54 0 -104 -17t-89.5 -46t-66 -55.5t-49.5 -56.5h-117q-5 27 -5 54zM535 895q0 -110 56 -222t144 -186v777q-17 -13 -34.5 -27.5t-50 -51t-55.5 -75t-41.5 -96.5t-18.5 -119zM772 1956l191 190l192 -190l-192 -193zM860 406q52 -24 94 -37v993 q-58 -13 -94 -29v-927zM1180 1956l192 190l191 -190l-191 -193z" />
<glyph unicode="&#xdd;" horiz-adv-x="1703" d="M39 154l311 132v297q-51 56 -127 113v64q73 19 127 72v120l-127 127l127 86v183l-145 159l457 203l106 -106v-183h80h16h24l417 289h57l262 -176v-881h-2l2 -4l-1520 -649zM205 1507zM768 464l80 34v794h-80v-828zM979 2044l373 416l221 -262l-490 -300zM981 555l340 145 v192l-340 -162v-175zM981 878l340 162v141l-340 -161v-142zM981 1166l340 162v42l-162 119l-178 -127v-196z" />
<glyph unicode="&#xde;" horiz-adv-x="1873" d="M53 102q6 16 72.5 97t125.5 141l1 1073q-40 -7 -86 -27t-72 -40q-5 10 -16.5 29.5t-16.5 29.5q62 99 132 172q53 53 76.5 74.5t60 43t69.5 21.5q66 0 137.5 -82t71.5 -141v-208q3 2 10 5.5l11 5.5q151 83 224.5 116t152.5 44q59 8 107 8q155 0 294 -67q143 -66 248 -203 q28 -36 46 -62.5t46 -77t43 -110t15 -121.5q0 -134 -89 -286q-30 -50 -86 -107t-200 -172q-100 -79 -142.5 -112t-100.5 -74.5t-93 -57.5t-68 -22q-25 -5 -61 -5q-67 0 -267 42q-71 15 -90 20v-237q11 -13 33.5 -38.5t34.5 -39.5q-1 -14 -4 -39t-4 -39q-20 -1 -59 -1 q-86 0 -163 11q-137 19 -170 66q-25 35 -25 78v277q-77 -18 -145 -56q-9 11 -26.5 35.5t-26.5 35.5zM447 786q5 -9 10 -16zM608 355q64 -19 117 -32v829q-65 -22 -117 -55v-742zM860 292q161 -32 261 -32q77 0 126 23q53 24 97 63.5t70 83t37 65.5t19 44q27 77 27 154 q0 31 -5 69l-632 -321v-149zM860 592l594 303l7 -14q-24 62 -66 122l-535 -273v-138zM860 882l435 222q-126 91 -310 91q-25 0 -106 -7q-1 0 -19 -2v-304z" />
<glyph unicode="&#xdf;" horiz-adv-x="1361" d="M43 1165q59 9 115 -8v324l2 6v2q22 52 69 92q45 40 133 72.5t189 36.5q61 1 180.5 -27.5t151.5 -42.5q4 -50 -37.5 -119.5t-114.5 -134.5q-40 15 -250 117q-19 8 -36 -2.5t-17 -30.5v-354q36 39 86 80q70 59 135 92q117 -69 289 -127q134 -45 274 -64l19 -43 q-110 -115 -189 -182.5t-227 -167.5q100 4 199 -30t177 -104.5t107 -162.5q16 -48 17.5 -98t-12.5 -98t-28 -84t-42 -80t-40.5 -61t-37.5 -50q-130 -162 -309 -221q-136 -46 -275 -31l-22 37q40 26 114.5 75t104.5 68q34 -13 70 -16.5t76.5 7.5t72.5 38q74 63 60 217 q-13 150 -127 264q-54 56 -117.5 94.5t-117.5 53.5t-91 20.5t-62 3.5l-22 23q31 31 76 63l250 201q-70 70 -156 121q-102 63 -252 101v-726l86 -57l6 -4l2 6l49 80l45 -15q0 -63 -16 -92q-11 -25 -84.5 -106t-107.5 -115h-76l-258 209l84 84v631q-9 13 -27 35q-41 53 -76 88 q-1 8 -6 49t-6 63z" />
<glyph unicode="&#xe0;" horiz-adv-x="1011" d="M35 356q0 84 33.5 172t92 150t122.5 65q-157 112 -217 275q89 55 193 140t169 155h59q9 -7 25 -18t58 -40t76.5 -51t69.5 -40t48 -18q16 0 43 38t44 38t28 -16.5t11 -36.5q0 -28 -9 -56t-20.5 -50t-20.5 -67.5t-9 -105.5q0 -77 1.5 -152t7 -205t21.5 -211.5t40 -83.5 q10 0 26 14.5t23 14.5q17 0 17 -38q0 -55 -21.5 -106t-72 -88.5t-120.5 -37.5q-125 0 -169 234l-271 -245q-78 23 -126 56q-152 102 -152 314zM181 975q51 -89 144 -174.5t232 -131.5q1 103 8 230l-250 178zM244 1792l491 -299l103 145l-371 416zM290 426q0 -82 43 -146.5 t103 -95.5l137 117q-16 124 -16 313q-84 23 -171 67q-96 -122 -96 -255z" />
<glyph unicode="&#xe1;" horiz-adv-x="1011" d="M35 356q0 84 33.5 172t92 150t122.5 65q-157 112 -217 275q89 55 193 140t169 155h59q9 -7 25 -18t58 -40t76.5 -51t69.5 -40t48 -18q16 0 43 38t44 38t28 -16.5t11 -36.5q0 -28 -9 -56t-20.5 -50t-20.5 -67.5t-9 -105.5q0 -77 1.5 -152t7 -205t21.5 -211.5t40 -83.5 q10 0 26 14.5t23 14.5q17 0 17 -38q0 -55 -21.5 -106t-72 -88.5t-120.5 -37.5q-125 0 -169 234l-271 -245q-78 23 -126 56q-152 102 -152 314zM181 975q51 -89 144 -174.5t232 -131.5q1 103 8 230l-250 178zM242 1634l372 416l222 -262l-490 -299zM290 426q0 -82 43 -146.5 t103 -95.5l137 117q-16 124 -16 313q-84 23 -171 67q-96 -122 -96 -255z" />
<glyph unicode="&#xe2;" horiz-adv-x="1011" d="M35 356q0 84 33.5 172t92 150t122.5 65q-157 112 -217 275q89 55 193 140t169 155h59q9 -7 25 -18t58 -40t76.5 -51t69.5 -40t48 -18q16 0 43 38t44 38t28 -16.5t11 -36.5q0 -28 -9 -56t-20.5 -50t-20.5 -67.5t-9 -105.5q0 -77 1.5 -152t7 -205t21.5 -211.5t40 -83.5 q10 0 26 14.5t23 14.5q17 0 17 -38q0 -55 -21.5 -106t-72 -88.5t-120.5 -37.5q-125 0 -169 234l-271 -245q-78 23 -126 56q-152 102 -152 314zM181 975q51 -89 144 -174.5t232 -131.5q1 103 8 230l-250 178zM199 1507l106 -90l193 223l247 -237l154 246l-309 313zM290 426 q0 -82 43 -146.5t103 -95.5l137 117q-16 124 -16 313q-84 23 -171 67q-96 -122 -96 -255z" />
<glyph unicode="&#xe3;" horiz-adv-x="1011" d="M35 356q0 84 33.5 172t92 150t122.5 65q-157 112 -217 275q89 55 193 140t169 155h59q9 -7 25 -18t58 -40t76.5 -51t69.5 -40t48 -18q16 0 43 38t44 38t28 -16.5t11 -36.5q0 -28 -9 -56t-20.5 -50t-20.5 -67.5t-9 -105.5q0 -77 1.5 -152t7 -205t21.5 -211.5t40 -83.5 q10 0 26 14.5t23 14.5q17 0 17 -38q0 -55 -21.5 -106t-72 -88.5t-120.5 -37.5q-125 0 -169 234l-271 -245q-78 23 -126 56q-152 102 -152 314zM74 1528l30 -94q9 4 31 10.5t115.5 20t218.5 18.5q52 2 121.5 -0.5t113.5 -6.5l44 -3q86 83 133 126q21 19 57.5 46t63.5 44 l26 17l-102 100q-8 -9 -21 -22t-49.5 -38t-67.5 -32t-90.5 1t-128 23t-80.5 17q-59 10 -96 6t-65 -26zM181 975q51 -89 144 -174.5t232 -131.5q1 103 8 230l-250 178zM290 426q0 -82 43 -146.5t103 -95.5l137 117q-16 124 -16 313q-84 23 -171 67q-96 -122 -96 -255z" />
<glyph unicode="&#xe4;" horiz-adv-x="1011" d="M35 356q0 84 33.5 172t92 150t122.5 65q-157 112 -217 275q89 55 193 140t169 155h59q9 -7 25 -18t58 -40t76.5 -51t69.5 -40t48 -18q16 0 43 38t44 38t28 -16.5t11 -36.5q0 -28 -9 -56t-20.5 -50t-20.5 -67.5t-9 -105.5q0 -77 1.5 -152t7 -205t21.5 -211.5t40 -83.5 q10 0 26 14.5t23 14.5q17 0 17 -38q0 -55 -21.5 -106t-72 -88.5t-120.5 -37.5q-125 0 -169 234l-271 -245q-78 23 -126 56q-152 102 -152 314zM143 1602l191 190l192 -190l-192 -193zM181 975q51 -89 144 -174.5t232 -131.5q1 103 8 230l-250 178zM290 426q0 -82 43 -146.5 t103 -95.5l137 117q-16 124 -16 313q-84 23 -171 67q-96 -122 -96 -255zM551 1602l192 190l191 -190l-191 -193z" />
<glyph unicode="&#xe5;" horiz-adv-x="1011" d="M35 356q0 84 33.5 172t92 150t122.5 65q-157 112 -217 275q89 55 193 140t169 155h59q9 -7 25 -18t58 -40t76.5 -51t69.5 -40t48 -18q16 0 43 38t44 38t28 -16.5t11 -36.5q0 -28 -9 -56t-20.5 -50t-20.5 -67.5t-9 -105.5q0 -77 1.5 -152t7 -205t21.5 -211.5t40 -83.5 q10 0 26 14.5t23 14.5q17 0 17 -38q0 -55 -21.5 -106t-72 -88.5t-120.5 -37.5q-125 0 -169 234l-271 -245q-78 23 -126 56q-152 102 -152 314zM176 1815q0 141 109.5 241.5t261.5 100.5t260 -100.5t108 -241.5t-108 -240.5t-260 -99.5q-153 0 -262 99.5t-109 240.5zM181 975 q51 -89 144 -174.5t232 -131.5q1 103 8 230l-250 178zM290 426q0 -82 43 -146.5t103 -95.5l137 117q-16 124 -16 313q-84 23 -171 67q-96 -122 -96 -255zM315 1831q0 -74 57 -127t136 -53t134.5 53t55.5 127t-55.5 127t-134.5 53t-136 -53t-57 -127z" />
<glyph unicode="&#xe6;" horiz-adv-x="1288" d="M35.5 369q1.5 57 15.5 108q17 60 48 117.5t82 102.5t106 46q-108 80 -172 183q-1 0 -1 -1t-1 -1q-8 15 -23.5 46.5t-23.5 47.5q19 14 70 51.5t81 60.5q36 28 89 74t88 78l34 31h59q7 -7 19 -18.5t46 -41.5t65 -52.5t68 -40t63 -15.5q11 1 24 9.5t27.5 24t26.5 30.5 t26.5 37t22.5 34t19 30l11 19q8 -1 28 -4t28 -4q49 -108 131 -164q82 -58 168 -63v-86l-437 -519v-94q17 -57 65 -91t107 -32q61 2 107.5 40.5t56.5 97.5q52 -27 66 -37q-41 -105 -107 -189q-97 -123 -227 -198l-305 247q-28 -26 -124.5 -112.5t-148.5 -134.5 q-89 24 -147 69q-47 38 -77.5 91t-42.5 109.5t-10.5 113.5zM195 987q65 -132 178 -221q83 -62 184 -96q0 89 8 229q-58 43 -250 178q-59 -43 -120 -90zM295 480.5q-17 -105.5 29 -187.5q41 -73 112 -109q22 20 69 60t70 59q-18 129 -18 311q-93 22 -172 66 q-73 -94 -90 -199.5zM823 608q25 28 107.5 120t126.5 142q-156 70 -234 107v-369z" />
<glyph unicode="&#xe7;" horiz-adv-x="677" d="M49 178v930q67 32 117.5 64t76 57t40.5 44t21.5 32t8.5 14l338 -145l-110 -232l-201 57l-33 -55v-551l137 -119l144 88l24 -36q-54 -126 -133 -208q33 -48 41 -106q21 -151 -139 -288q-26 -21 -49 -35.5t-46.5 -21.5t-35 -10t-35 -5t-25.5 -2l-2 27q58 48 75 63 q95 86 95 187q0 6 -9.5 37t-9.5 50l-40 -20z" />
<glyph unicode="&#xe8;" horiz-adv-x="800" d="M63 188v885q204 62 330 256l56 -8q17 -37 43.5 -73t63.5 -70.5t87.5 -57.5t106.5 -26v-86l-437 -518v-95q0 -57 53 -91t117 -32q58 1 111 48.5t53 89.5l68 -37q-103 -255 -336 -387zM164 1819l491 -299l103 145l-371 416zM313 610l234 260l-234 107v-367z" />
<glyph unicode="&#xe9;" horiz-adv-x="800" d="M63 188v885q204 62 330 256l56 -8q17 -37 43.5 -73t63.5 -70.5t87.5 -57.5t106.5 -26v-86l-437 -518v-95q0 -57 53 -91t117 -32q58 1 111 48.5t53 89.5l68 -37q-103 -255 -336 -387zM162 1661l373 416l221 -262l-490 -299zM313 610l234 260l-234 107v-367z" />
<glyph unicode="&#xea;" horiz-adv-x="800" d="M63 188v885q204 62 330 256l56 -8q17 -37 43.5 -73t63.5 -70.5t87.5 -57.5t106.5 -26v-86l-437 -518v-95q0 -57 53 -91t117 -32q58 1 111 48.5t53 89.5l68 -37q-103 -255 -336 -387zM119 1534l106 -90l193 223l248 -237l153 245l-309 314zM313 610l234 260l-234 107v-367 z" />
<glyph unicode="&#xeb;" horiz-adv-x="800" d="M63 188v885q204 62 330 256l56 -8q17 -37 43.5 -73t63.5 -70.5t87.5 -57.5t106.5 -26v-86l-437 -518v-95q0 -57 53 -91t117 -32q58 1 111 48.5t53 89.5l68 -37q-103 -255 -336 -387zM63 1628l191 191l192 -191l-192 -192zM313 610l234 260l-234 107v-367zM471 1628 l193 191l190 -191l-190 -192z" />
<glyph unicode="&#xec;" horiz-adv-x="575" d="M-66 1710l492 -299l102 145l-370 416zM29 1053l75 -92v-809l172 -166l283 239l-41 56q-32 -18 -63 -11q-26 6 -45 25q-20 20 -30 52q-6 19 -8 59q-2 10 -0.5 60t1.5 60l2 557l-142 152z" />
<glyph unicode="&#xed;" horiz-adv-x="575" d="M-68 1552l373 416l221 -262l-489 -299zM29 1053l75 -92v-809l172 -166l283 239l-41 56q-32 -18 -63 -11q-26 6 -45 25q-20 20 -30 52q-6 19 -8 59q-2 10 -0.5 60t1.5 60l2 557l-142 152z" />
<glyph unicode="&#xee;" horiz-adv-x="575" d="M-111 1425l107 -90l192 224l248 -238l154 246l-309 313zM29 1053l75 -92v-809l172 -166l283 239l-41 56q-32 -18 -63 -11q-26 6 -45 25q-20 20 -30 52q-6 19 -8 59q-2 10 -0.5 60t1.5 60l2 557l-142 152z" />
<glyph unicode="&#xef;" horiz-adv-x="575" d="M-166 1520l191 190l192 -190l-192 -193zM29 1053l75 -92v-809l172 -166l283 239l-41 56q-32 -18 -63 -11q-26 6 -45 25q-20 20 -30 52q-6 19 -8 59q-2 10 -0.5 60t1.5 60l2 557l-142 152zM242 1520l192 190l191 -190l-191 -193z" />
<glyph unicode="&#xf0;" horiz-adv-x="1001" d="M-12 1368l125 246l124 -67l54 98l84 -43l-54 -100l601 -324l8 -969q-52 -14 -85 -25t-87.5 -36t-109.5 -67t-111 -101q-92 60 -165 88q-139 53 -306 53v913l266 141l-144 81l-65 -119l-84 45l66 120zM365 348q48 -44 117 -66t116 -20.5t49 17.5l-2 720l-280 158v-809z " />
<glyph unicode="&#xf1;" horiz-adv-x="1196" d="M39 1055l221 209q51 0 82 -9t58 -38t41 -86.5t21 -151.5l331 305q68 -34 120 -80.5t78.5 -90t39 -77t12.5 -53.5q0 -136 -10 -321.5t-10 -253.5q0 -51 8.5 -83.5t30 -52t38.5 -27.5t53 -20q4 -1 4 -6q0 -29 -95 -123t-127 -94q-38 0 -99.5 68.5t-81.5 113.5v697 q0 21 -4.5 42t-15 45.5t-34 39.5t-56.5 15q-50 0 -177 -129q5 -188 -10 -591l151 -115l-250 -202l-245 215l6 3q6 4 9.5 6.5t10.5 8.5t12.5 12t12 14.5t11.5 19t9.5 22.5t6.5 27t2 32v612zM141 1499l31 -94q9 4 31 10.5t115.5 20t218.5 18.5q52 2 121.5 -0.5t113.5 -5.5 l43 -4q86 84 133 127q21 19 58 45.5t64 43.5l26 17l-103 101q-8 -9 -21 -22t-49 -38t-67 -32t-90.5 0.5t-128.5 22.5t-80 17q-59 10 -96.5 6t-65.5 -26z" />
<glyph unicode="&#xf2;" d="M40 139v53q29 0 47.5 18t18.5 49v738q279 79 424 305q26 -33 60 -68.5t89.5 -83t127 -83t144.5 -46.5v-835q-6 -2 -32 -11.5t-35 -13.5t-34.5 -14t-41 -17t-42.5 -19t-50.5 -24.5t-54 -28.5t-64 -35.5t-70.5 -41.5q-13 13 -28.5 26.5t-63.5 44t-99.5 51t-132 33 t-163.5 3.5zM244 1757l491 -299l103 146l-371 415zM397 343q54 -11 103.5 -28t76.5 -29t58 -28t39 -19v597l-214 181l-63 -43v-631z" />
<glyph unicode="&#xf3;" d="M40 139v53q29 0 47.5 18t18.5 49v738q279 79 424 305q26 -33 60 -68.5t89.5 -83t127 -83t144.5 -46.5v-835q-6 -2 -32 -11.5t-35 -13.5t-34.5 -14t-41 -17t-42.5 -19t-50.5 -24.5t-54 -28.5t-64 -35.5t-70.5 -41.5q-13 13 -28.5 26.5t-63.5 44t-99.5 51t-132 33 t-163.5 3.5zM242 1599l372 416l222 -262l-490 -299zM397 343q54 -11 103.5 -28t76.5 -29t58 -28t39 -19v597l-214 181l-63 -43v-631z" />
<glyph unicode="&#xf4;" d="M40 139v53q29 0 47.5 18t18.5 49v738q279 79 424 305q26 -33 60 -68.5t89.5 -83t127 -83t144.5 -46.5v-835q-6 -2 -32 -11.5t-35 -13.5t-34.5 -14t-41 -17t-42.5 -19t-50.5 -24.5t-54 -28.5t-64 -35.5t-70.5 -41.5q-13 13 -28.5 26.5t-63.5 44t-99.5 51t-132 33 t-163.5 3.5zM199 1473l106 -91l193 224l247 -238l154 246l-309 313zM397 343q54 -11 103.5 -28t76.5 -29t58 -28t39 -19v597l-214 181l-63 -43v-631z" />
<glyph unicode="&#xf5;" d="M40 139v53q29 0 47.5 18t18.5 49v738q279 79 424 305q26 -33 60 -68.5t89.5 -83t127 -83t144.5 -46.5v-835q-6 -2 -32 -11.5t-35 -13.5t-34.5 -14t-41 -17t-42.5 -19t-50.5 -24.5t-54 -28.5t-64 -35.5t-70.5 -41.5q-13 13 -28.5 26.5t-63.5 44t-99.5 51t-132 33 t-163.5 3.5zM74 1493l30 -94q9 4 31 10.5t115.5 20t218.5 18.5q52 2 121.5 -0.5t113.5 -5.5l44 -4q86 84 133 127q21 19 57.5 45.5t63.5 43.5l26 17l-102 101q-8 -9 -21 -22t-49.5 -38.5t-67.5 -32.5t-90.5 1t-128 23t-80.5 17q-59 10 -96 6t-65 -26zM397 343 q54 -11 103.5 -28t76.5 -29t58 -28t39 -19v597l-214 181l-63 -43v-631z" />
<glyph unicode="&#xf6;" d="M40 139v53q29 0 47.5 18t18.5 49v738q279 79 424 305q26 -33 60 -68.5t89.5 -83t127 -83t144.5 -46.5v-835q-6 -2 -32 -11.5t-35 -13.5t-34.5 -14t-41 -17t-42.5 -19t-50.5 -24.5t-54 -28.5t-64 -35.5t-70.5 -41.5q-13 13 -28.5 26.5t-63.5 44t-99.5 51t-132 33 t-163.5 3.5zM143 1567l191 190l192 -190l-192 -193zM397 343q54 -11 103.5 -28t76.5 -29t58 -28t39 -19v597l-214 181l-63 -43v-631zM551 1567l192 190l191 -190l-191 -193z" />
<glyph unicode="&#xf7;" horiz-adv-x="1257" d="M0 748v190h1260v-190h-1260zM381 328l250 250l250 -250l-250 -250zM381 1366l250 250l250 -250l-250 -250z" />
<glyph unicode="&#xf8;" d="M-72 63l112 123v6q1 0 2.5 0.5t2.5 0.5l61 67v737q279 79 424 305q27 -35 62.5 -73t102 -90t134.5 -82l222 246l88 -80l-188 -208v-829q-6 -2 -32 -11.5t-35 -13.5t-34.5 -14t-41 -17t-42.5 -19t-50.5 -24.5t-54 -28.5t-64 -35.5t-70.5 -41.5q-14 14 -34 30t-68 47.5 t-118.5 54t-147.5 28.5l-143 -157zM397 343q54 -11 103.5 -28t76.5 -29t58 -28t39 -19v470l-277 -306v-60zM397 581l251 277l-188 159l-63 -43v-393z" />
<glyph unicode="&#xf9;" horiz-adv-x="1089" d="M25 1011l200 245l262 -220l-96 -112l2 -498q0 -80 8.5 -118.5t21.5 -48t41 -9.5q30 0 77 42t159 160l-1 478l-124 103l200 245l263 -220l-88 -107v-402q0 -125 25.5 -206t89.5 -132l-182 -219q-91 17 -137 90.5t-46 191.5v16l-301 -298q-15 8 -53.5 28.5t-59.5 32.5 t-52.5 35.5t-48 45.5t-29.5 55t-13 71v648zM268 1737l492 -299l102 145l-370 416z" />
<glyph unicode="&#xfa;" horiz-adv-x="1089" d="M25 1011l200 245l262 -220l-96 -112l2 -498q0 -80 8.5 -118.5t21.5 -48t41 -9.5q30 0 77 42t159 160l-1 478l-124 103l200 245l263 -220l-88 -107v-402q0 -125 25.5 -206t89.5 -132l-182 -219q-91 17 -137 90.5t-46 191.5v16l-301 -298q-15 8 -53.5 28.5t-59.5 32.5 t-52.5 35.5t-48 45.5t-29.5 55t-13 71v648zM266 1579l373 416l221 -262l-489 -299z" />
<glyph unicode="&#xfb;" horiz-adv-x="1089" d="M25 1011l200 245l262 -220l-96 -112l2 -498q0 -80 8.5 -118.5t21.5 -48t41 -9.5q30 0 77 42t159 160l-1 478l-124 103l200 245l263 -220l-88 -107v-402q0 -125 25.5 -206t89.5 -132l-182 -219q-91 17 -137 90.5t-46 191.5v16l-301 -298q-15 8 -53.5 28.5t-59.5 32.5 t-52.5 35.5t-48 45.5t-29.5 55t-13 71v648zM223 1452l107 -90l192 223l248 -237l154 245l-310 314z" />
<glyph unicode="&#xfc;" horiz-adv-x="1089" d="M25 1011l200 245l262 -220l-96 -112l2 -498q0 -80 8.5 -118.5t21.5 -48t41 -9.5q30 0 77 42t159 160l-1 478l-124 103l200 245l263 -220l-88 -107v-402q0 -125 25.5 -206t89.5 -132l-182 -219q-91 17 -137 90.5t-46 191.5v16l-301 -298q-15 8 -53.5 28.5t-59.5 32.5 t-52.5 35.5t-48 45.5t-29.5 55t-13 71v648zM168 1546l190 191l193 -191l-193 -192zM575 1546l193 191l190 -191l-190 -192z" />
<glyph unicode="&#xfd;" horiz-adv-x="1060" d="M20 1022l181 240q181 -33 254 -317q50 63 95.5 125t66 91.5t42 55t38.5 33.5t42 8t60.5 -16t75 -49t73 -77t55.5 -107.5t22 -132.5q0 -384 -715 -913q-44 -42 -44 -81q0 -42 27.5 -74.5t56.5 -32.5h258v-115h-266q-84 0 -139 70.5t-55 157.5q0 33 10 68q6 30 29.5 122.5 t37.5 175t14 160.5q0 52 -7.5 111t-28 144.5t-67.5 179t-116 173.5zM268 1620l373 416l221 -262l-489 -299zM471 219q262 291 262 543q0 43 -16.5 82t-43 67t-49.5 46t-46 30q-17 -21 -52 -62t-53 -62q31 -165 31 -384q0 -160 -33 -260z" />
<glyph unicode="&#xfe;" horiz-adv-x="1001" d="M-16 1448l20 57q50 -8 117 -41q51 -24 92 -57l4 8q10 25 47 60q37 32 101 51q16 -258 24 -422q1 -33 3 -65q36 45 106.5 135.5t105.5 136.5q48 -35 145.5 -104.5t145.5 -104.5q74 -206 76 -436q2 -224 -62 -428l-368 -240q-73 22 -181 66q1 -51 7 -134q7 -69 30 -116 q30 -63 101 -117q-84 -58 -133 -37q-15 6 -36 30.5t-46 38.5t-60 5q-20 -5 -44 -28.5t-46 -27.5q-24 -6 -37 5q-16 14 -16 47q0 22 8 192t14 353t1 439.5t-27 463.5q-11 103 -40.5 180.5t-51.5 89.5zM360 269q12 1 37 1q148 0 217 -34q9 2 29 7t29 7q25 132 33 231 q15 125 12.5 221.5t-33.5 176.5q-41 107 -141 200q-23 -27 -74 -89t-78 -95q-1 -7 -1.5 -23t-0.5 -24q-24 -289 -29 -579z" />
<glyph unicode="&#xff;" horiz-adv-x="1060" d="M20 1022l181 240q181 -33 254 -317q50 63 95.5 125t66 91.5t42 55t38.5 33.5t42 8t60.5 -16t75 -49t73 -77t55.5 -107.5t22 -132.5q0 -384 -715 -913q-44 -42 -44 -81q0 -42 27.5 -74.5t56.5 -32.5h258v-115h-266q-84 0 -139 70.5t-55 157.5q0 33 10 68q6 30 29.5 122.5 t37.5 175t14 160.5q0 52 -7.5 111t-28 144.5t-67.5 179t-116 173.5zM170 1587l190 191l193 -191l-193 -192zM471 219q262 291 262 543q0 43 -16.5 82t-43 67t-49.5 46t-46 30q-17 -21 -52 -62t-53 -62q31 -165 31 -384q0 -160 -33 -260zM578 1587l192 191l191 -191 l-191 -192z" />
<glyph unicode="&#x152;" horiz-adv-x="2918" d="M39 127q145 198 234.5 282.5t166.5 84.5q15 0 69 -15.5t151.5 -44t177.5 -49.5v343l-355 -179q-135 52 -221 159.5t-86 219.5q0 32 9.5 68.5t44 95t91 118t161 136t243.5 151.5q14 8 66 35.5t69 36t63 31t69.5 31t67 23.5t77 20.5t77 10.5t87.5 5q193 0 353 -79t275 -209 l154 142l160 152h217q69 -48 127 -64q51 -15 104 -17t85 3t57.5 4t33.5 -14q17 -29 -49 -131q-58 -89 -149 -148q-126 -8 -244 27q-7 2 -19.5 6.5t-17.5 6.5v-236h303v-211h-303v-619q185 -26 322 45q41 21 102 74q12 -26 33 -73.5t30 -67.5q-141 -156 -338 -226 q-105 -38 -214.5 -45t-175 4t-111.5 29q-107 42 -186 106.5t-139 181.5q-22 -16 -32 -24q-226 -174 -295 -219q-132 -85 -236 -91q-11 -1 -21 -1q-89 0 -238 32.5t-286.5 65.5t-198.5 33q-84 0 -165 -24.5t-137 -55.5zM497 1026q0 -75 58 -124.5t145 -49.5q76 0 138 10v471 q-95 -29 -168 -69t-123 -102.5t-50 -135.5zM963 355q85 -17 116 -23v1047q-59 -5 -116 -16v-1008zM1204 316q59 -6 113 -6q127 0 230 74t157 187.5t54 237.5q0 68 -17.5 139t-59 146.5t-103 135t-158.5 101t-216 49.5v-1064zM1918 505q40 -34 91.5 -64t80.5 -43t79 -33 q26 -11 61 -23v580h-63v-109q-92 -112 -121 -147q-46 -79 -128 -161zM2167 1133h63v288l-63 -63v-225z" />
<glyph unicode="&#x153;" horiz-adv-x="1417" d="M39 160v53q35 0 51 16t16 52v737q151 41 261 127q89 65 163 178q105 -138 250 -219q63 29 115 70q78 60 141 155q8 -1 27 -4t27 -4q48 -106 133 -164q82 -58 168 -63v-86l-437 -519v-94q17 -57 64 -91t106 -32q61 2 107.5 40.5t56.5 97.5q59 -31 68 -37 q-41 -105 -107 -189q-89 -119 -227 -198q-36 22 -76 47.5t-88.5 57t-75.5 48.5q-35 -13 -92 -43q-91 -48 -164 -94q-75 75 -182 117q-142 58 -305 41zM397 365q79 -18 146 -46q25 -10 60 -26t55 -25.5t20 -7.5q0 102 -4 296.5t-4 299.5q-34 29 -104 91t-105 91 q-10 -7 -32 -22.5t-32 -22.5v-628zM954 608q25 28 107.5 120t126.5 142q-156 70 -234 107v-369z" />
<glyph unicode="&#x178;" horiz-adv-x="1703" d="M39 154l311 132v297q-51 56 -127 113v64q73 19 127 72v120l-127 127l127 86v183l-145 159l457 203l106 -106v-183h80h16h24l417 289h57l262 -176v-881h-2l2 -4l-1520 -649zM205 1507zM768 464l80 34v794h-80v-828zM881 2011l190 191l193 -191l-193 -192zM981 555l340 145 v192l-340 -162v-175zM981 878l340 162v141l-340 -161v-142zM981 1166l340 162v42l-162 119l-178 -127v-196zM1288 2011l193 191l190 -191l-190 -192z" />
<glyph unicode="&#x2c6;" horiz-adv-x="770" d="M20 1257l107 -90l192 224l248 -238l154 246l-309 313z" />
<glyph unicode="&#x2dc;" horiz-adv-x="1122" d="M102 1368l31 -94q9 4 31 10.5t115.5 20t218.5 18.5q52 2 121.5 -0.5t112.5 -6.5l44 -3q86 84 133 127q21 19 58 45.5t63 43.5l27 17l-103 101q-8 -9 -21 -22t-49 -38.5t-67 -32.5t-90.5 1t-128 23t-80.5 17q-59 10 -96.5 6t-65.5 -26z" />
<glyph unicode="&#x2000;" horiz-adv-x="1258" />
<glyph unicode="&#x2001;" horiz-adv-x="2517" />
<glyph unicode="&#x2002;" horiz-adv-x="1258" />
<glyph unicode="&#x2003;" horiz-adv-x="2517" />
<glyph unicode="&#x2004;" horiz-adv-x="839" />
<glyph unicode="&#x2005;" horiz-adv-x="629" />
<glyph unicode="&#x2006;" horiz-adv-x="419" />
<glyph unicode="&#x2007;" horiz-adv-x="419" />
<glyph unicode="&#x2008;" horiz-adv-x="314" />
<glyph unicode="&#x2009;" horiz-adv-x="503" />
<glyph unicode="&#x200a;" horiz-adv-x="139" />
<glyph unicode="&#x2010;" horiz-adv-x="1122" d="M227 573q0 28 15.5 49.5t54.5 49.5q131 94 278 84q215 -14 263 -74q23 -28 35.5 -94.5t-1 -133.5t-59.5 -83q-47 -16 -149 59q-50 21 -92 27.5t-72 3t-57.5 -8t-60 -4t-67.5 12.5q-88 30 -88 112z" />
<glyph unicode="&#x2011;" horiz-adv-x="1122" d="M227 573q0 28 15.5 49.5t54.5 49.5q131 94 278 84q215 -14 263 -74q23 -28 35.5 -94.5t-1 -133.5t-59.5 -83q-47 -16 -149 59q-50 21 -92 27.5t-72 3t-57.5 -8t-60 -4t-67.5 12.5q-88 30 -88 112z" />
<glyph unicode="&#x2012;" horiz-adv-x="1122" d="M227 573q0 28 15.5 49.5t54.5 49.5q131 94 278 84q215 -14 263 -74q23 -28 35.5 -94.5t-1 -133.5t-59.5 -83q-47 -16 -149 59q-50 21 -92 27.5t-72 3t-57.5 -8t-60 -4t-67.5 12.5q-88 30 -88 112z" />
<glyph unicode="&#x2013;" horiz-adv-x="1024" d="M27 561v156h972v-156h-972z" />
<glyph unicode="&#x2014;" horiz-adv-x="2048" d="M27 561v156h1974v-156h-1974z" />
<glyph unicode="&#x2018;" horiz-adv-x="497" d="M49 1409q-26 -183 168 -354q31 -26 59.5 -43.5t56.5 -26.5t42.5 -12t42.5 -5.5t31 -2.5l2 32q-71 58 -91 76q-114 105 -114 230q0 113 69 161q35 24 67.5 38.5t49.5 17.5t21 0l-115 170q-80 -10 -143 -52q-6 -4 -17.5 -12.5t-32.5 -29.5t-39 -46t-34.5 -63t-22.5 -78z " />
<glyph unicode="&#x2019;" horiz-adv-x="497" d="M47 1520l115 170q83 -10 145 -52q6 -4 17 -12.5t32 -29.5t39 -46t34 -63t22 -78q26 -183 -168 -354q-31 -26 -59.5 -43.5t-56 -26.5t-42 -12t-42 -5.5t-30.5 -2.5l-4 32q70 58 90 76q115 106 115 230q0 112 -70 161q-35 24 -67.5 38.5t-49 17.5t-20.5 0z" />
<glyph unicode="&#x201c;" horiz-adv-x="1001" d="M-105 1580q-38 -65 145 -345q68 -109 116.5 -167.5t71 -71t43.5 -10.5q13 1 27.5 9t21.5 15l8 8q49 59 -123 378q-57 105 -95 161t-57 71t-39 16q-35 1 -71 -17.5t-48 -46.5zM380 1586q-38 -65 145 -345q68 -109 116.5 -167.5t71 -71t43.5 -10.5q13 1 27.5 9t22.5 15l7 8 q49 59 -123 378q-57 105 -95 161t-57 71t-39 16q-35 1 -71 -17.5t-48 -46.5z" />
<glyph unicode="&#x201d;" horiz-adv-x="1001" d="M172 1024q-49 59 123 378q57 105 95 161t57 71t39 16q35 1 71 -17.5t48 -46.5q38 -65 -145 -345q-68 -109 -116.5 -167.5t-71 -71t-43.5 -10.5q-13 1 -27.5 9t-21.5 15zM655 1018q-49 59 123 378q57 105 95 161t57 71t39 16q35 1 71 -17.5t48 -46.5q38 -65 -145 -345 q-68 -109 -116.5 -167.5t-71 -71t-43.5 -10.5q-13 1 -27.5 9t-22.5 15z" />
<glyph unicode="&#x2022;" horiz-adv-x="661" d="M88 627l250 250l250 -250l-250 -250z" />
<glyph unicode="&#x2026;" horiz-adv-x="1802" d="M35 246l250 252l250 -252l-250 -250zM649 246l250 252l250 -252l-250 -250zM1264 246l249 252l250 -252l-250 -250z" />
<glyph unicode="&#x202f;" horiz-adv-x="503" />
<glyph unicode="&#x2039;" horiz-adv-x="1656" d="M121 774v160l1323 764l47 -80l45 -80l-1184 -684l1184 -684l-45 -80l-47 -80z" />
<glyph unicode="&#x203a;" horiz-adv-x="1656" d="M121 170l47 -80l45 -80l1323 764v160l-1323 764l-45 -80l-47 -80l1184 -684z" />
<glyph unicode="&#x205f;" horiz-adv-x="629" />
<glyph unicode="&#x20ac;" horiz-adv-x="1726" d="M2 581v92v94h172v19q0 98 27 204h-199v93v94h271q124 235 365 382.5t535 147.5q30 0 90 -4q29 -20 47 -31t50 -22t64 -11q29 0 82.5 13t81.5 13q38 0 66 -21.5t28 -57.5q0 -13 -4.5 -27.5t-9 -25t-17.5 -29.5t-20 -29t-27 -35t-29 -37q-36 -46 -75 -70t-102 -24 q-34 0 -70 6.5t-75 21.5t-66.5 26t-69.5 35.5t-57.5 33.5t-57 36t-43.5 28q-150 -9 -259 -96.5t-159 -222.5h471v-94v-93h-506v-13q0 -108 36 -210h470v-94v-92h-373q99 -139 248.5 -223t320.5 -84q25 0 50.5 2t73 11t91 25t97 48t97.5 76l71 -157q-27 -30 -59 -59.5 t-96 -74t-133.5 -76.5t-171 -56t-209.5 -24q-96 0 -196 23t-198.5 72t-182 117.5t-148 166.5t-94.5 213h-198z" />
<glyph unicode="&#x2122;" horiz-adv-x="2304" d="M19 1429q60 110 175 183t280 73q84 0 173.5 -14t141.5 -26t110 -7t107 37l26 -32q-2 -14 -6 -29t-16.5 -39.5t-30 -45t-49 -40.5t-70.5 -30q-102 42 -194 61v-471q61 -5 134 -18t86 -13q30 0 58.5 13.5t45.5 30.5l55 1q-8 -24 -19.5 -50.5t-49.5 -74t-88 -76.5 q-3 0 -50.5 5.5t-103.5 12t-118.5 13t-113 11t-69.5 4.5q-78 0 -152.5 -27.5t-127.5 -61.5l-45 43q89 99 195 146q75 73 76 161q-23 34 -68 64t-112 30q-28 0 -40 -3l-19 25q116 83 230 122q32 69 113 135q-156 0 -236 -12.5t-120 -40.5t-74 -89zM494 1054q34 3 111 2v478 l-9 1q-85 -72 -85 -168q0 -28 12 -87t8 -111.5t-37 -114.5zM1086 946q22 59 78.5 92.5t127.5 38.5q-26 44 -55.5 76t-52 47.5t-42 30t-30 31.5t-10.5 42q0 65 83.5 158t200.5 162t203 69q55 0 104 -34.5t80 -95.5q114 111 224 111q25 0 57 -8.5t74.5 -35.5t76 -68.5 t57.5 -117.5t24 -173q0 -91 -34.5 -178t-96.5 -156t-155.5 -111.5t-202.5 -42.5q-7 0 -49 3q-11 -36 -43 -59.5t-64 -23.5q-26 0 -45.5 20t-19.5 48t24 52.5t58 37.5l-65 108l-162 -104q-115 92 -248 92q-46 0 -97 -11zM1306 1078h6q77 0 133 -60q6 2 19 4t20 4v157 q-126 -59 -178 -105zM1314 1391q0 -66 50.5 -109.5t119.5 -40.5v324q-68 -5 -119 -56t-51 -118zM1553 1039q9 2 26.5 5.5t26.5 5.5l21 16v389q0 29 -18.5 58t-55.5 43v-517zM1740 854q2 -2 3 -4q59 8 116.5 31t112.5 62.5t95 104t54 144.5h-219v-92l33 -51zM1757 1058 l36 -31l51 61v411q-87 -53 -87 -119v-322zM1902 1325h223q-12 101 -68 154t-117 53q-13 0 -38 -7v-200z" />
<glyph unicode="&#x25fc;" horiz-adv-x="1269" d="M0 0v1270h1270v-1270h-1270z" />
</font>
</defs>
</svg>
