<?xml version="1.0" encoding="UTF-8" standalone="no"?>
<!-- Created with Inkscape (http://www.inkscape.org/) -->

<svg
   width="133.00916mm"
   height="36.953613mm"
   viewBox="0 0 133.00916 36.953613"
   version="1.1"
   id="svg1"
   xmlns="http://www.w3.org/2000/svg"
   xmlns:svg="http://www.w3.org/2000/svg">
  <defs
     id="defs1" />
  <g
     id="layer1">
    <g
       id="g2"
       transform="matrix(0,0.22542398,-0.22542398,0,235.12172,-12.37297)">
      <path
         id="path25"
         d="m 167.88266,544.62136 c 11.944,-6.23067 15.11334,-19.01067 14.18534,-31.648 -0.792,-10.80134 -5.76134,-22.12 -13.296,-29.80267 -2.62134,-2.67333 -5.80667,-5.29866 -9.268,-7.608 -4.68934,-4.00933 -10.15467,-7.02266 -16.05467,-7.74 -1.084,-0.132 -1.62133,0.64934 -1.624,1.5 -0.41067,0.89334 0.0493,2.208 1.08533,2.43734 6.10534,1.35066 11.80267,4.952 16.89867,8.65466 1.744,1.71867 3.304,3.51734 4.58667,5.25334 5.58266,7.55333 9.16,15.93199 7.93333,25.49866 -1.24533,9.71733 -9.11333,15.15733 -18.208,17.312 -4.81867,1.14133 -9.28267,1.10533 -13.66533,-1.41867 -1.91734,-1.10266 -6.756,-4.83466 -7.01067,-8.18666 2.55867,1.696 6.116,-2.08934 5.356,-6.64134 -0.844,-5.048 -7.80867,-10.01466 -11.61387,-4.50666 -1.88746,2.732 -1.464,8.30666 -0.8948,11.36266 0.78334,4.204 3.1276,8.62934 5.98027,11.77867 3.18173,3.51067 6.56707,6.10667 10.42173,7.752 -0.316,0.164 -0.61066,0.35867 -0.872,0.604 -0.58933,0.552 -0.58533,1.39067 -0.26666,2.068 1.67333,3.56267 7.1,5.20267 10.58933,5.82667 5.604,1.004 10.74133,0.10933 15.73733,-2.496"
         style="fill:#000000;fill-opacity:1;fill-rule:nonzero;stroke:none;stroke-width:0.133333" />
      <path
         id="path26"
         d="m 175.992,484.43469 c 4.61733,-2.224 5.71066,-9.15866 1.74533,-12.43866 -3.452,-2.856 -9.79467,-0.0627 -7.73333,4.73866 1.676,3.90267 7.132,3.25867 6.25733,-1.03466 0.06,0.0907 0.12133,0.18533 0.17867,0.30933 0.52,1.12933 0.36533,2.03867 -0.13734,3.168 -1.504,3.38 -4.968,2.46667 -7.67733,1.65467 -2.46133,-0.73867 -4.29333,-1.83067 -6.12267,-3.62534 -0.82266,-0.808 -1.27466,-1.24533 -2.38533,-1.64266 -2.072,-0.74 -2.964,2.556 -0.90667,3.292 0.95467,0.34133 2.13334,2.116 3.00534,2.71733 1.49466,1.02933 3.16666,1.83467 4.89866,2.38533 2.70534,0.86134 6.17467,1.77867 8.87734,0.476"
         style="fill:#000000;fill-opacity:1;fill-rule:nonzero;stroke:none;stroke-width:0.133333" />
      <path
         id="path27"
         d="m 96.398931,583.07869 c 1.631333,0.844 3.424533,1.56533 5.423999,2.184 4.75573,1.47067 13.75933,2.77733 17.90307,-0.57067 0.48906,-0.39466 0.38493,-1.19866 0,-1.608 -0.2656,-0.284 -0.53387,-0.52666 -0.8072,-0.744 1.76666,-0.0267 3.75573,0.18 4.90253,0.0493 2.30787,-0.26267 4.02293,-0.692 6.03387,-1.43067 0.30266,4.04133 -0.574,7.98133 -4.1964,10.52133 -4.0156,2.816 -8.42134,3.34934 -13.12187,2.22134 -6.42653,-1.54267 -11.588,-6.01067 -16.137999,-10.62267 z m 71.343729,37.724 c 0.76134,-6.144 -0.812,-13.252 -4.79466,-18.05333 -3.332,-4.016 -6.75734,-5.72667 -10.82134,-6.62134 0.52,-0.308 1.024,-0.63866 1.496,-1.01066 3.35867,-2.64934 4.54534,-7.59334 8.19334,-9.788 1.49333,-0.89867 0.80533,-3.096 -0.86134,-3.18 -7.992,-0.404 -13.916,0.324 -20.008,4.656 -0.57866,-2.784 -1.14,-4.612 -3.956,-7.25334 -0.492,-0.46133 -1.03866,-0.97866 -1.62,-1.472 4.57067,-2.34 8.16134,-9.58 8.64267,-14.46133 0.30533,-3.10133 -0.52933,-7.34267 -2.42667,-9.84933 -0.696,-0.91867 -2.46,-0.16934 -4.68,-3.07467 -2.45733,-3.216 -5.39266,-10.11733 -6.27493,-11.29733 -3.58333,-4.79334 -10.04427,-7.832 -15.3588,-3.65334 -3.3032,2.596 -3.2256,8.68934 0.9568,10.56267 3.3708,1.50933 7.76973,-3.09333 4.5328,-5.732 -1.68907,-1.376 -4.11827,1.024 -2.41413,2.41333 -3.00774,-1.464 -2.64054,-3.332 1.10266,-5.60133 3.1568,-0.092 5.69014,0.912 7.59947,3.01333 2.19067,2.26534 3.12653,5.31467 3.4344,8.38 0.62347,6.21867 -1.27813,12.29067 -6.9636,15.59467 -8.0068,4.65467 -19.02813,4.248 -27.291599,0.716 -3.904267,-1.66933 -7.722933,-3.74667 -11.140133,-6.30533 -4.252133,-3.18534 -7.883333,-7.11867 -10.286533,-11.94134 -4.89,-9.816 -6.3796,-19.53333 -2.9656,-30.05733 2.443733,-7.53333 4.847466,-15.484 5.8448,-23.36266 0.623466,-4.92 3.141733,-15.27067 -1.185867,-19.372 -6.731866,-6.38134 -15.436,4.71733 -6.279733,8.08133 0.861467,0.316 1.877067,-0.35867 2.099467,-1.192 0.304666,-1.14133 0.339066,-1.40533 0.3036,-2.59333 -0.01453,-0.49467 -0.2052,-0.87334 -0.4828,-1.14534 0.346933,-1.75866 0.569333,-3.72133 2.726133,0.63467 0.343733,0.69333 0.269733,1.952 0.3072,2.72533 0.107866,2.23467 -0.123867,4.52134 -0.305734,6.74934 -0.477066,5.84533 -1.846799,11.20799 -3.027066,16.91466 -1.7708,8.564 -6.056267,16.69467 -5.5088,25.61467 0.378133,6.16 7.072933,24.192 8.6604,27.60533 2.062,4.43467 3.995866,8.87067 6.705733,12.936 -0.117733,0.38533 16.9792,27.28133 31.622402,34.74933 7.2068,3.67467 13.9,3.39867 21.88146,2.764 5.412,-0.43066 10.35067,-0.964 15.77867,0.15734 3.852,0.79733 6.82533,3.07333 7.96933,6.97066 0.42134,1.43334 0.65334,3.20267 0.39467,4.684 0.003,0.532 -0.0867,1.044 -0.268,1.53867 -0.152,0.98267 -0.86533,1.50667 -2.13733,1.572 0.28666,-1.90533 -1.95467,-2.95467 -3.11867,-1.316 -2.58533,3.63867 -1.07733,8.30933 3.52933,9.09066 6.16,1.04267 9.72,-4.35333 10.396,-9.79066"
         style="fill:#000000;fill-opacity:1;fill-rule:nonzero;stroke:none;stroke-width:0.133333" />
      <path
         id="path28"
         d="m 116.44426,511.88536 c 4.28747,-3.20534 6.2588,-11.51067 3.7864,-16.11733 -7.3124,-13.628 -23.997862,-7.18 -27.549996,-5.776 -0.9328,0.36933 -5.150933,2.672 -7.402533,4.85466 -2.4812,2.404 -2.9432,4.672 -2.399466,4.22533 4.628133,-3.79866 9.778133,-5.83466 13.335333,-7.15066 2.161466,-0.8 4.281862,-1.36667 6.615202,-1.34267 1.21346,-0.0107 2.41093,0.13334 3.5932,0.43467 3.1016,1.33467 4.3708,2.31333 4.50826,3.05733 1.71254,1.89867 1.28907,4.67333 -0.83226,6.69867 -0.95574,0.912 -2.33694,1.79866 -3.726,1.608 -1.58747,-0.21867 -2.1864,-1.72934 -2.17867,-3.16267 0.003,-0.42 0.19373,-0.96667 0.66827,-1.08 0.0937,-0.0227 0.1844,-0.036 0.27653,-0.0547 -0.0135,-0.84266 -0.40053,-1.332 -0.9468,-1.57733 -0.85787,0.12667 -1.7636,-0.83866 -2.46253,-0.708 -0.9844,0.18267 -1.6412,1.46933 -1.902136,1.72667 -1.502533,1.48266 -1.737466,3.66266 -0.964,5.58533 0.2864,0.71333 0.685334,1.308 1.167196,1.812 -2.686529,1.65467 -1.202129,5.69467 1.00987,7.69733 3.51093,3.18 11.86827,1.912 15.40413,-0.73066"
         style="fill:#000000;fill-opacity:1;fill-rule:nonzero;stroke:none;stroke-width:0.133333" />
      <path
         id="path29"
         d="m 139.604,488.63736 c 4.276,-3.488 4.12133,-9.39867 2.34266,-14.16 -1.23466,-3.308 -3.692,-6.584 -6.59333,-8.61333 -1.78933,-1.252 -3.49133,-1.644 -5.35067,-2.024 4.22934,-1.82534 9.66,-0.44667 13.01734,-4.484 1.47066,-1.76667 1.95866,-4.10934 1.70933,-6.376 -1.74267,0.15333 -3.47867,0.30666 -5.21467,0.36933 -3.508,3.16 -11.44333,-0.22133 -15.8616,1.384 -1.67906,0.61067 -3.4864,1.64133 -4.62906,3.06133 -1.5,1.86667 -0.70427,4.50534 -1.90894,6.19067 -1.34733,1.88533 -6.9432,1.76933 -9.1088,2.456 -2.6016,0.824 -4.91146,2.09067 -7.162,3.64267 -4.677062,3.22533 -7.009329,8.156 -11.108262,11.72533 -0.588134,0.51333 -2.033867,4.428 -0.5996,4.17733 2.8776,-0.50133 4.343333,-2.72666 6.4756,-4.56133 3.952,-3.40133 8.279202,-7.24533 13.297862,-8.928 4.7428,-1.59067 7.82974,0.43333 12.3396,1.148 1.79534,0.28533 3.48654,-0.028 5.28494,-0.0973 2.31773,-0.0907 4.4568,-0.056 6.512,1.19333 2.1576,0.372 3.0696,1.736 2.73493,4.096 1.84667,3.37067 0.57733,4.71067 -3.80733,4.02133 0.70933,-0.82 0.0473,-2.23466 -1.10734,-1.90133 -3.48173,1.00533 -3.9464,5.30133 -1.786,8.01467 2.44694,3.07333 7.94867,1.76533 10.52334,-0.33467"
         style="fill:#000000;fill-opacity:1;fill-rule:nonzero;stroke:none;stroke-width:0.133333" />
      <path
         id="path30"
         d="m 162.59466,619.45869 c -3.196,-17.21867 -24.44,-12.032 -36.4264,-11.7 -11.7188,0.324 -19.2928,-6.236 -26.204262,-14.84267 -6.3156,-7.86533 -12.617067,-16.23733 -14.972267,-26.20666 -0.769866,-3.26 -5.778133,-1.87734 -5.008933,1.38 3.486933,14.76 15.513066,30.712 27.590662,39.712 6.7396,5.02266 15.34214,5.42133 23.38587,4.94266 8.75533,-0.52 24.334,-4.252 26.62733,8.096 0.61067,3.29067 5.616,1.89334 5.008,-1.38133 v 0"
         style="fill:#000000;fill-opacity:1;fill-rule:nonzero;stroke:none;stroke-width:0.133333" />
      <path
         id="path31"
         d="m 143.71866,472.36803 c 11.35734,8.69733 23.54934,18.73733 23.21334,34.38133 -0.30934,14.41066 -27.216,25.808 -31.23867,8.44133 -0.756,-3.26267 -5.7636,-1.87867 -5.00893,1.38133 4.36626,18.84667 29.5236,12.95867 37.98093,1.12534 13.56,-18.97734 -8.91867,-39.54933 -22.324,-49.81467 -2.66133,-2.03733 -5.24267,2.47867 -2.62267,4.48534 v 0"
         style="fill:#000000;fill-opacity:1;fill-rule:nonzero;stroke:none;stroke-width:0.133333" />
      <path
         id="path32"
         d="m 100.58066,632.24935 c 1.60427,-2.43733 0.8344,-8.38799 3.89534,-9.92933 -0.414,1.09467 -1.05307,2.11867 -1.2208,3.376 -0.20827,1.55867 -0.2224,2.94667 0.40053,4.41467 1.11147,2.61866 4.036,5.81866 6.92867,6.232 0.4448,0.064 0.78333,-0.24 0.7,-0.7 -0.49894,-2.74134 -0.276,-4.544 1.49013,-6.772 1.66093,-2.09467 3.83587,-3.15867 6.35573,-3.912 4.13067,-1.23467 9.55254,-1.63467 13.79107,-0.66533 4.212,0.96266 8.61067,2.39733 12.168,4.83466 2.43867,1.67067 4.264,4.14267 7.14133,5.06 0.43734,0.14 0.784,-0.29733 0.7,-0.7 -0.0387,-0.18133 -0.076,-0.364 -0.11466,-0.54667 -0.0533,-0.256 -0.228,-0.37733 -0.424,-0.40133 -0.57067,-1.80933 -2.892,-3.5 -4.096,-4.71866 -2.52667,-2.55867 -5.664,-4.49334 -8.828,-6.164 -7.0044,-3.69734 -14.99667,-5.12667 -22.68467,-6.688 -4.02347,-0.816 -8.24733,-1.79867 -11.79787,-3.88667 -3.3844,-1.98933 -6.979729,-3.44667 -10.237062,-5.676 -3.411467,-2.33467 -7.077067,-4.832 -9.992133,-7.76 -3.2412,-3.256 -5.138,-6.56533 -6.238,-11.01333 -0.09587,-0.38667 -0.678134,-0.58667 -0.951067,-0.25067 -1.1036,1.35867 -0.9688,3.376 -0.973467,5.05467 -0.0083,2.744 0.449467,5.32 1.160934,7.968 1.409333,5.24 3.0792,9.95066 6.9484,13.87333 1.5448,1.56667 3.108399,3.108 5.026133,4.21333 1.202,0.69334 2.419733,0.668 2.574933,2.06134 0.121867,1.09866 -0.756267,1.82533 -1.396267,2.704 -2.099066,2.87733 -3.633866,5.01066 -7.194799,6.036 -2.624,0.756 -5.195334,1.17333 -7.848534,1.73199 -0.340533,0.072 -0.5448,0.54534 -0.34,0.836 1.341067,1.912 5.177067,2.53467 7.244267,3.15067 3.400933,1.012 7.1724,1.892 10.743733,1.64533 2.646267,-0.18266 5.536933,-1.08266 7.068129,-3.408"
         style="fill:#000000;fill-opacity:1;fill-rule:nonzero;stroke:none;stroke-width:0.133333" />
      <path
         id="path33"
         d="m 194.51333,670.89335 c 5.064,-2.24666 10.84266,-3.39866 15.976,-0.59866 2.51333,1.37066 4.33866,3.688 5.42,6.32933 -1.28534,-1.64267 -2.87334,-3.01467 -4.52,-3.76 -10.108,-4.57467 -20.368,1.952 -27.052,9.41733 -1.51067,1.68534 -2.61067,3.48134 -3.42267,5.40134 0.47067,-2.096 1.11867,-4.14 2.17867,-6.052 2.74267,-4.95067 6.23733,-8.43734 11.42,-10.73734 z m -5.76267,40.46667 c 0.96534,-2.032 -1.53066,-3.9 -3.19466,-2.59867 -1.584,-3.06666 -1.812,-7.6 -2.11867,-10.576 -0.452,-4.39333 0.79333,-9.17333 4.03467,-12.36933 2.992,-2.95067 7.82933,-4.684 11.99066,-4.90667 2.51333,-0.13466 4.50533,0.40267 6.49467,1.94934 0.94933,0.73733 3.50266,2.83733 3.948,4.504 -1.17467,-0.71867 -2.35867,0.36933 -2.29867,2.236 0.1,3.13733 3.34133,4.26666 5.99333,3.1 3.49734,-1.53734 5.572,-6.02667 5.16667,-9.664 -0.10667,-0.95734 -0.388,-1.95467 -0.80133,-2.94 -0.50534,-3.78534 -2.36934,-7.55734 -5.40267,-9.82534 -4.30667,-3.22 -10.01333,-3.37066 -14.96533,-1.80666 -5.58933,1.76533 -10.10133,4.61866 -13.464,9.42266 -3.896,5.564 -4.72667,11.32934 -5.684,17.91867 -0.0533,0.37333 0.21333,0.636 0.50133,0.704 -0.408,3.98133 -0.57066,8.87733 1.69067,12.052 1.096,1.536 6.648,5.86933 8.10933,2.8"
         style="fill:#000000;fill-opacity:1;fill-rule:nonzero;stroke:none;stroke-width:0.133333" />
      <path
         id="path34"
         d="m 148.60666,636.73202 c -0.724,-0.7 -15.39733,-7.33733 -28.44413,-3.80933 -1.33493,0.36133 -2.72813,0.78 -4.09893,1.288 2.31186,-1.23467 6.5312,-2.03067 7.51666,-2.23867 4.28067,-0.904 8.7312,-1.34667 13.10507,-1.164 8.272,0.34667 15.38933,2.59067 22.036,7.52 6.264,4.64667 11.02667,10.61067 14.68133,17.47467 1.816,3.41333 3.924,7.208 4.77334,10.992 0.53733,2.39466 0.16666,4.748 -0.19467,7.132 -0.18933,1.244 -0.164,2.416 -0.136,3.61866 -0.296,-1.972 -0.66,-3.98666 -1.11467,-6.05066 -4.272,-19.43334 -16.348,-29.68 -28.124,-34.76267 z m 31.82267,107.868 c 0,0 -14.22267,6.54267 -13.36933,-4.552 0.78666,-10.232 14.988,-29.64933 11.05466,-60.51733 0.33334,0.20933 0.892,0.0653 0.892,-0.45067 0.004,-2.57867 0.192,-4.92667 0.476,-7.50267 0.22534,-2.052 0.128,-4.08133 -0.47466,-6.06533 -1.24267,-4.09733 -3.404,-8.18267 -5.50267,-11.88667 -4.15333,-7.32933 -9.70667,-13.436 -16.75733,-18.072 -7.46,-4.90533 -16.57067,-6.45333 -25.39587,-5.79733 -4.67973,0.348 -9.33907,1.136 -13.7376,2.79867 -1.42027,0.536 -3.6676,1.14933 -4.1228,2.752 -1.37147,0.67066 -2.66413,1.46133 -3.77973,2.42133 -3.77654,3.248 -6.06507,7.692 -7.06467,12.436 -0.5176,1.592 -0.79107,3.292 -0.728,5.116 0.028,0.82667 0.10147,1.632 0.19893,2.42667 0.0448,0.7 0.1052,1.39733 0.20054,2.08666 0.0229,0.16667 0.102,0.27334 0.20466,0.33734 2.9296,13.61466 15.6568,21.50533 23.5744,15.63066 8.81814,-6.54266 2.2756,-16.21466 -4.55146,-14.22266 0,0 -2.84427,-0.28534 -3.4136,2.56 -0.5688,2.844 -5.40414,-0.56934 -4.26667,-5.68934 1.138,-5.12 4.26667,-16.49866 28.72987,-9.672 26.012,7.26 44.376,29.584 24.748,75.09734 -19.628,45.51333 19.628,31.85866 13.08533,20.76533"
         style="fill:#000000;fill-opacity:1;fill-rule:nonzero;stroke:none;stroke-width:0.133333" />
      <path
         id="path35"
         d="m 92.342131,535.52402 c 0,0 -20.860399,-5.68933 -4.930133,23.89467 0,0 -7.586,-4.36267 -8.9136,-9.29333 -1.327067,-4.93067 -9.292133,-22.18667 4.362,-22.37734 13.6536,-0.18933 7.964666,2.46534 7.964666,2.46534 0,0 9.292666,4.36266 1.517067,5.31066"
         style="fill:#000000;fill-opacity:1;fill-rule:nonzero;stroke:none;stroke-width:0.133333" />
      <path
         id="path36"
         d="m 155.908,724.48935 c 1.424,-1.148 2.58133,-2.49733 3.52533,-4.04266 0.624,-1.02267 1.672,-2.18534 1.84533,-3.396 0.003,-0.016 -0.003,-0.0307 -0.001,-0.0467 0.12,-0.352 -0.176,-0.72667 -0.5,-0.72667 -0.236,-0.08 -0.49467,-0.0227 -0.648,0.288 -0.02,0.0413 -0.04,0.084 -0.06,0.12534 -0.0333,0.068 -0.0427,0.13333 -0.0533,0.19866 -4.29467,4.61467 -10.21734,5.81467 -16.3,5.78267 -3.14534,-0.016 -5.808,-0.54667 -8.112,-2.85733 -1.62,-1.62534 -2.55347,-4.108 -0.93734,-6.028 0.476,-0.56534 1.45467,-1.25334 2.36,-1.44267 -0.56133,1.316 -0.71866,2.864 1.32667,3.06267 2.25733,0.21733 3.17867,-2.648 3.23733,-4.40667 0.21334,-6.32533 -6.30533,-9.50267 -11.4344,-6.228 -5.3656,3.42533 -6.10786,10.73067 -3.54373,16.14667 1.38067,2.91733 5.2224,5.18 8.04747,6.41466 3.29733,1.44267 6.74666,2.348 10.36133,2.27734 4.24533,-0.0827 7.696,-2.548 10.88667,-5.12134"
         style="fill:#000000;fill-opacity:1;fill-rule:nonzero;stroke:none;stroke-width:0.133333" />
      <path
         id="path37"
         d="m 151.46266,689.64802 c 3.168,-0.96533 5.35067,-5.27867 6.57867,-8.02933 0.832,-1.86534 2.79467,-6.79467 1.064,-8.60667 -0.19067,-0.2 -0.484,-0.20933 -0.71867,-0.092 -0.504,0.25067 -0.832,0.68667 -1.18533,1.10933 -0.28133,-1.44 -0.408,-2.85466 -1.42933,-4.04933 -0.304,-0.356 -0.89467,-0.14533 -1.01067,0.26667 -0.4,1.41866 -0.67333,2.79333 -1.096,4.15866 -0.76,-1.836 -2.20533,-3.85066 -3.36533,-2.14133 -0.32267,0.47467 -0.244,1.176 -0.30134,1.716 -0.18666,1.74267 -0.51066,3.57067 -0.44,5.32267 0.132,3.316 2.31067,5.968 1.36,9.476 -0.003,0.008 0,0.0147 -10e-4,0.024 -0.272,0.35866 0.003,1.00933 0.54533,0.84533"
         style="fill:#000000;fill-opacity:1;fill-rule:nonzero;stroke:none;stroke-width:0.133333" />
      <path
         id="path38"
         d="m 169.148,699.51069 c -0.3,-1.136 -0.91334,-2.21334 -1.62934,-3.13867 -0.59733,-0.772 -1.49466,-1.324 -2.212,-1.97867 0.876,-0.1 1.74934,0.0267 2.6,-0.30666 0.44534,-0.17467 0.56,-0.63067 0.264,-1.00134 -0.98533,-1.236 -2.77066,-2.34 -4.17066,-3.056 -1.30267,-0.668 -2.352,-0.61866 -3.56534,-0.72133 0.62134,-0.69733 1.316,-1.31867 1.81334,-2.09333 0.26933,-0.41734 -0.17734,-0.99734 -0.65067,-0.84667 -3.18267,1.01067 -6.308,2.08267 -9.56,2.85067 -0.0147,-0.012 -0.02,-0.0267 -0.0347,-0.0387 -0.23466,-0.17733 -0.46933,-0.35467 -0.704,-0.532 -0.49066,-0.372 -1.18,0.352 -0.84133,0.84 0.39733,0.57333 0.63467,0.736 1.19467,1.14 1.23733,0.89733 2.26666,1.65733 3.35066,2.772 1.15734,1.192 2.36,3.49467 4.12,3.81867 0.292,0.0533 0.52,-0.044 0.69067,-0.28134 0.19333,-0.27066 0.26267,-0.52533 0.26,-0.77066 2.816,1.03466 6.04133,1.308 7.96933,3.80933 0.39334,0.51067 1.29467,0.25067 1.10534,-0.46533"
         style="fill:#000000;fill-opacity:1;fill-rule:nonzero;stroke:none;stroke-width:0.133333" />
      <path
         id="path39"
         d="m 145.46,690.56802 c 2.316,-0.54533 3.264,-3.492 1.54933,-5.204 -1.34933,-1.34933 -3.88267,-1.53467 -5.23067,-0.084 -0.96266,1.036 -1.00133,2.57333 -0.14,3.64133 0.64134,1.296 2.28267,2.00934 3.82134,1.64667"
         style="fill:#000000;fill-opacity:1;fill-rule:nonzero;stroke:none;stroke-width:0.133333" />
      <path
         id="path40"
         d="m 148.904,697.09335 c 0.456,-0.0213 0.912,-0.124 1.34133,-0.33066 0.83467,-0.40267 1.40267,-1.192 1.52533,-2.10267 0.0573,-0.424 0.004,-0.80267 -0.12,-1.14667 -0.007,-0.56933 -0.12933,-1.13333 -0.43733,-1.61466 -0.16133,-0.25067 -0.35467,-0.46534 -0.568,-0.652 -0.17333,-0.16267 -0.36533,-0.29467 -0.57467,-0.396 -0.016,-0.009 -0.0307,-0.0213 -0.048,-0.0307 -0.0373,-0.016 -0.0773,-0.0253 -0.11466,-0.04 -0.44134,-0.20267 -0.928,-0.31333 -1.44,-0.29867 -2.45067,0.072 -4.05867,2.77467 -2.76134,4.91867 0.25067,0.416 0.58134,0.756 0.95734,1.02667 0.28266,0.264 0.63466,0.468 1.05866,0.58266 0.40667,0.11067 0.804,0.13334 1.18134,0.084"
         style="fill:#000000;fill-opacity:1;fill-rule:nonzero;stroke:none;stroke-width:0.133333" />
      <path
         id="path41"
         d="m 144.02933,695.98935 c 0.61333,-0.612 0.84533,-1.572 0.63333,-2.40533 -0.192,-0.75467 -0.68133,-1.228 -1.29733,-1.67733 -0.676,-0.49467 -1.61067,-0.38134 -2.308,0.04 -0.88133,0.20266 -1.652,0.85333 -1.91067,1.76 -0.396,1.38533 0.52267,2.76133 1.87467,3.11066 1.06933,0.276 2.23333,-0.052 3.008,-0.828"
         style="fill:#000000;fill-opacity:1;fill-rule:nonzero;stroke:none;stroke-width:0.133333" />
      <path
         id="path42"
         d="m 103.49426,762.64135 c 1.49747,-0.776 2.84894,-3.276 4.7792,-4.18 1.60774,-0.75333 3.03854,-1.04933 4.77814,-1.36933 3.90053,-0.71733 9.53333,-1.12267 12.63586,-3.91067 1.56467,-1.40666 1.68134,-3.87466 3.08227,-5.23466 1.5308,-1.48534 2.85267,-0.95334 4.90093,-0.94534 6.82534,0.0267 21.34267,-2.54 22.64134,-11.17333 0.16933,-1.12533 -1.01467,-1.77467 -1.78667,-1.47333 -0.54133,-0.32667 -1.352,-0.22134 -1.576,0.576 -0.61467,2.18133 -8.24,5.11733 -9.93467,5.52533 -5.784,1.39467 -10.27613,-1.004 -15.73026,-1.96 -9.84267,-1.72267 -17.13334,-1.632 -23.876,-10.01733 -0.56827,-0.708 -1.86107,-0.30667 -2.03907,0.53733 -0.8948,4.24667 0.63013,7.52933 3.60613,10.624 2.9516,3.06933 6.3724,3.66933 9.72187,5.36667 -6.052,3.74933 -18.377599,4.20533 -16.413999,14.388 0.328667,1.70533 1.7084,4.01733 3.657329,4.18933 0.714,0.064 1.0416,-0.67734 1.5536,-0.94267"
         style="fill:#000000;fill-opacity:1;fill-rule:nonzero;stroke:none;stroke-width:0.133333" />
      <path
         id="path43"
         d="m 60.285998,731.73602 c 1.3724,-3.144 4.548934,-4.41733 7.848934,-4.536 1.5968,1.536 3.2708,2.96 5.016133,4.29067 -2.257867,0.0173 -4.634933,0.572 -5.8516,1.26 -2.6536,1.5 -3.8448,4.328 -3.419733,7.09866 -3.154267,-1.07066 -4.870933,-5.188 -3.593734,-8.11333 z m 8.899467,-6.844 c -0.456267,-0.464 -0.909467,-0.93333 -1.352133,-1.42267 -3.571334,-3.94 -6.697867,-8.324 -8.658267,-13.29466 -1.3376,-3.392 -3.416666,-11.668 -1.171466,-15.51867 0.264133,1.69733 0.6688,3.38933 1.156266,5.06 2.226133,7.62667 5.0152,14.53067 9.255733,20.58667 1.579734,3.19733 3.594267,6.228 5.9084,9.124 -1.631866,-1.25334 -3.201066,-2.61467 -4.704666,-4.10134 -0.102134,-0.17866 -0.238667,-0.33466 -0.433867,-0.43333 z m -2.992267,-44.36133 c -2.610933,5.044 -2.6328,10.85466 -2.652533,16.52533 -0.0089,2.58267 -0.1204,5.25333 0.01867,7.88133 -0.941067,-2.43866 -1.8416,-4.904 -2.475467,-7.41866 -1.307866,-5.18667 -2.179733,-15.536 5.109333,-16.988 z m 21.652666,-3.37734 c -0.783333,0.23867 -1.510933,0.52 -2.165199,0.844 -7.732267,3.84267 -12.018667,10.97334 -13.677067,18.85334 -0.795733,2.22666 -1.226533,4.74 -1.216666,7.53866 0.0172,4.87467 1.080266,10.58 3.070399,16.124 0.4432,1.45734 0.9416,2.88667 1.4932,4.28134 -2.246933,-2.252 -4.159333,-4.59734 -5.823466,-7.16667 -0.556267,-1.30267 -1.057733,-2.616 -1.439067,-3.93733 0.02707,-0.22267 0.012,-0.45867 -0.114,-0.70667 -0.07507,-0.14667 -0.124,-0.29733 -0.1928,-0.44533 -0.3124,-1.268 -0.547333,-2.53867 -0.677066,-3.80534 -0.8208,-8.032 -0.126,-17.83733 5.100533,-24.33466 3.776533,-4.696 9.624533,-6.888 15.641199,-7.24534 z m -21.310932,63.55334 c -2.040667,-4.08934 2.300533,-6.63734 5.531733,-6.80667 1.055733,-0.056 3.5588,-0.28 4.369733,0.48267 0.3776,0.35466 0.811467,0.36133 1.1548,0.18533 1.2228,0.78133 2.462933,1.54267 3.739067,2.26133 5.257733,4.61867 11.456133,8.19734 18.289066,9.45867 0.849999,0.156 1.404129,-0.53067 1.436929,-1.19067 -5.922929,-2.18533 -12.485462,-5.51333 -16.665062,-9.90933 -0.563067,-0.59067 -0.895867,-1.22133 -1.06,-1.856 -2.838533,-3.48933 -5.150933,-7.70667 -6.860933,-12.08533 -2.181734,-7.288 -3.801467,-15.312 -2.604134,-22.788 0.03853,-0.24267 0.1032,-0.49334 0.152134,-0.74 1.788533,-5.38667 5.925466,-9.21334 12.3572,-10.6 4.009466,-0.86534 8.767199,-1.00934 12.764133,0.0707 2.149462,0.58134 5.874402,2.86267 5.823462,5.63067 -0.0256,1.40533 -2.7396,4.26933 -4.098,4.91333 -0.3796,0.18 -0.54573,0.61334 -0.5744,1.00134 -0.28186,3.79066 5.66774,5.93733 8.76667,5.14266 5.20773,-1.33466 6.95147,-9.052 6.2416,-13.544 -0.76773,-4.86133 -4.84427,-10.10933 -9.24893,-12.23466 -1.8964,-0.91467 -4.41307,-1.516 -7.096402,-1.792 -3.066134,-0.94934 -6.381734,-1.452 -9.701467,-1.43334 -1.521467,-0.77866 -3.056266,-3.46666 -4.7584,-4.15066 -1.898933,-0.76134 -4.218266,-0.97467 -6.211466,-0.62534 -4.2156,0.74 -8.164,4.63467 -10.621867,8.05867 -0.5276,-0.0893 -1.103066,0.12667 -1.185866,0.736 0.254666,-1.872 -3.260934,0.096 -4.0016,0.60933 -1.771867,1.22534 -2.895333,3.324 -3.657333,5.272 -0.938534,2.40134 -1.214,4.84667 -1.0896,7.29467 -0.219734,0.016 -0.444267,0.092 -0.647334,0.296 -2.788,2.78267 -2.286533,9.12667 -1.847466,12.66933 0.645333,5.20267 3.398533,10.38267 6.382399,14.59467 1.3708,1.93467 2.836934,3.72267 4.383734,5.38933 -4.1828,0.784 -8.5276,3.384 -8.825467,7.876 -0.302133,4.55734 3.534933,9.68267 8.338533,9.6 0.940134,-0.016 1.424,-0.98533 1.024534,-1.78666"
         style="fill:#000000;fill-opacity:1;fill-rule:nonzero;stroke:none;stroke-width:0.133333" />
      <path
         id="path44"
         d="m 66.975465,494.32269 c 2.2016,-0.184 4.099067,-4.084 3.697467,-6.04266 -0.07027,-0.34267 -0.186,-0.624 -0.332267,-0.856 -0.07973,-0.312 -0.1912,-0.61467 -0.371333,-0.89467 -0.205734,-0.31867 -0.606267,-0.63333 -1.016267,-0.58267 -0.816667,0.1 -1.441067,0.488 -1.914533,1.04534 -0.6964,0.352 -1.316667,0.88666 -1.6688,1.49333 -0.737467,1.27067 -1.262934,4.35733 0.504266,5.02933 0.102534,0.44534 0.654667,0.84667 1.101467,0.808"
         style="fill:#000000;fill-opacity:1;fill-rule:nonzero;stroke:none;stroke-width:0.133333" />
      <path
         id="path45"
         d="m 64.240132,503.92802 c 0.2192,-1.20266 -0.1568,-2.328 -1.451067,-2.30266 -1.232267,0.0253 -1.988533,1.40266 -2.2792,2.43733 -0.337467,1.204 -0.103067,2.752 1.2844,3.13867 1.6672,0.46666 2.604667,-1.72267 2.445867,-3.27334"
         style="fill:#000000;fill-opacity:1;fill-rule:nonzero;stroke:none;stroke-width:0.133333" />
      <path
         id="path46"
         d="m 61.217198,521.03869 c 0.0172,-0.11467 0.0224,-0.22667 0.026,-0.33867 0.06773,-0.0893 0.136,-0.17866 0.190667,-0.276 0.494267,-0.87066 1.632267,-2.51733 0.626,-3.21066 -1.020267,-0.70267 -2.059867,-0.31867 -2.059867,0.94933 0,0.005 0,0.0107 0,0.0147 -1.333333,0.7 -1.065066,1.53866 -0.901599,2.148 0.07187,0.26933 -0.03853,0.49733 0.1652,0.684 0.211866,1.03333 1.770799,1.216 1.953599,0.0293"
         style="fill:#000000;fill-opacity:1;fill-rule:nonzero;stroke:none;stroke-width:0.133333" />
      <path
         id="path47"
         d="m 61.185998,533.07736 c 0.287467,-0.0507 0.552,-0.19867 0.697334,-0.49067 0.419733,-0.83867 0.668266,-1.752 0.386933,-2.67867 -0.231733,-0.764 -1.300933,-1.15866 -1.8812,-0.49733 -0.680266,0.776 -0.8896,1.68533 -0.8396,2.7 0.0464,0.94267 0.986533,1.26133 1.636533,0.96667"
         style="fill:#000000;fill-opacity:1;fill-rule:nonzero;stroke:none;stroke-width:0.133333" />
      <path
         id="path48"
         d="m 65.482798,543.48802 c -5.33e-4,-0.74133 -0.352133,-1.42666 -0.8964,-1.92266 -1.052533,-0.95734 -2.5968,0.564 -1.569733,1.57066 0.08853,0.0867 0.230667,0.22134 0.241733,0.352 0.120267,1.40534 2.226,1.45467 2.2244,0"
         style="fill:#000000;fill-opacity:1;fill-rule:nonzero;stroke:none;stroke-width:0.133333" />
      <path
         id="path49"
         d="m 181.40266,693.53069 c -0.53733,-0.30667 -0.89733,-0.80267 -1.14266,-1.40534 0.028,-0.0867 0.04,-0.18 0.0133,-0.28933 -0.084,-0.332 -0.20667,-0.64533 -0.33867,-0.95467 -0.30933,-2.09066 0.2,-4.756 0.43334,-6.228 0.44933,-2.84666 0.93733,-5.93466 2.656,-8.30533 1.71466,-2.364 4.08,-4.69333 6.58666,-6.23467 2.10667,-1.29466 5.73734,-1.976 8.1,-0.828 0.008,0.003 0.016,10e-4 0.024,0.005 0.444,-0.29867 0.91867,-0.52934 1.42267,-0.66534 -0.005,-0.004 -0.005,-0.009 -0.009,-0.0147 -2.40134,-2.71734 -5.36134,-4.43467 -9.12,-3.91067 -3.404,0.47333 -6.21467,2.60933 -8.00667,5.47067 -2.07867,3.32133 -4.36133,7.19466 -4.71733,11.18 -0.184,2.05466 0,4.14933 0.37466,6.17333 0.21067,1.14267 0.62667,2.09733 1.02267,3.072 0.11333,1.65333 0.604,3.21867 2.08133,3.996 0.69734,0.36667 1.30934,-0.66667 0.62,-1.06133"
         style="fill:#000000;fill-opacity:1;fill-rule:nonzero;stroke:none;stroke-width:0.133333" />
      <path
         id="path50"
         d="m 195.74133,688.57335 c 1.10133,0.15467 2.40933,-0.164 3.23333,-0.54266 2.90933,-1.33334 3.36267,-3.84134 3.12,-6.75067 0.15867,-0.084 0.27467,-0.24133 0.26133,-0.49333 -0.0667,-1.35067 -2.51599,-3.33067 -3.35066,-1.51067 -0.152,0.32933 0.0253,0.84 0.048,1.16 0.048,0.65467 0.0307,1.31333 0.0267,1.97067 -0.22134,1.93066 -1.04,4.44133 -2.92,4.908 -0.18934,0.0413 -0.37734,0.072 -0.56,0.0813 -0.008,0 -0.0147,0.005 -0.0227,0.005 2.01733,-0.84666 3.348,-3.29733 1.316,-5.064 -3.14133,-2.73066 -7.072,0.48934 -9.65067,2.304 -0.61733,0.43467 -0.032,1.456 0.596,1.02 0.98267,-0.68133 1.94934,-1.48666 3.008,-2.04533 1.156,-0.77333 2.472,-1.09467 3.94667,-0.96133 1.41467,2.53866 1.25867,3.81466 -0.468,3.83066 -0.43067,0.064 -0.49333,0.57334 -0.36133,0.88667 0.24266,0.572 0.70133,0.89467 1.244,1.07333 0.0947,0.088 0.22133,0.148 0.392,0.144 0.0493,-10e-4 0.0933,-0.012 0.14133,-0.016"
         style="fill:#000000;fill-opacity:1;fill-rule:nonzero;stroke:none;stroke-width:0.133333" />
      <path
         id="path51"
         d="m 73.802665,739.76802 c 2.201466,0.18533 4.098933,4.08533 3.697333,6.044 -0.07027,0.34267 -0.186,0.62267 -0.3328,0.856 -0.0792,0.312 -0.1912,0.61467 -0.3708,0.89467 -0.205733,0.31866 -0.606267,0.632 -1.016133,0.58266 -0.8172,-0.10133 -1.4412,-0.488 -1.914667,-1.04533 -0.696266,-0.352 -1.316666,-0.88667 -1.668666,-1.49333 -0.7376,-1.27067 -1.2636,-4.35734 0.5036,-5.03067 0.103066,-0.444 0.655199,-0.84533 1.102133,-0.808"
         style="fill:#000000;fill-opacity:1;fill-rule:nonzero;stroke:none;stroke-width:0.133333" />
      <path
         id="path52"
         d="m 85.393198,752.12535 c 0.335467,-0.512 0.216133,-1.18133 -0.0468,-1.696 -0.012,-0.024 -0.02813,-0.0467 -0.04173,-0.0707 -0.0057,-0.0427 -0.0057,-0.0853 -0.0156,-0.128 -0.157334,-0.636 -0.704134,-1.04667 -1.270267,-1.332 -0.301067,-0.24667 -0.643333,-0.41734 -0.986,-0.43734 -0.05627,-0.004 -0.105733,0.0173 -0.1604,0.0227 -0.3636,-0.0573 -0.726,-0.0147 -1.0188,0.26133 -0.5812,0.54667 -0.4432,1.54534 -0.107733,2.18134 0.4036,0.76533 1.160933,1.37866 1.985333,1.63466 0.589067,0.184 1.297467,0.12134 1.662,-0.436"
         style="fill:#000000;fill-opacity:1;fill-rule:nonzero;stroke:none;stroke-width:0.133333" />
      <path
         id="path53"
         d="m 91.630264,758.16935 c 0.354667,-0.0787 0.4452,-0.432 0.365067,-0.732 0.164,-0.256 0.2536,-0.572 0.236933,-0.888 -0.03747,-0.70533 -0.608266,-1.25466 -1.274933,-1.40933 -0.267733,-0.16667 -0.5756,-0.26533 -0.875067,-0.24133 -0.536933,0.044 -0.862,0.48 -0.919733,0.96666 -0.05107,0.152 -0.048,0.31334 0.02653,0.44134 0.0088,0.04 0.0136,0.0813 0.02653,0.12 0.1084,0.32 0.357333,0.67333 0.6604,0.96533 0.4324,0.52667 1.093333,0.92267 1.754266,0.77733"
         style="fill:#000000;fill-opacity:1;fill-rule:nonzero;stroke:none;stroke-width:0.133333" />
      <path
         id="path54"
         d="m 152.14533,948.88268 c -3.48933,0.624 -8.916,2.264 -10.58933,5.82667 -0.31867,0.67733 -0.32267,1.516 0.26666,2.068 0.26134,0.24533 0.556,0.44 0.872,0.60266 -3.85466,1.64534 -7.24,4.24134 -10.42173,7.75334 -2.85267,3.14933 -5.19693,7.57466 -5.98027,11.77866 -0.5692,3.056 -0.99266,8.63067 0.8948,11.36267 3.8052,5.508 10.76987,0.54133 11.61387,-4.50667 0.76,-4.552 -2.79733,-8.33733 -5.356,-6.64133 0.25467,-3.352 5.09333,-7.084 7.01067,-8.18667 4.38266,-2.52533 8.84666,-2.56 13.66533,-1.41866 9.09467,2.15466 16.96267,7.59466 18.208,17.312 1.22667,9.56666 -2.35067,17.94535 -7.93333,25.49865 -1.28267,1.736 -2.84267,3.5347 -4.58667,5.2533 -5.096,3.7027 -10.79333,7.3027 -16.89867,8.6547 -1.036,0.2293 -1.496,1.544 -1.08533,2.4373 0.003,0.8507 0.54,1.632 1.624,1.5 5.9,-0.7173 11.36533,-3.7306 16.05467,-7.74 3.46133,-2.3093 6.64666,-4.9346 9.268,-7.608 7.53466,-7.6826 12.504,-19.00262 13.296,-29.80262 0.928,-12.63733 -2.24134,-25.41733 -14.18534,-31.648 -4.996,-2.60533 -10.13333,-3.5 -15.73733,-2.496"
         style="fill:#000000;fill-opacity:1;fill-rule:nonzero;stroke:none;stroke-width:0.133333" />
      <path
         id="path55"
         d="m 175.992,1011.5653 c 4.61733,2.224 5.71066,9.1587 1.74533,12.4387 -3.452,2.856 -9.79467,0.063 -7.73333,-4.7387 1.676,-3.9026 7.132,-3.2586 6.25733,1.0347 0.06,-0.091 0.12133,-0.1853 0.17867,-0.3093 0.52,-1.1294 0.36533,-2.0387 -0.13734,-3.168 -1.504,-3.38 -4.968,-2.4667 -7.67733,-1.6547 -2.46133,0.7387 -4.29333,1.8307 -6.12267,3.6253 -0.82266,0.808 -1.27466,1.2454 -2.38533,1.6427 -2.072,0.74 -2.964,-2.5573 -0.90667,-3.292 0.95467,-0.3413 2.13334,-2.116 3.00534,-2.7173 1.49466,-1.0307 3.16666,-1.8347 4.89866,-2.3854 2.70534,-0.8613 6.17467,-1.7786 8.87734,-0.476"
         style="fill:#000000;fill-opacity:1;fill-rule:nonzero;stroke:none;stroke-width:0.133333" />
      <path
         id="path56"
         d="m 112.53693,902.29868 c 4.70053,-1.128 9.10627,-0.59467 13.12187,2.22133 3.6224,2.54 4.49906,6.48 4.1964,10.52134 -2.01094,-0.73867 -3.726,-1.16934 -6.03387,-1.43067 -1.1468,-0.13067 -3.13587,0.076 -4.90253,0.0493 0.27333,-0.21733 0.5416,-0.46 0.8072,-0.744 0.38493,-0.40933 0.48906,-1.21333 0,-1.60933 -4.14374,-3.34667 -13.14734,-2.04 -17.90307,-0.56933 -1.999466,0.61866 -3.792666,1.34 -5.423999,2.184 4.549999,-4.612 9.711469,-9.08 16.137999,-10.62267 z m 44.80973,-36.892 c -4.60666,0.78134 -6.11466,5.452 -3.52933,9.09067 1.164,1.63867 3.40533,0.58933 3.11867,-1.316 1.272,0.064 1.98533,0.58933 2.13733,1.572 0.18133,0.49467 0.27067,1.00667 0.268,1.53867 0.25867,1.48133 0.0267,3.24933 -0.39467,4.684 -1.144,3.89733 -4.11733,6.17333 -7.96933,6.97066 -5.428,1.12134 -10.36667,0.588 -15.77867,0.15734 -7.98146,-0.63467 -14.67466,-0.912 -21.88146,2.764 -14.643202,7.46799 -31.740135,34.36399 -31.622402,34.74799 -2.709867,4.06534 -4.643733,8.50267 -6.705733,12.93734 -1.587467,3.41333 -8.282267,21.44533 -8.6604,27.60533 -0.547467,8.92 3.738,17.05067 5.5088,25.61467 1.180267,5.70666 2.55,11.06795 3.027066,16.91465 0.181867,2.228 0.4136,4.5147 0.305734,6.7493 -0.03747,0.7734 0.03653,2.032 -0.3072,2.7254 -2.1568,4.3546 -2.3792,2.3933 -2.726133,0.6333 0.2776,-0.272 0.468266,-0.6493 0.4828,-1.144 0.03547,-1.1893 0.0011,-1.452 -0.3036,-2.5933 -0.2224,-0.8334 -1.238,-1.5094 -2.099467,-1.192 -9.156267,3.364 -0.452133,14.4626 6.279733,8.0813 4.3276,-4.1027 1.809333,-14.452 1.185867,-19.372 -0.997334,-7.87865 -3.401067,-15.82932 -5.8448,-23.36265 -3.414,-10.524 -1.9244,-20.24134 2.9656,-30.05734 2.4032,-4.82266 6.0344,-8.756 10.286533,-11.94133 3.4172,-2.55867 7.235866,-4.636 11.140133,-6.30533 8.263469,-3.532 19.284799,-3.93867 27.291599,0.716 5.68547,3.304 7.58707,9.376 6.9636,15.59466 -0.30787,3.06534 -1.24373,6.11334 -3.4344,8.38 -1.90933,2.10134 -4.44267,3.10534 -7.59947,3.01334 -3.7432,-2.26934 -4.1104,-4.13734 -1.10266,-5.60134 -1.70414,1.388 0.72506,3.78934 2.41413,2.41334 3.23693,-2.64 -1.162,-7.24134 -4.5328,-5.732 -4.1824,1.87333 -4.26,7.96666 -0.9568,10.56266 5.31453,4.17867 11.77547,1.14 15.3588,-3.65333 0.88227,-1.18 3.8176,-8.08133 6.27493,-11.29733 2.22,-2.90534 3.984,-2.156 4.68,-3.07467 1.89734,-2.50667 2.732,-6.748 2.42667,-9.85067 -0.48133,-4.88 -4.072,-12.12 -8.64267,-14.46 0.58134,-0.49333 1.128,-1.01066 1.62,-1.472 2.816,-2.64133 3.37734,-4.46933 3.956,-7.25333 6.092,4.332 12.016,5.06 20.008,4.656 1.66667,-0.084 2.35467,-2.28133 0.86134,-3.18 -3.648,-2.19467 -4.83467,-7.13867 -8.19334,-9.788 -0.472,-0.372 -0.976,-0.70267 -1.496,-1.01067 4.064,-0.896 7.48934,-2.60666 10.82134,-6.62133 3.98266,-4.80133 5.556,-11.90933 4.79466,-18.05333 -0.676,-5.43733 -4.236,-10.83467 -10.396,-9.79067"
         style="fill:#000000;fill-opacity:1;fill-rule:nonzero;stroke:none;stroke-width:0.133333" />
      <path
         id="path57"
         d="m 116.44426,984.11468 c 4.28747,3.20533 6.2588,11.51067 3.7864,16.11732 -7.3124,13.628 -23.997862,7.18 -27.549996,5.7747 -0.9328,-0.368 -5.150933,-2.6707 -7.402533,-4.8534 -2.4812,-2.40529 -2.9432,-4.67195 -2.399466,-4.22529 4.628133,3.79869 9.778133,5.83469 13.335333,7.15069 2.161466,0.8 4.281862,1.3666 6.615202,1.3413 1.21346,0.012 2.41093,-0.132 3.5932,-0.4333 3.1016,-1.3347 4.3708,-2.3134 4.50826,-3.0574 1.71254,-1.8986 1.28907,-4.67462 -0.83226,-6.69862 -0.95574,-0.912 -2.33694,-1.79867 -3.726,-1.608 -1.58747,0.21733 -2.1864,1.728 -2.17867,3.16267 0.003,0.42 0.19373,0.96666 0.66827,1.08 0.0937,0.0227 0.1844,0.036 0.27653,0.0547 -0.0135,0.84267 -0.40053,1.332 -0.9468,1.57734 -0.85787,-0.12667 -1.7636,0.83861 -2.46253,0.70791 -0.9844,-0.1826 -1.6412,-1.46925 -1.902136,-1.72658 -1.502533,-1.48267 -1.737466,-3.66267 -0.964,-5.58667 0.2864,-0.712 0.685334,-1.30666 1.167196,-1.81066 -2.686529,-1.65467 -1.202129,-5.69467 1.00987,-7.69734 3.51093,-3.18 11.86827,-1.912 15.40413,0.73067"
         style="fill:#000000;fill-opacity:1;fill-rule:nonzero;stroke:none;stroke-width:0.133333" />
      <path
         id="path58"
         d="m 139.604,1007.3627 c 4.276,3.488 4.12133,9.3986 2.34266,14.16 -1.23466,3.308 -3.692,6.584 -6.59333,8.6133 -1.78933,1.2507 -3.49133,1.644 -5.35067,2.024 4.22934,1.824 9.66,0.4467 13.01734,4.484 1.47066,1.7667 1.95866,4.1093 1.70933,6.376 -1.74267,-0.1533 -3.47867,-0.3067 -5.21467,-0.3693 -3.508,-3.16 -11.44333,0.2213 -15.8616,-1.384 -1.67906,-0.6107 -3.4864,-1.6414 -4.62906,-3.0614 -1.5,-1.8666 -0.70427,-4.5053 -1.90894,-6.1906 -1.34733,-1.8854 -6.9432,-1.7694 -9.1088,-2.456 -2.6016,-0.824 -4.91146,-2.0907 -7.162,-3.6427 -4.677062,-3.2253 -7.009329,-8.156 -11.108262,-11.7253 -0.588134,-0.5134 -2.033867,-4.428 -0.5996,-4.1787 2.8776,0.5027 4.343333,2.728 6.4756,4.5627 3.952,3.4013 8.279202,7.2453 13.297862,8.928 4.7428,1.5906 7.82974,-0.4334 12.3396,-1.148 1.79534,-0.2854 3.48654,0.027 5.28494,0.097 2.31773,0.091 4.4568,0.056 6.512,-1.1933 2.1576,-0.372 3.0696,-1.736 2.73493,-4.096 1.84667,-3.3707 0.57733,-4.7107 -3.80733,-4.0214 0.70933,0.82 0.0473,2.2347 -1.10734,1.9014 -3.48173,-1.0054 -3.9464,-5.3014 -1.786,-8.0147 2.44694,-3.0733 7.94867,-1.7653 10.52334,0.3347"
         style="fill:#000000;fill-opacity:1;fill-rule:nonzero;stroke:none;stroke-width:0.133333" />
      <path
         id="path59"
         d="m 157.58666,875.16002 c -2.268,12.21733 -17.89466,8.79333 -26.62733,8.096 -8.4036,-0.672 -16.2036,0.34133 -23.38587,4.94266 -6.51773,4.17467 -11.161996,10.97333 -15.746396,17.05067 -5.233333,6.93733 -9.826533,14.12266 -11.844266,22.66 -0.7692,3.25866 4.239067,4.64133 5.008933,1.38133 2.380667,-10.07467 8.741067,-18.18 14.972267,-26.20667 6.946932,-8.94799 14.484402,-14.65599 26.204262,-14.84266 12.0264,-0.192 33.16774,5.85733 36.4264,-11.7 0.608,-3.27467 -4.39733,-4.672 -5.008,-1.38133 v 0"
         style="fill:#000000;fill-opacity:1;fill-rule:nonzero;stroke:none;stroke-width:0.133333" />
      <path
         id="path60"
         d="m 146.34133,1028.1173 c 14.82267,-11.352 34.084,-29.50262 22.324,-49.81462 -7.61467,-13.15067 -33.86,-16.66533 -37.98093,1.12533 -0.75467,3.26 4.25293,4.644 5.00893,1.38134 1.92933,-8.32934 11.288,-9.448 18.27733,-7.52934 7.34534,2.01734 12.11334,8.66534 12.96134,15.97067 1.75466,15.09332 -12.69067,26.32402 -23.21334,34.38132 -2.62,2.0067 -0.0387,6.5227 2.62267,4.4853 v 0"
         style="fill:#000000;fill-opacity:1;fill-rule:nonzero;stroke:none;stroke-width:0.133333" />
      <path
         id="path61"
         d="m 93.512531,860.34268 c -3.571333,-0.24666 -7.3428,0.63334 -10.743733,1.64534 -2.0672,0.616 -5.9032,1.23866 -7.244267,3.15066 -0.2048,0.29067 -5.33e-4,0.764 0.34,0.836 2.6532,0.55867 5.224534,0.976 7.848534,1.732 3.560933,1.02534 5.095733,3.15867 7.194799,6.036 0.64,0.87867 1.518134,1.60534 1.396267,2.704 -0.1552,1.39334 -1.372933,1.368 -2.574933,2.06134 -1.917734,1.10533 -3.481333,2.64666 -5.026133,4.21333 -3.8692,3.92267 -5.539067,8.63333 -6.9484,13.87333 -0.711467,2.648 -1.1692,5.224 -1.160934,7.968 0.0047,1.67867 -0.130133,3.696 0.973467,5.05467 0.272933,0.336 0.8552,0.136 0.951067,-0.252 1.1,-4.44667 2.9968,-7.756 6.238,-11.012 2.915066,-2.928 6.580666,-5.42533 9.992133,-7.76 3.257333,-2.22933 6.852662,-3.688 10.237062,-5.676 3.55054,-2.088 7.7744,-3.07067 11.79787,-3.888 7.688,-1.56 15.68027,-2.98933 22.68467,-6.68667 3.164,-1.67066 6.30133,-3.60533 8.828,-6.164 1.204,-1.21866 3.52533,-2.90933 4.096,-4.72 0.196,-0.0227 0.37066,-0.144 0.424,-0.4 0.0387,-0.18266 0.076,-0.36533 0.11466,-0.54666 0.084,-0.404 -0.26266,-0.84 -0.7,-0.7 -2.87733,0.91733 -4.70266,3.38933 -7.14133,5.06 -3.55733,2.43733 -7.956,3.872 -12.168,4.83466 -4.23853,0.968 -9.6604,0.56934 -13.79107,-0.66533 -2.51986,-0.75333 -4.6948,-1.81733 -6.35573,-3.912 -1.76613,-2.228 -1.98907,-4.03067 -1.49013,-6.772 0.0833,-0.46 -0.2552,-0.764 -0.7,-0.7 -2.89267,0.412 -5.8172,3.61333 -6.92867,6.232 -0.62293,1.468 -0.6088,2.856 -0.40053,4.41467 0.16773,1.25733 0.8068,2.28133 1.2208,3.376 -3.06094,-1.54134 -2.29107,-7.49334 -3.89534,-9.92934 -1.531196,-2.32533 -4.421862,-3.22666 -7.068129,-3.408"
         style="fill:#000000;fill-opacity:1;fill-rule:nonzero;stroke:none;stroke-width:0.133333" />
      <path
         id="path62"
         d="m 183.09333,814.36802 c -1.06,-1.912 -1.708,-3.95467 -2.17867,-6.05067 0.812,1.92 1.912,3.716 3.42267,5.40133 6.684,7.46534 16.944,13.992 27.052,9.41734 1.64666,-0.74534 3.23466,-2.11734 4.52,-3.76 -1.08134,2.64 -2.90667,4.95733 -5.42,6.32933 -5.13334,2.8 -10.912,1.648 -15.976,-0.59867 -5.18267,-2.3 -8.67733,-5.78666 -11.42,-10.73866 z m -2.452,-26.928 c -2.26133,3.17466 -2.09867,8.07066 -1.69067,12.05066 -0.288,0.0693 -0.55466,0.332 -0.50133,0.70534 0.95733,6.58933 1.788,12.35466 5.684,17.91866 3.36267,4.80267 7.87467,7.65734 13.464,9.42267 4.952,1.564 10.65866,1.41333 14.96533,-1.80667 3.03333,-2.268 4.89733,-6.04 5.40267,-9.82533 0.41333,-0.98533 0.69466,-1.98267 0.80133,-2.94 0.40533,-3.63733 -1.66933,-8.128 -5.16667,-9.664 -2.652,-1.16667 -5.89333,-0.0373 -5.99333,3.09867 -0.06,1.868 1.124,2.956 2.29867,2.23733 -0.44534,1.66667 -2.99867,3.76667 -3.948,4.504 -1.98934,1.54667 -3.98134,2.084 -6.49467,1.94933 -4.16133,-0.22266 -8.99866,-1.956 -11.99066,-4.90666 -3.24134,-3.196 -4.48667,-7.976 -4.03467,-12.36934 0.30667,-2.976 0.53467,-7.50933 2.11867,-10.576 1.664,1.30134 4.16,-0.568 3.19466,-2.59866 -1.46133,-3.06934 -7.01333,1.264 -8.10933,2.8"
         style="fill:#000000;fill-opacity:1;fill-rule:nonzero;stroke:none;stroke-width:0.133333" />
      <path
         id="path63"
         d="m 176.73066,824.50535 c 0.45467,-2.064 0.81867,-4.07867 1.11467,-6.05067 -0.028,1.20267 -0.0533,2.37334 0.136,3.61867 0.36133,2.384 0.732,4.73733 0.19467,7.132 -0.84934,3.784 -2.95734,7.57867 -4.77334,10.992 -3.65466,6.864 -8.41733,12.828 -14.68133,17.47333 -6.64667,4.93067 -13.764,7.17467 -22.036,7.52134 -4.37387,0.18266 -8.8244,-0.26 -13.10507,-1.164 -0.98546,-0.208 -5.2048,-1.004 -7.51666,-2.23867 1.3708,0.508 2.764,0.92667 4.09893,1.28667 13.0468,3.52933 27.72013,-3.10934 28.44413,-3.808 11.776,-5.08267 23.852,-15.32934 28.124,-34.76267 z m -9.38666,-52.34 c 19.628,45.51333 1.264,67.83733 -24.748,75.09733 -24.4632,6.82667 -27.59187,-4.552 -28.72987,-9.672 -1.13747,-5.12 3.69787,-8.53333 4.26667,-5.68933 0.56933,2.84533 3.4136,2.56 3.4136,2.56 6.82706,1.992 13.3696,-7.68 4.55146,-14.22267 -7.9176,-5.87466 -20.6448,2.016 -23.5744,15.63067 -0.10266,0.064 -0.18173,0.17067 -0.20466,0.33733 -0.0953,0.68934 -0.15574,1.38667 -0.20054,2.08667 -0.0975,0.79467 -0.17093,1.6 -0.19893,2.42667 -0.0631,1.824 0.2104,3.524 0.728,5.116 0.9996,4.744 3.28813,9.188 7.06467,12.436 1.1156,0.96 2.40826,1.75066 3.77973,2.42133 0.4552,1.60267 2.70253,2.216 4.1228,2.752 4.39853,1.66267 9.05787,2.45067 13.7376,2.79867 8.8252,0.656 17.93587,-0.892 25.39587,-5.79734 7.05066,-4.636 12.604,-10.74266 16.75733,-18.07333 2.09867,-3.70267 4.26,-7.788 5.50267,-11.88533 0.60266,-1.984 0.7,-4.01334 0.47466,-6.06534 -0.284,-2.576 -0.472,-4.924 -0.476,-7.50266 0,-0.516 -0.55866,-0.66 -0.892,-0.45067 3.93334,-30.868 -10.268,-50.28667 -11.05466,-60.51733 -0.85334,-11.09467 13.36933,-4.552 13.36933,-4.552 6.54267,-11.09333 -32.71333,-24.748 -13.08533,20.76533"
         style="fill:#000000;fill-opacity:1;fill-rule:nonzero;stroke:none;stroke-width:0.133333" />
      <path
         id="path64"
         d="m 92.342131,960.47601 c 0,0 -20.860399,5.68934 -4.930133,-23.89466 0,0 -7.586,4.36266 -8.9136,9.29333 -1.327067,4.93067 -9.292133,22.18667 4.362,22.37733 13.6536,0.18934 7.964666,-2.46533 7.964666,-2.46533 0,0 9.292666,-4.36267 1.517067,-5.31067"
         style="fill:#000000;fill-opacity:1;fill-rule:nonzero;stroke:none;stroke-width:0.133333" />
      <path
         id="path65"
         d="m 145.02133,766.38935 c -3.61467,-0.0707 -7.064,0.83467 -10.36133,2.27733 -2.82507,1.23467 -6.6668,3.49734 -8.04747,6.41334 -2.56413,5.41733 -1.82187,12.72266 3.54373,16.148 5.12907,3.27333 11.64774,0.0973 11.4344,-6.228 -0.0587,-1.75867 -0.98,-4.62534 -3.23733,-4.40667 -2.04533,0.19867 -1.888,1.74667 -1.32667,3.06267 -0.90533,-0.18934 -1.884,-0.87734 -2.36,-1.44267 -1.61613,-1.92 -0.68266,-4.40267 0.93734,-6.028 2.304,-2.31067 4.96666,-2.84133 8.112,-2.85733 6.08266,-0.032 12.00533,1.168 16.3,5.78266 0.0107,0.0653 0.02,0.13067 0.0533,0.19867 0.02,0.0413 0.04,0.0827 0.06,0.12533 0.15333,0.31067 0.412,0.368 0.648,0.288 0.324,0 0.62,-0.37466 0.5,-0.728 -0.001,-0.0147 0.004,-0.0293 0.001,-0.0453 -0.17333,-1.21067 -1.22133,-2.37333 -1.84533,-3.396 -0.944,-1.54533 -2.10133,-2.89467 -3.52533,-4.04267 -3.19067,-2.57333 -6.64134,-5.03866 -10.88667,-5.12133"
         style="fill:#000000;fill-opacity:1;fill-rule:nonzero;stroke:none;stroke-width:0.133333" />
      <path
         id="path66"
         d="m 150.91733,807.19735 c 0.001,0.009 -0.001,0.016 0.001,0.024 0.95067,3.508 -1.228,6.16 -1.36,9.476 -0.0707,1.752 0.25334,3.58 0.44,5.32267 0.0573,0.54 -0.0213,1.24133 0.30134,1.716 1.16,1.70933 2.60533,-0.30534 3.36533,-2.14134 0.42267,1.36534 0.696,2.74 1.096,4.15867 0.116,0.412 0.70667,0.62267 1.01067,0.26667 1.02133,-1.19467 1.148,-2.60934 1.42933,-4.04934 0.35333,0.42267 0.68133,0.85867 1.18533,1.10934 0.23467,0.11733 0.528,0.108 0.71867,-0.092 1.73067,-1.812 -0.232,-6.74134 -1.064,-8.60667 -1.228,-2.75067 -3.41067,-7.064 -6.57867,-8.02933 -0.54266,-0.164 -0.81733,0.48666 -0.54533,0.84533"
         style="fill:#000000;fill-opacity:1;fill-rule:nonzero;stroke:none;stroke-width:0.133333" />
      <path
         id="path67"
         d="m 168.04266,796.02402 c -1.928,2.50133 -5.15333,2.77466 -7.96933,3.80933 0.003,-0.24533 -0.0667,-0.5 -0.26,-0.77067 -0.17067,-0.23866 -0.39867,-0.33466 -0.69067,-0.28133 -1.76,0.324 -2.96266,2.62667 -4.12,3.81733 -1.084,1.116 -2.11333,1.87467 -3.35066,2.772 -0.56,0.40534 -0.79734,0.568 -1.19467,1.14134 -0.33867,0.488 0.35067,1.21066 0.84133,0.84 0.23467,-0.17734 0.46934,-0.35467 0.704,-0.532 0.0147,-0.012 0.02,-0.0267 0.0347,-0.0387 3.252,0.76667 6.37733,1.84 9.56,2.85067 0.47333,0.15066 0.92,-0.42934 0.65067,-0.84667 -0.49734,-0.77467 -1.192,-1.396 -1.81334,-2.09333 1.21334,-0.10267 2.26267,-0.0533 3.56534,-0.72134 1.4,-0.716 3.18533,-1.82 4.17066,-3.056 0.296,-0.372 0.18134,-0.82666 -0.264,-1.00133 -0.85066,-0.33333 -1.724,-0.20667 -2.6,-0.30667 0.71734,-0.65466 1.61467,-1.20666 2.212,-1.97866 0.716,-0.92534 1.32934,-2.00267 1.62934,-3.13867 0.18933,-0.716 -0.712,-0.976 -1.10534,-0.46533"
         style="fill:#000000;fill-opacity:1;fill-rule:nonzero;stroke:none;stroke-width:0.133333" />
      <path
         id="path68"
         d="m 145.46,805.43202 c 2.316,0.54533 3.264,3.492 1.54933,5.204 -1.34933,1.34933 -3.88267,1.53466 -5.23067,0.084 -0.96266,-1.036 -1.00133,-2.57334 -0.14,-3.64134 0.64134,-1.296 2.28267,-2.00933 3.82134,-1.64666"
         style="fill:#000000;fill-opacity:1;fill-rule:nonzero;stroke:none;stroke-width:0.133333" />
      <path
         id="path69"
         d="m 148.904,798.90668 c 0.456,0.0213 0.912,0.124 1.34133,0.33067 0.83467,0.40267 1.40267,1.192 1.52533,2.10267 0.0573,0.424 0.004,0.80266 -0.12,1.14666 -0.007,0.56934 -0.12933,1.13334 -0.43733,1.61467 -0.16133,0.25067 -0.35467,0.46533 -0.568,0.652 -0.17333,0.16267 -0.36533,0.29467 -0.57467,0.396 -0.016,0.009 -0.0307,0.0213 -0.048,0.0307 -0.0373,0.016 -0.0773,0.0253 -0.11466,0.04 -0.44134,0.20266 -0.928,0.31333 -1.44,0.29866 -2.45067,-0.072 -4.05867,-2.77466 -2.76134,-4.91866 0.25067,-0.416 0.58134,-0.756 0.95734,-1.02667 0.28266,-0.264 0.63466,-0.468 1.05866,-0.58267 0.40667,-0.11066 0.804,-0.13333 1.18134,-0.084"
         style="fill:#000000;fill-opacity:1;fill-rule:nonzero;stroke:none;stroke-width:0.133333" />
      <path
         id="path70"
         d="m 144.02933,800.01068 c 0.61333,0.612 0.84533,1.572 0.63333,2.40534 -0.192,0.75466 -0.68133,1.228 -1.29733,1.67733 -0.676,0.49333 -1.61067,0.38133 -2.308,-0.04 -0.88133,-0.20267 -1.652,-0.85467 -1.91067,-1.76 -0.396,-1.38533 0.52267,-2.76133 1.87467,-3.11067 1.06933,-0.276 2.23333,0.052 3.008,0.828"
         style="fill:#000000;fill-opacity:1;fill-rule:nonzero;stroke:none;stroke-width:0.133333" />
      <path
         id="path71"
         d="m 101.94066,732.41602 c -1.948929,0.172 -3.328662,2.484 -3.657329,4.18933 -1.9636,10.18267 10.361999,10.63867 16.413999,14.388 -3.34947,1.69734 -6.77027,2.29734 -9.72187,5.36667 -2.976,3.09467 -4.50093,6.37733 -3.60613,10.624 0.178,0.844 1.4708,1.24533 2.03907,0.53733 6.74266,-8.38533 14.03333,-8.29466 23.876,-10.01733 5.45413,-0.956 9.94626,-3.35467 15.73026,-1.96 1.69467,0.408 9.32,3.344 9.93467,5.52533 0.224,0.79734 1.03467,0.90267 1.576,0.576 0.772,0.30134 1.956,-0.348 1.78667,-1.47333 -1.29867,-8.63333 -15.816,-11.2 -22.64134,-11.17333 -2.04826,0.008 -3.37013,0.54 -4.90093,-0.94534 -1.40093,-1.36 -1.5176,-3.828 -3.08227,-5.23466 -3.10253,-2.788 -8.73533,-3.19334 -12.63586,-3.91067 -1.7396,-0.32 -3.1704,-0.616 -4.77814,-1.36933 -1.93026,-0.904 -3.28173,-3.404 -4.7792,-4.18 -0.512,-0.26534 -0.8396,-1.00667 -1.5536,-0.94267"
         style="fill:#000000;fill-opacity:1;fill-rule:nonzero;stroke:none;stroke-width:0.133333" />
      <path
         id="path72"
         d="m 63.879732,756.15069 c -0.425067,2.77066 0.766133,5.59866 3.419733,7.09866 1.216667,0.688 3.593733,1.24267 5.8516,1.26 -1.745333,1.33067 -3.419333,2.75467 -5.016133,4.29067 -3.3,-0.11867 -6.476534,-1.39334 -7.848934,-4.536 -1.277199,-2.92667 0.439467,-7.044 3.593734,-8.11333 z m 5.7396,14.52399 c 1.5036,-1.48666 3.0728,-2.848 4.704666,-4.10133 -2.314133,2.896 -4.328666,5.92667 -5.9084,9.124 -4.240533,6.056 -7.0296,12.96 -9.255733,20.58667 -0.487466,1.67066 -0.892133,3.36266 -1.156266,5.06 -2.2452,-3.85067 -0.166134,-12.128 1.171466,-15.51867 1.9604,-4.97067 5.086933,-9.35467 8.658267,-13.296 0.442666,-0.488 0.895866,-0.95867 1.352133,-1.42133 0.1952,-0.0987 0.331733,-0.25467 0.433867,-0.43334 z m -8.535467,27.80534 c 0.633867,-2.51467 1.5344,-4.97867 2.475467,-7.41734 -0.139067,2.628 -0.0276,5.29867 -0.01867,7.88134 0.01973,5.67066 0.0416,11.48 2.652533,16.52533 -7.289066,-1.452 -6.417199,-11.80133 -5.109333,-16.98933 z m 11.1208,13.12133 c -5.226533,-6.49733 -5.921333,-16.30267 -5.100533,-24.33467 0.129733,-1.26666 0.364666,-2.53733 0.677066,-3.80533 0.0688,-0.148 0.117734,-0.3 0.1928,-0.44533 0.126,-0.248 0.141067,-0.484 0.114,-0.70667 0.381334,-1.32267 0.8828,-2.63467 1.439067,-3.93733 1.664133,-2.56934 3.576533,-4.91467 5.823466,-7.16667 -0.5516,1.39467 -1.05,2.824 -1.4932,4.28133 -1.990133,5.544 -3.053199,11.24934 -3.070399,16.124 -0.0099,2.79867 0.420933,5.312 1.216666,7.53867 1.6584,7.88 5.9448,15.01067 13.677067,18.852 0.654266,0.32533 1.381866,0.60667 2.165199,0.84533 -6.016666,-0.35733 -11.864666,-2.54933 -15.641199,-7.24533 z m -6.694267,-58.09466 c -4.8036,-0.0827 -8.640666,5.04266 -8.338533,9.59999 0.297867,4.492 4.642667,7.092 8.825467,7.876 -1.5468,1.66667 -3.012934,3.45467 -4.383734,5.38934 -2.983866,4.212 -5.737066,9.392 -6.382399,14.59466 -0.439067,3.54267 -0.940534,9.88667 1.847466,12.66934 0.203067,0.204 0.4276,0.28 0.647334,0.29466 -0.1244,2.44934 0.151066,4.89467 1.0896,7.29467 0.762,1.94933 1.885466,4.048 3.657333,5.27333 0.740666,0.51334 4.256266,2.48134 4.0016,0.60934 0.0828,0.60933 0.658266,0.82533 1.185866,0.736 2.457867,3.424 6.406267,7.31733 10.621867,8.05866 1.9932,0.34934 4.312533,0.136 6.211466,-0.62533 1.702134,-0.684 3.236933,-3.372 4.7584,-4.15067 3.319733,0.0187 6.635333,-0.484 9.701467,-1.43333 2.683332,-0.276 5.200002,-0.87733 7.096402,-1.792 4.40466,-2.12533 8.4812,-7.37333 9.24893,-12.23467 0.70987,-4.492 -1.03387,-12.20933 -6.2416,-13.54533 -3.09893,-0.79467 -9.04853,1.35333 -8.76667,5.144 0.0287,0.388 0.1948,0.82133 0.5744,1.00133 1.3584,0.644 4.0724,3.50667 4.098,4.912 0.0509,2.76934 -3.674,5.05067 -5.823462,5.632 -3.996934,1.07867 -8.754667,0.936 -12.764133,0.0707 -6.431734,-1.38667 -10.568667,-5.21333 -12.3572,-10.6 -0.04893,-0.24667 -0.1136,-0.49733 -0.152134,-0.74 -1.197333,-7.476 0.4224,-15.5 2.604134,-22.788 1.71,-4.38 4.0224,-8.596 6.860933,-12.08533 0.164133,-0.63467 0.496933,-1.26533 1.06,-1.85733 4.1796,-4.39467 10.742133,-7.72267 16.665062,-9.90934 -0.0328,-0.65866 -0.58693,-1.34533 -1.436929,-1.18933 -6.832933,1.26133 -13.031333,4.84 -18.289066,9.45867 -1.276134,0.71866 -2.516267,1.48 -3.739067,2.26133 -0.343333,-0.17733 -0.7772,-0.16933 -1.1548,0.18533 -0.810933,0.76134 -3.314,0.53867 -4.369733,0.48267 -3.2312,-0.16933 -7.5724,-2.71733 -5.531733,-6.80667 0.399466,-0.80133 -0.0844,-1.77066 -1.024534,-1.78666"
         style="fill:#000000;fill-opacity:1;fill-rule:nonzero;stroke:none;stroke-width:0.133333" />
      <path
         id="path73"
         d="m 66.975465,1001.676 c 2.2016,0.1853 4.099067,4.0853 3.697467,6.044 -0.07027,0.3427 -0.186,0.624 -0.332267,0.856 -0.07973,0.312 -0.1912,0.6147 -0.371333,0.8947 -0.205734,0.3186 -0.606267,0.6333 -1.016267,0.5826 -0.816667,-0.1 -1.441067,-0.488 -1.914533,-1.0453 -0.6964,-0.352 -1.316667,-0.8867 -1.6688,-1.4933 -0.737467,-1.2707 -1.262934,-4.3574 0.504266,-5.0294 0.102534,-0.4453 0.654667,-0.8466 1.101467,-0.8093"
         style="fill:#000000;fill-opacity:1;fill-rule:nonzero;stroke:none;stroke-width:0.133333" />
      <path
         id="path74"
         d="m 64.240132,992.07201 c 0.2192,1.20267 -0.1568,2.328 -1.451067,2.30267 -1.232267,-0.0253 -1.988533,-1.40267 -2.2792,-2.43733 -0.337467,-1.204 -0.103067,-2.752 1.2844,-3.14 1.6672,-0.46534 2.604667,1.724 2.445867,3.27466"
         style="fill:#000000;fill-opacity:1;fill-rule:nonzero;stroke:none;stroke-width:0.133333" />
      <path
         id="path75"
         d="m 61.217198,974.96135 c 0.0172,0.11466 0.0224,0.22666 0.026,0.33866 0.06773,0.0893 0.136,0.17867 0.190667,0.276 0.494267,0.87067 1.632267,2.51734 0.626,3.21067 -1.020267,0.70267 -2.059867,0.31867 -2.059867,-0.95067 0,-0.004 0,-0.009 0,-0.0133 -1.333333,-0.7 -1.065066,-1.53867 -0.901599,-2.148 0.07187,-0.26933 -0.03853,-0.49733 0.1652,-0.684 0.211866,-1.03333 1.770799,-1.216 1.953599,-0.0293"
         style="fill:#000000;fill-opacity:1;fill-rule:nonzero;stroke:none;stroke-width:0.133333" />
      <path
         id="path76"
         d="m 61.185998,962.92268 c 0.287467,0.0507 0.552,0.19867 0.697334,0.49067 0.419733,0.83866 0.668266,1.752 0.386933,2.67866 -0.231733,0.764 -1.300933,1.15867 -1.8812,0.49734 -0.680266,-0.776 -0.8896,-1.68534 -0.8396,-2.7 0.0464,-0.94267 0.986533,-1.26134 1.636533,-0.96667"
         style="fill:#000000;fill-opacity:1;fill-rule:nonzero;stroke:none;stroke-width:0.133333" />
      <path
         id="path77"
         d="m 65.482798,952.51201 c -5.33e-4,0.74134 -0.352133,1.42667 -0.8964,1.92267 -1.052533,0.95733 -2.5968,-0.564 -1.569733,-1.57067 0.08853,-0.0867 0.230667,-0.22133 0.241733,-0.352 0.120267,-1.40533 2.226,-1.45466 2.2244,0"
         style="fill:#000000;fill-opacity:1;fill-rule:nonzero;stroke:none;stroke-width:0.133333" />
      <path
         id="path78"
         d="m 181.40266,802.46935 c -0.53733,0.30667 -0.89733,0.80267 -1.14266,1.40533 0.028,0.0867 0.04,0.18 0.0133,0.28934 -0.084,0.332 -0.20667,0.64533 -0.33867,0.95466 -0.30933,2.09067 0.2,4.756 0.43334,6.228 0.44933,2.84667 0.93733,5.93467 2.656,8.304 1.71466,2.36534 4.08,4.69467 6.58666,6.236 2.10667,1.29467 5.73734,1.976 8.1,0.828 0.008,-0.003 0.016,-0.001 0.024,-0.005 0.444,0.29867 0.91867,0.52933 1.42267,0.664 -0.005,0.005 -0.005,0.0107 -0.009,0.016 -2.40134,2.71733 -5.36134,4.43467 -9.12,3.91067 -3.404,-0.47334 -6.21467,-2.60934 -8.00667,-5.47067 -2.07867,-3.32133 -4.36133,-7.19467 -4.71733,-11.18 -0.184,-2.05467 0,-4.14933 0.37466,-6.17333 0.21067,-1.14267 0.62667,-2.09734 1.02267,-3.072 0.11333,-1.65334 0.604,-3.21867 2.08133,-3.996 0.69734,-0.36667 1.30934,0.66666 0.62,1.06133"
         style="fill:#000000;fill-opacity:1;fill-rule:nonzero;stroke:none;stroke-width:0.133333" />
      <path
         id="path79"
         d="m 195.6,807.41068 c -0.17067,-0.004 -0.29734,0.056 -0.392,0.144 -0.54267,0.17867 -1.00134,0.50134 -1.244,1.07334 -0.132,0.31333 -0.0693,0.82266 0.36133,0.88666 1.72667,0.016 1.88267,1.292 0.468,3.83067 -1.47467,0.13333 -2.79067,-0.188 -3.94667,-0.96133 -1.05866,-0.55867 -2.02533,-1.364 -3.008,-2.04534 -0.628,-0.436 -1.21333,0.58534 -0.596,1.02 2.57867,1.81467 6.50934,5.03467 9.65067,2.304 2.032,-1.76666 0.70133,-4.21733 -1.316,-5.064 0.008,0 0.0147,0.005 0.0227,0.005 0.18266,0.009 0.37066,0.04 0.56,0.0813 1.88,0.46667 2.69866,2.97733 2.92,4.908 0.004,0.65733 0.0213,1.316 -0.0267,1.96933 -0.0227,0.32134 -0.2,0.83067 -0.048,1.16134 0.83467,1.82 3.284,-0.16 3.35066,-1.51067 0.0133,-0.252 -0.10266,-0.40933 -0.26133,-0.49333 0.24267,-2.90934 -0.21067,-5.41734 -3.12,-6.75067 -0.824,-0.37867 -2.132,-0.69733 -3.23333,-0.54267 -0.048,-0.004 -0.092,-0.0147 -0.14133,-0.016"
         style="fill:#000000;fill-opacity:1;fill-rule:nonzero;stroke:none;stroke-width:0.133333" />
      <path
         id="path80"
         d="m 73.802665,756.23202 c 2.201466,-0.18533 4.098933,-4.08533 3.697333,-6.044 -0.07027,-0.34267 -0.186,-0.624 -0.3328,-0.856 -0.0792,-0.312 -0.1912,-0.61467 -0.3708,-0.89467 -0.205733,-0.31866 -0.606267,-0.632 -1.016133,-0.58266 -0.8172,0.10133 -1.4412,0.488 -1.914667,1.04533 -0.696266,0.352 -1.316666,0.88667 -1.668666,1.49333 -0.7376,1.27067 -1.2636,4.35734 0.5036,5.03067 0.103066,0.444 0.655199,0.84533 1.102133,0.808"
         style="fill:#000000;fill-opacity:1;fill-rule:nonzero;stroke:none;stroke-width:0.133333" />
      <path
         id="path81"
         d="m 85.393198,743.87469 c 0.335467,0.512 0.216133,1.18133 -0.0468,1.696 -0.012,0.024 -0.02813,0.0467 -0.04173,0.0707 -0.0057,0.0427 -0.0057,0.0853 -0.0156,0.128 -0.157334,0.636 -0.704134,1.04667 -1.270267,1.332 -0.301067,0.24534 -0.643333,0.41734 -0.986,0.43734 -0.05627,0.004 -0.105733,-0.0187 -0.1604,-0.0227 -0.3636,0.0573 -0.726,0.0147 -1.0188,-0.26133 -0.5812,-0.54667 -0.4432,-1.54534 -0.107733,-2.18134 0.4036,-0.76533 1.160933,-1.37866 1.985333,-1.63466 0.589067,-0.184 1.297467,-0.12134 1.662,0.436"
         style="fill:#000000;fill-opacity:1;fill-rule:nonzero;stroke:none;stroke-width:0.133333" />
      <path
         id="path82"
         d="m 91.630264,737.83069 c 0.354667,0.0787 0.4452,0.432 0.365067,0.732 0.164,0.256 0.2536,0.572 0.236933,0.888 -0.03747,0.70533 -0.608266,1.25466 -1.274933,1.40933 -0.267733,0.16667 -0.5756,0.26533 -0.875067,0.24133 -0.536933,-0.044 -0.862,-0.48 -0.919733,-0.96666 -0.05107,-0.152 -0.048,-0.31467 0.02653,-0.44267 0.0088,-0.04 0.0136,-0.08 0.02653,-0.11867 0.1084,-0.32 0.357333,-0.67333 0.6604,-0.96533 0.4324,-0.52667 1.093333,-0.92267 1.754266,-0.77733"
         style="fill:#000000;fill-opacity:1;fill-rule:nonzero;stroke:none;stroke-width:0.133333" />
    </g>
  </g>
</svg>
