<?xml version="1.0" encoding="UTF-8" standalone="no"?>
<!-- Created with Inkscape (http://www.inkscape.org/) -->

<svg
   width="140.3744mm"
   height="39.948692mm"
   viewBox="0 0 140.3744 39.948692"
   version="1.1"
   id="svg1"
   xmlns="http://www.w3.org/2000/svg"
   xmlns:svg="http://www.w3.org/2000/svg">
  <defs
     id="defs1" />
  <g
     id="layer1">
    <g
       id="g11"
       transform="matrix(0.14768833,0,0,0.14768833,-40.283669,-165.84966)">
      <path
         id="path187"
         d="m 779.39331,1303.288 c 0,0 3.18267,12.28 -7.27733,11.3707 -10.46,-0.9094 -66.856,-49.5734 -95.50933,-49.5734 -28.65333,0 -69.13067,-4.0933 -80.956,43.2067 -11.82533,47.2947 31.83733,56.4012 42.752,41.8413 0,0 -12.73467,-16.3733 6.368,-15.4666 19.10133,0.9066 1.81867,47.3068 -34.11067,29.5598 0,0 2.27334,9.1068 5.45734,8.6538 3.184,-0.4667 -53.212,15.453 -40.02267,-44.5776 0,0 -6.82266,0.4546 -5.004,-6.8214 1.484,-5.936 14.768,-35.7746 32.94267,-50.0293 4.108,-3.2227 8.46533,-5.648 12.99333,-6.8227 24.56,-6.3666 68.22133,-18.192 147.812,44.572 0,0 9.096,6.8214 10.916,-3.6386 0,0 -1.82,-5.9134 3.63866,-2.2747"
         style="fill:#000000;fill-opacity:1;fill-rule:nonzero;stroke:none;stroke-width:0.133333" />
      <path
         id="path188"
         d="m 604.28398,1273.9747 c -0.128,0.087 -0.26133,0.172 -0.38933,0.2586 -0.0307,0.01 -0.0547,0 -0.0867,0.012 -14.79333,5.2067 -28.25733,13.9494 -41.65599,22.2014 -6.81467,4.196 -13.972,8.656 -19.80667,14.2026 -4.75867,4.5254 -8.80133,9.5374 -13.704,13.9334 -10.86933,9.7506 -14.76,22.6706 -22.34,34.6173 -4.54533,7.1464 -11.27467,16.3068 -20.83333,16.5864 -10.096,0.2803 -2.376,-4.8129 -2.09067,-9.0796 0.0427,-0.6537 -0.388,-1.2271 -0.90133,-1.5735 -6.14667,-4.0933 -12.12667,0.2531 -13.22,6.8131 -1.39867,8.3869 5.34266,16.2271 12.79866,19.1067 19.39734,7.4938 40.232,-6.2667 47.092,-24.5062 4.016,7.5995 10.12,17.3198 5.084,23.8667 -0.70533,0.9197 0.0413,2.4531 1.08667,2.6796 9.88133,2.1599 21.47467,-5.4531 25.676,-14.1864 4.084,-8.4803 1.80667,-16.8935 -2.1,-24.5735 2.07867,0.44 4.21733,0.48 6.704,0.3067 0.90933,-0.067 1.916,-0.7867 1.81867,-1.8267 -0.496,-5.3333 -5.796,-10 -8.3,-14.6666 -6.32134,-11.8027 -5.29067,-23.8467 4.884,-33.0934 12.32,-11.196 28.48533,-18.6293 42.11999,-27.9373 1.92267,-1.312 0.104,-4.4667 -1.836,-3.1413"
         style="fill:#000000;fill-opacity:1;fill-rule:nonzero;stroke:none;stroke-width:0.133333" />
      <path
         id="path189"
         d="m 582.88799,1270.6107 c -2.02,-0.1987 -1.75067,-0.2347 -3.63867,0.452 -0.068,0.024 -0.10533,0.072 -0.16667,0.1 -9.38133,1.2893 -18.12933,5.084 -27.78666,5.896 -5.06534,0.4266 -10.25734,0.6493 -15.33467,0.3373 -6.55867,-0.4013 -20.884,-6.36 -14.64133,-14.4093 0.51866,0.776 1.41733,1.376 2.82133,1.62 5.69467,0.988 6.928,-7.0227 5.50933,-10.844 -2.11866,-5.7094 -9.66933,-8.0334 -15.20133,-6.0867 -2.6,0.9147 -5.02533,3.232 -6.404,5.5467 -0.51067,1.3466 -1.02667,2.6906 -1.55067,4.0306 -0.67466,-0.092 -1.34933,-0.184 -2.02533,-0.2746 -0.32933,0.2106 -1.08133,0.2226 -1.528,0.5013 -5.772,3.596 -0.36933,13.448 2.26,16.976 5.524,7.4147 15.40533,12.8693 24.48933,14.176 11.052,1.5893 20.86267,-0.3907 31.31334,-3.916 5.69733,-1.9213 20.57866,-4.968 23.45466,-11.368 0.592,-1.32 -0.12266,-2.5947 -1.57066,-2.7373"
         style="fill:#000000;fill-opacity:1;fill-rule:nonzero;stroke:none;stroke-width:0.133333" />
      <path
         id="path190"
         d="m 679.43332,1281.7667 c -3.76934,-10.0307 -19.91334,-7.8787 -27.644,-7.5654 -13.27067,0.5387 -27.40534,3.248 -37.868,11.8827 -0.21067,0.1733 -0.35067,0.364 -0.44934,0.56 -0.0333,0.023 -0.06,0.043 -0.092,0.065 -1.89866,1.3387 -0.084,4.4947 1.836,3.1414 4.60934,-3.2494 8.62,-6.3094 14.45734,-6.8774 5.77466,-0.564 11.908,-0.376 17.69866,-0.1386 7.084,0.2893 16.23334,0.3746 19.344,7.6693 2.948,6.9133 -2.09066,9.312 -4.06,14.6853 -0.256,0.7 0.16,1.7267 0.836,2.0534 5.74667,2.788 14.04134,-3.636 15.50934,-9.1734 1.01866,-3.8413 -1.316,-5.3666 -1.28134,-8.6386 0.0333,-3.2187 3.16267,-3.808 1.71334,-7.664"
         style="fill:#000000;fill-opacity:1;fill-rule:nonzero;stroke:none;stroke-width:0.133333" />
      <path
         id="path191"
         d="m 730.77332,1263.144 c -12.424,-9.12 -28.82534,-12.5307 -43.704,-14.772 -8.904,-1.34 -18.14534,-2.3 -26.65334,-5.4413 -4.436,-1.6374 -10.38133,-4.6387 -13.33733,-8.5387 -7.13867,-9.416 2.50133,-14.7987 10.41733,-9.5787 1.96,1.292 3.78534,-1.8573 1.836,-3.1413 -6.14533,-4.052 -16.844,-5.1173 -18.624,4.3493 -1.91333,10.1694 10.83867,17.6974 18.74,20.4174 16.65867,5.736 34.868,4.7293 51.36934,10.9813 8.74266,3.312 17.43733,7.0947 23.80133,14.1613 4.85866,5.3947 8.03733,11.6414 6.52,19.1547 -1.8,8.904 -8.53867,13.928 -17.65867,11.2533 -2.25066,-0.6613 -3.212,2.8494 -0.96666,3.508 11.06266,3.2454 19.86666,-2.7493 22.13333,-13.7946 2.40533,-11.7214 -4.72534,-21.844 -13.87333,-28.5587"
         style="fill:#000000;fill-opacity:1;fill-rule:nonzero;stroke:none;stroke-width:0.133333" />
      <path
         id="path192"
         d="m 732.65865,1303.288 c 0,0 -3.184,12.28 7.27733,11.3707 10.46,-0.9094 66.856,-49.5734 95.50933,-49.5734 28.652,0 69.13067,-4.0933 80.956,43.2067 11.824,47.2947 -31.83733,56.4012 -42.752,41.8413 0,0 12.73467,-16.3733 -6.368,-15.4666 -19.10133,0.9066 -1.81866,47.3068 34.11067,29.5598 0,0 -2.27334,9.1068 -5.45734,8.6538 -3.184,-0.4667 53.212,15.453 40.02267,-44.5776 0,0 6.82267,0.4546 5.00267,-6.8214 -1.484,-5.936 -14.768,-35.7746 -32.94134,-50.0293 -4.108,-3.2227 -8.46666,-5.648 -12.99333,-6.8227 -24.56,-6.3666 -68.22133,-18.192 -147.81333,44.572 0,0 -9.096,6.8214 -10.91467,-3.6386 0,0 1.81867,-5.9134 -3.63866,-2.2747"
         style="fill:#000000;fill-opacity:1;fill-rule:nonzero;stroke:none;stroke-width:0.133333" />
      <path
         id="path193"
         d="m 905.93198,1277.116 c 13.63466,9.308 29.8,16.7413 42.12,27.9373 10.17466,9.2467 11.204,21.2907 4.88266,33.0934 -2.50266,4.6666 -7.80266,9.3333 -8.3,14.6666 -0.096,1.04 0.90934,1.76 1.82,1.8267 2.48667,0.1733 4.624,0.1333 6.704,-0.3067 -3.90666,7.68 -6.184,16.0932 -2.1,24.5735 4.20134,8.7333 15.79467,16.3463 25.67467,14.1864 1.04667,-0.2265 1.792,-1.7599 1.088,-2.6796 -5.036,-6.5469 1.06667,-16.2672 5.084,-23.8667 6.85867,18.2395 27.69469,32 47.09199,24.5062 7.456,-2.8796 14.196,-10.7198 12.7987,-19.1067 -1.0934,-6.56 -7.0747,-10.9064 -13.22,-6.8131 -0.5147,0.3464 -0.9454,0.9198 -0.9014,1.5735 0.2854,4.2667 8.0054,9.3599 -2.0906,9.0796 -9.5587,-0.2796 -16.288,-9.44 -20.8334,-16.5864 -7.58129,-11.9467 -11.47062,-24.8667 -22.33996,-34.6173 -4.904,-4.396 -8.94666,-9.408 -13.70533,-13.9334 -5.83333,-5.5466 -12.992,-10.0066 -19.80533,-14.2026 -13.39867,-8.252 -26.864,-16.9947 -41.65734,-22.2014 -0.0307,-0.011 -0.056,0 -0.0867,-0.012 -0.128,-0.087 -0.26,-0.172 -0.388,-0.2586 -1.94,-1.3254 -3.75867,1.8293 -1.836,3.1413"
         style="fill:#000000;fill-opacity:1;fill-rule:nonzero;stroke:none;stroke-width:0.133333" />
      <path
         id="path194"
         d="m 927.59331,1273.348 c 2.876,6.4 17.75733,9.4467 23.45467,11.368 10.44933,3.5253 20.26133,5.5053 31.312,3.916 9.08533,-1.3067 18.96662,-6.7613 24.49062,-14.176 2.628,-3.528 8.032,-13.38 2.26,-16.976 -0.4466,-0.2787 -1.2,-0.2907 -1.528,-0.5013 -0.676,0.091 -1.352,0.1826 -2.0266,0.2746 -0.5227,-1.34 -1.0387,-2.684 -1.5494,-4.0306 -1.38,-2.3147 -3.8053,-4.632 -6.40396,-5.5467 -5.532,-1.9467 -13.08266,0.3773 -15.20133,6.0867 -1.41867,3.8213 -0.18533,11.832 5.50933,10.844 1.404,-0.244 2.30267,-0.844 2.82134,-1.62 6.24266,8.0493 -8.08267,14.008 -14.64134,14.4093 -5.07733,0.312 -10.26933,0.089 -15.336,-0.3373 -9.656,-0.812 -18.40533,-4.6067 -27.78533,-5.896 -0.0613,-0.028 -0.1,-0.076 -0.16667,-0.1 -1.88933,-0.6867 -1.61866,-0.6507 -3.63866,-0.452 -1.44934,0.1426 -2.164,1.4173 -1.57067,2.7373"
         style="fill:#000000;fill-opacity:1;fill-rule:nonzero;stroke:none;stroke-width:0.133333" />
      <path
         id="path195"
         d="m 834.33198,1289.4307 c 0.0333,3.272 -2.3,4.7973 -1.28133,8.6386 1.468,5.5374 9.76266,11.9614 15.50933,9.1734 0.67467,-0.3267 1.092,-1.3534 0.83467,-2.0534 -1.968,-5.3733 -7.00667,-7.772 -4.05867,-14.6853 3.11067,-7.2947 12.26,-7.38 19.344,-7.6693 5.79066,-0.2374 11.92266,-0.4254 17.69866,0.1386 5.836,0.568 9.848,3.628 14.45734,6.8774 1.91866,1.3533 3.73466,-1.8027 1.836,-3.1414 -0.0333,-0.023 -0.06,-0.043 -0.092,-0.065 -0.0987,-0.196 -0.23867,-0.3867 -0.44934,-0.56 -10.464,-8.6347 -24.59866,-11.344 -37.86933,-11.8827 -7.72933,-0.3133 -23.87333,-2.4653 -27.64266,7.5654 -1.44934,3.856 1.68,4.4453 1.71333,7.664"
         style="fill:#000000;fill-opacity:1;fill-rule:nonzero;stroke:none;stroke-width:0.133333" />
      <path
         id="path196"
         d="m 781.27865,1263.144 c 12.424,-9.12 28.82533,-12.5307 43.704,-14.772 8.90266,-1.34 18.144,-2.3 26.65333,-5.4413 4.436,-1.6374 10.38133,-4.6387 13.33733,-8.5387 7.13733,-9.416 -2.50133,-14.7987 -10.41733,-9.5787 -1.96133,1.292 -3.78533,-1.8573 -1.83733,-3.1413 6.14666,-4.052 16.84533,-5.1173 18.62533,4.3493 1.912,10.1694 -10.84,17.6974 -18.74133,20.4174 -16.65734,5.736 -34.86667,4.7293 -51.368,10.9813 -8.74267,3.312 -17.43734,7.0947 -23.80134,14.1613 -4.85866,5.3947 -8.03866,11.6414 -6.52,19.1547 1.79867,8.904 8.53867,13.928 17.65734,11.2533 2.252,-0.6613 3.21333,2.8494 0.968,3.508 -11.06267,3.2454 -19.86667,-2.7493 -22.13334,-13.7946 -2.40666,-11.7214 4.72534,-21.844 13.87334,-28.5587"
         style="fill:#000000;fill-opacity:1;fill-rule:nonzero;stroke:none;stroke-width:0.133333" />
      <path
         id="path197"
         d="m 779.39331,1303.288 c 0,0 3.18267,12.28 -7.27733,11.3707 -10.46,-0.9094 -66.856,-49.5734 -95.50933,-49.5734 -28.65333,0 -69.13067,-4.0933 -80.956,43.2067 -11.82533,47.2947 31.83733,56.4012 42.752,41.8413 0,0 -12.73467,-16.3733 6.368,-15.4666 19.10133,0.9066 1.81867,47.3068 -34.11067,29.5598 0,0 2.27334,9.1068 5.45734,8.6538 3.184,-0.4667 -53.212,15.453 -40.02267,-44.5776 0,0 -6.82266,0.4546 -5.004,-6.8214 1.484,-5.936 14.768,-35.7746 32.94267,-50.0293 4.108,-3.2227 8.46533,-5.648 12.99333,-6.8227 24.56,-6.3666 68.22133,-18.192 147.812,44.572 0,0 9.096,6.8214 10.916,-3.6386 0,0 -1.82,-5.9134 3.63866,-2.2747"
         style="fill:#000000;fill-opacity:1;fill-rule:nonzero;stroke:none;stroke-width:0.133333" />
      <path
         id="path198"
         d="m 604.28398,1273.9747 c -0.128,0.087 -0.26133,0.172 -0.38933,0.2586 -0.0307,0.01 -0.0547,0 -0.0867,0.012 -14.79333,5.2067 -28.25733,13.9494 -41.65599,22.2014 -6.81467,4.196 -13.972,8.656 -19.80667,14.2026 -4.75867,4.5254 -8.80133,9.5374 -13.704,13.9334 -10.86933,9.7506 -14.76,22.6706 -22.34,34.6173 -4.54533,7.1464 -11.27467,16.3068 -20.83333,16.5864 -10.096,0.2803 -2.376,-4.8129 -2.09067,-9.0796 0.0427,-0.6537 -0.388,-1.2271 -0.90133,-1.5735 -6.14667,-4.0933 -12.12667,0.2531 -13.22,6.8131 -1.39867,8.3869 5.34266,16.2271 12.79866,19.1067 19.39734,7.4938 40.232,-6.2667 47.092,-24.5062 4.016,7.5995 10.12,17.3198 5.084,23.8667 -0.70533,0.9197 0.0413,2.4531 1.08667,2.6796 9.88133,2.1599 21.47467,-5.4531 25.676,-14.1864 4.084,-8.4803 1.80667,-16.8935 -2.1,-24.5735 2.07867,0.44 4.21733,0.48 6.704,0.3067 0.90933,-0.067 1.916,-0.7867 1.81867,-1.8267 -0.496,-5.3333 -5.796,-10 -8.3,-14.6666 -6.32134,-11.8027 -5.29067,-23.8467 4.884,-33.0934 12.32,-11.196 28.48533,-18.6293 42.11999,-27.9373 1.92267,-1.312 0.104,-4.4667 -1.836,-3.1413"
         style="fill:#000000;fill-opacity:1;fill-rule:nonzero;stroke:none;stroke-width:0.133333" />
      <path
         id="path199"
         d="m 582.88799,1270.6107 c -2.02,-0.1987 -1.75067,-0.2347 -3.63867,0.452 -0.068,0.024 -0.10533,0.072 -0.16667,0.1 -9.38133,1.2893 -18.12933,5.084 -27.78666,5.896 -5.06534,0.4266 -10.25734,0.6493 -15.33467,0.3373 -6.55867,-0.4013 -20.884,-6.36 -14.64133,-14.4093 0.51866,0.776 1.41733,1.376 2.82133,1.62 5.69467,0.988 6.928,-7.0227 5.50933,-10.844 -2.11866,-5.7094 -9.66933,-8.0334 -15.20133,-6.0867 -2.6,0.9147 -5.02533,3.232 -6.404,5.5467 -0.51067,1.3466 -1.02667,2.6906 -1.55067,4.0306 -0.67466,-0.092 -1.34933,-0.184 -2.02533,-0.2746 -0.32933,0.2106 -1.08133,0.2226 -1.528,0.5013 -5.772,3.596 -0.36933,13.448 2.26,16.976 5.524,7.4147 15.40533,12.8693 24.48933,14.176 11.052,1.5893 20.86267,-0.3907 31.31334,-3.916 5.69733,-1.9213 20.57866,-4.968 23.45466,-11.368 0.592,-1.32 -0.12266,-2.5947 -1.57066,-2.7373"
         style="fill:#000000;fill-opacity:1;fill-rule:nonzero;stroke:none;stroke-width:0.133333" />
      <path
         id="path200"
         d="m 679.43332,1281.7667 c -3.76934,-10.0307 -19.91334,-7.8787 -27.644,-7.5654 -13.27067,0.5387 -27.40534,3.248 -37.868,11.8827 -0.21067,0.1733 -0.35067,0.364 -0.44934,0.56 -0.0333,0.023 -0.06,0.043 -0.092,0.065 -1.89866,1.3387 -0.084,4.4947 1.836,3.1414 4.60934,-3.2494 8.62,-6.3094 14.45734,-6.8774 5.77466,-0.564 11.908,-0.376 17.69866,-0.1386 7.084,0.2893 16.23334,0.3746 19.344,7.6693 2.948,6.9133 -2.09066,9.312 -4.06,14.6853 -0.256,0.7 0.16,1.7267 0.836,2.0534 5.74667,2.788 14.04134,-3.636 15.50934,-9.1734 1.01866,-3.8413 -1.316,-5.3666 -1.28134,-8.6386 0.0333,-3.2187 3.16267,-3.808 1.71334,-7.664"
         style="fill:#000000;fill-opacity:1;fill-rule:nonzero;stroke:none;stroke-width:0.133333" />
      <path
         id="path201"
         d="m 730.77332,1263.144 c -12.424,-9.12 -28.82534,-12.5307 -43.704,-14.772 -8.904,-1.34 -18.14534,-2.3 -26.65334,-5.4413 -4.436,-1.6374 -10.38133,-4.6387 -13.33733,-8.5387 -7.13867,-9.416 2.50133,-14.7987 10.41733,-9.5787 1.96,1.292 3.78534,-1.8573 1.836,-3.1413 -6.14533,-4.052 -16.844,-5.1173 -18.624,4.3493 -1.91333,10.1694 10.83867,17.6974 18.74,20.4174 16.65867,5.736 34.868,4.7293 51.36934,10.9813 8.74266,3.312 17.43733,7.0947 23.80133,14.1613 4.85866,5.3947 8.03733,11.6414 6.52,19.1547 -1.8,8.904 -8.53867,13.928 -17.65867,11.2533 -2.25066,-0.6613 -3.212,2.8494 -0.96666,3.508 11.06266,3.2454 19.86666,-2.7493 22.13333,-13.7946 2.40533,-11.7214 -4.72534,-21.844 -13.87333,-28.5587"
         style="fill:#000000;fill-opacity:1;fill-rule:nonzero;stroke:none;stroke-width:0.133333" />
      <path
         id="path202"
         d="m 732.65865,1303.288 c 0,0 -3.184,12.28 7.27733,11.3707 10.46,-0.9094 66.856,-49.5734 95.50933,-49.5734 28.652,0 69.13067,-4.0933 80.956,43.2067 11.824,47.2947 -31.83733,56.4012 -42.752,41.8413 0,0 12.73467,-16.3733 -6.368,-15.4666 -19.10133,0.9066 -1.81866,47.3068 34.11067,29.5598 0,0 -2.27334,9.1068 -5.45734,8.6538 -3.184,-0.4667 53.212,15.453 40.02267,-44.5776 0,0 6.82267,0.4546 5.00267,-6.8214 -1.484,-5.936 -14.768,-35.7746 -32.94134,-50.0293 -4.108,-3.2227 -8.46666,-5.648 -12.99333,-6.8227 -24.56,-6.3666 -68.22133,-18.192 -147.81333,44.572 0,0 -9.096,6.8214 -10.91467,-3.6386 0,0 1.81867,-5.9134 -3.63866,-2.2747"
         style="fill:#000000;fill-opacity:1;fill-rule:nonzero;stroke:none;stroke-width:0.133333" />
      <path
         id="path203"
         d="m 905.93198,1277.116 c 13.63466,9.308 29.8,16.7413 42.12,27.9373 10.17466,9.2467 11.204,21.2907 4.88266,33.0934 -2.50266,4.6666 -7.80266,9.3333 -8.3,14.6666 -0.096,1.04 0.90934,1.76 1.82,1.8267 2.48667,0.1733 4.624,0.1333 6.704,-0.3067 -3.90666,7.68 -6.184,16.0932 -2.1,24.5735 4.20134,8.7333 15.79467,16.3463 25.67467,14.1864 1.04667,-0.2265 1.792,-1.7599 1.088,-2.6796 -5.036,-6.5469 1.06667,-16.2672 5.084,-23.8667 6.85867,18.2395 27.69469,32 47.09199,24.5062 7.456,-2.8796 14.196,-10.7198 12.7987,-19.1067 -1.0934,-6.56 -7.0747,-10.9064 -13.22,-6.8131 -0.5147,0.3464 -0.9454,0.9198 -0.9014,1.5735 0.2854,4.2667 8.0054,9.3599 -2.0906,9.0796 -9.5587,-0.2796 -16.288,-9.44 -20.8334,-16.5864 -7.58129,-11.9467 -11.47062,-24.8667 -22.33996,-34.6173 -4.904,-4.396 -8.94666,-9.408 -13.70533,-13.9334 -5.83333,-5.5466 -12.992,-10.0066 -19.80533,-14.2026 -13.39867,-8.252 -26.864,-16.9947 -41.65734,-22.2014 -0.0307,-0.011 -0.056,0 -0.0867,-0.012 -0.128,-0.087 -0.26,-0.172 -0.388,-0.2586 -1.94,-1.3254 -3.75867,1.8293 -1.836,3.1413"
         style="fill:#000000;fill-opacity:1;fill-rule:nonzero;stroke:none;stroke-width:0.133333" />
      <path
         id="path204"
         d="m 927.59331,1273.348 c 2.876,6.4 17.75733,9.4467 23.45467,11.368 10.44933,3.5253 20.26133,5.5053 31.312,3.916 9.08533,-1.3067 18.96662,-6.7613 24.49062,-14.176 2.628,-3.528 8.032,-13.38 2.26,-16.976 -0.4466,-0.2787 -1.2,-0.2907 -1.528,-0.5013 -0.676,0.091 -1.352,0.1826 -2.0266,0.2746 -0.5227,-1.34 -1.0387,-2.684 -1.5494,-4.0306 -1.38,-2.3147 -3.8053,-4.632 -6.40396,-5.5467 -5.532,-1.9467 -13.08266,0.3773 -15.20133,6.0867 -1.41867,3.8213 -0.18533,11.832 5.50933,10.844 1.404,-0.244 2.30267,-0.844 2.82134,-1.62 6.24266,8.0493 -8.08267,14.008 -14.64134,14.4093 -5.07733,0.312 -10.26933,0.089 -15.336,-0.3373 -9.656,-0.812 -18.40533,-4.6067 -27.78533,-5.896 -0.0613,-0.028 -0.1,-0.076 -0.16667,-0.1 -1.88933,-0.6867 -1.61866,-0.6507 -3.63866,-0.452 -1.44934,0.1426 -2.164,1.4173 -1.57067,2.7373"
         style="fill:#000000;fill-opacity:1;fill-rule:nonzero;stroke:none;stroke-width:0.133333" />
      <path
         id="path205"
         d="m 834.33198,1289.4307 c 0.0333,3.272 -2.3,4.7973 -1.28133,8.6386 1.468,5.5374 9.76266,11.9614 15.50933,9.1734 0.67467,-0.3267 1.092,-1.3534 0.83467,-2.0534 -1.968,-5.3733 -7.00667,-7.772 -4.05867,-14.6853 3.11067,-7.2947 12.26,-7.38 19.344,-7.6693 5.79066,-0.2374 11.92266,-0.4254 17.69866,0.1386 5.836,0.568 9.848,3.628 14.45734,6.8774 1.91866,1.3533 3.73466,-1.8027 1.836,-3.1414 -0.0333,-0.023 -0.06,-0.043 -0.092,-0.065 -0.0987,-0.196 -0.23867,-0.3867 -0.44934,-0.56 -10.464,-8.6347 -24.59866,-11.344 -37.86933,-11.8827 -7.72933,-0.3133 -23.87333,-2.4653 -27.64266,7.5654 -1.44934,3.856 1.68,4.4453 1.71333,7.664"
         style="fill:#000000;fill-opacity:1;fill-rule:nonzero;stroke:none;stroke-width:0.133333" />
      <path
         id="path206"
         d="m 781.27865,1263.144 c 12.424,-9.12 28.82533,-12.5307 43.704,-14.772 8.90266,-1.34 18.144,-2.3 26.65333,-5.4413 4.436,-1.6374 10.38133,-4.6387 13.33733,-8.5387 7.13733,-9.416 -2.50133,-14.7987 -10.41733,-9.5787 -1.96133,1.292 -3.78533,-1.8573 -1.83733,-3.1413 6.14666,-4.052 16.84533,-5.1173 18.62533,4.3493 1.912,10.1694 -10.84,17.6974 -18.74133,20.4174 -16.65734,5.736 -34.86667,4.7293 -51.368,10.9813 -8.74267,3.312 -17.43734,7.0947 -23.80134,14.1613 -4.85866,5.3947 -8.03866,11.6414 -6.52,19.1547 1.79867,8.904 8.53867,13.928 17.65734,11.2533 2.252,-0.6613 3.21333,2.8494 0.968,3.508 -11.06267,3.2454 -19.86667,-2.7493 -22.13334,-13.7946 -2.40666,-11.7214 4.72534,-21.844 13.87334,-28.5587"
         style="fill:#000000;fill-opacity:1;fill-rule:nonzero;stroke:none;stroke-width:0.133333" />
      <path
         id="path212"
         d="m 901.75598,1184.64 c -1.76,-0.644 -3.444,-1.3867 -5.06534,-2.22 3.196,0.76 6.38534,1.2293 9.544,1.2853 6.456,1.1094 13.04267,0.7334 19.996,-0.3666 1.52267,-0.24 3.03067,-0.556 4.49067,-0.9854 -2.236,3.2547 -9.65467,4.7174 -12.87733,4.928 -4.724,0.308 -9.41867,-0.54 -13.92667,-1.912 -0.55867,-0.1706 -1.10667,-0.3546 -1.64933,-0.5453 -0.15334,-0.12 -0.33067,-0.1707 -0.512,-0.184 z m 25.50666,-3.672 c -2.25466,0.4427 -4.56933,0.652 -6.88,0.82 2.15867,-0.8813 4.25734,-1.9813 6.32267,-2.964 4.53733,-2.16 9.184,-4.3733 12.23867,-8.372 1.592,6.388 -7.03067,9.6027 -11.68134,10.516 z m 6.30934,-13.872 c -3.23067,6.6453 -10.82534,10.908 -17.57067,13.2867 -1.064,0.3746 -2.17067,0.6666 -3.30533,0.896 -0.144,0 -0.284,0.019 -0.42934,0.015 -0.24666,-0.01 -0.44,0.069 -0.60933,0.1747 -1.204,0.1947 -2.444,0.2893 -3.69867,0.336 -2.688,-0.3627 -5.29066,-1.008 -7.944,-1.9573 1.32667,-0.085 2.66,-0.2254 3.99467,-0.4214 5.19467,-0.5013 10.168,-1.8066 14.08133,-3.636 2.24534,-1.0493 4.096,-2.3453 5.58,-3.824 5.68667,-4.308 9.78,-10.4386 9.936,-18.0866 0.0133,-0.6467 -0.0373,-1.336 -0.14133,-2.0547 1.98667,4.9573 2.44133,10.4707 0.10667,15.272"
         style="fill:#000000;fill-opacity:1;fill-rule:nonzero;stroke:none;stroke-width:0.133333" />
      <path
         id="path213"
         d="m 883.45464,1206.5773 c 1.152,2.9547 3.28267,5.644 5.38,7.9867 1.27467,1.424 3.224,4.2613 5.26267,4.6133 0.31067,0.053 0.612,-0.288 0.54133,-0.588 -0.55466,-2.3373 -1.192,-4.556 -1.57866,-6.944 -0.52534,-3.2413 0.604,-5.2773 2.116,-8.0466 0.46133,-0.8454 0.712,-1.824 1.63866,-2.1414 1.176,-0.4026 1.616,0.5827 2.62534,1.284 1.61066,1.1187 3.43733,1.7894 5.276,2.4347 4.60533,1.6173 9.01066,1.1747 13.74266,0.3227 2.39067,-0.4307 4.628,-1.0374 6.824,-2.0814 1.34267,-0.6386 3.01067,-1.2933 3.68134,-2.6906 0.16666,-0.3467 -0.21334,-0.7374 -0.56,-0.668 -3.97867,0.8 -7.348,0.532 -11.18267,-0.8347 -3.448,-1.2293 -6.83467,-3.2213 -9.996,-5.0733 -3.016,-1.7667 -5.544,-4.096 -8.41733,-6.056 -3.01467,-2.056 -5.39867,-5.0694 -7.57467,-7.984 -4.156,-5.5707 -8.32267,-11.4347 -13.93467,-15.6494 -2.53333,-1.904 -5.27066,-3.6853 -8.27466,-4.7426 -1.43334,-0.504 -3.66533,-1.7254 -5.33067,-1.4987 -0.092,-0.148 -0.256,-0.2427 -0.48133,-0.188 -0.16133,0.039 -0.32133,0.076 -0.48133,0.1147 -0.35467,0.085 -0.57467,0.528 -0.296,0.8253 1.82266,1.9587 4.49333,2.488 6.75333,3.8093 3.29733,1.9294 6.11066,4.912 8.47466,7.9227 2.37867,3.0293 4.108,7.5253 4.68,11.3027 0.34934,2.3026 0.31867,4.448 -0.732,6.5706 -1.11733,2.2574 -2.47733,3.1174 -4.86266,3.7547 -0.4,0.1067 -0.516,0.4933 -0.29734,0.8253 1.42534,2.1614 5.096,3.2947 7.61334,3.196 1.412,-0.056 2.51866,-0.592 3.68933,-1.348 0.944,-0.6106 1.52267,-1.5093 2.244,-2.2546 -0.0787,3.0346 -5.13867,4.668 -6.484,6.8746 -1.284,2.1054 -0.91333,4.7627 -0.0587,6.952"
         style="fill:#000000;fill-opacity:1;fill-rule:nonzero;stroke:none;stroke-width:0.133333" />
      <path
         id="path214"
         d="m 812.75198,1152.1773 c -1.132,1.572 -2.52267,2.864 -4.02533,4.0334 1.232,-1.376 2.25466,-2.936 3.03466,-4.784 3.45467,-8.1787 4.80534,-18.8667 -2.68133,-25.236 -1.22,-1.0374 -2.91867,-1.7907 -4.72133,-2.2 2.52533,-0.132 5.072,0.4533 7.12,1.9493 4.18533,3.056 5.44666,8.1213 5.56,13.028 0.116,5.0213 -1.356,9.14 -4.28667,13.2093 z m -20.64933,12.1454 c 3.39733,0.612 7.26,-1.3694 10.29466,-3.2014 0.164,0.204 0.47467,0.32 0.75334,0.1347 4.92,-3.2573 9.224,-6.1027 12.21066,-11.3267 2.57734,-4.5106 3.15867,-9.2066 2.46,-14.3506 -0.61866,-4.56 -2.89733,-9.076 -7.10666,-11.3094 -2.96267,-1.5733 -6.68934,-1.64 -9.91467,-0.6146 -0.94533,0.041 -1.85067,0.1933 -2.65867,0.4693 -3.06666,1.0507 -5.88,4.4107 -5.78933,7.7947 0.068,2.5653 2.19733,4.7346 4.74933,3.6293 1.51867,-0.6587 1.94267,-2.0173 0.92267,-2.688 1.50267,-0.272 4.152,0.98 5.10133,1.4613 1.992,1.0094 3.17467,2.4027 4.01734,4.4667 1.39466,3.4187 1.83466,7.9507 0.60133,11.464 -1.336,3.8053 -4.69467,6.6093 -8.38667,7.908 -2.5,0.8787 -6.21866,2.4093 -9.27466,2.3 0.41333,-1.8253 -2.028,-3.1187 -3.28934,-1.576 -1.90666,2.3307 3.66267,5.1413 5.30934,5.4387"
         style="fill:#000000;fill-opacity:1;fill-rule:nonzero;stroke:none;stroke-width:0.133333" />
      <path
         id="path215"
         d="m 823.27998,1153.444 c -1.82667,0.416 -3.57733,0.8867 -5.27067,1.3947 0.976,-0.432 1.92267,-0.856 2.848,-1.4774 1.77467,-1.1906 3.52,-2.3773 5.64267,-2.852 3.352,-0.7506 7.18933,-0.496 10.612,-0.3306 6.88133,0.3333 13.46,1.8946 19.55067,5.1586 6.464,3.4614 10.95199,8.316 14.35599,14.8134 1.8,3.436 3.12934,7.1693 4.02267,10.94 0.20533,0.8693 1.16267,4.5506 1.04667,6.8693 -0.11067,-1.2893 -0.30267,-2.564 -0.51734,-3.7707 -2.10533,-11.788 -12.97066,-21.036 -13.80399,-21.3506 -8.52534,-7.516 -21.3,-13.3187 -38.48667,-9.3947 z m -38.39067,27.308 c 29.04934,-32.9333 53.87867,-26.6587 69.52934,-8.56 14.71733,17.0213 6.784,23.8293 3.11066,26.6773 -3.672,2.8467 -8.236,0.2627 -6.172,-1.268 2.06534,-1.532 0.76134,-3.704 0.76134,-3.704 -0.98534,-6.2226 -11.208,-7.808 -13.11734,1.7307 -1.71333,8.5653 9.42,15.78 21.436,12.98 0.0907,0.059 0.20667,0.081 0.348,0.037 0.58934,-0.1853 1.17067,-0.4 1.748,-0.628 0.67334,-0.2226 1.34667,-0.4693 2.02,-0.7573 1.48534,-0.64 2.744,-1.5027 3.824,-2.5187 3.42267,-2.5933 6.11867,-6.108 7.29467,-10.3613 0.34666,-1.2573 0.492,-2.592 0.51066,-3.944 1.112,-0.9707 0.75334,-3.004 0.64667,-4.344 -0.33067,-4.1533 -1.46,-8.184 -2.95067,-12.0653 -2.81066,-7.3187 -7.49599,-14.0347 -14.24533,-18.1574 -6.38,-3.8973 -13.37333,-6.0386 -20.81733,-6.596 -3.76133,-0.2813 -7.84933,-0.468 -11.60267,0.084 -1.81733,0.268 -3.48133,0.956 -5.04,1.9134 -1.956,1.2013 -3.768,2.2386 -5.832,3.2173 -0.41333,0.1947 -0.31733,0.696 -0.024,0.8853 -26.22,8.5174 -36.41066,27.2374 -44.312,31.736 -8.56666,4.8774 -8.70133,-8.992 -8.70133,-8.992 -11.36267,-1.0493 -7.46267,35.5667 21.58533,2.6347"
         style="fill:#000000;fill-opacity:1;fill-rule:nonzero;stroke:none;stroke-width:0.133333" />
      <path
         id="path216"
         d="m 803.85598,1158.0307 c 0.44933,0.3146 0.984,0.416 1.55867,0.384 0.0587,-0.055 0.12933,-0.1 0.228,-0.12 0.296,-0.057 0.59466,-0.077 0.892,-0.088 1.792,-0.5427 3.73466,-1.96 4.82666,-2.7027 2.11067,-1.436 4.40134,-2.9947 5.64934,-5.268 1.24666,-2.268 2.22,-5.044 2.50666,-7.6347 0.24134,-2.1773 -0.58533,-5.3426 -2.39733,-6.8026 -0.007,-0.01 -0.008,-0.012 -0.0147,-0.017 0.072,-0.4693 0.076,-0.9373 -0.005,-1.3906 0.005,0 0.0107,0 0.016,0 3.08533,0.896 5.58,2.6187 6.58133,5.8293 0.90667,2.9067 0.25867,5.9654 -1.35733,8.4827 -1.87467,2.9213 -4.116,6.2147 -7.17467,8.0067 -1.576,0.9253 -3.324,1.568 -5.088,2.0346 -0.99466,0.2627 -1.91733,0.2894 -2.848,0.3414 -1.368,0.5333 -2.80666,0.732 -3.988,-0.1587 -0.55733,-0.42 0.0387,-1.3 0.61467,-0.8973"
         style="fill:#000000;fill-opacity:1;fill-rule:nonzero;stroke:none;stroke-width:0.133333" />
      <path
         id="path217"
         d="m 802.44931,1144.7867 c 0.06,0.1386 0.15734,0.2173 0.26267,0.26 0.34933,0.368 0.78,0.6133 1.33067,0.5906 0.30133,-0.012 0.68533,-0.256 0.57466,-0.624 -0.64133,-1.3893 0.32267,-1.9973 2.892,-1.8226 0.664,1.1306 0.904,2.3053 0.72267,3.5253 -0.048,1.06 -0.32933,2.1387 -0.50267,3.1827 -0.112,0.6693 0.928,0.752 1.04267,0.093 0.48,-2.7533 1.57333,-7.12 -1.80267,-8.6053 -2.184,-0.96 -3.644,1.0333 -3.56,2.9693 -0.003,-0.01 -10e-4,-0.013 -0.004,-0.021 -0.0613,-0.148 -0.108,-0.3107 -0.14666,-0.4787 -0.33734,-1.6827 1.36533,-3.288 2.82933,-4.1947 0.52533,-0.252 1.04533,-0.5146 1.588,-0.724 0.26533,-0.1026 0.74133,-0.1533 0.948,-0.3986 1.14267,-1.3574 -1.36933,-2.572 -2.47733,-2.1147 -0.20667,0.085 -0.28934,0.2373 -0.296,0.396 -2.42267,0.9053 -4.26134,2.2173 -4.22934,5.052 0.008,0.8027 0.24667,1.972 0.78667,2.796 0.016,0.039 0.024,0.079 0.0413,0.1187"
         style="fill:#000000;fill-opacity:1;fill-rule:nonzero;stroke:none;stroke-width:0.133333" />
      <path
         id="path218"
         d="m 901.98531,1187.3707 c 0,0 16.05467,12.7666 25.61467,8.8133 9.56,-3.952 6.28266,-8.5373 4.004,-7.4613 -2.28,1.076 -12.6,8.732 -29.61867,-1.352"
         style="fill:#000000;fill-opacity:1;fill-rule:nonzero;stroke:none;stroke-width:0.133333" />
      <path
         id="path219"
         d="m 606.34665,1185.92 c -0.54267,0.1907 -1.09067,0.376 -1.64933,0.5467 -4.508,1.372 -9.20267,2.22 -13.92667,1.912 -3.22266,-0.2107 -10.64133,-1.6734 -12.87733,-4.928 1.46,0.4293 2.968,0.7453 4.49067,0.9853 6.95333,1.1 13.54,1.476 19.99599,0.3667 3.15867,-0.056 6.348,-0.5254 9.544,-1.2854 -1.62133,0.8334 -3.30533,1.576 -5.06533,2.22 -0.18133,0.013 -0.35867,0.064 -0.512,0.1827 z m -36.676,-14.372 c 3.05467,4 7.70267,6.2133 12.23867,8.3733 2.06667,0.9827 4.164,2.0814 6.32267,2.964 -2.31067,-0.168 -4.62534,-0.3773 -6.88,-0.82 -4.65067,-0.9133 -13.27334,-4.128 -11.68134,-10.5173 z m 5.47867,-18.6267 c -0.104,0.7187 -0.15467,1.408 -0.14133,2.0547 0.156,7.648 4.24933,13.7787 9.936,18.0867 1.484,1.4786 3.33466,2.7746 5.58,3.824 3.91333,1.8293 8.88666,3.1346 14.08133,3.636 1.33466,0.196 2.66933,0.336 3.99466,0.4213 -2.65333,0.9493 -5.256,1.5947 -7.94266,1.9573 -1.25467,-0.047 -2.496,-0.1413 -3.7,-0.336 -0.168,-0.1053 -0.36267,-0.1826 -0.60933,-0.1746 -0.14534,0 -0.28534,-0.015 -0.42934,-0.015 -1.13466,-0.2293 -2.24133,-0.5213 -3.30533,-0.896 -6.74533,-2.3787 -14.34,-6.6413 -17.57067,-13.2867 -2.33466,-4.8013 -1.88,-10.3146 0.10667,-15.272"
         style="fill:#000000;fill-opacity:1;fill-rule:nonzero;stroke:none;stroke-width:0.133333" />
      <path
         id="path220"
         d="m 625.10132,1200.7227 c -1.34534,-2.2067 -6.40534,-3.84 -6.48267,-6.8747 0.72,0.7453 1.29867,1.644 2.24267,2.2533 1.17066,0.756 2.27733,1.2934 3.68933,1.3494 2.51867,0.099 6.188,-1.0347 7.61333,-3.196 0.21867,-0.332 0.10267,-0.7187 -0.296,-0.8254 -2.38666,-0.6373 -3.74666,-1.4973 -4.864,-3.7546 -1.05066,-2.1227 -1.08133,-4.268 -0.732,-6.572 0.572,-3.776 2.30267,-8.272 4.68,-11.3014 2.364,-3.012 5.17734,-5.9933 8.47467,-7.9226 2.26,-1.3214 4.932,-1.8507 6.75467,-3.8094 0.27733,-0.2973 0.0573,-0.74 -0.29734,-0.8253 -0.16,-0.039 -0.32,-0.077 -0.48133,-0.116 -0.22533,-0.053 -0.38933,0.041 -0.48133,0.1893 -1.66534,-0.2266 -3.89734,0.9947 -5.33067,1.4987 -3.004,1.0573 -5.74,2.8387 -8.27467,4.7427 -5.61066,4.2146 -9.77866,10.0786 -13.93466,15.6493 -2.176,2.9147 -4.56,5.928 -7.57467,7.984 -2.87333,1.96 -5.4,4.2893 -8.41733,6.056 -3.16133,1.852 -6.548,3.844 -9.996,5.0733 -3.83333,1.3667 -7.204,1.6347 -11.18267,0.8347 -0.34666,-0.069 -0.72666,0.3213 -0.56,0.668 0.67067,1.3973 2.33867,2.052 3.68134,2.6907 2.196,1.044 4.43333,1.6506 6.824,2.0813 4.732,0.852 9.13733,1.2947 13.74266,-0.3227 1.83867,-0.6453 3.66533,-1.316 5.276,-2.4346 1.00933,-0.7014 1.44933,-1.6867 2.62533,-1.284 0.92667,0.3173 1.17734,1.296 1.63867,2.1413 1.512,2.7693 2.64133,4.8053 2.116,8.0467 -0.38667,2.388 -1.024,4.6066 -1.57867,6.944 -0.0707,0.3 0.23067,0.6413 0.54134,0.588 2.03866,-0.352 3.988,-3.1907 5.26266,-4.6134 2.09734,-2.3426 4.228,-5.032 5.38134,-7.9866 0.85333,-2.1894 1.224,-4.8467 -0.06,-6.952"
         style="fill:#000000;fill-opacity:1;fill-rule:nonzero;stroke:none;stroke-width:0.133333" />
      <path
         id="path221"
         d="m 691.57598,1140.0653 c 0.11334,-4.9066 1.37467,-9.972 5.56,-13.028 2.048,-1.496 4.59467,-2.0813 7.12,-1.9493 -1.80133,0.408 -3.50133,1.1627 -4.72133,2.2 -7.48667,6.3693 -6.13467,17.0573 -2.68133,25.236 0.78,1.848 1.804,3.408 3.03466,4.784 -1.50133,-1.1693 -2.89333,-2.4613 -4.02533,-4.0333 -2.93067,-4.0694 -4.40267,-8.188 -4.28667,-13.2094 z m 30.24534,19.916 c -1.26134,-1.5426 -3.70267,-0.2493 -3.28934,1.576 -3.056,0.1094 -6.77466,-1.4213 -9.27466,-2.3 -3.692,-1.2986 -7.05067,-4.1026 -8.38667,-7.908 -1.23333,-3.5133 -0.79333,-8.0453 0.60133,-11.464 0.84267,-2.064 2.02534,-3.4573 4.01734,-4.4666 0.94933,-0.4827 3.59866,-1.7347 5.10133,-1.4614 -1.02,0.6707 -0.596,2.0294 0.924,2.688 2.55067,1.1054 4.68,-1.064 4.748,-3.6306 0.0907,-3.3827 -2.72267,-6.7427 -5.78933,-7.7934 -0.808,-0.276 -1.71334,-0.428 -2.65867,-0.4693 -3.22533,-1.0253 -6.95067,-0.9587 -9.91467,0.6147 -4.20933,2.2333 -6.488,6.7493 -7.10666,11.3093 -0.69867,5.144 -0.11734,9.84 2.46,14.3493 2.98666,5.2254 7.29066,8.0707 12.21066,11.328 0.27867,0.1854 0.58934,0.069 0.75334,-0.1346 3.036,1.832 6.89733,3.8133 10.296,3.2013 1.64533,-0.2973 7.216,-3.108 5.308,-5.4387"
         style="fill:#000000;fill-opacity:1;fill-rule:nonzero;stroke:none;stroke-width:0.133333" />
      <path
         id="path222"
         d="m 646.84798,1163.9347 c -0.83333,0.316 -11.69866,9.564 -13.804,21.352 -0.21466,1.2066 -0.40666,2.48 -0.51733,3.7706 -0.116,-2.3186 0.84133,-6 1.04667,-6.8693 0.89466,-3.7707 2.22266,-7.504 4.02266,-10.94 3.404,-6.4973 7.89334,-11.352 14.356,-14.8147 6.09067,-3.2626 12.67067,-4.824 19.55067,-5.1573 3.42267,-0.1653 7.26,-0.42 10.61333,0.3307 2.12134,0.4746 3.86667,1.6613 5.64134,2.852 0.92533,0.6213 1.87333,1.0453 2.848,1.4773 -1.69334,-0.508 -3.444,-0.9787 -5.27067,-1.3947 -17.18667,-3.924 -29.96133,1.8787 -38.48667,9.3934 z m 98.46267,15.2786 c 0,0 -0.13467,13.8707 -8.70134,8.9934 -7.89999,-4.4987 -18.09199,-23.2187 -44.31199,-31.736 0.29333,-0.1894 0.38933,-0.6907 -0.024,-0.8854 -2.064,-0.9786 -3.87467,-2.016 -5.832,-3.2173 -1.55867,-0.9573 -3.22267,-1.6453 -5.04,-1.9133 -3.752,-0.552 -7.84134,-0.3654 -11.60267,-0.084 -7.444,0.5573 -14.436,2.6986 -20.81733,6.596 -6.74934,4.1226 -11.43467,10.8373 -14.24534,18.1573 -1.49066,3.88 -2.62,7.912 -2.95066,12.0653 -0.10667,1.34 -0.46534,3.3734 0.648,4.344 0.0173,1.352 0.16266,2.6867 0.50933,3.944 1.176,4.2534 3.872,7.7667 7.29467,10.3614 1.08,1.016 2.33866,1.8786 3.824,2.5173 0.67333,0.2893 1.34666,0.536 2.02,0.7587 0.57733,0.228 1.15866,0.4426 1.748,0.628 0.14133,0.044 0.25733,0.021 0.348,-0.037 12.016,2.8 23.14933,-4.4146 21.436,-12.98 -1.90934,-9.54 -12.132,-7.9533 -13.11734,-1.7306 0,0 -1.30266,2.172 0.76134,3.704 2.064,1.5306 -2.5,4.1146 -6.172,1.268 -3.672,-2.848 -11.60667,-9.656 3.112,-26.6774 15.64933,-18.0986 40.47866,-24.3733 69.528,8.5587 29.04933,32.9333 32.94799,-3.6827 21.58533,-2.6347"
         style="fill:#000000;fill-opacity:1;fill-rule:nonzero;stroke:none;stroke-width:0.133333" />
      <path
         id="path223"
         d="m 704.75865,1159.128 c -0.44933,0.3147 -0.984,0.416 -1.55867,0.384 -0.0587,-0.055 -0.12933,-0.1 -0.22666,-0.12 -0.29734,-0.057 -0.596,-0.077 -0.89334,-0.089 -1.792,-0.5414 -3.73466,-1.9587 -4.82666,-2.7014 -2.11067,-1.436 -4.40134,-2.9946 -5.64934,-5.268 -1.24666,-2.268 -2.22,-5.044 -2.50666,-7.6346 -0.24134,-2.1774 0.58533,-5.344 2.39866,-6.804 0.005,0 0.007,-0.012 0.0133,-0.016 -0.072,-0.4694 -0.076,-0.9374 0.005,-1.3907 -0.005,0 -0.0107,0 -0.016,0 -3.08533,0.896 -5.58,2.6187 -6.58133,5.8294 -0.90667,2.9066 -0.25867,5.9653 1.35733,8.4826 1.87467,2.9214 4.116,6.2147 7.17467,8.0067 1.576,0.924 3.324,1.568 5.088,2.0347 0.99466,0.2626 1.91733,0.2893 2.848,0.34 1.368,0.5346 2.80666,0.7333 3.988,-0.1574 0.55866,-0.42 -0.0387,-1.3 -0.61467,-0.8973"
         style="fill:#000000;fill-opacity:1;fill-rule:nonzero;stroke:none;stroke-width:0.133333" />
      <path
         id="path224"
         d="m 706.20665,1145.7653 c 0.54,-0.8253 0.77867,-1.9933 0.788,-2.796 0.0307,-2.836 -1.80667,-4.1466 -4.22933,-5.052 -0.008,-0.1586 -0.0907,-0.3106 -0.29734,-0.396 -1.108,-0.4573 -3.62,0.7574 -2.47733,2.1147 0.20667,0.2453 0.68267,0.296 0.948,0.3987 0.54267,0.2093 1.064,0.472 1.588,0.724 1.464,0.9066 3.16667,2.512 2.82933,4.1946 -0.0387,0.168 -0.0853,0.3307 -0.14666,0.4787 -0.003,0.01 -0.001,0.015 -0.004,0.021 0.084,-1.936 -1.376,-3.9293 -3.56,-2.9693 -3.376,1.4853 -2.28134,5.852 -1.80267,8.6053 0.116,0.6587 1.15467,0.576 1.044,-0.093 -0.17467,-1.0453 -0.45467,-2.1227 -0.504,-3.1827 -0.18133,-1.22 0.0587,-2.3946 0.72267,-3.5266 2.56933,-0.1734 3.53333,0.4346 2.892,1.824 -0.11067,0.368 0.27333,0.612 0.57466,0.624 0.55067,0.023 0.98267,-0.224 1.33067,-0.5907 0.10667,-0.043 0.20267,-0.1213 0.26267,-0.26 0.0173,-0.04 0.0253,-0.08 0.0413,-0.1187"
         style="fill:#000000;fill-opacity:1;fill-rule:nonzero;stroke:none;stroke-width:0.133333" />
      <path
         id="path225"
         d="m 606.62932,1188.4667 c 0,0 -16.05467,12.768 -25.61467,8.8146 -9.56,-3.952 -6.28266,-8.5373 -4.004,-7.4613 2.28,1.0747 12.60134,8.7307 29.61867,-1.3533"
         style="fill:#000000;fill-opacity:1;fill-rule:nonzero;stroke:none;stroke-width:0.133333" />
      <path
         id="path226"
         d="m 689.77998,1332.7373 c 1.83467,-1.76 3.904,-3.1373 6.12267,-4.2626 1.984,-0.2827 3.86267,-0.836 5.99333,-1.6987 2,-0.812 4.364,-0.1013 6.496,-0.3987 0.52534,0.1347 0.836,-0.6026 1.35867,-0.4293 0.62267,0.2053 1.22667,0.2947 1.84667,0.3853 -1.03867,-0.02 -2.10534,-0.01 -3.20534,0.044 -10.35866,0.5 -16.676,5.8107 -20.31466,11.4227 -0.42267,0.3067 -5.11334,7.2667 -4.43734,14.28 0.068,0.72 0.16134,1.4667 0.304,2.2133 -0.43333,-1.2933 -0.47466,-3.5333 -0.49466,-4.0533 -0.092,-2.28 0.0693,-4.6 0.54533,-6.84 0.89867,-4.2133 2.67333,-7.68 5.78533,-10.6627 z m 20.06,-17.1493 c -0.20533,-0.1467 -0.39733,-0.2587 -0.57466,-0.3507 -0.27467,-2.216 0,-4.4626 1.45466,-6.3093 0.924,-1.172 2.27334,-1.9067 3.724,-2.232 -0.956,0.5173 -1.79866,1.2133 -2.32533,1.9947 -1.64933,2.4453 -1.80667,5.1626 -1.14267,7.7813 -0.40933,-0.36 -0.79066,-0.668 -1.136,-0.884 z m -28.90266,55.4651 c 0.816,-1.6667 1.59733,-3.5198 1.78266,-5.3734 0.13734,-1.3865 -0.0733,-2.9464 -1.13466,-3.933 -1.112,-1.04 -4.23734,-1.16 -4.76134,-2.8667 0.52534,0.3067 0.996,0.72 1.62667,0.92 0.784,0.24 1.496,0.3733 2.304,0.1733 1.44267,-0.3333 3.34133,-1.56 3.80667,-3.0133 0.0707,-0.2267 -0.056,-0.4267 -0.29867,-0.4133 -1.452,0.013 -2.35867,-0.2667 -3.34933,-1.36 -0.932,-1.04 -1.28934,-2.2534 -1.456,-3.6134 -0.27334,-2.2266 -0.007,-5.04 0.86133,-7.1333 0.86267,-2.08 1.98267,-4.2267 3.54533,-5.84 0.57867,-0.5867 1.25334,-1.08 1.87334,-1.6267 -1.548,2.7734 -2.44934,5.9067 -2.74934,9.08 -0.22933,2.44 -0.23066,4.8934 0.24,7.3067 0.152,0.7733 0.27067,1.9733 1.05467,2.3467 0.224,0.7733 0.51733,1.5066 0.91333,2.16 1.34,2.2266 3.424,3.7866 5.77334,4.72 0.77333,0.3997 1.62266,0.6936 2.56533,0.8133 0.42667,0.053 0.848,0.093 1.264,0.1068 0.364,0.04 0.72667,0.067 1.08933,0.08 0.088,0 0.14934,-0.026 0.192,-0.067 7.25067,-0.3197 12.41467,-6.173 10.08667,-10.7597 -2.592,-5.0933 -8.132,-2.5733 -7.704,1.1067 0,0 -0.39467,1.4266 1.01733,1.9733 1.412,0.5333 -0.764,2.7333 -3.29466,1.6933 -2.532,-1.0266 -8.10534,-3.6266 -2.464,-15.6 5.99866,-12.7346 19.07066,-20.2213 40.74266,-6.1733 14.06267,9.12 17.48267,3.3333 16.44133,-1.2 0.0173,-0.24 -0.06,-0.4667 -0.19733,-0.6933 -0.404,-1.1894 -1.11333,-2.208 -2.004,-2.76 -1.86267,-3.6214 -1.724,-8.6947 -1.15467,-12.3787 0.42934,-2.7747 2.16,-5.0107 4.104,-6.9333 2.33067,-2.304 7.488,-2.172 6.75467,2.02 -0.22267,1.272 -0.956,2.3533 -1.90267,3.1826 -0.836,-1.4146 -3.33333,-0.6826 -2.67066,0.9747 0.38666,0.9653 0.58933,1.3293 1.30933,2.0867 0.44533,0.4666 1.212,0.556 1.76133,0.2266 3.45734,-2.072 5.58134,-6.3986 3.98,-10.3 -1.73733,-4.2386 -7.008,-3.228 -9.99866,-1.2866 -7.04534,4.5746 -9.056,17.6253 -4.232,24.7813 0.0827,2.1467 -0.47867,4.6933 -3.884,3.84 -4.17867,-1.04 -10.668,-7.0653 -21.49467,-9.7267 0.072,-0.039 0.12934,-0.1013 0.16134,-0.1733 2.00933,0.556 4.51066,1.0667 6.33866,0.1813 0.88534,-0.428 3.596,-2.9026 2.14667,-3.9213 -0.96,-0.6733 -2.13733,0.4453 -1.61467,1.4147 -1.71333,0.5453 -4.06266,0.268 -5.61733,0.1653 -1.12667,-0.073 -2.26133,-0.372 -3.28933,-0.8787 -0.67734,-0.444 -1.34,-0.94 -1.99067,-1.4853 -0.24933,-0.2547 -0.51733,-0.4907 -0.724,-0.788 -0.032,-0.044 -0.0493,-0.1027 -0.08,-0.148 -0.005,-0.02 0.009,-0.033 0,-0.053 -0.264,-0.564 -0.57733,-1.1307 -0.77333,-1.724 -0.296,-0.6614 -0.33734,-1.3654 -0.14134,-2.112 1.428,-0.5054 2.07467,-0.3134 1.932,0.5746 -0.004,0.2267 0.25334,0.304 0.42534,0.2627 0.316,-0.075 0.52266,-0.2813 0.66266,-0.5453 0.0533,-0.04 0.096,-0.1 0.108,-0.1894 0.004,-0.024 0.003,-0.048 0.005,-0.073 0.17466,-0.552 0.12533,-1.252 0.003,-1.708 -0.432,-1.6107 -1.68,-2.0627 -3.196,-2.192 -0.0107,-0.029 -0.0573,-0.035 -0.0773,-0.06 0.25467,-0.6613 0.63467,-1.2467 1.224,-1.788 0.46267,-0.4227 1.764,-1.552 2.66,-1.6347 -0.472,0.5414 -0.016,1.244 0.948,1.376 1.62,0.2227 2.48267,-1.344 2.116,-2.808 -0.48533,-1.932 -2.61067,-3.3893 -4.51467,-3.4986 -0.50133,-0.028 -1.03866,0.029 -1.58133,0.1546 -1.98933,-0.069 -4.08933,0.5587 -5.51867,1.92 -1.88,1.788 -2.47333,4.4174 -2.26266,6.9254 -0.0627,0.041 -0.11734,0.089 -0.17867,0.1333 -0.0933,-0.023 -0.15333,-0.033 -0.15333,-0.033 0,0 -0.11734,0.1 -0.25734,0.336 -1.14533,0.9306 -1.928,2.1226 -1.976,3.7306 -0.009,0.3027 0.0427,0.592 0.0827,0.884 -4.972,-0.033 -8.984,-0.8653 -13.812,-3.98 -1.95867,-1.2626 -7.368,-7.7026 -2.27467,-7.4066 1.87867,0.1093 1.852,-2.7707 0,-2.9054 -8.58533,-0.628 -14.06,8.2174 -9.51466,16 2.46,4.2134 6.332,6.8507 11.32533,7.1227 0.87333,0.048 1.684,0.037 2.472,-0.01 -2.25733,1.3093 -4.33467,2.8933 -6.156,4.8467 -0.57333,0.6133 -1.03733,1.3066 -1.50933,1.9866 -1.17067,0.4667 -4.78667,2.3467 -7.13734,5.3467 -2.54533,3.2533 -3.94266,7.2533 -5.416,11.0667 -0.76933,2 -1.644,4.08 -3.02533,5.7333 -1.31733,1.56 -2.38,3.28 -3.80933,4.76 -1.49734,1.5469 -3.1,3.2131 -4.85867,4.4531 -1.956,1.387 -3.82133,2.0666 -6.20267,2.2537 -0.20666,0.013 -0.36133,0.2932 -0.212,0.4667 0.60134,0.6796 1.64934,0.7864 2.512,0.9333 1.40934,0.2401 2.77334,0.2401 4.19467,0.1063 2.816,-0.2667 5.38133,-0.7199 7.73467,-2.36 0.94,-0.6667 1.868,-1.3334 2.60266,-2.2266 0.46134,-0.5468 0.55467,-1.1734 1.284,-1.1333 0.576,0.026 0.872,0.5469 1.268,0.9469 1.29467,1.3334 2.25734,2.3063 2.47334,4.2266 0.15866,1.413 0.14933,2.7734 0.20533,4.1864 0.007,0.1734 0.232,0.3204 0.4,0.2401 1.09867,-0.5197 1.75333,-2.4401 2.25067,-3.4401"
         style="fill:#000000;fill-opacity:1;fill-rule:nonzero;stroke:none;stroke-width:0.133333" />
      <path
         id="path227"
         d="m 829.67731,1343.1333 c 0.47467,2.2267 0.636,4.56 0.54534,6.84 -0.0213,0.52 -0.0627,2.76 -0.49467,4.0534 0.14133,-0.7467 0.23467,-1.5067 0.304,-2.2267 0.67467,-7 -4.016,-13.96 -4.43867,-14.28 -3.63866,-5.6027 -9.956,-10.9133 -20.31333,-11.4133 -1.1,-0.053 -2.16667,-0.064 -3.20667,-0.045 0.62134,-0.089 1.22534,-0.18 1.848,-0.3853 0.52267,-0.172 0.832,0.564 1.35867,0.4307 2.13067,0.296 4.496,-0.4134 6.496,0.3973 2.12933,0.864 4.008,1.4173 5.992,1.7 2.21867,1.124 4.288,2.5027 6.12267,4.2627 3.11333,2.9866 4.88666,6.44 5.78666,10.6666 z m -26.98133,-26.932 c 0.66267,-2.62 0.50667,-5.336 -1.144,-7.7826 -0.52533,-0.78 -1.36933,-1.4774 -2.32533,-1.9934 1.45066,0.3254 2.80133,1.06 3.72533,2.232 1.45467,1.8454 1.72933,4.0934 1.45467,6.308 -0.17734,0.093 -0.36934,0.2054 -0.57467,0.352 -0.34667,0.2147 -0.728,0.524 -1.136,0.884 z m 32.288,58.0252 c 0.168,0.08 0.39333,-0.067 0.4,-0.253 0.056,-1.4136 0.0467,-2.7599 0.20667,-4.1735 0.216,-1.9197 1.17733,-2.8932 2.47333,-4.2265 0.39467,-0.4136 0.692,-0.9204 1.26667,-0.9599 0.73066,-0.04 0.82266,0.5864 1.284,1.1463 0.73466,0.8932 1.664,1.5598 2.60266,2.2136 2.35334,1.653 4.91867,2.0932 7.73467,2.3598 1.42267,0.1334 2.78533,0.1464 4.196,-0.093 0.86133,-0.1469 1.90933,-0.2537 2.51067,-0.9469 0.14933,-0.1599 -0.004,-0.4531 -0.212,-0.4667 -2.38,-0.1734 -4.24667,-0.8666 -6.20134,-2.2401 -1.75866,-1.24 -3.36266,-2.9067 -4.85866,-4.4531 -1.42934,-1.48 -2.49334,-3.2 -3.81067,-4.7733 -1.38133,-1.64 -2.25467,-3.72 -3.02533,-5.72 -1.472,-3.8133 -2.87067,-7.8267 -5.41467,-11.0667 -2.352,-3.0133 -5.968,-4.88 -7.13733,-5.3466 -0.47334,-0.68 -0.93734,-1.3734 -1.50934,-1.988 -1.82133,-1.956 -3.9,-3.5414 -6.156,-4.8507 0.788,0.047 1.59867,0.057 2.472,0.01 4.992,-0.2733 8.864,-2.9106 11.32534,-7.124 4.544,-7.7813 -0.92934,-16.628 -9.51467,-16 -1.85333,0.136 -1.88,3.0147 0,2.9054 5.09333,-0.2947 -0.31733,6.1453 -2.27467,7.408 -4.82933,3.1146 -8.84133,3.9466 -13.81333,3.98 0.04,-0.292 0.092,-0.5814 0.0827,-0.884 -0.0467,-1.608 -0.82934,-2.8 -1.976,-3.7307 -0.13867,-0.236 -0.256,-0.336 -0.256,-0.336 0,0 -0.0613,0.011 -0.15334,0.032 -0.0613,-0.043 -0.11733,-0.091 -0.18,-0.1333 0.21067,-2.508 -0.38266,-5.1374 -2.26133,-6.9254 -1.43067,-1.36 -3.53067,-1.9893 -5.52,-1.9186 -0.54267,-0.1267 -1.07867,-0.184 -1.58,-0.1547 -1.904,0.1093 -4.03067,1.5667 -4.51467,3.4973 -0.368,1.464 0.49467,3.0307 2.11467,2.8094 0.96533,-0.1334 1.42133,-0.836 0.94933,-1.3774 0.89467,0.084 2.19734,1.2134 2.65867,1.636 0.59067,0.5414 0.97067,1.1267 1.224,1.788 -0.02,0.024 -0.0667,0.029 -0.076,0.059 -1.516,0.1293 -2.76533,0.5813 -3.19733,2.1933 -0.12134,0.456 -0.172,1.1547 0.004,1.708 0.003,0.024 10e-4,0.048 0.005,0.073 0.012,0.088 0.0547,0.148 0.108,0.1893 0.13867,0.2627 0.34533,0.4707 0.66133,0.5453 0.172,0.04 0.43067,-0.036 0.42534,-0.2626 -0.14267,-0.888 0.504,-1.08 1.932,-0.5747 0.19733,0.7453 0.15466,1.4493 -0.14134,2.112 -0.19466,0.592 -0.508,1.1587 -0.772,1.7227 -0.0107,0.021 0.004,0.035 0,0.053 -0.0307,0.047 -0.0493,0.104 -0.08,0.1493 -0.208,0.296 -0.476,0.532 -0.72533,0.788 -0.64933,0.5454 -1.31333,1.0414 -1.99067,1.4854 -1.02666,0.5066 -2.16266,0.804 -3.288,0.8786 -1.556,0.1014 -3.904,0.38 -5.61866,-0.1666 0.52266,-0.968 -0.65467,-2.088 -1.61334,-1.4134 -1.44933,1.0174 1.26,3.492 2.14534,3.9214 1.828,0.8853 4.32933,0.3746 6.34,-0.1827 0.0307,0.072 0.088,0.136 0.16133,0.1747 -10.828,2.66 -17.316,8.6906 -21.49467,9.7306 -3.40666,0.8534 -3.968,-1.6933 -3.884,-3.8426 4.82267,-7.1587 2.812,-20.208 -4.23333,-24.7827 -2.99067,-1.9427 -8.26,-2.952 -9.99867,1.2853 -1.6,3.9014 0.52267,8.2294 3.98134,10.3014 0.548,0.3293 1.31466,0.24 1.76,-0.2267 0.72133,-0.7573 0.92266,-1.1213 1.30933,-2.0867 0.664,-1.6573 -1.83333,-2.3893 -2.66933,-0.976 -0.948,-0.828 -1.68134,-1.9106 -1.904,-3.1826 -0.73334,-4.192 4.424,-4.3227 6.75466,-2.0187 1.94534,1.9227 3.67467,4.1587 4.104,6.9333 0.56934,3.6827 0.708,8.7574 -1.15466,12.3774 -0.89067,0.552 -1.6,1.572 -2.004,2.752 -0.13734,0.2266 -0.21334,0.4666 -0.19734,0.7066 -1.04133,4.5334 2.37867,10.32 16.44134,1.2 21.672,-14.0533 34.744,-6.5653 40.74266,6.16 5.64134,11.9734 0.068,14.5734 -2.46266,15.6134 -2.532,1.0266 -4.708,-1.16 -3.296,-1.6934 1.412,-0.5466 1.01866,-1.9866 1.01866,-1.9866 0.42667,-3.68 -5.11333,-6.2 -7.70533,-1.0934 -2.32667,4.5867 2.836,10.4264 10.08667,10.7468 0.0427,0.053 0.104,0.08 0.192,0.08 0.36266,-0.013 0.72666,-0.039 1.08933,-0.08 0.41733,-0.027 0.83733,-0.054 1.264,-0.1068 0.94267,-0.1333 1.79333,-0.4136 2.56533,-0.8266 2.34934,-0.92 4.43334,-2.4934 5.77334,-4.7067 0.396,-0.6667 0.68933,-1.4 0.91466,-2.16 0.784,-0.3733 0.90267,-1.5867 1.05467,-2.36 0.46933,-2.4 0.468,-4.8667 0.23867,-7.2933 -0.29867,-3.1867 -1.2,-6.3067 -2.748,-9.08 0.61866,0.5333 1.29466,1.0266 1.872,1.6266 1.56266,1.6134 2.684,3.7467 3.54533,5.8267 0.868,2.0933 1.136,4.92 0.86133,7.1467 -0.16666,1.36 -0.524,2.5733 -1.45466,3.6 -0.99067,1.1066 -1.89734,1.3866 -3.35067,1.36 -0.24267,0 -0.36933,0.2 -0.29733,0.4266 0.464,1.4534 2.364,2.6667 3.80666,3.0134 0.808,0.1866 1.52,0.067 2.30267,-0.1734 0.63067,-0.2 1.10133,-0.6133 1.628,-0.9333 -0.52533,1.7067 -3.65067,1.84 -4.76133,2.8667 -1.06134,1 -1.272,2.5598 -1.136,3.9333 0.18533,1.8531 0.96666,3.7197 1.784,5.3735 0.496,1.0129 1.15066,2.9333 2.24933,3.453"
         style="fill:#000000;fill-opacity:1;fill-rule:nonzero;stroke:none;stroke-width:0.133333" />
      <path
         id="path228"
         d="m 340.65199,1246.8973 c -0.988,0.3654 -1.98533,0.7214 -3.004,1.0494 -8.21066,2.6493 -16.77866,4.3453 -25.43733,3.9253 -5.90667,-0.288 -19.532,-2.74 -23.72533,-8.6293 2.68533,0.744 5.45733,1.2746 8.252,1.668 12.76266,1.8013 24.83333,2.288 36.61733,0.06 5.78133,-0.2 11.60666,-1.156 17.43333,-2.6427 -2.94267,1.5747 -6.004,2.9853 -9.20533,4.2173 -0.332,0.031 -0.65334,0.1294 -0.93067,0.352 z m -67.58133,-25.192 c 5.71333,7.228 14.288,11.1387 22.66,14.9534 3.812,1.7373 7.68667,3.6853 11.664,5.2346 -4.23467,-0.2373 -8.47867,-0.5506 -12.62,-1.292 -8.54267,-1.5306 -24.424,-7.1506 -21.704,-18.896 z m 9.46,-34.268 c -0.16933,1.3174 -0.24,2.5814 -0.196,3.7654 0.51867,13.996 8.2,25.0946 18.74267,32.808 2.76,2.6626 6.188,4.9773 10.332,6.8306 7.22,3.2294 16.364,5.4667 25.88933,6.2254 2.45066,0.3186 4.896,0.5346 7.32666,0.6506 -4.83066,1.8174 -9.57333,3.0814 -14.48266,3.8254 -2.29867,-0.048 -4.57333,-0.1827 -6.784,-0.5014 -0.31067,-0.1893 -0.668,-0.3226 -1.11867,-0.3026 -0.26666,0.012 -0.524,-0.016 -0.788,-0.013 -2.084,-0.384 -4.11866,-0.8853 -6.07733,-1.5386 -12.42267,-4.148 -26.456,-11.7214 -32.57467,-23.788 -4.42,-8.7187 -3.756,-18.8267 -0.26933,-27.9614"
         style="fill:#000000;fill-opacity:1;fill-rule:nonzero;stroke:none;stroke-width:0.133333" />
      <path
         id="path229"
         d="m 375.43732,1273.4213 c -2.53066,-3.9973 -11.84266,-6.8333 -12.07866,-12.3866 1.34266,1.3426 2.42933,2.972 4.176,4.0586 2.16533,1.348 4.20933,2.296 6.79466,2.3547 4.61334,0.1053 11.29867,-2.0813 13.84,-6.0827 0.39067,-0.6146 0.16667,-1.3186 -0.56666,-1.5026 -4.388,-1.092 -6.904,-2.6254 -9.01867,-6.724 -1.988,-3.8534 -2.10933,-7.78 -1.54133,-12.008 0.93333,-6.9307 3.96266,-15.2134 8.224,-20.8334 4.236,-5.5853 9.29466,-11.1306 15.272,-14.7626 4.09866,-2.4894 8.972,-3.5387 12.24933,-7.18 0.49867,-0.5547 0.084,-1.3574 -0.568,-1.5014 -0.29467,-0.065 -0.58933,-0.132 -0.88533,-0.1973 -0.41467,-0.092 -0.71067,0.087 -0.876,0.36 -3.056,-0.3653 -7.10534,1.9387 -9.712,2.9053 -5.468,2.028 -10.424,5.3734 -15.00534,8.936 -10.144,7.888 -17.59333,18.7494 -25.03333,29.0747 -3.89333,5.4027 -8.16667,10.992 -13.62267,14.848 -5.2,3.676 -9.756,8.0173 -15.22533,11.344 -5.72933,3.4867 -11.87066,7.2373 -18.14533,9.592 -6.976,2.6187 -13.13733,3.2133 -20.44533,1.872 -0.63734,-0.1173 -1.32134,0.6093 -1.00667,1.2373 1.27067,2.5387 4.344,3.6854 6.82267,4.8134 4.052,1.8453 8.16666,2.888 12.556,3.6026 8.688,1.416 16.768,2.092 25.15066,-1.0093 3.34667,-1.2387 6.66933,-2.52 9.584,-4.6187 1.82667,-1.3146 2.60133,-3.132 4.76667,-2.4293 1.70666,0.552 2.19466,2.336 3.06533,3.868 2.85333,5.0253 4.98133,8.7187 4.12,14.6667 -0.63467,4.3853 -1.73333,8.4653 -2.67733,12.7613 -0.12134,0.5507 0.44133,1.168 1.008,1.0613 3.72133,-0.708 7.204,-5.9626 9.49466,-8.608 3.76667,-4.352 7.58534,-9.3413 9.60534,-14.7853 1.49733,-4.0347 2.09466,-8.9093 -0.32134,-12.7267"
         style="fill:#000000;fill-opacity:1;fill-rule:nonzero;stroke:none;stroke-width:0.133333" />
      <path
         id="path230"
         d="m 495.28265,1160.3467 c 0.0587,-8.9867 2.21334,-18.2987 9.78134,-24.02 3.70533,-2.8 8.34933,-3.9507 12.97466,-3.7867 -3.28533,0.804 -6.37466,2.236 -8.57466,4.172 -13.51334,11.8893 -10.712,31.416 -4.14,46.2827 1.48533,3.3586 3.40666,6.1826 5.70133,8.6653 -2.784,-2.0947 -5.372,-4.4173 -7.492,-7.26 -5.488,-7.3613 -8.31067,-14.856 -8.25067,-24.0533 z m 55.98,35.536 c -2.35733,-2.784 -6.78666,-0.3414 -5.97333,2.988 -5.59333,0.2933 -12.44667,-2.3947 -17.05067,-3.928 -6.79866,-2.2654 -13.03333,-7.296 -15.59466,-14.2227 -2.36534,-6.3933 -1.69867,-14.704 0.75066,-21.0053 1.47867,-3.8027 3.60267,-6.3907 7.21734,-8.3 1.724,-0.9107 6.53466,-3.284 9.296,-2.8307 -1.84667,1.26 -1.02934,3.7347 1.772,4.8933 4.704,1.9454 8.536,-2.092 8.584,-6.7906 0.0613,-6.1974 -5.192,-12.2627 -10.83867,-14.0907 -1.48667,-0.4827 -3.14933,-0.732 -4.88133,-0.78 -5.93467,-1.7787 -12.75467,-1.5413 -18.13334,1.428 -7.63733,4.2187 -11.66933,12.556 -12.66266,20.9213 -1.12267,9.44 0.0853,18.0187 4.94133,26.196 5.62533,9.4747 13.59333,14.552 22.69867,20.3654 0.516,0.3293 1.08133,0.1093 1.376,-0.2707 5.612,3.2627 12.74266,6.772 18.94533,5.5453 3.004,-0.5933 13.116,-5.9093 9.55333,-10.1186"
         style="fill:#000000;fill-opacity:1;fill-rule:nonzero;stroke:none;stroke-width:0.133333" />
      <path
         id="path231"
         d="m 414.12799,1205.412 c -1.516,0.6027 -21.12667,17.8653 -24.62,39.5093 -0.35733,2.2147 -0.66933,4.5534 -0.83333,6.9187 -0.28267,-4.2413 1.35733,-11.0107 1.708,-12.6067 1.52133,-6.932 3.83866,-13.8066 7.02933,-20.1533 6.03467,-11.9973 14.104,-21.0213 25.83067,-27.5573 11.04933,-6.1587 23.048,-9.2187 35.63466,-10.0387 6.26,-0.408 13.27733,-0.9907 19.43867,0.28 3.89866,0.8053 7.13066,2.924 10.41466,5.0493 1.71334,1.1107 3.46134,1.856 5.26,2.6174 -3.116,-0.8787 -6.336,-1.6854 -9.69066,-2.3934 -31.584,-6.6573 -54.79467,4.356 -70.172,18.3747 z m 180.724,24.9653 c 0,0 0.17733,25.396 -15.65467,16.7267 -14.60267,-7.9933 -33.83067,-41.9533 -82.09333,-56.7467 0.53333,-0.3533 0.692,-1.2746 -0.0707,-1.62 -3.80933,-1.7266 -7.156,-3.572 -10.77467,-5.712 -2.88266,-1.704 -5.94933,-2.9133 -9.284,-3.348 -6.888,-0.8973 -14.36933,-0.4306 -21.24533,0.2 -13.61066,1.2467 -26.34666,5.3814 -37.908,12.7107 -12.232,7.7533 -20.604,20.1907 -25.52666,33.676 -2.60934,7.1507 -4.55334,14.5653 -5.03334,22.1787 -0.15466,2.4573 -0.74933,6.1893 1.31734,7.932 0.0747,2.476 0.38133,4.9146 1.05466,7.2053 2.28267,7.752 7.32534,14.1027 13.67067,18.7467 2.008,1.828 4.33867,3.368 7.07867,4.4933 1.24,0.5093 2.48,0.9387 3.72,1.3253 1.064,0.4 2.13466,0.776 3.21866,1.096 0.26134,0.077 0.472,0.031 0.636,-0.077 22.084,4.7587 42.24667,-8.7907 38.84667,-24.4187 -3.78533,-17.4053 -22.452,-14.1893 -24.06667,-2.7666 0,0 -2.31866,4.016 1.50667,6.756 3.82533,2.74 -4.44933,7.6106 -11.26,2.5106 -6.81067,-5.1013 -21.544,-17.3226 4.88267,-48.9333 28.09733,-33.6107 73.36266,-45.856 127.54799,13.5467 54.18533,59.404 60.20667,-7.748 39.43734,-5.4814"
         style="fill:#000000;fill-opacity:1;fill-rule:nonzero;stroke:none;stroke-width:0.133333" />
      <path
         id="path232"
         d="m 519.99865,1194.844 c -0.812,0.588 -1.788,0.7907 -2.84133,0.7493 -0.108,-0.097 -0.23867,-0.1786 -0.42,-0.212 -0.54667,-0.097 -1.09067,-0.1253 -1.63733,-0.136 -3.296,-0.9373 -6.89734,-3.472 -8.91867,-4.7986 -3.908,-2.564 -8.148,-5.348 -10.504,-9.4707 -2.35067,-4.1147 -4.216,-9.168 -4.82,-13.9013 -0.50933,-3.98 0.908,-9.8 4.18133,-12.5294 0.012,-0.01 0.0133,-0.021 0.024,-0.032 -0.144,-0.856 -0.16666,-1.7106 -0.032,-2.5453 -0.0107,0 -0.0187,0 -0.0293,0 -5.62,1.736 -10.136,4.964 -11.87067,10.8733 -1.57066,5.348 -0.29066,10.9293 2.744,15.488 3.52134,5.2907 7.72534,11.252 13.37867,14.44 2.916,1.644 6.13467,2.7693 9.37867,3.568 1.82933,0.4507 3.51866,0.4733 5.22266,0.5373 2.52134,0.936 5.16267,1.256 7.29734,-0.4106 1.008,-0.7854 -0.11067,-2.38 -1.15334,-1.6227"
         style="fill:#000000;fill-opacity:1;fill-rule:nonzero;stroke:none;stroke-width:0.133333" />
      <path
         id="path233"
         d="m 522.24265,1170.3347 c 0.96267,-1.5254 1.364,-3.672 1.35467,-5.1414 -0.0293,-5.192 -3.43333,-7.536 -7.896,-9.1213 -0.02,-0.2893 -0.17467,-0.5653 -0.556,-0.716 -2.04133,-0.804 -6.60267,1.4973 -4.47067,3.9467 0.38667,0.444 1.25867,0.5226 1.74934,0.7026 0.99733,0.3654 1.96,0.832 2.928,1.276 2.70666,1.616 5.87333,4.5027 5.308,7.5947 -0.0653,0.308 -0.14534,0.6067 -0.25334,0.88 -0.005,0.013 -0.003,0.025 -0.007,0.039 0.0947,-3.5467 -2.64134,-7.152 -6.60934,-5.3267 -6.13466,2.8213 -3.99866,10.7827 -3.036,15.808 0.23067,1.2013 2.13067,1.0187 1.90667,-0.2027 -0.35067,-1.9066 -0.89733,-3.872 -1.01733,-5.812 -0.37067,-2.2266 0.0333,-4.3853 1.21333,-6.476 4.69867,-0.3973 6.48133,0.6854 5.35067,3.2494 -0.19067,0.6786 0.51866,1.112 1.07066,1.1253 1.008,0.024 1.79067,-0.4387 2.41734,-1.1227 0.19333,-0.081 0.36666,-0.228 0.47466,-0.484 0.0307,-0.073 0.044,-0.1453 0.072,-0.2186"
         style="fill:#000000;fill-opacity:1;fill-rule:nonzero;stroke:none;stroke-width:0.133333" />
      <path
         id="path234"
         d="m 341.24799,1251.5507 c 0,0 -29.004,23.864 -46.62666,16.9186 -17.62267,-6.9453 -11.76267,-15.4373 -7.556,-13.5386 4.20533,1.8986 23.33333,15.6 54.18266,-3.38"
         style="fill:#000000;fill-opacity:1;fill-rule:nonzero;stroke:none;stroke-width:0.133333" />
      <path
         id="path235"
         d="m 1154.4173,1246.5453 c -3.2013,-1.232 -6.2627,-2.6426 -9.2053,-4.2173 5.8266,1.4867 11.652,2.4427 17.4333,2.6427 11.784,2.228 23.8547,1.7413 36.6173,-0.06 2.7947,-0.3934 5.5667,-0.924 8.252,-1.668 -4.1933,5.8893 -17.8186,8.3413 -23.7253,8.6293 -8.6587,0.42 -17.2267,-1.276 -25.4373,-3.9253 -1.0187,-0.328 -2.016,-0.684 -3.004,-1.0494 -0.2774,-0.2226 -0.5987,-0.3213 -0.9307,-0.352 z m 46.808,-5.944 c -4.1413,0.7414 -8.3853,1.0547 -12.62,1.292 3.9773,-1.5493 7.852,-3.4973 11.664,-5.2346 8.372,-3.8147 16.9467,-7.7254 22.66,-14.9534 2.72,11.7454 -13.1613,17.3654 -21.704,18.896 z m 11.9747,-25.2026 c -6.1187,12.0666 -20.152,19.64 -32.5747,23.788 -1.9587,0.6533 -3.9933,1.1546 -6.0773,1.5386 -0.264,0 -0.5214,0.025 -0.788,0.013 -0.4507,-0.02 -0.808,0.1133 -1.1187,0.3026 -2.2107,0.3187 -4.4853,0.4534 -6.784,0.5014 -4.9093,-0.744 -9.652,-2.008 -14.4827,-3.8254 2.4307,-0.116 4.876,-0.332 7.3267,-0.6506 9.5253,-0.7587 18.6693,-2.996 25.8893,-6.2254 4.144,-1.8533 7.572,-4.168 10.332,-6.8306 10.5427,-7.7134 18.224,-18.812 18.7427,-32.808 0.044,-1.184 -0.027,-2.448 -0.196,-3.7654 3.4867,9.1347 4.1507,19.2427 -0.2693,27.9614"
         style="fill:#000000;fill-opacity:1;fill-rule:nonzero;stroke:none;stroke-width:0.133333" />
      <path
         id="path236"
         d="m 1120.2413,1286.148 c 2.02,5.444 5.8387,10.4333 9.6053,14.7853 2.2907,2.6454 5.7734,7.9 9.4947,8.608 0.5667,0.1067 1.1293,-0.5106 1.008,-1.0613 -0.944,-4.296 -2.0427,-8.376 -2.6773,-12.7613 -0.8614,-5.948 1.2666,-9.6414 4.12,-14.6667 0.8706,-1.532 1.3586,-3.316 3.0653,-3.868 2.1653,-0.7027 2.94,1.1147 4.7667,2.4293 2.9146,2.0987 6.2373,3.38 9.584,4.6187 8.3826,3.1013 16.4626,2.4253 25.1506,1.0093 4.3894,-0.7146 8.504,-1.7573 12.556,-3.6026 2.4787,-1.128 5.552,-2.2747 6.8227,-4.8134 0.3147,-0.628 -0.3693,-1.3546 -1.0067,-1.2373 -7.308,1.3413 -13.4693,0.7467 -20.4453,-1.872 -6.2747,-2.3547 -12.416,-6.1053 -18.1453,-9.592 -5.4694,-3.3267 -10.0254,-7.668 -15.2254,-11.344 -5.456,-3.856 -9.7293,-9.4453 -13.6226,-14.848 -7.44,-10.3253 -14.8894,-21.1867 -25.0334,-29.0747 -4.5813,-3.5626 -9.5373,-6.908 -15.0053,-8.936 -2.6067,-0.9666 -6.656,-3.2706 -9.712,-2.9053 -0.1653,-0.2733 -0.4613,-0.452 -0.876,-0.36 -0.296,0.065 -0.5907,0.132 -0.8853,0.1973 -0.6507,0.144 -1.0667,0.9467 -0.568,1.5014 3.2773,3.6413 8.1506,4.6906 12.2493,7.18 5.9773,3.632 11.036,9.1773 15.272,14.7626 4.2613,5.62 7.2907,13.9027 8.224,20.8334 0.568,4.228 0.4467,8.1546 -1.5413,12.008 -2.1147,4.0986 -4.6307,5.632 -9.0174,6.724 -0.7346,0.184 -0.9586,0.888 -0.568,1.5026 2.5414,4.0014 9.2267,6.188 13.84,6.0827 2.5854,-0.059 4.6294,-1.0067 6.7947,-2.3547 1.7467,-1.0866 2.8333,-2.716 4.176,-4.0586 -0.236,5.5533 -9.548,8.3893 -12.0787,12.3866 -2.416,3.8174 -1.8186,8.692 -0.3213,12.7267"
         style="fill:#000000;fill-opacity:1;fill-rule:nonzero;stroke:none;stroke-width:0.133333" />
      <path
         id="path237"
         d="m 992.46664,1184.4 c -2.12,2.8427 -4.708,5.1653 -7.492,7.26 2.29467,-2.4827 4.216,-5.3067 5.70134,-8.6653 6.572,-14.8667 9.37332,-34.3934 -4.14,-46.2827 -2.2,-1.936 -5.28934,-3.368 -8.57467,-4.172 4.62533,-0.164 9.26933,0.9867 12.97467,3.7867 7.568,5.7213 9.72262,15.0333 9.78132,24.02 0.06,9.1973 -2.76266,16.692 -8.25066,24.0533 z m -38.176,21.6013 c 6.20267,1.2267 13.33334,-2.2826 18.94534,-5.5453 0.29466,0.38 0.86,0.6 1.376,0.2707 9.10533,-5.8134 17.07333,-10.8907 22.69866,-20.3654 4.85596,-8.1773 6.06396,-16.756 4.94136,-26.196 -0.9934,-8.3653 -5.02536,-16.7026 -12.66269,-20.9213 -5.37867,-2.9693 -12.19867,-3.2067 -18.13333,-1.428 -1.732,0.048 -3.39467,0.2973 -4.88134,0.78 -5.64666,1.828 -10.9,7.8933 -10.83866,14.0907 0.048,4.6986 3.88,8.736 8.584,6.7906 2.80133,-1.1586 3.61866,-3.6333 1.772,-4.8933 2.76133,-0.4533 7.572,1.92 9.296,2.8307 3.61466,1.9093 5.73866,4.4973 7.21733,8.3 2.44933,6.3013 3.116,14.612 0.75067,21.0053 -2.56134,6.9267 -8.796,11.9573 -15.59467,14.2227 -4.604,1.5333 -11.45733,4.2213 -17.05067,3.928 0.81334,-3.3294 -3.616,-5.772 -5.97333,-2.988 -3.56267,4.2093 6.54933,9.5253 9.55333,10.1186"
         style="fill:#000000;fill-opacity:1;fill-rule:nonzero;stroke:none;stroke-width:0.133333" />
      <path
         id="path238"
         d="m 1011.7,1187.0373 c -3.3547,0.708 -6.5747,1.5147 -9.6907,2.3934 1.7987,-0.7614 3.5467,-1.5067 5.26,-2.6174 3.284,-2.1253 6.516,-4.244 10.4147,-5.0493 6.1613,-1.2707 13.1786,-0.688 19.4386,-0.28 12.5867,0.82 24.5854,3.88 35.6347,10.0387 11.7267,6.536 19.796,15.56 25.8307,27.5573 3.1906,6.3467 5.508,13.2213 7.0293,20.1533 0.3507,1.596 1.9907,8.3654 1.708,12.6067 -0.164,-2.3653 -0.476,-4.704 -0.8333,-6.9187 -3.4934,-21.644 -23.104,-38.9066 -24.62,-39.5093 -15.3774,-14.0187 -38.588,-25.032 -70.172,-18.3747 z m -71.11469,48.8214 c 54.18533,-59.4027 99.45069,-47.1574 127.54799,-13.5467 26.4267,31.6107 11.6933,43.832 4.8827,48.9333 -6.8107,5.1 -15.0854,0.2294 -11.26,-2.5106 3.8253,-2.74 1.5066,-6.756 1.5066,-6.756 -1.6146,-11.4227 -20.2813,-14.6387 -24.0666,2.7666 -3.4,15.628 16.7626,29.1774 38.8466,24.4187 0.164,0.108 0.3747,0.1547 0.636,0.077 1.084,-0.32 2.1547,-0.696 3.2187,-1.096 1.24,-0.3866 2.48,-0.816 3.72,-1.3253 2.74,-1.1253 5.0707,-2.6653 7.0787,-4.4933 6.3453,-4.644 11.388,-10.9947 13.6706,-18.7467 0.6734,-2.2907 0.98,-4.7293 1.0547,-7.2053 2.0667,-1.7427 1.472,-5.4747 1.3173,-7.932 -0.48,-7.6134 -2.424,-15.028 -5.0333,-22.1787 -4.9227,-13.4853 -13.2947,-25.9227 -25.5267,-33.676 -11.5613,-7.3293 -24.2973,-11.464 -37.908,-12.7107 -6.876,-0.6306 -14.3573,-1.0973 -21.2453,-0.2 -3.3347,0.4347 -6.4013,1.644 -9.284,3.348 -3.6187,2.14 -6.9653,3.9854 -10.77466,5.712 -0.76266,0.3454 -0.604,1.2667 -0.0707,1.62 -48.26267,14.7934 -67.49067,48.7534 -82.09334,56.7467 -15.832,8.6693 -15.65466,-16.7267 -15.65466,-16.7267 -20.76934,-2.2666 -14.748,64.8854 39.43733,5.4814"
         style="fill:#000000;fill-opacity:1;fill-rule:nonzero;stroke:none;stroke-width:0.133333" />
      <path
         id="path239"
         d="m 976.00131,1194.844 c 0.812,0.588 1.788,0.7907 2.84133,0.7493 0.108,-0.097 0.23867,-0.1786 0.42,-0.212 0.54667,-0.097 1.09067,-0.1253 1.63734,-0.136 3.29733,-0.9373 6.89733,-3.472 8.91866,-4.7986 3.908,-2.564 8.148,-5.348 10.50396,-9.4707 2.3507,-4.1147 4.216,-9.168 4.82,-13.9013 0.5094,-3.98 -0.908,-9.8 -4.1813,-12.5294 -0.012,-0.01 -0.013,-0.021 -0.024,-0.032 0.144,-0.856 0.1667,-1.7106 0.032,-2.5453 0.011,0 0.019,0 0.029,0 5.62,1.736 10.136,4.964 11.8707,10.8733 1.5707,5.348 0.2907,10.9293 -2.744,15.488 -3.5213,5.2907 -7.7253,11.252 -13.37866,14.44 -2.916,1.644 -6.13466,2.7693 -9.37866,3.568 -1.82934,0.4507 -3.51867,0.4733 -5.22267,0.5373 -2.52133,0.936 -5.16133,1.256 -7.29733,-0.4106 -1.008,-0.7854 0.11066,-2.38 1.15333,-1.6227"
         style="fill:#000000;fill-opacity:1;fill-rule:nonzero;stroke:none;stroke-width:0.133333" />
      <path
         id="path240"
         d="m 973.82931,1170.5533 c 0.108,0.256 0.28133,0.4027 0.47467,0.484 0.62666,0.684 1.40933,1.1467 2.41733,1.1227 0.552,-0.013 1.26133,-0.4467 1.07067,-1.1253 -1.13067,-2.564 0.652,-3.6467 5.35066,-3.2494 1.18,2.0907 1.584,4.2494 1.21334,6.476 -0.12,1.94 -0.66667,3.9054 -1.01734,5.812 -0.224,1.2214 1.676,1.404 1.90667,0.2027 0.96267,-5.0253 3.09867,-12.9867 -3.036,-15.808 -3.968,-1.8253 -6.704,1.78 -6.60933,5.3267 -0.004,-0.013 -10e-4,-0.025 -0.007,-0.039 -0.108,-0.2733 -0.188,-0.572 -0.25333,-0.88 -0.56534,-3.092 2.60133,-5.9787 5.308,-7.5947 0.968,-0.444 1.93066,-0.9106 2.928,-1.276 0.49066,-0.18 1.36266,-0.2586 1.74933,-0.7026 2.132,-2.4494 -2.42933,-4.7507 -4.47067,-3.9467 -0.38133,0.1507 -0.536,0.4267 -0.556,0.716 -4.46266,1.5853 -7.86666,3.9293 -7.896,9.1213 -0.009,1.4694 0.392,3.616 1.35467,5.1414 0.028,0.073 0.0413,0.1453 0.072,0.2186"
         style="fill:#000000;fill-opacity:1;fill-rule:nonzero;stroke:none;stroke-width:0.133333" />
      <path
         id="path241"
         d="m 1154.752,1251.5507 c 0,0 29.004,23.864 46.6266,16.9186 17.6227,-6.9453 11.7627,-15.4373 7.556,-13.5386 -4.2053,1.8986 -23.3333,15.6 -54.1826,-3.38"
         style="fill:#000000;fill-opacity:1;fill-rule:nonzero;stroke:none;stroke-width:0.133333" />
    </g>
  </g>
</svg>
