<?xml version="1.0" encoding="UTF-8" standalone="no"?>
<!-- Created with Inkscape (http://www.inkscape.org/) -->

<svg
   width="110.35104mm"
   height="8.3850613mm"
   viewBox="0 0 110.35104 8.3850613"
   version="1.1"
   id="svg1"
   xmlns="http://www.w3.org/2000/svg"
   xmlns:svg="http://www.w3.org/2000/svg">
  <defs
     id="defs1" />
  <g
     id="layer1">
    <g
       id="g316"
       transform="matrix(0.0913411,0,0,0.0913411,-13.14755,-29.37542)">
      <path
         id="path121"
         d="m 224.41599,381.94003 c -1.08266,0 -1.972,-0.864 -1.99866,-1.952 -0.0267,-1.104 0.848,-2.02134 1.952,-2.048 82.2,-1.97334 165.75066,-1.36534 246.54932,-0.776 55.532,0.40533 112.95334,0.82666 169.40267,0.4 h 0.016 c 1.09733,0 1.99066,0.88533 1.99866,1.984 0.009,1.10533 -0.88,2.008 -1.984,2.016 -56.47866,0.42533 -113.91599,0.005 -169.46266,-0.4 -80.768,-0.58934 -164.28666,-1.2 -246.42399,0.776 h -0.0493 m 1047.16647,0 c 1.0826,0 1.972,-0.864 1.9986,-1.952 0.027,-1.104 -0.848,-2.02134 -1.952,-2.048 -82.2,-1.97334 -165.7506,-1.36534 -246.5493,-0.776 -55.532,0.40533 -112.95334,0.82666 -169.40267,0.4 h -0.016 c -1.09733,0 -1.99066,0.88533 -1.99866,1.984 -0.009,1.10533 0.88,2.008 1.984,2.016 56.47866,0.42533 113.91599,0.005 169.46263,-0.4 80.768,-0.58934 164.2867,-1.2 246.424,0.776 h 0.049"
         style="fill:#000000;fill-opacity:1;fill-rule:nonzero;stroke:none;stroke-width:0.133333" />
      <path
         id="path122"
         d="m 173.412,375.06269 c 1.59866,-1.53333 3.40133,-2.73466 5.33466,-3.71466 1.728,-0.24534 3.36534,-0.728 5.22,-1.48 1.74267,-0.70667 3.804,-0.0893 5.66,-0.34667 0.45867,0.116 0.728,-0.52533 1.184,-0.37467 0.54267,0.17867 1.06934,0.25734 1.60934,0.336 -0.90534,-0.0173 -1.83467,-0.008 -2.79334,0.0387 -9.024,0.436 -14.528,5.06267 -17.69866,9.948 -0.368,0.27067 -4.45467,6.33467 -3.86667,12.44267 0.06,0.62533 0.14133,1.28 0.26533,1.93333 -0.37733,-1.12933 -0.41333,-3.07867 -0.43066,-3.536 -0.08,-1.984 0.06,-4.01067 0.47466,-5.95467 0.784,-3.676 2.32934,-6.692 5.04134,-9.292 z m 17.476,-14.94266 c -0.17867,-0.12667 -0.34534,-0.224 -0.5,-0.30533 -0.24,-1.92934 0,-3.888 1.26666,-5.496 0.80534,-1.02134 1.98134,-1.66134 3.24534,-1.94534 -0.832,0.45067 -1.568,1.05734 -2.02667,1.73734 -1.436,2.132 -1.57333,4.49866 -0.99467,6.78 -0.356,-0.31334 -0.688,-0.58267 -0.99066,-0.77067 z m -25.18134,48.32133 c 0.712,-1.44533 1.392,-3.06667 1.55334,-4.684 0.12,-1.19867 -0.064,-2.56 -0.988,-3.42267 -0.96934,-0.904 -3.692,-1.01066 -4.14934,-2.49866 0.45867,0.26933 0.86934,0.63333 1.41867,0.80266 0.68133,0.212 1.30267,0.324 2.00667,0.15734 1.256,-0.29867 2.912,-1.36534 3.316,-2.628 0.0627,-0.19467 -0.048,-0.36934 -0.26,-0.36667 -1.26534,0.0147 -2.05467,-0.22133 -2.91734,-1.18267 -0.812,-0.90133 -1.124,-1.956 -1.26933,-3.14133 -0.23867,-1.94267 -0.005,-4.4 0.75067,-6.224 0.75066,-1.81333 1.728,-3.67333 3.08933,-5.08 0.504,-0.52 1.092,-0.948 1.632,-1.41867 -1.34933,2.41334 -2.13467,5.14 -2.39467,7.908 -0.2,2.12134 -0.20133,4.26667 0.208,6.36134 0.132,0.67733 0.236,1.72933 0.91867,2.05466 0.196,0.66534 0.452,1.304 0.796,1.87734 1.168,1.93733 2.98267,3.29866 5.03067,4.10666 0.67333,0.35334 1.41333,0.604 2.23466,0.71467 0.372,0.0507 0.73867,0.0787 1.10134,0.096 0.31733,0.0333 0.63333,0.0587 0.94933,0.068 0.076,0.003 0.13067,-0.024 0.16667,-0.0653 6.31733,-0.27734 10.816,-5.37467 8.788,-9.36534 -2.25734,-4.444 -7.084,-2.25066 -6.712,0.956 0,0 -0.344,1.252 0.88666,1.72267 1.23067,0.47067 -0.66533,2.376 -2.87066,1.47867 -2.20534,-0.89867 -7.06134,-3.164 -2.14667,-13.596 5.22667,-11.092 16.616,-17.616 35.49733,-5.37067 12.252,7.94533 15.232,2.9 14.324,-1.052 0.0147,-0.204 -0.052,-0.40933 -0.17067,-0.60933 -0.35333,-1.03067 -0.97066,-1.91867 -1.74666,-2.39867 -1.62267,-3.15467 -1.50134,-7.576 -1.00534,-10.784 0.37334,-2.41866 1.88,-4.36666 3.57467,-6.04133 2.03067,-2.008 6.524,-1.89333 5.88533,1.75867 -0.19333,1.108 -0.83333,2.052 -1.65866,2.77333 -0.728,-1.232 -2.904,-0.59467 -2.32534,0.84933 0.336,0.84133 0.512,1.15867 1.14,1.81867 0.388,0.40666 1.056,0.484 1.53467,0.19733 3.012,-1.80533 4.86267,-5.576 3.468,-8.97466 -1.51467,-3.692 -6.10667,-2.812 -8.712,-1.12 -6.13733,3.98533 -7.88933,15.35599 -3.68667,21.59199 0.072,1.86934 -0.41733,4.092 -3.38533,3.34934 -3.64,-0.90934 -9.29333,-6.16134 -18.72667,-8.48 0.064,-0.0333 0.11334,-0.088 0.14,-0.152 1.752,0.48666 3.93067,0.93066 5.524,0.16 0.77067,-0.37467 3.132,-2.53067 1.86934,-3.41734 -0.836,-0.58666 -1.86134,0.388 -1.40534,1.232 -1.49333,0.476 -3.54,0.23334 -4.896,0.14534 -0.98,-0.0653 -1.96933,-0.324 -2.86533,-0.76667 -0.58933,-0.38533 -1.168,-0.81867 -1.73333,-1.29333 -0.21733,-0.22267 -0.45067,-0.428 -0.632,-0.68667 -0.0267,-0.0387 -0.0427,-0.0893 -0.0693,-0.12933 -0.004,-0.0173 0.008,-0.0293 0,-0.0467 -0.22934,-0.492 -0.50267,-0.98533 -0.67334,-1.50133 -0.25733,-0.57734 -0.29466,-1.19067 -0.12266,-1.84 1.244,-0.44 1.80666,-0.27333 1.68266,0.5 -0.004,0.19733 0.22134,0.26533 0.37067,0.22933 0.276,-0.0653 0.456,-0.24533 0.57733,-0.47466 0.0453,-0.036 0.0827,-0.088 0.0933,-0.16534 0.004,-0.0213 0.003,-0.0427 0.005,-0.064 0.152,-0.48133 0.108,-1.09066 0.003,-1.488 -0.376,-1.404 -1.464,-1.79733 -2.78534,-1.91066 -0.008,-0.0253 -0.0493,-0.0293 -0.0667,-0.0507 0.22133,-0.57733 0.552,-1.08667 1.06666,-1.55867 0.40267,-0.368 1.53734,-1.352 2.316,-1.424 -0.41066,0.47067 -0.0133,1.084 0.82667,1.19867 1.412,0.19333 2.164,-1.172 1.84266,-2.44667 -0.42133,-1.68266 -2.27466,-2.95333 -3.93199,-3.048 -0.43734,-0.0253 -0.90534,0.0253 -1.37734,0.13467 -1.73333,-0.0613 -3.564,0.48667 -4.80933,1.672 -1.63733,1.55867 -2.15467,3.84933 -1.97067,6.03333 -0.0547,0.0373 -0.10266,0.0787 -0.156,0.116 -0.0813,-0.0187 -0.13333,-0.0267 -0.13333,-0.0267 0,0 -0.10267,0.0867 -0.224,0.292 -0.99867,0.81066 -1.68,1.84933 -1.72133,3.25066 -0.008,0.26267 0.036,0.516 0.072,0.77067 -4.332,-0.0293 -7.82667,-0.75467 -12.03467,-3.468 -1.70533,-1.1 -6.42,-6.712 -1.98133,-6.45467 1.63733,0.096 1.61333,-2.41333 0,-2.53066 -7.48,-0.54667 -12.24934,7.16 -8.29067,13.93999 2.144,3.67067 5.51867,5.968 9.868,6.20667 0.76,0.0413 1.46667,0.032 2.15333,-0.008 -1.96666,1.14 -3.776,2.52133 -5.364,4.22533 -0.49866,0.536 -0.90266,1.13734 -1.31466,1.732 -1.01867,0.404 -4.16934,2.03867 -6.21867,4.65467 -2.216,2.832 -3.43467,6.324 -4.71733,9.64667 -0.67067,1.73866 -1.432,3.556 -2.636,4.98666 -1.148,1.364 -2.07467,2.86134 -3.31867,4.15067 -1.30533,1.34933 -2.70133,2.8 -4.23333,3.88267 -1.704,1.204 -3.32934,1.80133 -5.404,1.956 -0.18134,0.0133 -0.31467,0.25866 -0.18534,0.40666 0.524,0.59734 1.43734,0.68934 2.18934,0.82 1.228,0.212 2.416,0.20267 3.65466,0.0853 2.45334,-0.232 4.688,-0.62134 6.73867,-2.056 0.81867,-0.572 1.62667,-1.15467 2.268,-1.92934 0.40133,-0.48533 0.48267,-1.032 1.11867,-0.996 0.50133,0.0293 0.76,0.47734 1.104,0.83067 1.128,1.15867 1.96666,2.00667 2.15466,3.67867 0.13867,1.232 0.13067,2.416 0.18,3.64533 0.005,0.15867 0.20134,0.28533 0.348,0.216 0.95734,-0.45467 1.528,-2.12533 1.96,-3.004 M 1322.5864,375.06269 c -1.5986,-1.53333 -3.4013,-2.73466 -5.3346,-3.71466 -1.728,-0.24534 -3.3654,-0.728 -5.22,-1.48 -1.7427,-0.70667 -3.804,-0.0893 -5.66,-0.34667 -0.4587,0.116 -0.728,-0.52533 -1.184,-0.37467 -0.5427,0.17867 -1.0694,0.25734 -1.6094,0.336 0.9054,-0.0173 1.8347,-0.008 2.7934,0.0387 9.024,0.436 14.528,5.06267 17.6986,9.948 0.368,0.27067 4.4547,6.33467 3.8667,12.44267 -0.06,0.62533 -0.1413,1.28 -0.2653,1.93333 0.3773,-1.12933 0.4133,-3.07867 0.4306,-3.536 0.08,-1.984 -0.06,-4.01067 -0.4746,-5.95467 -0.784,-3.676 -2.3294,-6.692 -5.0414,-9.292 z m -17.476,-14.94266 c 0.1787,-0.12667 0.3454,-0.224 0.5,-0.30533 0.24,-1.92934 0,-3.888 -1.2666,-5.496 -0.8054,-1.02134 -1.9814,-1.66134 -3.2454,-1.94534 0.832,0.45067 1.568,1.05734 2.0267,1.73734 1.436,2.132 1.5733,4.49866 0.9947,6.78 0.356,-0.31334 0.688,-0.58267 0.9906,-0.77067 z m 25.1814,48.32133 c -0.712,-1.44533 -1.392,-3.06667 -1.5534,-4.684 -0.12,-1.19867 0.064,-2.56 0.988,-3.42267 0.9694,-0.904 3.692,-1.01066 4.1494,-2.49866 -0.4587,0.26933 -0.8694,0.63333 -1.4187,0.80266 -0.6813,0.212 -1.3027,0.324 -2.0067,0.15734 -1.256,-0.29867 -2.912,-1.36534 -3.316,-2.628 -0.063,-0.19467 0.048,-0.36934 0.26,-0.36667 1.2654,0.0147 2.0547,-0.22133 2.9174,-1.18267 0.812,-0.90133 1.124,-1.956 1.2693,-3.14133 0.2387,-1.94267 0,-4.4 -0.7507,-6.224 -0.7506,-1.81333 -1.728,-3.67333 -3.0893,-5.08 -0.504,-0.52 -1.092,-0.948 -1.632,-1.41867 1.3493,2.41334 2.1347,5.14 2.3947,7.908 0.2,2.12134 0.2013,4.26667 -0.208,6.36134 -0.132,0.67733 -0.236,1.72933 -0.9187,2.05466 -0.196,0.66534 -0.452,1.304 -0.796,1.87734 -1.168,1.93733 -2.9827,3.29866 -5.0307,4.10666 -0.6733,0.35334 -1.4133,0.604 -2.2346,0.71467 -0.372,0.0507 -0.7387,0.0787 -1.1014,0.096 -0.3173,0.0333 -0.6333,0.0587 -0.9493,0.068 -0.076,0.003 -0.1307,-0.024 -0.1667,-0.0653 -6.3173,-0.27734 -10.816,-5.37467 -8.788,-9.36534 2.2574,-4.444 7.084,-2.25066 6.712,0.956 0,0 0.344,1.252 -0.8866,1.72267 -1.2307,0.47067 0.6653,2.376 2.8706,1.47867 2.2054,-0.89867 7.0614,-3.164 2.1467,-13.596 -5.2267,-11.092 -16.616,-17.616 -35.4973,-5.37067 -12.252,7.94533 -15.232,2.9 -14.324,-1.052 -0.015,-0.204 0.052,-0.40933 0.1707,-0.60933 0.3533,-1.03067 0.9706,-1.91867 1.7466,-2.39867 1.6227,-3.15467 1.5014,-7.576 1.0054,-10.784 -0.3734,-2.41866 -1.88,-4.36666 -3.5747,-6.04133 -2.0307,-2.008 -6.524,-1.89333 -5.8853,1.75867 0.1933,1.108 0.8333,2.052 1.6586,2.77333 0.728,-1.232 2.904,-0.59467 2.3254,0.84933 -0.336,0.84133 -0.512,1.15867 -1.14,1.81867 -0.388,0.40666 -1.056,0.484 -1.5347,0.19733 -3.012,-1.80533 -4.8627,-5.576 -3.468,-8.97466 1.5147,-3.692 6.1067,-2.812 8.712,-1.12 6.1373,3.98533 7.8893,15.35599 3.6867,21.59199 -0.072,1.86934 0.4173,4.092 3.3853,3.34934 3.64,-0.90934 9.2933,-6.16134 18.7267,-8.48 -0.064,-0.0333 -0.1134,-0.088 -0.14,-0.152 -1.752,0.48666 -3.9307,0.93066 -5.524,0.16 -0.7707,-0.37467 -3.132,-2.53067 -1.8694,-3.41734 0.836,-0.58666 1.8614,0.388 1.4054,1.232 1.4933,0.476 3.54,0.23334 4.896,0.14534 0.98,-0.0653 1.9693,-0.324 2.8653,-0.76667 0.5893,-0.38533 1.168,-0.81867 1.7333,-1.29333 0.2173,-0.22267 0.4507,-0.428 0.632,-0.68667 0.027,-0.0387 0.043,-0.0893 0.069,-0.12933 0,-0.0173 -0.01,-0.0293 0,-0.0467 0.2294,-0.492 0.5027,-0.98533 0.6734,-1.50133 0.2573,-0.57734 0.2946,-1.19067 0.1226,-1.84 -1.244,-0.44 -1.8066,-0.27333 -1.6826,0.5 0,0.19733 -0.2214,0.26533 -0.3707,0.22933 -0.276,-0.0653 -0.456,-0.24533 -0.5773,-0.47466 -0.045,-0.036 -0.083,-0.088 -0.093,-0.16534 -0,-0.0213 -0,-0.0427 -0,-0.064 -0.152,-0.48133 -0.108,-1.09066 -0,-1.488 0.376,-1.404 1.464,-1.79733 2.7853,-1.91066 0.01,-0.0253 0.049,-0.0293 0.067,-0.0507 -0.2213,-0.57733 -0.552,-1.08667 -1.0667,-1.55867 -0.4026,-0.368 -1.5373,-1.352 -2.316,-1.424 0.4107,0.47067 0.013,1.084 -0.8266,1.19867 -1.412,0.19333 -2.164,-1.172 -1.8427,-2.44667 0.4213,-1.68266 2.2747,-2.95333 3.932,-3.048 0.4373,-0.0253 0.9053,0.0253 1.3773,0.13467 1.7334,-0.0613 3.564,0.48667 4.8094,1.672 1.6373,1.55867 2.1546,3.84933 1.9706,6.03333 0.055,0.0373 0.1027,0.0787 0.156,0.116 0.081,-0.0187 0.1334,-0.0267 0.1334,-0.0267 0,0 0.1026,0.0867 0.224,0.292 0.9986,0.81066 1.68,1.84933 1.7213,3.25066 0.01,0.26267 -0.036,0.516 -0.072,0.77067 4.332,-0.0293 7.8267,-0.75467 12.0347,-3.468 1.7053,-1.1 6.42,-6.712 1.9813,-6.45467 -1.6373,0.096 -1.6133,-2.41333 0,-2.53066 7.48,-0.54667 12.2493,7.16 8.2907,13.93999 -2.144,3.67067 -5.5187,5.968 -9.868,6.20667 -0.76,0.0413 -1.4667,0.032 -2.1534,-0.008 1.9667,1.14 3.776,2.52133 5.364,4.22533 0.4987,0.536 0.9027,1.13734 1.3147,1.732 1.0187,0.404 4.1693,2.03867 6.2187,4.65467 2.216,2.832 3.4346,6.324 4.7173,9.64667 0.6707,1.73866 1.432,3.556 2.636,4.98666 1.148,1.364 2.0747,2.86134 3.3187,4.15067 1.3053,1.34933 2.7013,2.8 4.2333,3.88267 1.704,1.204 3.3293,1.80133 5.404,1.956 0.1813,0.0133 0.3147,0.25866 0.1853,0.40666 -0.524,0.59734 -1.4373,0.68934 -2.1893,0.82 -1.228,0.212 -2.416,0.20267 -3.6547,0.0853 -2.4533,-0.232 -4.688,-0.62134 -6.7386,-2.056 -0.8187,-0.572 -1.6267,-1.15467 -2.268,-1.92934 -0.4014,-0.48533 -0.4827,-1.032 -1.1187,-0.996 -0.5013,0.0293 -0.76,0.47734 -1.104,0.83067 -1.128,1.15867 -1.9667,2.00667 -2.1547,3.67867 -0.1386,1.232 -0.1306,2.416 -0.18,3.64533 -0,0.15867 -0.2013,0.28533 -0.348,0.216 -0.9573,-0.45467 -1.528,-2.12533 -1.96,-3.004"
         style="fill:#000000;fill-opacity:1;fill-rule:nonzero;stroke:none;stroke-width:0.133333" />
      <g
         id="g1"
         transform="translate(28.915243)">
        <path
           id="path125"
           d="m 733.44198,343.52136 c -0.49733,-0.136 -4.01866,-2.544 -5.988,-4.652 -4.27866,-5.01333 -8.192,-17.24533 -8.39466,-17.268 -0.18534,-0.02 -4.06534,12.25867 -8.34134,17.268 -1.972,2.108 -5.48666,4.54267 -5.992,4.652 8.66267,-1.864 14.23734,15.644 14.41867,15.644 0.18,0 6.56267,-17.74666 14.29733,-15.644"
           style="fill:#000000;fill-opacity:1;fill-rule:nonzero;stroke:none;stroke-width:0.133333" />
        <path
           id="path126"
           d="m 642.95465,365.41736 c -0.36533,-0.0533 -0.732,-0.10933 -1.1,-0.17867 -2.968,-0.55733 -5.88667,-1.468 -8.48,-3.04399 -1.76933,-1.076 -5.55067,-4.10667 -5.856,-6.62 0.70133,0.67866 1.46533,1.304 2.26,1.89333 3.624,2.68667 7.256,4.85333 11.252,6.13733 1.812,0.90533 3.764,1.584 5.804,2.1 -1.168,-0.007 -2.34533,-0.084 -3.536,-0.24 -0.10667,-0.0467 -0.22267,-0.0707 -0.344,-0.048 z M 626.37598,346.3747 c 0.55067,3.17733 2.53467,5.81333 4.472,8.38666 0.88134,1.17067 1.748,2.41734 2.712,3.55867 -1.26266,-0.78 -2.516,-1.58667 -3.66533,-2.50667 -2.372,-1.89733 -6.31733,-6.28133 -3.51867,-9.43866 z m 8.63734,-8.96 c -0.272,0.37733 -0.50534,0.75466 -0.68934,1.12533 -2.18,4.392 -1.672,9.08933 0.28267,13.224 0.40267,1.28 1.07067,2.56533 2.036,3.828 1.68133,2.2 4.12,4.416 6.92267,6.24133 0.7,0.50667 1.416,0.98267 2.14533,1.424 -1.79067,-0.248 -3.46,-0.652 -5.09467,-1.24266 -0.69866,-0.39867 -1.376,-0.82134 -2.00266,-1.288 -0.064,-0.11067 -0.152,-0.212 -0.29334,-0.28 -0.084,-0.0413 -0.15866,-0.0933 -0.24133,-0.136 -0.576,-0.46667 -1.11867,-0.96134 -1.612,-1.48934 -3.12667,-3.352 -6.17867,-8.02666 -6.044,-12.76 0.0973,-3.42133 1.992,-6.42 4.59067,-8.64666"
           style="fill:#000000;fill-opacity:1;fill-rule:nonzero;stroke:none;stroke-width:0.133333" />
        <path
           id="path127"
           d="m 649.22132,379.38936 c -0.11067,-1.652 -2.50134,-4.08133 -1.64534,-5.82933 0.188,0.63866 0.25067,1.32 0.60534,1.94666 0.44133,0.77734 0.912,1.41067 1.69733,1.86 1.40133,0.804 3.82267,1.248 5.27333,0.44134 0.22267,-0.12267 0.272,-0.37734 0.076,-0.556 -1.16666,-1.06934 -1.684,-1.96134 -1.64933,-3.576 0.032,-1.51734 0.65067,-2.74534 1.532,-3.95067 1.44533,-1.976 3.76133,-4.01733 6.012,-5.03333 2.236,-1.01067 4.71867,-1.87067 7.164,-1.98934 1.67733,-0.08 3.35067,0.41067 4.968,-0.16133 0.24533,-0.0867 0.252,-0.40266 0.076,-0.55733 -0.08,-0.0693 -0.16,-0.13867 -0.23867,-0.208 -0.112,-0.0973 -0.23333,-0.092 -0.33066,-0.036 -0.87867,-0.62267 -2.50934,-0.59067 -3.472,-0.72933 -2.02134,-0.28934 -4.10534,-0.0893 -6.10934,0.24133 -4.43866,0.73067 -8.54533,2.82666 -12.55866,4.76 -2.1,1.01066 -4.34934,2.016 -6.672,2.29066 -2.21334,0.26134 -4.34,0.83467 -6.57867,0.944 -2.34533,0.11467 -4.86,0.24267 -7.184,-0.0813 -2.584,-0.36133 -4.57867,-1.208 -6.60267,-2.84133 -0.176,-0.14267 -0.508,-0.0333 -0.516,0.212 -0.0333,0.99333 0.72,1.86 1.29467,2.62133 0.93733,1.244 2.02933,2.25333 3.26,3.20667 2.436,1.88666 4.808,3.44533 7.904,3.892 1.23733,0.17866 2.47333,0.34 3.72,0.18133 0.78133,-0.0987 1.324,-0.528 1.87333,0.0493 0.432,0.45467 0.284,1.08534 0.296,1.70267 0.0373,2.02133 0.0747,3.51333 -1.184,5.19867 -0.928,1.24266 -1.948,2.31466 -2.956,3.47866 -0.12933,0.14934 -0.06,0.432 0.132,0.49467 1.26267,0.404 3.21334,-0.63067 4.35867,-1.06133 1.88667,-0.70934 3.89467,-1.60534 5.42667,-2.94267 1.13466,-0.99067 2.13333,-2.39067 2.028,-3.968"
           style="fill:#000000;fill-opacity:1;fill-rule:nonzero;stroke:none;stroke-width:0.133333" />
        <path
           id="path128"
           d="m 704.98132,364.63736 c 1.52,-2.75466 3.73866,-5.25866 7.02266,-5.75466 1.608,-0.24134 3.228,0.18 4.624,1.004 -1.14533,-0.30134 -2.33466,-0.37734 -3.33466,-0.14934 -6.144,1.39867 -8.54534,7.87333 -9.008,13.544 -0.10534,1.28133 0.0133,2.47067 0.30533,3.61733 -0.50667,-1.10933 -0.91467,-2.256 -1.092,-3.484 -0.45733,-3.18133 -0.0733,-5.95866 1.48267,-8.77733 z m 11.28,20.28533 c -0.26,-1.25066 -2.03067,-1.23866 -2.33734,-0.0787 -1.76933,-0.84534 -3.428,-2.81734 -4.588,-4.05867 -1.712,-1.832 -2.78933,-4.42267 -2.42,-6.98 0.34134,-2.36267 1.93467,-4.80667 3.74134,-6.336 1.09066,-0.92267 2.176,-1.364 3.608,-1.34667 0.68133,0.008 2.55866,0.0813 3.332,0.68267 -0.77867,0.0787 -0.94134,0.97733 -0.27334,1.80133 1.12267,1.384 2.976,0.78267 3.776,-0.65466 1.05467,-1.896 0.452,-4.63867 -0.97866,-6.14533 -0.37734,-0.396 -0.84667,-0.752 -1.372,-1.056 -1.528,-1.53867 -3.66534,-2.60534 -5.816,-2.59067 -3.05467,0.0213 -5.688,1.912 -7.392,4.31867 -1.92267,2.71599 -2.984,5.55733 -2.85734,8.88399 0.14667,3.85467 1.74934,6.748 3.57867,10.05734 0.104,0.188 0.31467,0.21466 0.468,0.14666 1.18133,1.94134 2.788,4.212 4.90133,4.872 1.02267,0.32 5.02134,0.37467 4.62934,-1.516"
           style="fill:#000000;fill-opacity:1;fill-rule:nonzero;stroke:none;stroke-width:0.133333" />
        <path
           id="path129"
           d="m 672.48798,364.93603 c -0.568,-0.068 -9.484,1.964 -14.176,8.03866 -0.48,0.62134 -0.968,1.288 -1.41333,1.98934 0.62267,-1.352 2.25867,-3.16134 2.632,-3.59334 1.62667,-1.87733 3.48933,-3.60533 5.53067,-5.024 3.86133,-2.68133 7.85066,-4.10933 12.55066,-4.15999 4.428,-0.048 8.62934,1.01599 12.63867,2.86799 1.99333,0.92 4.24933,1.91334 5.932,3.33467 1.06533,0.89867 1.70533,2.09067 2.36,3.29333 0.34133,0.628 0.75467,1.14934 1.18,1.684 -0.81067,-0.79066 -1.66667,-1.57733 -2.58,-2.35466 -8.60267,-7.32667 -17.58267,-7.81867 -24.65467,-6.076 z m 51.416,28.548 c 0,0 -4.18933,7.84133 -7.61066,2.52933 -3.156,-4.9 -3.39467,-9.22533 -15.768,-21.84133 0.224,-0.02 0.42666,-0.276 0.24933,-0.50934 -0.88267,-1.168 -1.604,-2.29466 -2.36,-3.55733 -0.60133,-1.00667 -1.34267,-1.89067 -2.296,-2.58267 -1.968,-1.42666 -4.348,-2.53333 -6.568,-3.488 -4.39467,-1.89199 -9.004,-2.74799 -13.784,-2.42666 -5.05867,0.34133 -9.712,2.768 -13.48,6.09333 -1.99733,1.76267 -3.83467,3.71867 -5.25467,5.98 -0.45866,0.73067 -1.264,1.77867 -0.92,2.66133 -0.39066,0.77334 -0.704,1.57467 -0.88,2.392 -0.59333,2.76534 -0.104,5.56134 1.072,8.05067 0.312,0.89733 0.772,1.76133 1.42667,2.56533 0.296,0.364 0.60533,0.70267 0.92267,1.02934 0.26,0.30133 0.52666,0.596 0.80666,0.87466 0.068,0.068 0.14,0.088 0.208,0.0827 5.99867,5.15467 14.464,4.356 16.03067,-1.01867 1.744,-5.98666 -4.53467,-8.11733 -6.94,-4.87333 0,0 -1.38533,0.848 -0.66667,2.33067 0.71867,1.48133 -2.64,1.59733 -3.88266,-1.11067 -1.24267,-2.70667 -3.732,-8.928 9.68,-14.23467 14.25866,-5.64266 30.22933,-1.84533 36.968,25.48267 6.74,27.32667 19.81333,-1.656 13.04666,-4.42933"
           style="fill:#000000;fill-opacity:1;fill-rule:nonzero;stroke:none;stroke-width:0.133333" />
        <path
           id="path130"
           d="m 706.81865,379.37869 c -0.348,0.0453 -0.68267,-0.056 -1,-0.244 -0.0173,-0.0493 -0.0427,-0.096 -0.0933,-0.136 -0.152,-0.12133 -0.31467,-0.22133 -0.48134,-0.31466 -0.85733,-0.84 -1.54133,-2.22134 -1.94133,-2.96667 -0.77333,-1.44267 -1.612,-3.00667 -1.648,-4.66933 -0.036,-1.65867 0.236,-3.524 0.84,-5.08134 0.50933,-1.30933 1.91733,-2.86266 3.38133,-3.15466 0.004,-10e-4 0.007,-0.005 0.012,-0.005 0.0987,-0.28799 0.23467,-0.55466 0.416,-0.78933 -0.004,0 -0.007,-0.003 -0.009,-0.004 -2.01867,-0.40533 -3.948,-0.16666 -5.46933,1.36133 -1.37734,1.38267 -1.916,3.31334 -1.744,5.22267 0.19866,2.216 0.496,4.752 1.70266,6.67733 0.62134,0.992 1.424,1.876 2.288,2.664 0.48667,0.444 1.00267,0.73334 1.516,1.03867 0.62,0.70933 1.37867,1.24933 2.31334,1.09333 0.44133,-0.0733 0.364,-0.75066 -0.0827,-0.692"
           style="fill:#000000;fill-opacity:1;fill-rule:nonzero;stroke:none;stroke-width:0.133333" />
        <path
           id="path131"
           d="m 711.60398,372.21469 c 0.552,-0.308 1.03334,-0.90133 1.276,-1.35466 0.85867,-1.60267 0.204,-2.892 -0.904,-4.12534 0.0427,-0.0933 0.0413,-0.204 -0.052,-0.31333 -0.49333,-0.588 -2.28133,-0.64267 -2.03466,0.46667 0.0453,0.20133 0.3,0.372 0.42133,0.508 0.24533,0.28 0.464,0.584 0.688,0.88266 0.56133,0.94934 1.05333,2.36667 0.36267,3.22267 -0.072,0.084 -0.14667,0.16267 -0.22534,0.228 -0.004,0.004 -0.005,0.008 -0.008,0.0107 0.62134,-1.07467 0.38267,-2.64134 -1.14266,-2.74267 -2.35867,-0.15733 -3.032,2.64933 -3.576,4.35467 -0.12934,0.408 0.48533,0.67066 0.62,0.25733 0.21066,-0.64533 0.372,-1.34133 0.65866,-1.95867 0.25867,-0.74666 0.74267,-1.34266 1.456,-1.78933 1.51067,0.664 1.87867,1.29467 1.10267,1.89467 -0.172,0.176 -0.0267,0.428 0.14133,0.524 0.30534,0.176 0.624,0.16533 0.93067,0.06 0.0733,0.007 0.15067,-0.009 0.22667,-0.0707 0.0227,-0.0173 0.0387,-0.0373 0.0587,-0.0547"
           style="fill:#000000;fill-opacity:1;fill-rule:nonzero;stroke:none;stroke-width:0.133333" />
        <path
           id="path132"
           d="m 642.35998,366.94803 c 0,0 -12.90933,2.49333 -17.16933,-2.588 -4.26,-5.08133 -1.03867,-6.71333 -0.0627,-5.42667 0.976,1.28667 4.57067,8.69733 17.232,8.01467"
           style="fill:#000000;fill-opacity:1;fill-rule:nonzero;stroke:none;stroke-width:0.133333" />
        <path
           id="path133"
           d="m 794.86931,365.46536 c -1.19066,0.156 -2.368,0.23333 -3.536,0.24 2.04,-0.516 3.992,-1.19467 5.804,-2.1 3.996,-1.284 7.628,-3.45066 11.252,-6.13733 0.79467,-0.58933 1.55867,-1.21467 2.26,-1.89333 -0.30533,2.51333 -4.08666,5.544 -5.856,6.62 -2.592,1.57599 -5.512,2.48666 -8.48,3.04399 -0.368,0.0693 -0.73333,0.12534 -1.09866,0.17867 -0.12267,-0.0227 -0.23867,0.001 -0.34534,0.048 z m 13.404,-9.652 c -1.14933,0.92 -2.40266,1.72667 -3.66533,2.50667 0.964,-1.14133 1.83067,-2.388 2.71333,-3.55867 1.93734,-2.57333 3.92134,-5.20933 4.47067,-8.38666 2.79867,3.15733 -1.14667,7.54133 -3.51867,9.43866 z m -0.528,-9.752 c 0.13467,4.73334 -2.916,9.408 -6.044,12.76 -0.49333,0.528 -1.036,1.02267 -1.612,1.48934 -0.0827,0.0427 -0.15733,0.0947 -0.24,0.136 -0.14266,0.068 -0.23066,0.16933 -0.29466,0.28 -0.62667,0.46666 -1.304,0.88933 -2.00267,1.288 -1.63467,0.59066 -3.304,0.99466 -5.09333,1.24266 0.728,-0.44133 1.444,-0.91733 2.144,-1.424 2.80266,-1.82533 5.24266,-4.04133 6.92266,-6.24133 0.96534,-1.26267 1.63334,-2.548 2.03734,-3.828 1.95333,-4.13467 2.46133,-8.832 0.28133,-13.224 -0.184,-0.37067 -0.41733,-0.748 -0.68933,-1.12533 2.6,2.22666 4.49333,5.22533 4.59066,8.64666"
           style="fill:#000000;fill-opacity:1;fill-rule:nonzero;stroke:none;stroke-width:0.133333" />
        <path
           id="path134"
           d="m 790.97465,383.35736 c 1.532,1.33733 3.54,2.23333 5.42666,2.94267 1.14667,0.43066 3.096,1.46533 4.35867,1.06133 0.192,-0.0627 0.26267,-0.34533 0.132,-0.49467 -1.008,-1.164 -2.028,-2.236 -2.956,-3.47866 -1.25867,-1.68534 -1.22133,-3.17734 -1.18267,-5.19867 0.0107,-0.61733 -0.13733,-1.248 0.296,-1.70267 0.548,-0.57733 1.09067,-0.148 1.872,-0.0493 1.24667,0.15867 2.48267,-0.003 3.72,-0.18133 3.096,-0.44667 5.468,-2.00534 7.904,-3.892 1.23067,-0.95334 2.32267,-1.96267 3.26,-3.20667 0.57467,-0.76133 1.328,-1.628 1.29467,-2.62133 -0.008,-0.24534 -0.34,-0.35467 -0.516,-0.212 -2.024,1.63333 -4.01867,2.48 -6.60267,2.84133 -2.32266,0.324 -4.83866,0.196 -7.184,0.0813 -2.23866,-0.10933 -4.36533,-0.68266 -6.57866,-0.944 -2.32267,-0.27466 -4.57067,-1.28 -6.672,-2.29066 -4.01334,-1.93334 -8.12,-4.02933 -12.55867,-4.76 -2.004,-0.33067 -4.088,-0.53067 -6.10933,-0.24133 -0.96267,0.13866 -2.59334,0.10666 -3.472,0.72933 -0.0973,-0.056 -0.21734,-0.0613 -0.32934,0.036 -0.08,0.0693 -0.16,0.13867 -0.24,0.208 -0.176,0.15467 -0.16933,0.47067 0.076,0.55733 1.61734,0.572 3.292,0.0813 4.968,0.16133 2.44534,0.11867 4.928,0.97867 7.164,1.98934 2.25067,1.016 4.56667,3.05733 6.012,5.03333 0.88134,1.20533 1.5,2.43333 1.532,3.95067 0.0347,1.61466 -0.48266,2.50666 -1.64933,3.576 -0.196,0.17866 -0.14667,0.43333 0.076,0.556 1.45067,0.80666 3.872,0.36266 5.27467,-0.44134 0.784,-0.44933 1.25466,-1.08266 1.696,-1.86 0.35466,-0.62666 0.41733,-1.308 0.60533,-1.94666 0.856,1.748 -1.53467,4.17733 -1.64533,5.82933 -0.10534,1.57733 0.89333,2.97733 2.028,3.968"
           style="fill:#000000;fill-opacity:1;fill-rule:nonzero;stroke:none;stroke-width:0.133333" />
        <path
           id="path135"
           d="m 734.66931,373.41469 c -0.17733,1.228 -0.58533,2.37467 -1.092,3.484 0.292,-1.14666 0.41067,-2.336 0.30667,-3.61733 -0.464,-5.67067 -2.86533,-12.14533 -9.008,-13.544 -1.00133,-0.228 -2.19066,-0.152 -3.336,0.14934 1.396,-0.824 3.01734,-1.24534 4.624,-1.004 3.284,0.496 5.50267,3 7.02267,5.75466 1.556,2.81867 1.94,5.596 1.48266,8.77733 z m -8.13333,13.024 c 2.11334,-0.66 3.72,-2.93066 4.90134,-4.872 0.15333,0.068 0.36533,0.0413 0.468,-0.14666 1.82933,-3.30934 3.43199,-6.20267 3.57866,-10.05734 0.12667,-3.32666 -0.93467,-6.168 -2.85733,-8.88399 -1.704,-2.40667 -4.33733,-4.29734 -7.392,-4.31867 -2.15067,-0.0147 -4.288,1.052 -5.816,2.59067 -0.52533,0.304 -0.99467,0.66 -1.37067,1.056 -1.432,1.50666 -2.03466,4.24933 -0.98,6.14533 0.8,1.43733 2.65334,2.03866 3.776,0.65466 0.668,-0.824 0.50534,-1.72266 -0.27333,-1.80133 0.77333,-0.60133 2.65067,-0.67467 3.332,-0.68267 1.432,-0.0173 2.51733,0.424 3.608,1.34667 1.80667,1.52933 3.4,3.97333 3.74133,6.336 0.36934,2.55733 -0.708,5.148 -2.42,6.98 -1.16,1.24133 -2.81866,3.21333 -4.588,4.05867 -0.30666,-1.16 -2.07733,-1.172 -2.33733,0.0787 -0.392,1.89067 3.60667,1.836 4.62933,1.516"
           style="fill:#000000;fill-opacity:1;fill-rule:nonzero;stroke:none;stroke-width:0.133333" />
        <path
           id="path136"
           d="m 741.02665,371.01203 c -0.91467,0.77733 -1.77067,1.564 -2.58134,2.35466 0.42534,-0.53466 0.83867,-1.056 1.18,-1.684 0.65467,-1.20266 1.29467,-2.39466 2.36,-3.29333 1.68267,-1.42133 3.93867,-2.41467 5.932,-3.33467 4.00934,-1.852 8.21067,-2.91599 12.63867,-2.86799 4.7,0.0507 8.68933,1.47866 12.55067,4.15999 2.04133,1.41867 3.904,3.14667 5.53066,5.024 0.37467,0.432 2.00934,2.24134 2.632,3.59334 -0.44533,-0.70134 -0.93333,-1.368 -1.41333,-1.98934 -4.69067,-6.07466 -13.608,-8.10666 -14.17467,-8.03866 -7.07333,-1.74267 -16.05333,-1.25067 -24.65466,6.076 z m -13.716,26.90133 c 6.74,-27.328 22.70933,-31.12533 36.96933,-25.48267 13.41067,5.30667 10.92133,11.528 9.67867,14.23467 -1.24267,2.708 -4.60134,2.592 -3.88267,1.11067 0.71867,-1.48267 -0.66533,-2.33067 -0.66533,-2.33067 -2.40667,-3.244 -8.68534,-1.11333 -6.94134,4.87333 1.56667,5.37467 10.032,6.17334 16.03067,1.01867 0.068,0.005 0.14,-0.0147 0.208,-0.0827 0.28,-0.27866 0.54667,-0.57333 0.80667,-0.87466 0.31733,-0.32667 0.62666,-0.66534 0.92266,-1.02934 0.65467,-0.804 1.11467,-1.668 1.42667,-2.56533 1.176,-2.48933 1.66533,-5.28533 1.072,-8.05067 -0.176,-0.81733 -0.48933,-1.61866 -0.88,-2.392 0.34533,-0.88266 -0.46133,-1.93066 -0.92,-2.66133 -1.42,-2.26133 -3.25733,-4.21733 -5.25467,-5.98 -3.768,-3.32533 -8.42133,-5.752 -13.48,-6.09333 -4.78,-0.32133 -9.38933,0.53467 -13.784,2.42666 -2.22,0.95467 -4.6,2.06134 -6.568,3.488 -0.95333,0.692 -1.69466,1.576 -2.296,2.58267 -0.756,1.26267 -1.47733,2.38933 -2.36,3.55733 -0.176,0.23334 0.0267,0.48934 0.24934,0.50934 -12.37333,12.616 -12.612,16.94133 -15.768,21.84133 -3.42133,5.312 -7.61067,-2.52933 -7.61067,-2.52933 -6.76666,2.77333 6.30667,31.756 13.04667,4.42933"
           style="fill:#000000;fill-opacity:1;fill-rule:nonzero;stroke:none;stroke-width:0.133333" />
        <path
           id="path137"
           d="m 731.34932,379.37869 c 0.34933,0.0453 0.68266,-0.056 1,-0.244 0.0173,-0.0493 0.044,-0.096 0.0933,-0.136 0.152,-0.12133 0.31467,-0.22133 0.48133,-0.31466 0.85733,-0.84 1.54133,-2.22134 1.94133,-2.96667 0.77334,-1.44267 1.612,-3.00667 1.648,-4.66933 0.036,-1.65867 -0.23466,-3.524 -0.84,-5.08134 -0.50933,-1.30933 -1.91733,-2.86266 -3.37999,-3.15466 -0.005,-10e-4 -0.008,-0.005 -0.0133,-0.005 -0.0987,-0.28799 -0.23466,-0.55466 -0.416,-0.78933 0.004,0 0.007,-0.003 0.009,-0.004 2.01866,-0.40533 3.94799,-0.16666 5.46933,1.36133 1.37733,1.38267 1.916,3.31334 1.744,5.22267 -0.19867,2.216 -0.496,4.752 -1.70267,6.67733 -0.62133,0.992 -1.424,1.876 -2.288,2.664 -0.48667,0.444 -1.00267,0.73334 -1.516,1.03867 -0.62,0.70933 -1.37866,1.24933 -2.31333,1.09333 -0.44133,-0.0733 -0.364,-0.75066 0.0827,-0.692"
           style="fill:#000000;fill-opacity:1;fill-rule:nonzero;stroke:none;stroke-width:0.133333" />
        <path
           id="path138"
           d="m 726.62265,372.26936 c 0.076,0.0613 0.15333,0.0773 0.22667,0.0707 0.30666,0.10533 0.62533,0.116 0.93066,-0.06 0.168,-0.096 0.31334,-0.348 0.14134,-0.524 -0.776,-0.6 -0.408,-1.23067 1.10266,-1.89467 0.71334,0.44667 1.19867,1.04267 1.456,1.78933 0.28667,0.61734 0.448,1.31334 0.65867,1.95867 0.13467,0.41333 0.75067,0.15067 0.62,-0.25733 -0.544,-1.70534 -1.21733,-4.512 -3.576,-4.35467 -1.52533,0.10133 -1.764,1.668 -1.14267,2.74267 -0.003,-0.003 -0.004,-0.007 -0.008,-0.0107 -0.0787,-0.0653 -0.15333,-0.144 -0.22533,-0.228 -0.69067,-0.856 -0.19867,-2.27333 0.364,-3.22267 0.22267,-0.29866 0.44133,-0.60266 0.68667,-0.88266 0.12133,-0.136 0.376,-0.30667 0.42133,-0.508 0.24667,-1.10934 -1.54133,-1.05467 -2.03467,-0.46667 -0.092,0.10933 -0.0947,0.22 -0.052,0.31333 -1.108,1.23334 -1.76266,2.52267 -0.904,4.12534 0.24267,0.45333 0.724,1.04666 1.276,1.35466 0.02,0.0173 0.0373,0.0373 0.0587,0.0547"
           style="fill:#000000;fill-opacity:1;fill-rule:nonzero;stroke:none;stroke-width:0.133333" />
        <path
           id="path139"
           d="m 795.80931,366.94803 c 0,0 12.908,2.49333 17.168,-2.588 4.26,-5.08133 1.03867,-6.71333 0.0627,-5.42667 -0.976,1.28667 -4.57067,8.69733 -17.23067,8.01467"
           style="fill:#000000;fill-opacity:1;fill-rule:nonzero;stroke:none;stroke-width:0.133333" />
        <path
           id="path140"
           d="m 718.82665,406.46403 c -4.08667,0 -7.4,-3.31334 -7.4,-7.4 0,-4.088 3.31333,-7.4 7.4,-7.4 4.08667,0 7.4,3.312 7.4,7.4 0,4.08666 -3.31333,7.4 -7.4,7.4"
           style="fill:#000000;fill-opacity:1;fill-rule:nonzero;stroke:none;stroke-width:0.133333" />
        <path
           id="path141"
           d="m 698.02532,369.63469 c 0,0 -23.38667,-23.19466 -46.77467,-9.42533 0,0 23.388,-21.15866 46.77467,9.42533"
           style="fill:#000000;fill-opacity:1;fill-rule:nonzero;stroke:none;stroke-width:0.133333" />
        <path
           id="path142"
           d="m 739.25065,370.96803 c 0,0 23.388,-23.19467 46.77466,-9.42533 0,0 -23.38666,-21.15867 -46.77466,9.42533"
           style="fill:#000000;fill-opacity:1;fill-rule:nonzero;stroke:none;stroke-width:0.133333" />
      </g>
    </g>
  </g>
</svg>
